<svg xmlns="http://www.w3.org/2000/svg" width="1140" height="235" viewBox="0 0 1140 235">
  <defs>
    <style>
      .cls-1 {
        fill: #54329e;
      }

      .cls-2 {
        fill: #8c7dcc;
      }
    </style>
  </defs>
  <g id="start_screen_title">
    <g>
      <rect class="cls-1" x="19.4" y="15.5" width="1118.82" height="218" rx="102.92"/>
      <rect class="cls-2" x="1.79" y="1.5" width="1118.82" height="218" rx="102.92"/>
      <g>
        <path d="M127.44,106.25l-.42,1.23-4.2.39-2.74,1.41-1.82.2-2.31,1-2.31.74a10.42,10.42,0,0,1-2.73,1.27v.48l-2.1.74-1.47,1.61h-1.55l-.77,1.56-1.61.73a3.75,3.75,0,0,0-1.54,1.08l-1.4,1.8a3,3,0,0,0-1.89,2.69l-.7-.2-.28.64-1,.49-1,1.71c-1,1-1.54,1.77-1.54,2.29l-1.33.39v2.1a2.47,2.47,0,0,0-.7,1.08l.28.34-1.4.39.41.78a12.51,12.51,0,0,1-2.17,3.61l.7,1.27-1.4,1.61a5.81,5.81,0,0,1,.28,1.52l-.28,1.61.63,1.76a3.16,3.16,0,0,0,.63.58l1,.73A6,6,0,0,1,89,147.56l-1.89-.48.28.87-3.15-.39v-1.31l-.42-.88.42-1.62-.42-.68.28-3.42-.28-2.29c-.65-.16-1-.36-1-.59s.33-.66,1-1.22v-1.46a7.68,7.68,0,0,0-.14-1.71l.56-.49-.56-1.9.42-1.52-.42-.93.42-2.68-.7-.78.42-.93-.84-2,.28-1.57a8.17,8.17,0,0,0-.28-1.8l.42-.49-.84-3.42-1.05-.49,1.05-1.71a4.46,4.46,0,0,1-1.47-3.32V107a2.88,2.88,0,0,1-.84-.93,8.39,8.39,0,0,1,3.57-1.61l1,.19A4.6,4.6,0,0,0,86.39,107l-.28,2.49,1.4,7.57a1.63,1.63,0,0,1-.84,1.31l.7,2.1L87,122l.42,1.61-.28,1.27,1,1.51-.63.3L88,129l1.12.2.49-2a7.09,7.09,0,0,1,1.68-1.76q1.83-1.11,1.83-2.49v-.58l.91-.29c.14,0,.25-.13.35-.37a.49.49,0,0,1,.49-.37h.42l.84-2,2.17-1,.14-.58h1L99,116.66l2.17-.69.14-1.22,2-.19a5.29,5.29,0,0,0,2.1-1.91l1.34-.19a13.15,13.15,0,0,1,2.59-1.81.82.82,0,0,0,.7-.29l2.31-.88.56-.73,1.26-.49c2.47-1.27,4.16-1.91,5-1.91h.56a3.7,3.7,0,0,0,2-.49l1.27.3a3.77,3.77,0,0,1,1.61-.49A10.13,10.13,0,0,1,127.44,106.25Z"/>
        <path d="M170.59,136.38c.7.75,1,1.3,1,1.66s-.43.82-1.3,1.66a9.85,9.85,0,0,0-2,2.69l-1,.1-1.55,2.09-1.75.2-3.85,1.81-.7,1.07-1.19-.1-1.26,1h-2l-.42.49-1-.1a4.17,4.17,0,0,0-2.74,1l-.91-.49a8.14,8.14,0,0,1-2.38.49,5.92,5.92,0,0,1-2.59-.49,15.31,15.31,0,0,1-1.89.1l-.84-.49q-3.85-.15-5.18-1.52v-1.22l-2.32-.88-.56-1a4.64,4.64,0,0,0-1.54-1.27v-.78L131,137.65l.28-3.37.56-1.9v-2.1l.77-1.81-.28-1.32a2,2,0,0,0,1-1.1,5.21,5.21,0,0,1,.84-1.48,22.3,22.3,0,0,1-.56-2.49l1.26-.74-1.26-1c.66-.75,1-1.22,1-1.42l-.7-3a5.54,5.54,0,0,1,.42-2.1,2.55,2.55,0,0,0,1.89.88,21.86,21.86,0,0,0,2.74-.39,1.45,1.45,0,0,1-.14-.68c0-.46.37-.87,1.12-1.22a16.65,16.65,0,0,1,3.15-4.59,2.23,2.23,0,0,0,1.33-2h.7l.7-1,.84-.25a4.24,4.24,0,0,1,1.47-1.46,9.36,9.36,0,0,0,3.86-2.3,4.2,4.2,0,0,0,1.19.1c.14,0,.51-.37,1.12-1.12,1.63-.39,2.49-.59,2.59-.59a1.88,1.88,0,0,1,1.26.59l1.33-.2.7.39H161a2.88,2.88,0,0,0,2.87,1.62h.42a1.69,1.69,0,0,0,.91,1l-.63.2c1.64.55,2.46,1.84,2.46,3.85l-.43,1.13.43,2.78-.71.44-1.61,3-2.87,2.49-.14,1.41a47.94,47.94,0,0,1-8.4,4,.94.94,0,0,1-.91.58,6.28,6.28,0,0,1-1.13-.19l-3.15,1.51h-1.89l-2.73.88-1.19-.49a15.37,15.37,0,0,0-2.94-.39,4.24,4.24,0,0,0-2.17,3.66l-1,.83a8,8,0,0,1-.7,2.59l-.77.29.77,3.62-.77.49.14,1.12-.14,1.37a13.09,13.09,0,0,0,.35,1.85c.24,1,.61,1.6,1.12,1.76-.23.46.23,1,1.37,1.66a12.18,12.18,0,0,0,3.68,1.37v.58l3.71.39,5.32.2,3.58-.29a17.36,17.36,0,0,1,3.15-1.32l1.12-1.17h1.33l.14-.49a16,16,0,0,0,3.4-1,.72.72,0,0,0,.31-.52,1.45,1.45,0,0,1,1.26-.58l.42-.64c2.11-.22,3.41-1.18,3.93-2.88A3.37,3.37,0,0,1,170.59,136.38Zm-11.77-22.8a4.54,4.54,0,0,0,1.89-1.22l.42-1.17a18.77,18.77,0,0,0,2-2.62,3,3,0,0,0,.28-1.39,8.46,8.46,0,0,0-1-2.93l-2.87-.68a10.92,10.92,0,0,1-1.47.19l-.84-.19a1.49,1.49,0,0,0-1.47.88,15.65,15.65,0,0,0-3.85.73l-.42.68a1.88,1.88,0,0,0-.57-.09,1.17,1.17,0,0,0-.38,0,1.15,1.15,0,0,0-.32.14l-.28.22a1.16,1.16,0,0,0-.24.32l-.21.41-.21.44a3.78,3.78,0,0,1-.88.86l-1,.88-2,2.68-1.05.64a2.07,2.07,0,0,0-.77,1.27q-.28,1-3.78,4.68l1,.39.49.83,2.38.49a15.09,15.09,0,0,1,4.34-1.32l.42-.58a5.19,5.19,0,0,0,1.12.19,1.92,1.92,0,0,0,1.33-.58l1.69-.2,1-1.22h1l.7-1.07a6,6,0,0,0,3.57-1.22Z"/>
        <path d="M231.6,137.65l-1,.78a22.54,22.54,0,0,0-1.89,3l-2,1,.13.58h-1.89l-1.82,1.42h-2.45l-1.61.58a2.77,2.77,0,0,0-1.54.59,6,6,0,0,0-1.89-.29,6.68,6.68,0,0,0-1.82.29v.59l-2.6-.2-2,.2-1.89-.2-.28.29-.7-.29-1.26.29h-.91a9.51,9.51,0,0,0-2.1.25l-1.47-.34-1.12.53-.56-.44-1,.44a8.46,8.46,0,0,0-3-.73,4.43,4.43,0,0,0-1.26.29,8.77,8.77,0,0,0-2.45-.44l-3.15-.24a10.76,10.76,0,0,0-2.31.19l-.28-.39-1.26.59a1.48,1.48,0,0,0-1.05-.39l-.42-.59c-2.95-.09-4.42-1.56-4.42-4.39l3-.29-.14-.74.7-.68.43.59h.84V140l1.33-.48c.74.09,1.12.34,1.12.73a1.84,1.84,0,0,1-.42.88l1.26.09v1.52l3.64.39,1.4.88.42-.49,18.35-.78,6.31-.83.35-.49,1.54-.2.42-.39a19.08,19.08,0,0,0,5.74-1.61l.42.3.28-.59,1.06-.59.14-.34-.71-.68.29-.88-1.62-.93-.28-.78a3.29,3.29,0,0,1-1.4-.59l-.63.2-1.4-.93h-.56l-.63-.58h-1.4a1.67,1.67,0,0,0-1.61-.79l-1,.1a8.9,8.9,0,0,1-4.28-1h-1.47l-1.82-.78-.91.39-.42-.49h-1l-1.61-.93-4.27-1.27-1.61-1-4.84-.59-.14-.29-4.06-2L187.26,121l-1.47-1.56-.42-4.64.42-.49a4.69,4.69,0,0,1,1.47-3.42c1.77-.71,2.68-1.41,2.73-2.09l1,.09a6,6,0,0,1,2.66-2.39l1.75-1.07,8.34-2.49,4.2-.54,4.14-.88,6.44.29.28.59h.42a3,3,0,0,1,1.89.54v.87l1.75.88a20,20,0,0,0-.77,2.64c0,.59-.42.88-1.26.88-.37,0-1.05-.7-2-2.1l-3.85-.2-1,.2a12.19,12.19,0,0,0-2.59-1.17c-.28,0-.43.1-.43.29l-1.33.68a7.51,7.51,0,0,0-3.85.88A7.53,7.53,0,0,0,202,108h-1.61l-1.19.64a15.66,15.66,0,0,1-2.81.68l-.55.49-.78.29-2,1.32-1.33,1.47c-1.35.62-2.05,1-2.1,1.22l-1.47,4.1.7.29v.29c0,1.11.77,2.06,2.31,2.84v.49l3.85,1.61H196l2.11,1.46H201l1.75,1,3.29.29,1,.59,6.17,1.31c0,.39.35.59,1,.59a8.66,8.66,0,0,1,3.22.59,10.85,10.85,0,0,0,2.8.73l.14.49,1.26.48h2.73l2.45,1.13a3.65,3.65,0,0,0,1.9,1.8l-.14.3.7.68,1.26.2-.56.73A3.49,3.49,0,0,1,231.6,137.65Z"/>
        <path d="M293.38,129.45l-2.24,1.71a5,5,0,0,1-.28,1.36,3.21,3.21,0,0,1-.49,1.08,6.09,6.09,0,0,1-1.05.93,9,9,0,0,0-1.4,1.71,14.22,14.22,0,0,1-1.68,1.85,12.74,12.74,0,0,1-2,1.56,19.36,19.36,0,0,1-2.45,1.27,17.35,17.35,0,0,0-3.5,1.76l-1.19.15a11.59,11.59,0,0,0-2.66,1.22l-1.61.1-3.3,1.7-1.12-.48-3,1-2.87-.49-.84.74-1.75-.25-1.68.25-.49-.34-2-.25a5.45,5.45,0,0,1-2-.63l-2.31-1.32-2.1-2.2a3.3,3.3,0,0,1-1.47-2.68v-.4l-1.54-1.7v-1.52l-.63-.58.28-2-.56-1.61.91-1.56-.63-.73,1.47-1.61-.42-2.1.35-.88a3.53,3.53,0,0,1,1.33-2l.14-2.3,1-.59-.42-.63,1-1a28.06,28.06,0,0,1,3-6.3l2.46-1.7.7-1.22,1.12-1.37a4.86,4.86,0,0,1,1.47-2.2,5.61,5.61,0,0,0,2.87-.83c-.1-1.11,1.33-1.66,4.27-1.66a15.65,15.65,0,0,1,2.73.49,4,4,0,0,1,2.74,1.61c1.44,0,2.17.36,2.17,1.07l4.13.1.14.93.84.68-.14,1.18,1.05.92-.14,1.27.28.73-.28,2,.7.68v1l.42,2.1-2.87,1.07-3-2.49-.28-3.22-.56-1.18v-1.22L272.37,109a14,14,0,0,0-3.23-1.76l-2,.59h-1.75a8.7,8.7,0,0,0-3.05.83,10.49,10.49,0,0,0-3.25,2.9,10.1,10.1,0,0,1-3,2.76l-.14,1.42-1.2.68v2l-1.4,1.32-.56,1.37a7.85,7.85,0,0,0-1.15,2.34c-.26.85-.5,1.3-.74,1.37l.14,1.61-1.26,2.1.28,1.51-.56.1-.14,3.81-.28.1.28.88-.63.39,2.1,1.71a4,4,0,0,1,.77,1.61l-.42.29,1.47,1.42,1.12.29.14,1,7.64,1.22a3.11,3.11,0,0,1,1.82-.74,9.75,9.75,0,0,1,1.47.25,4.77,4.77,0,0,1,2-.64l1.05.1a8.32,8.32,0,0,0,1-.41,7.27,7.27,0,0,1,2.74-.47,3.54,3.54,0,0,1,3-1.71,5.5,5.5,0,0,1,1.12.1c2.43-.72,3.64-1.35,3.64-1.9.51-.72,1.52-1.08,3-1.08h.56c3.93-3,5.79-4.67,5.61-4.93a6.27,6.27,0,0,0,2.45-2.78l1.26-.59.14-1.32C293.05,127.12,293.38,128,293.38,129.45Z"/>
        <path d="M371.76,140.58c.66-.06,1.43-.1,2.32-.1s1.54.26,1.54.78-.52,1-1.54,1.52l-1.06.39-.7.54a13.66,13.66,0,0,1-2.45,1.07l-2.31.49c-.56.39-2.13.58-4.69.58a15.43,15.43,0,0,1-2.1-.39,9.28,9.28,0,0,1-2.25-.68l-4.69-2.93-1.05-3.08-1.4-.92v-.49a3.84,3.84,0,0,0-1-2.59l.14-2.39a12,12,0,0,0,.56-2.1,3.55,3.55,0,0,0-.84-2.2l.42-4.49-1.61.58-1,1.08-1.33.63a3.69,3.69,0,0,0-1.4,1.18l-1.27.09c-1.07.65-1.61,1.32-1.61,2a4.17,4.17,0,0,0-2.66,1.73,7.09,7.09,0,0,1-2.17,2.29,7.8,7.8,0,0,1-2.45,1.4,3.28,3.28,0,0,0-1.33.58l-4.13,3.52h-.43L326,141.46l-2.66,1-1.19,1.26a55.25,55.25,0,0,0-5.88,1.71l-2.18-1a4.12,4.12,0,0,1-1,.09c-.56,0-.84-.17-.84-.53a1,1,0,0,1,.14-.59l-1.47-.58a1.75,1.75,0,0,1,.49-1l-1.89-1.27,1.12-1h-1.54L308,137.65l1.05-.58-1.33-1.32c0-1.63.16-2.49.49-2.59l.07-1.71a5.28,5.28,0,0,1,.77-2.1l-1.19-.59a3,3,0,0,0,1.19-1.9,3.2,3.2,0,0,0-.7-1.61q.84-.3.84-1.56a8.72,8.72,0,0,0-.14-1.32l-.56-3.32,1.68-7a19.74,19.74,0,0,0-.7-3.81l-.56-1.71c0-1,.82-1.56,2.45-1.56l2.1.39,1.06.87-.64,2.1-.28,5,.28,3.18-1,1.61.56,1-.56,1.51V122c-.37.1-.49.3-.35.61a1.94,1.94,0,0,1,.21.66,1.54,1.54,0,0,1-.56,1.12l1,.88-1.4,1.22.84.88-.42,1.32.42,1.61v1.9l.84.69-.7,2.39a2.6,2.6,0,0,0,.84,1.51l-.42,1.08.7,1.41a14,14,0,0,1,3,1.91,5.73,5.73,0,0,0,2.73-1,23,23,0,0,1,3-1.71c0-.06-.19-.1-.56-.1,1.54-.48,2.31-1,2.31-1.61a10.88,10.88,0,0,0,2.31-.39l.28-1.22,1.4-.39a9.3,9.3,0,0,1,4.77-1.9l.14-1,2.59-1.51c.23-1.27,1.24-1.94,3-2l.56-1.31,1.26-.39,1.89-1.91h.84v-.59l1.33-.48.85-1.42c1.16-.42,2.31-.8,3.43-1.12l.56-1.08,1.05-.29v-.63l.56-.1c.23-1.6,1.05-2.39,2.45-2.39l-.42-.3,2.66-5.52h.63v-1.36h.14q.49,0,2.46-3.62l2.52-.19-.28.39,1.47,1.9-1.19,3.71-2.1,2.2-1.48,3.71-1.82.88v2.2l-1,1.42.28,1.61-1,.68.28,4.39-.56,5.42.42.59-.14.78H355v1.52q2.31,2.34,2.31,3l2,.35.42.87c1.31.4,2.46.77,3.44,1.13l1.89-.1,1.54.29,2.24-.63A14.56,14.56,0,0,0,371.76,140.58Z"/>
        <path d="M425.35,136.38c.7.75,1,1.3,1,1.66s-.43.82-1.3,1.66a9.85,9.85,0,0,0-2,2.69l-1.05.1-1.54,2.09-1.76.2-3.85,1.81-.7,1.07-1.19-.1-1.26,1h-2l-.42.49-1-.1a4.13,4.13,0,0,0-2.73,1l-.92-.49a8.14,8.14,0,0,1-2.38.49,6,6,0,0,1-2.59-.49,15.31,15.31,0,0,1-1.89.1l-.84-.49q-3.86-.15-5.18-1.52v-1.22l-2.32-.88-.56-1a4.64,4.64,0,0,0-1.54-1.27v-.78l-1.61-4.74.28-3.37.56-1.9v-2.1l.77-1.81-.28-1.32a2,2,0,0,0,1-1.1,5.21,5.21,0,0,1,.84-1.48,22.3,22.3,0,0,1-.56-2.49l1.27-.74-1.27-1c.66-.75,1-1.22,1-1.42l-.7-3a5.54,5.54,0,0,1,.42-2.1,2.57,2.57,0,0,0,1.9.88,22.06,22.06,0,0,0,2.73-.39,1.45,1.45,0,0,1-.14-.68c0-.46.37-.87,1.12-1.22a16.65,16.65,0,0,1,3.15-4.59,2.23,2.23,0,0,0,1.33-2h.7l.7-1,.84-.25a4.24,4.24,0,0,1,1.47-1.46,9.36,9.36,0,0,0,3.86-2.3,4.2,4.2,0,0,0,1.19.1c.14,0,.51-.37,1.12-1.12,1.63-.39,2.5-.59,2.59-.59a1.88,1.88,0,0,1,1.26.59l1.33-.2.7.39h.84a2.89,2.89,0,0,0,2.87,1.62H419a1.67,1.67,0,0,0,.92,1l-.64.2c1.64.55,2.46,1.84,2.46,3.85l-.42,1.13.42,2.78-.7.44-1.62,3-2.87,2.49-.14,1.41a47.94,47.94,0,0,1-8.4,4,.94.94,0,0,1-.91.58,6.08,6.08,0,0,1-1.12-.19l-3.16,1.51H401l-2.73.88-1.19-.49a15.37,15.37,0,0,0-2.94-.39,4.24,4.24,0,0,0-2.17,3.66l-1,.83a7.91,7.91,0,0,1-.71,2.59l-.77.29.77,3.62-.77.49.15,1.12-.15,1.37a13.09,13.09,0,0,0,.35,1.85c.24,1,.61,1.6,1.13,1.76-.24.46.22,1,1.36,1.66a12.18,12.18,0,0,0,3.68,1.37v.58l3.71.39,5.33.2,3.57-.29a17.36,17.36,0,0,1,3.15-1.32l1.12-1.17h1.33l.14-.49a15.8,15.8,0,0,0,3.4-1,.72.72,0,0,0,.31-.52,1.45,1.45,0,0,1,1.26-.58l.43-.64c2.1-.22,3.4-1.18,3.92-2.88A3.37,3.37,0,0,1,425.35,136.38Zm-11.77-22.8a4.54,4.54,0,0,0,1.89-1.22l.42-1.17a18.77,18.77,0,0,0,2-2.62,3,3,0,0,0,.28-1.39,8.46,8.46,0,0,0-1-2.93l-2.87-.68a10.92,10.92,0,0,1-1.47.19l-.84-.19a1.49,1.49,0,0,0-1.47.88,15.65,15.65,0,0,0-3.85.73l-.42.68a1.87,1.87,0,0,0-.56-.09,1.23,1.23,0,0,0-.39,0,1,1,0,0,0-.31.14l-.29.22a1.16,1.16,0,0,0-.24.32l-.21.41-.21.44a3.78,3.78,0,0,1-.88.86l-1,.88-2,2.68-1.05.64a2.07,2.07,0,0,0-.77,1.27q-.29,1-3.78,4.68l1,.39.49.83,2.38.49a15.09,15.09,0,0,1,4.34-1.32l.42-.58a5.19,5.19,0,0,0,1.12.19,2,2,0,0,0,1.34-.58l1.68-.2,1.05-1.22h1l.7-1.07a6,6,0,0,0,3.57-1.22Z"/>
        <path d="M487.62,107.87l9.88.29,9.45-.29,2.32.09,1-.09h5.18c1,0,1.47.29,1.47.88s-.77,1.12-2.31,1.31a2.92,2.92,0,0,0-1.19-.19,3.5,3.5,0,0,0-1.82.49l-2-.3-3.86.1a14.78,14.78,0,0,1-5.32,1l-2.73-.35-1.4.93h-1.33v-.58l-2.46.78h-1.26l-.42.88a29.43,29.43,0,0,0-4.2-.39.73.73,0,0,1-.7.58,1.73,1.73,0,0,1-.84-.39l-2,.2-1.4,1-.42,4.88.28,2.93-.42,3.76.14,4.2.42,2v1.8l1.68,2.49v.44c0,1.14,1,2.23,2.87,3.27l.42.83,2.59.39,1.89,1.42,5.33.68,7-1.12,2,.44,5-1.61,1.89.19c.65.46,1,.88,1,1.27s-.61,1-1.82,1.61l-1.05-.29-2.25,1.32-4.76.39-1.61.68-1.68-.68a14.37,14.37,0,0,1-5,.88l-2.88-.39h-1.54l-5.18-2.1L483,141.17l-1.68-1.32-2.6-4.79-1.19-4.49.64-1.81-1.2-1,.56-1.12-.56-1.81,1.48-.78-.64-.93.36-1.17-.64-1.32.28-1.91-.28-1,.64-.29v-3.62c-.29-.88-.68-1.32-1.2-1.32a1.11,1.11,0,0,0-.84.39l-1.61-.48-2.24.39L470,111.67h-1.19c-1.12,0-1.68-.43-1.68-1.31l.14-1.52-1-.49.56-.87,2.1.19,1.61-.19,2.31.48h6l.28-2.29v-2.3l-1-1.7,1.12-.59a3,3,0,0,0,.28-.73c0-.43-.38-.78-1.12-1.08l.27-3.9-1.19-1.22.28-.88c-.93-.13-1.4-.39-1.4-.78l1-2.64a7.33,7.33,0,0,0,1.33-1.37c2.85,1,4.28,1.55,4.28,1.71v.1l-.56,1a4.51,4.51,0,0,1,1,2.2v.29a3.1,3.1,0,0,0-.42,1.42.89.89,0,0,0,.42.78l-.14.83.14,1.08-1.26,1.41.84,2.49-.56,3,.56.59-.84.87,1.12,2.5h2.59Z"/>
        <path d="M579.73,144.78a4.5,4.5,0,0,1,.14,1.27c0,1.53-1,2.29-3.15,2.29-1.4,0-2.36-.83-2.87-2.49l-1-3.07v-.93a8.64,8.64,0,0,0,.14-1.66,4.06,4.06,0,0,0-1.47-2.64l1-1.61-.56-2.39.56-1.17v-1.61l.35-1.42-.63-1.56.63-.93v-3.71l.14-4.79-1-3.17.56-1.32-1.26-3.81v-1.22l-2.31-.68-2.6,1.66a6.85,6.85,0,0,1-1.4.63l-2.45.74-4,4-1.61.29-3.57,4.1v.49h-1l-.42.88-1.54,1a4.24,4.24,0,0,0-1.33,1.9l-1.47,3.47-2.17,2a4.68,4.68,0,0,0-1,1.66l-1.4.93-.63,2.59-3,2-.28,2.78h-.57l-1,1.91-2.31,2.88A20.91,20.91,0,0,0,532,147l-.7-.2h-.91l-.42-.53-1.26-3.37-.28-5.52-.42-1.61.42-2-.14-3.47.7-.2,1-8.49.42-1.61-.14-1.23.77-.29-.35-.68.63-3.52.7-1.41-.42-1.47.42-.73-.42-.59.42-3.32-.7-.49.42-.68-.14-3.81-.91-1.71h.91v-.88l-1.33-4.1v-2l-.56-.93L529,89a16,16,0,0,0-2.31-4.1l1.61-1.61L528,83c1.12,0,1.68.41,1.68,1.22l2,1.27.56,1.18A7.17,7.17,0,0,0,534,88.29l-.35.88.91,1.8-.91.88,1.33.73-.14,2.59.14,5,.84,2.54-.56,1.07.14,1.91-.56,1.61.42,2.49-1,2.49.56.68-.28,6.11.28.93-.56.48-.63,3.71-.7,1.08.56,1.22-.28.59-.28,3.32-1.4,2.88c1,.84,1.54,1.41,1.54,1.71L532,136.38a4,4,0,0,1,.7,2.39L534,138l.56-1.27,2.24-3.22,1.05-2.3c1.55-.32,2.32-1,2.32-2.09a10.1,10.1,0,0,0,2.1-2.4l.63-1.27a5.29,5.29,0,0,1,1.4-1.61l.14-1.32-.42-.29,1-.59.28.3,2.31-2c.75-.26,1.12-.67,1.12-1.23v-.39q1.89-.19,1.89-1.8l.42-.2v-.49l1.19-.19.14-1.32h1l-.15-.78h1v-.64a4.58,4.58,0,0,1,1.19-.48c.09,0,.14.06.14.19v.2l.14-.88h.42c1.12,0,1.68-.64,1.68-1.91l1.75-1,.28.39a3.62,3.62,0,0,0,1.33-2l1-.3.42-.83,1.12-.1a4.13,4.13,0,0,1,1.61-.51,10.16,10.16,0,0,0,1.12-.17l-.28-.39a16.45,16.45,0,0,1,3.58-1.12,3.92,3.92,0,0,1,2.31,1.32q1,.09,1,.87l1.26.74c0,.45.77,1.58,2.31,3.37v7.81l-.28,4.1.56,1v7.32l-.28,1.32v2.49l.28,2.1L576.3,139c.37.26.65,1.25.84,3l1.4,1.22v1.22Z"/>
        <path d="M637,136.38c.7.75,1,1.3,1,1.66s-.43.82-1.29,1.66a9.9,9.9,0,0,0-2,2.69l-1.05.1-1.54,2.09-1.75.2-3.86,1.81-.7,1.07-1.19-.1-1.26,1h-2l-.42.49-1-.1a4.13,4.13,0,0,0-2.73,1l-.91-.49a8.21,8.21,0,0,1-2.38.49,6,6,0,0,1-2.6-.49,15.07,15.07,0,0,1-1.89.1l-.84-.49q-3.86-.15-5.18-1.52v-1.22l-2.31-.88-.56-1a4.76,4.76,0,0,0-1.54-1.27v-.78l-1.62-4.74.28-3.37.56-1.9v-2.1l.78-1.81-.29-1.32a2,2,0,0,0,1-1.1,5.21,5.21,0,0,1,.84-1.48,18.54,18.54,0,0,1-.56-2.49l1.26-.74-1.26-1c.65-.75,1-1.22,1-1.42l-.7-3a5.54,5.54,0,0,1,.42-2.1,2.55,2.55,0,0,0,1.89.88,22.06,22.06,0,0,0,2.73-.39,1.59,1.59,0,0,1-.14-.68c0-.46.37-.87,1.12-1.22a17.1,17.1,0,0,1,3.15-4.59,2.23,2.23,0,0,0,1.33-2h.7l.7-1,.84-.25a4.2,4.2,0,0,1,1.48-1.46,9.4,9.4,0,0,0,3.85-2.3,4.2,4.2,0,0,0,1.19.1c.14,0,.51-.37,1.12-1.12,1.63-.39,2.5-.59,2.59-.59a1.88,1.88,0,0,1,1.26.59l1.33-.2.7.39h.84a2.89,2.89,0,0,0,2.88,1.62h.42a1.66,1.66,0,0,0,.91,1l-.63.2c1.63.55,2.45,1.84,2.45,3.85l-.42,1.13.42,2.78-.7.44-1.61,3-2.87,2.49-.15,1.41a47.6,47.6,0,0,1-8.4,4,.94.94,0,0,1-.91.58,6.08,6.08,0,0,1-1.12-.19l-3.15,1.51h-1.9l-2.73.88-1.19-.49a15.37,15.37,0,0,0-2.94-.39,4.24,4.24,0,0,0-2.17,3.66l-1,.83a8.22,8.22,0,0,1-.7,2.59l-.77.29.77,3.62-.77.49.14,1.12-.14,1.37a11.67,11.67,0,0,0,.35,1.85c.23,1,.6,1.6,1.12,1.76-.24.46.22,1,1.36,1.66a12.28,12.28,0,0,0,3.68,1.37v.58l3.71.39,5.33.2,3.57-.29a18,18,0,0,1,3.15-1.32l1.12-1.17h1.33l.14-.49a15.8,15.8,0,0,0,3.4-1,.73.73,0,0,0,.32-.52,1.45,1.45,0,0,1,1.26-.58l.42-.64q3.15-.33,3.92-2.88A3.42,3.42,0,0,1,637,136.38Zm-11.77-22.8a4.42,4.42,0,0,0,1.89-1.22l.42-1.17a20.13,20.13,0,0,0,2-2.62,3.15,3.15,0,0,0,.28-1.39,8.55,8.55,0,0,0-1-2.93l-2.87-.68a10.55,10.55,0,0,1-1.47.19l-.84-.19a1.49,1.49,0,0,0-1.47.88,15.73,15.73,0,0,0-3.85.73l-.42.68a1.87,1.87,0,0,0-.56-.09,1.23,1.23,0,0,0-.39,0,1.09,1.09,0,0,0-.31.14l-.28.22a1,1,0,0,0-.25.32l-.21.41-.21.44a3.88,3.88,0,0,1-.87.86l-1.05.88-2,2.68-1,.64a2.11,2.11,0,0,0-.77,1.27c-.18.65-1.45,2.21-3.78,4.68l1,.39.49.83,2.38.49a15.15,15.15,0,0,1,4.35-1.32l.42-.58a5,5,0,0,0,1.12.19,1.94,1.94,0,0,0,1.33-.58l1.68-.2,1.05-1.22h1l.7-1.07a6,6,0,0,0,3.57-1.22Z"/>
        <path d="M764.8,138.77l-.77,1.08a4.44,4.44,0,0,1-1.12,3.32c-1.17.68-1.76,1.22-1.76,1.61-.28.46-.7,1.06-1.26,1.81l-1.26.73a3.25,3.25,0,0,0-1.19,1.37l-4.69,1.75a32.66,32.66,0,0,1-5,.64l-2.18-.73h-1.68l-1.47-.78-1.54-.1-5.18-1.91-11.49-7.27-2.87-3.13L719,135.75a11.77,11.77,0,0,0-2.25-2.2,14.44,14.44,0,0,1-2.73-2.22,8.46,8.46,0,0,0-3.92-2.17l-2.73-3.81a22.93,22.93,0,0,1,1-3.08l2.73,1.32,1.54,1.17a37.91,37.91,0,0,0,4.34,2.1h1.83l.77.49a7.11,7.11,0,0,1,1.4-.1,5,5,0,0,1,1.61.29,13.93,13.93,0,0,1,4-1.19c1.65-.28,3-.55,4-.81l.7-1h3.23c0-.3.32-.53.84-.71a7,7,0,0,1,.84-.27h.42a3.08,3.08,0,0,0,3-2.44,21.61,21.61,0,0,0,2.59-1l.91-.63a10.24,10.24,0,0,0,2-2.2h.28c.94,0,1.89-1.24,2.88-3.71h.7l.28-.73-.28-1.66.28-1.71q0-1.12-4.14-2.49a2.13,2.13,0,0,0-1.89-.93h-.42l-.84-.49c-2-.1-4.07-.25-6.2-.46s-3.4-.32-3.82-.32a14.59,14.59,0,0,0-5.74,1.46,25,25,0,0,0-3.78.3l.21.19a13.13,13.13,0,0,0-1.61.3,14.69,14.69,0,0,0-1.51.46c-.49.18-1,.41-1.68.68a10.59,10.59,0,0,1-1.72.61l-1.82.49-5,2.88-5,3.81v.69L701.82,120l-1.19,2.19q-2.31,2.64-2.31,4.1a1.82,1.82,0,0,0,.63,1.27,1.06,1.06,0,0,1-.77,1.13,2.94,2.94,0,0,0-1,2.1l.14.88a3,3,0,0,1-.42,1.51,6.66,6.66,0,0,0-1.61,1.71l.63,1.8-.63,2.1.35,1.52a4.92,4.92,0,0,0-1,3.07V144a2.86,2.86,0,0,1,.28.73c0,.78-.87,1.34-2.59,1.66a2.5,2.5,0,0,1-1.82-1.9l-.56-1.27.42-1.71-.42-3.91.42-.88v-3.8l.14-1.32v-1.17a33.3,33.3,0,0,1,.28-4.64c.18-1.34.28-2,.28-2v-1.61l.28-.93v-2.79l.42-1.07-.42-1.42.42-3.41v-4.11l-.42-1.36.7-.93-.28-1.07-.42-5.72-1-3.32v-.78l.7-3.71-.56-1.61-.14-2.49a10.93,10.93,0,0,1-.28-1.91c0-1.33,1.09-2,3.29-2l.42.73.84-.34-.28,1.61.7,2.84-1,3,.28,3.91.7,1.61-.42,1.56.28,2.74-.56,2.1.7,2-.42.68.7,1.42-.42,2.49-.56,7.08a8.54,8.54,0,0,1,.28,1.51l-.28,1.42.28,1.9a3.35,3.35,0,0,1-.56,1.91,6.38,6.38,0,0,0,2,1l1.68-2.49-.14-.49q0-.59,2.77-4.91a28.33,28.33,0,0,1,6-6.91c.65-.1,1-.26,1-.49s-.1-.27-.28-.44a28.26,28.26,0,0,0,4-1.83,9.68,9.68,0,0,1,1-.68,9.8,9.8,0,0,1,1.19-.54,6,6,0,0,1,1.19-.34,2.57,2.57,0,0,0,1-.37,11.65,11.65,0,0,1,1.44-.66,27.31,27.31,0,0,1,3-.85q1.19-1.17,5.88-1.61l5.53-.49,10.09.49,1.54.63a10.87,10.87,0,0,0,2.45.49,56.76,56.76,0,0,0,5.61,3.57c0-.1-.14-.3-.42-.59l2,3.22-.35.78a2.24,2.24,0,0,1,1,1.61c0,.53-.54,1.26-1.61,2.2v.88l-1.54,3.42-2.17,2.2-1,.09a3,3,0,0,1-1.15,1.27,3.43,3.43,0,0,0-1.16,1.22,4.39,4.39,0,0,0-2.87,1.13c-.89.19-1.42.55-1.61,1.07a6,6,0,0,0-3.29,1.52.81.81,0,0,0,.42-.1h.21q0,.39-13.38,3.42a6.64,6.64,0,0,0-2.17-.54,1,1,0,0,0-1.12,1.12v.2l-.14.48,1.12.93.49,1.47c.18.68,1,1.25,2.38,1.71l2.45,3.41,3.71,1.62.14.48,1.61.59.57,1,.84-.1,4.34,3,5.32,1.51,3.29.68,2.74-.19L751,147a15.88,15.88,0,0,0,4.34-1.22,16.85,16.85,0,0,0,2.24-1.08l2.59-3.42,1.05-.92a6.2,6.2,0,0,0,1.26-2,6.14,6.14,0,0,1,1.13-.19A1.51,1.51,0,0,1,764.8,138.77Z"/>
        <path d="M793.31,81.89a4.78,4.78,0,0,1-2.46,1.66v.63l-1.26,1a1.78,1.78,0,0,1-1.12.59,3,3,0,0,1-.77-.2l-3.85,3.22-1,1.08-3.43.73-1.76,1.81-1.61.49a16,16,0,0,0-3.15,1.9l-.84-.39-.14-1.22,3.29-1c.47-1.62,1.06-2.54,1.79-2.76s1.09-.34,1.09-.41v-.39l.7-.29.28.09.35-.73H780l-.56-.88h2.24V85.36l1.05-.2.7-.78,1.12-.29,1.05-1.32a.91.91,0,0,0,.84-.59h.84l.14-1a3.45,3.45,0,0,0,1.75-2Q792.61,79.94,793.31,81.89Zm14.21,50.29-.27,1-1.34.68-.56,1.22-2,.39a4.79,4.79,0,0,1-2,2.49l-1.75.44-1.54,1.18a11.81,11.81,0,0,0-2.45,1.8h-1a4.87,4.87,0,0,1-3.16,1.13c-1,.87-1.61,1.4-1.75,1.56a9.75,9.75,0,0,1-2.69.71c-1.1.14-1.79.25-2.07.31l-.56.59H782.1l-1.26.68-3.58-1.85-2-3.23-.28-5.17-.42-1,1.4-8.2.91-.49-.42-5.12a4,4,0,0,1,.39-1.74,11.73,11.73,0,0,0,.73-2.22l.57-.24a4.87,4.87,0,0,0-1-2.79l.56-1.32v-1.85l.71-.64a11.38,11.38,0,0,0-.49-1.58,7.27,7.27,0,0,1-.36-1c0-.52.19-.79.57-.79a.44.44,0,0,0,.28.1,5.8,5.8,0,0,1-1-2c0-.49.33-.73,1-.73a3,3,0,0,1,.94.27,3.06,3.06,0,0,0,1.09.27,3.5,3.5,0,0,0,.7-.2c0-.55.32-.83,1-.83s.87.07.94.22a13.63,13.63,0,0,1,.39,1.88l1.54.49-1.26,1.12-1.47,6.4,1.19,1.61a2.24,2.24,0,0,1-1.33,1.9l-.42,1.27.42,1.13-1.68,4.1.14.49-.7,3.32v2.39l-1.05,1.61.28,1.37-.28,2.29A7.77,7.77,0,0,0,780,140l-.14.54,1.26.59,1.47-.3,1.68.49,2-.68a7.91,7.91,0,0,1,2.45-.73l1-.69.28.3.84-.79,1.47-.29a10.33,10.33,0,0,1,3.58-1.32,2.86,2.86,0,0,1,2-.78l.84-.93,1.61-.09-.35-1.08h.63l.28-.53,3-1.08.28-1.22,2.73.1A3.21,3.21,0,0,1,807.52,132.18Z"/>
        <path d="M829.66,107.87l9.88.29,9.45-.29,2.31.09,1-.09h5.18c1,0,1.47.29,1.47.88s-.77,1.12-2.31,1.31a2.92,2.92,0,0,0-1.19-.19,3.5,3.5,0,0,0-1.82.49l-2-.3-3.85.1a14.78,14.78,0,0,1-5.32,1l-2.73-.35-1.4.93H837v-.58l-2.46.78h-1.26l-.42.88a29.43,29.43,0,0,0-4.2-.39.73.73,0,0,1-.7.58,1.73,1.73,0,0,1-.84-.39l-2,.2-1.4,1-.42,4.88.28,2.93-.42,3.76.14,4.2.42,2v1.8l1.68,2.49v.44c0,1.14.95,2.23,2.87,3.27l.42.83,2.59.39,1.89,1.42,5.33.68,7-1.12,2,.44,5-1.61,1.89.19c.65.46,1,.88,1,1.27s-.61,1-1.82,1.61l-1.05-.29-2.25,1.32-4.76.39-1.61.68-1.68-.68a14.38,14.38,0,0,1-5,.88l-2.87-.39h-1.54l-5.18-2.1L825,141.17l-1.68-1.32-2.6-4.79-1.19-4.49.63-1.81-1.19-1,.56-1.12-.56-1.81,1.47-.78-.63-.93.35-1.17-.63-1.32.28-1.91-.28-1,.63-.29v-3.62c-.28-.88-.67-1.32-1.19-1.32a1.11,1.11,0,0,0-.84.39l-1.61-.48-2.24.39L812,111.67h-1.19c-1.12,0-1.68-.43-1.68-1.31l.14-1.52-1-.49.56-.87,2.1.19,1.61-.19,2.31.48h6l.28-2.29v-2.3l-1-1.7,1.12-.59a2.6,2.6,0,0,0,.28-.73c0-.43-.37-.78-1.12-1.08l.28-3.9-1.19-1.22.28-.88c-.93-.13-1.4-.39-1.4-.78l1-2.64a7.33,7.33,0,0,0,1.33-1.37c2.85,1,4.28,1.55,4.28,1.71v.1l-.56,1a4.51,4.51,0,0,1,1,2.2v.29a3.1,3.1,0,0,0-.42,1.42.89.89,0,0,0,.42.78l-.14.83.14,1.08-1.26,1.41.84,2.49-.56,3,.56.59-.84.87,1.12,2.5h2.59Z"/>
        <path d="M879.6,107.87l9.88.29,9.46-.29,2.31.09,1-.09h5.18c1,0,1.47.29,1.47.88s-.77,1.12-2.31,1.31a2.92,2.92,0,0,0-1.19-.19,3.53,3.53,0,0,0-1.82.49l-2-.3-3.85.1a14.83,14.83,0,0,1-5.33,1l-2.73-.35-1.4.93h-1.33v-.58l-2.45.78h-1.26l-.42.88a29.79,29.79,0,0,0-4.21-.39.73.73,0,0,1-.7.58,1.77,1.77,0,0,1-.84-.39l-2,.2-1.4,1-.42,4.88.28,2.93-.42,3.76.14,4.2.42,2v1.8l1.68,2.49v.44q0,1.71,2.87,3.27l.42.83,2.59.39,1.9,1.42,5.32.68,7-1.12,2,.44,5-1.61,1.89.19c.65.46,1,.88,1,1.27s-.61,1-1.82,1.61l-1-.29-2.24,1.32-4.77.39-1.61.68-1.68-.68a14.37,14.37,0,0,1-5,.88l-2.87-.39h-1.54l-5.19-2.1L875,141.17l-1.68-1.32-2.59-4.79-1.19-4.49.63-1.81-1.19-1,.56-1.12-.56-1.81,1.47-.78-.63-.93.35-1.17-.63-1.32.28-1.91-.28-1,.63-.29v-3.62c-.28-.88-.68-1.32-1.19-1.32a1.08,1.08,0,0,0-.84.39l-1.62-.48-2.24.39L862,111.67h-1.19c-1.12,0-1.68-.43-1.68-1.31l.14-1.52-1-.49.56-.87,2.1.19,1.61-.19,2.31.48h6l.28-2.29v-2.3l-1-1.7,1.12-.59a3,3,0,0,0,.28-.73c0-.43-.38-.78-1.12-1.08l.28-3.9-1.19-1.22.28-.88c-.94-.13-1.4-.39-1.4-.78l1-2.64a8.15,8.15,0,0,0,1.33-1.37c2.85,1,4.27,1.55,4.27,1.71v.1l-.56,1a4.51,4.51,0,0,1,1,2.2v.29a3.1,3.1,0,0,0-.42,1.42.89.89,0,0,0,.42.78l-.14.83.14,1.08-1.26,1.41.84,2.49-.56,3,.56.59-.84.87,1.12,2.5h2.59Z"/>
        <path d="M955.32,136.38c.7.75,1.06,1.3,1.06,1.66s-.44.82-1.3,1.66a9.9,9.9,0,0,0-2,2.69l-1.05.1-1.54,2.09-1.75.2-3.85,1.81-.7,1.07-1.19-.1-1.26,1h-2l-.42.49-1-.1a4.14,4.14,0,0,0-2.73,1l-.91-.49a8.21,8.21,0,0,1-2.38.49,5.89,5.89,0,0,1-2.59-.49,15.31,15.31,0,0,1-1.89.1l-.84-.49q-3.86-.15-5.19-1.52v-1.22l-2.31-.88-.56-1a4.76,4.76,0,0,0-1.54-1.27v-.78l-1.61-4.74.28-3.37.56-1.9v-2.1l.77-1.81-.28-1.32a2,2,0,0,0,1-1.1,5.21,5.21,0,0,1,.84-1.48,20.25,20.25,0,0,1-.56-2.49l1.26-.74-1.26-1c.65-.75,1-1.22,1-1.42l-.7-3a5.54,5.54,0,0,1,.42-2.1,2.55,2.55,0,0,0,1.89.88,22.06,22.06,0,0,0,2.73-.39,1.59,1.59,0,0,1-.14-.68c0-.46.38-.87,1.12-1.22a16.91,16.91,0,0,1,3.16-4.59,2.25,2.25,0,0,0,1.33-2h.7l.7-1,.84-.25a4.07,4.07,0,0,1,1.47-1.46,9.34,9.34,0,0,0,3.85-2.3,4.3,4.3,0,0,0,1.19.1c.14,0,.52-.37,1.12-1.12,1.64-.39,2.5-.59,2.59-.59a1.88,1.88,0,0,1,1.27.59l1.33-.2.7.39h.84a2.88,2.88,0,0,0,2.87,1.62H949a1.66,1.66,0,0,0,.91,1l-.63.2c1.63.55,2.45,1.84,2.45,3.85l-.42,1.13.42,2.78-.7.44-1.61,3-2.87,2.49-.14,1.41a47.64,47.64,0,0,1-8.41,4,.94.94,0,0,1-.91.58,6.08,6.08,0,0,1-1.12-.19l-3.15,1.51H931l-2.73.88-1.19-.49a15.39,15.39,0,0,0-2.95-.39,4.24,4.24,0,0,0-2.17,3.66l-1,.83a8.22,8.22,0,0,1-.7,2.59l-.77.29.77,3.62-.77.49.14,1.12-.14,1.37a13.09,13.09,0,0,0,.35,1.85c.23,1,.61,1.6,1.12,1.76-.23.46.22,1,1.37,1.66a12.22,12.22,0,0,0,3.67,1.37v.58l3.72.39,5.32.2,3.57-.29a17.68,17.68,0,0,1,3.16-1.32l1.12-1.17h1.33l.14-.49a15.83,15.83,0,0,0,3.39-1,.73.73,0,0,0,.32-.52,1.45,1.45,0,0,1,1.26-.58l.42-.64q3.15-.33,3.92-2.88A3.42,3.42,0,0,1,955.32,136.38Zm-11.76-22.8a4.54,4.54,0,0,0,1.89-1.22l.42-1.17a20.65,20.65,0,0,0,2-2.62,3.15,3.15,0,0,0,.28-1.39,8.69,8.69,0,0,0-1-2.93l-2.87-.68a10.92,10.92,0,0,1-1.47.19l-.84-.19a1.49,1.49,0,0,0-1.48.88,15.73,15.73,0,0,0-3.85.73l-.42.68a1.82,1.82,0,0,0-.56-.09,1.13,1.13,0,0,0-.38,0,1,1,0,0,0-.32.14l-.28.22a1.16,1.16,0,0,0-.24.32c-.07.13-.15.27-.21.41l-.22.44a3.65,3.65,0,0,1-.87.86l-1.05.88-2,2.68-1.05.64a2,2,0,0,0-.77,1.27q-.28,1-3.79,4.68l1,.39.49.83,2.39.49a15.09,15.09,0,0,1,4.34-1.32l.42-.58a5.1,5.1,0,0,0,1.12.19,1.92,1.92,0,0,0,1.33-.58l1.68-.2,1-1.22h1l.7-1.07a6,6,0,0,0,3.58-1.22Z"/>
        <path d="M1050.73,130.18c.18.52-.4,1-1.75,1.56l.21.34c0,.33-.63,1-1.89,2.08s-1.9,1.86-1.9,2.42l-1.54.29c0,1.37-.91,2.17-2.59,2.39-.14.39-.37.59-.7.59h-.28c-.14.55-.68.83-1.61.83l-.84,1.17-2,.29-1.68.78a4.66,4.66,0,0,1-.91.25l-3.16.39-1.12-.1-1,.1-.42-.39-1.26-.1-1.61-1.41h-.7a1.25,1.25,0,0,1-.56-1.08q-2.31-1.76-2.31-2.73v-.78l-1-1.32v-.59l.7-.29-.56-1.42-1.05-1.8.21-2.69-1.47-1.61v-2.49q-2-7.27-2-8.89v-.39a4.09,4.09,0,0,1-.28-1.12,1,1,0,0,1,.14-.59,5.27,5.27,0,0,1-1.68-2.78l-.7-.44-3,2.2-1.47,1.41-5,4.2-2,2.49a25.61,25.61,0,0,1-1.68,2.37,14.49,14.49,0,0,1-2.8,2.22l.42.93-1,1.9-1.12.1v.88h-.77l-2.73,2.3a1.92,1.92,0,0,1-1.82,1.9,5.38,5.38,0,0,0-1.12,1.86,1.77,1.77,0,0,1-1.61,1.26l-.56.4a15,15,0,0,1-2.49,2.46,24.6,24.6,0,0,1-3.26,1.93,2.61,2.61,0,0,1-1.75,2l-.14.49a2.09,2.09,0,0,1-.7,1.29,7.7,7.7,0,0,1-3.43,1.1c-.7-.06-1.24-.62-1.61-1.66a2.78,2.78,0,0,0-1.68-1.9l-.42-.64,1.12-1.27-.14-1.22.7-.48-.7-.88.14-1.22-1.12-2.2,1-1.32-.56-1.37a7.06,7.06,0,0,0,1-4.1v-.54c0-.16-.28-.55-.85-1.17.75-.42,1.13-.83,1.13-1.22l-.28-1.56.84-3.81-.56-.73.14-1.56-.7-.93.56-3.18-.28-1.12.42-1.81-.42-2.58,1-1.32a14.34,14.34,0,0,1,2.83.73,1.41,1.41,0,0,1,.35.9,17.17,17.17,0,0,1,.11,2.27l1.19,1.32-.42,1.91.56,4.1-1,2.2.42,2.58v1.22l-1.33,1.47.91,2.1a8.27,8.27,0,0,0-1.05,2.73l.7,1.17a9.75,9.75,0,0,0-1.12,3.91l.14,3.61.42.49,1.75-.58h1.4l.77-2.2c1.07-.23,1.73-.6,2-1.12.14-.78.87-1.18,2.17-1.18a2,2,0,0,1,1-1.51c.38,0,.82-.47,1.34-1.42a10.64,10.64,0,0,0,2.31-2.09v-1.37h.14a2.05,2.05,0,0,0,1.29-.71,2.58,2.58,0,0,1,1.86-.71,3.8,3.8,0,0,1,1.26-1.8l2-1.71,1.82-2.79a3.92,3.92,0,0,1-.28-1q0-.3.42-.3c1.92-.87,2.87-1.74,2.87-2.58V115c1.45-.39,2.18-.75,2.18-1.08a1.26,1.26,0,0,0-.21-.56,1.46,1.46,0,0,1-.21-.46c0-.33.18-.49.56-.49a2.81,2.81,0,0,1,1.12.29c.7-1.79,1.77-2.68,3.22-2.68a6.06,6.06,0,0,1,1.26.19,2.67,2.67,0,0,1,1.26-2.29c.19-.43,1.31-.93,3.36-1.52l.7-.78h.56a6.35,6.35,0,0,0,2,1.42l.28.68.7.2.28,1.9,1.89.78-.63,1.71,1.05,3.13v2.88l1,3.41.42,3.57,1.47,3.32.28,3.32.74,1a5.38,5.38,0,0,1,.94,2.22l.63.3v1.51l1.26,1-.28.73,1,.39v.49a5.47,5.47,0,0,0,4.49.19,2.25,2.25,0,0,0,.7.2,1.71,1.71,0,0,0,1.26-.78c1.35-.1,2-.36,2-.78V138c.14-.23,1.09-.55,2.87-1a7.53,7.53,0,0,1,1.47-1l-.14-.25a2.37,2.37,0,0,1,.53-.56,11.28,11.28,0,0,1,1.36-.88,4,4,0,0,0,1.33-1.05l.77-1.07c.61-.59,1.52-1.53,2.74-2.83l2-.69h1.33Z"/>
      </g>
    </g>
  </g>
</svg>
