<svg xmlns="http://www.w3.org/2000/svg" xmlns:xlink="http://www.w3.org/1999/xlink" width="125" height="125" viewBox="0 0 125 125">
  <defs>
    <style>
      .cls-1 {
        fill: url(#linear-gradient);
      }

      .cls-2 {
        fill: #f27c49;
      }
    </style>
    <linearGradient id="linear-gradient" x1="62.88" y1="123.21" x2="61.65" y2="2.55" gradientUnits="userSpaceOnUse">
      <stop offset="0" stop-color="#f27c49"/>
      <stop offset="1" stop-color="#ed1c24"/>
    </linearGradient>
  </defs>
  <g id="firedrop">
    <g>
      <path class="cls-1" d="M26.38,52.15l.1-.18c-.56,1,2.57,7.07,3.05,8.29,1.12,2.86,2.33,5.69,3.7,8.44,2.46,4.9,4.88,10.92,9.88,13.76-.41-2.95-.21-6-.33-9-.15-3.67-.15-7.36,0-11A110.39,110.39,0,0,1,46,40.16a93.32,93.32,0,0,1,7.41-19.73c3-5.77,7.06-13.75,12.35-17.66-.83.61.33,7.88.46,9a72.48,72.48,0,0,0,2,10.34,116.1,116.1,0,0,0,7.57,20.25c2.77,5.91,5.86,11.7,7.78,17.93a35.86,35.86,0,0,1,1.73,13.63c-.13,1.5-1.68,5.13.23,5.13,1.26,0,3.89-2.83,4.81-3.64a39.25,39.25,0,0,0,12.27-20.29c2.77,5.43,3.71,11.59,4.54,17.64,1,7.19,1.87,14.48,1,21.69s-3.7,14.41-9.08,19.28c-4.41,4-10.21,6.12-16.06,7.14s-11.81,1-17.75,1.17c-5.38.15-10.82.47-16.13-.49A41.61,41.61,0,0,1,34.93,116c-5.9-3.61-11.17-8.49-14.42-14.59-4.07-7.64-4.75-16.75-3.22-25.27S22.34,59.72,26.38,52.15Z"/>
      <path class="cls-2" d="M56.37,105.43c-.07-.24,1.56-1.81,1.75-2,.69-.84,1.36-1.7,2-2.57a50.5,50.5,0,0,0,3.45-5.37,34.66,34.66,0,0,0,4.1-12c.21-1.53,0-3.3.32-4.77,1.41.74,2.73,2.59,3.69,3.84a23.61,23.61,0,0,1,2.67,4.35,24.37,24.37,0,0,1,2.23,10,27.56,27.56,0,0,1-1.17,9,8,8,0,0,0,2.78-.32,12,12,0,0,0,2.85-1.22,17.32,17.32,0,0,0,2.74-2c.72-.63,1.53-2,2.42-2.31a12.79,12.79,0,0,1-.4,3.35c-.17,1-.37,2-.61,3a31.06,31.06,0,0,1-1.63,5,18.63,18.63,0,0,1-8.87,9.69c-1.15.61-3.17.57-4.46.71-1.73.18-3.47.27-5.2.31-2.59.06-5.18,0-7.77-.07a22.52,22.52,0,0,1-4.71-.37,16.28,16.28,0,0,1-4.14-2.09,35.7,35.7,0,0,1-4.44-3,25.15,25.15,0,0,1-6.3-7.06,21.22,21.22,0,0,1-2.57-7.15,29.69,29.69,0,0,1-.31-3,10.11,10.11,0,0,1,0-3.72c.4-1.13,3.36-.39,4.36-.24a24.29,24.29,0,0,1,5.67,1.6A34.12,34.12,0,0,1,56.37,105.43Z"/>
    </g>
  </g>
</svg>
