<svg xmlns="http://www.w3.org/2000/svg" xmlns:xlink="http://www.w3.org/1999/xlink" width="1920" height="1080" viewBox="0 0 1920 1080">
  <defs>
    <style>
      .cls-1 {
        fill: none;
      }

      .cls-2 {
        fill: #895ecc;
      }

      .cls-3 {
        fill: #6129cc;
      }

      .cls-4 {
        fill: #5e3a1b;
      }

      .cls-5 {
        fill: #754c24;
      }

      .cls-6 {
        fill: #42210b;
      }

      .cls-7 {
        fill: #8c6239;
      }

      .cls-8 {
        fill: #29abe2;
      }

      .cls-9 {
        fill: #22b573;
      }

      .cls-10 {
        fill: #00a99d;
      }

      .cls-11 {
        fill: #009245;
      }

      .cls-12 {
        fill: #602077;
      }

      .cls-13 {
        fill: #8cc63f;
      }

      .cls-14 {
        fill: #c7b299;
      }

      .cls-15 {
        fill: #534741;
      }

      .cls-16 {
        fill: #006837;
      }

      .cls-17 {
        fill: #39b54a;
      }

      .cls-18 {
        fill: #693f8e;
      }

      .cls-19 {
        fill: #5f288e;
      }

      .cls-20 {
        fill: #2e3192;
      }

      .cls-21 {
        fill: #211f63;
      }

      .cls-22 {
        fill: #82542a;
      }

      .cls-23 {
        fill: #a67c52;
      }

      .cls-24 {
        fill: #7f4b20;
      }

      .cls-25 {
        fill: #d6c5ba;
      }

      .cls-26 {
        fill: #3354cc;
      }

      .cls-27 {
        fill: #1b661e;
      }

      .cls-28 {
        fill: #55148e;
      }

      .cls-29 {
        fill: #904ece;
      }

      .cls-30 {
        fill: #baaecc;
      }

      .cls-31 {
        fill: #6309cc;
      }

      .cls-32 {
        filter: url(#AI_GaussianBlur_4);
      }

      .cls-33 {
        fill: url(#linear-gradient);
      }

      .cls-34 {
        fill: #a31f00;
      }

      .cls-35 {
        fill: #3bccff;
      }

      .cls-36 {
        fill: #4a97f4;
      }

      .cls-37 {
        fill: #5b21cc;
      }

      .cls-38 {
        clip-path: url(#clip-path);
      }

      .cls-39 {
        fill: #4711cc;
      }

      .cls-40 {
        fill: #1e1e3f;
      }

      .cls-41 {
        fill: #f7931e;
      }

      .cls-42 {
        fill: #f4800c;
      }

      .cls-43 {
        fill: #fff;
      }

      .cls-44 {
        fill: #f15a24;
      }

      .cls-45 {
        fill: url(#linear-gradient-2);
      }

      .cls-46 {
        fill: #f27c49;
      }

      .cls-47 {
        fill: url(#linear-gradient-3);
      }

      .cls-48 {
        fill: url(#linear-gradient-4);
      }
    </style>
    <filter id="AI_GaussianBlur_4" name="AI_GaussianBlur_4">
      <feGaussianBlur stdDeviation="4"/>
    </filter>
    <linearGradient id="linear-gradient" x1="956.18" y1="469.33" x2="961.1" y2="-20.65" gradientUnits="userSpaceOnUse">
      <stop offset="0" stop-color="#fff"/>
      <stop offset="0.05" stop-color="#f3effb"/>
      <stop offset="0.24" stop-color="#c7b4ed"/>
      <stop offset="0.42" stop-color="#a382e1"/>
      <stop offset="0.6" stop-color="#865bd8"/>
      <stop offset="0.76" stop-color="#7240d1"/>
      <stop offset="0.9" stop-color="#652fcd"/>
      <stop offset="1" stop-color="#6129cc"/>
    </linearGradient>
    <clipPath id="clip-path">
      <rect class="cls-1" x="560" y="10" width="505" height="107"/>
    </clipPath>
    <linearGradient id="linear-gradient-2" x1="771.42" y1="489.02" x2="770.19" y2="368.37" gradientUnits="userSpaceOnUse">
      <stop offset="0" stop-color="#f27c49"/>
      <stop offset="1" stop-color="#ed1c24"/>
    </linearGradient>
    <linearGradient id="linear-gradient-3" x1="967.42" y1="847.02" x2="966.19" y2="726.37" xlink:href="#linear-gradient-2"/>
    <linearGradient id="linear-gradient-4" x1="415.96" y1="1003.82" x2="411.29" y2="761.73" gradientUnits="userSpaceOnUse">
      <stop offset="0" stop-color="#f27c49"/>
      <stop offset="0.24" stop-color="#f16942"/>
      <stop offset="0.73" stop-color="#ef392f"/>
      <stop offset="1" stop-color="#ed1c24"/>
    </linearGradient>
  </defs>
  <g id="background">
    <g>
      <rect class="cls-2" width="1920" height="832"/>
      <rect class="cls-3" y="827" width="1920" height="253"/>
    </g>
  </g>
  <g id="books">
    <g>
      <g>
        <rect class="cls-4" x="484" y="889" width="21" height="26"/>
        <rect class="cls-5" x="505" y="889" width="21" height="26"/>
        <rect class="cls-5" x="499" y="240" width="102" height="649"/>
        <rect class="cls-5" x="169" y="240" width="102" height="649"/>
        <rect class="cls-5" x="250" y="889" width="21" height="26"/>
        <rect class="cls-6" x="298" y="271" width="201" height="588"/>
        <path class="cls-7" d="M601,240v.5H298V240H271V915h27V890H601v25h27V240Zm0,619H298V727H601Zm0-163H298V571H601Zm0-156H298V421H601Zm0-150H298V271.5H601Z"/>
        <rect class="cls-5" x="580" y="889" width="21" height="26"/>
        <rect class="cls-5" x="169" y="889" width="21" height="26"/>
        <path class="cls-4" d="M169,240h33a0,0,0,0,1,0,0V591.37A13.63,13.63,0,0,1,188.37,605h-5.73A13.63,13.63,0,0,1,169,591.37V240A0,0,0,0,1,169,240Z"/>
        <path class="cls-4" d="M235,240h35a0,0,0,0,1,0,0V347.26A10.74,10.74,0,0,1,259.26,358H245.74A10.74,10.74,0,0,1,235,347.26V240A0,0,0,0,1,235,240Z"/>
        <rect class="cls-4" x="220" y="526" width="33" height="158" rx="14.89"/>
        <path class="cls-4" d="M231.16,731h7.19A11.65,11.65,0,0,1,250,742.65V889a0,0,0,0,1,0,0H217a0,0,0,0,1,0,0V745.16A14.16,14.16,0,0,1,231.16,731Z"/>
        <rect class="cls-7" x="190" y="889" width="21" height="26"/>
      </g>
      <g>
        <g>
          <rect class="cls-8" x="298" y="311.55" width="35" height="79.45"/>
          <rect class="cls-9" x="333" y="305.76" width="35" height="85.24"/>
          <rect class="cls-10" x="368" y="311.55" width="35" height="79.45"/>
          <rect class="cls-11" x="403" y="295" width="21" height="96"/>
          <rect class="cls-12" x="424" y="311.55" width="35" height="79.45"/>
          <rect class="cls-13" x="459" y="305.76" width="35" height="85.24"/>
          <rect class="cls-14" x="494" y="311.55" width="28" height="79.45"/>
          <rect class="cls-15" x="522" y="309.07" width="35" height="81.93"/>
          <rect class="cls-16" x="557" y="311.55" width="25" height="79.45"/>
          <rect class="cls-9" x="582" y="311.55" width="19" height="79.45"/>
        </g>
        <g>
          <rect class="cls-8" x="496" y="783" width="35" height="77"/>
          <rect class="cls-9" x="319" y="773.76" width="35" height="86.24"/>
          <rect class="cls-10" x="531" y="771" width="35" height="89"/>
          <rect class="cls-11" x="298" y="763" width="21" height="97"/>
          <rect class="cls-12" x="566" y="779.55" width="35" height="79.45"/>
          <rect class="cls-13" x="354" y="768" width="35" height="92"/>
          <rect class="cls-14" x="433" y="780.55" width="28" height="79.45"/>
          <rect class="cls-15" x="461" y="774" width="35" height="86.34"/>
          <rect class="cls-16" x="389" y="777" width="25" height="83"/>
        </g>
        <rect class="cls-9" x="414" y="783" width="19" height="77"/>
        <g>
          <rect class="cls-8" x="452" y="447" width="35" height="94"/>
          <rect class="cls-9" x="389" y="452" width="35" height="89"/>
          <rect class="cls-10" x="487" y="461.55" width="35" height="79.45"/>
          <rect class="cls-11" x="298" y="445" width="21" height="96"/>
          <rect class="cls-12" x="319" y="461.55" width="35" height="79.45"/>
          <rect class="cls-13" x="354" y="455.76" width="35" height="85.24"/>
          <rect class="cls-14" x="424" y="461.55" width="28" height="79.45"/>
          <rect class="cls-15" x="522" y="459.07" width="35" height="81.93"/>
          <rect class="cls-16" x="557" y="453" width="25" height="88"/>
          <rect class="cls-9" x="582" y="461.55" width="19" height="79.45"/>
        </g>
        <g>
          <rect class="cls-16" x="298" y="673" width="140" height="24"/>
          <rect class="cls-11" x="298" y="651" width="127" height="22"/>
          <rect class="cls-17" x="298" y="634" width="134" height="17"/>
          <g>
            <rect class="cls-18" x="580" y="613" width="21" height="84"/>
            <rect class="cls-19" x="522" y="613" width="58" height="84"/>
          </g>
          <g>
            <rect class="cls-20" x="514.33" y="628" width="18.67" height="69"/>
            <rect class="cls-21" x="477" y="628" width="37.33" height="69"/>
          </g>
        </g>
      </g>
    </g>
    <g>
      <g>
        <rect class="cls-4" x="1771" y="849" width="21" height="26"/>
        <rect class="cls-5" x="1792" y="849" width="21" height="26"/>
        <rect class="cls-5" x="1786" y="200" width="102" height="649"/>
        <rect class="cls-5" x="1456" y="200" width="102" height="649"/>
        <rect class="cls-5" x="1537" y="849" width="21" height="26"/>
        <rect class="cls-6" x="1585" y="231" width="201" height="588"/>
        <path class="cls-7" d="M1888,200v.5H1585V200h-27V875h27V850h303v25h27V200Zm0,619H1585V687h303Zm0-163H1585V531h303Zm0-156H1585V381h303Zm0-150H1585V231.5h303Z"/>
        <rect class="cls-5" x="1867" y="849" width="21" height="26"/>
        <rect class="cls-5" x="1456" y="849" width="21" height="26"/>
        <path class="cls-4" d="M1456,200h33a0,0,0,0,1,0,0V551.37A13.63,13.63,0,0,1,1475.37,565h-5.73A13.63,13.63,0,0,1,1456,551.37V200A0,0,0,0,1,1456,200Z"/>
        <path class="cls-4" d="M1522,200h35a0,0,0,0,1,0,0V307.26A10.74,10.74,0,0,1,1546.26,318h-13.53A10.74,10.74,0,0,1,1522,307.26V200A0,0,0,0,1,1522,200Z"/>
        <rect class="cls-4" x="1507" y="486" width="33" height="158" rx="14.89"/>
        <path class="cls-4" d="M1518.16,691h7.19A11.65,11.65,0,0,1,1537,702.65V849a0,0,0,0,1,0,0h-33a0,0,0,0,1,0,0V705.16A14.16,14.16,0,0,1,1518.16,691Z"/>
        <rect class="cls-7" x="1477" y="849" width="21" height="26"/>
      </g>
      <g>
        <g>
          <rect class="cls-8" x="1585" y="271.55" width="35" height="79.45"/>
          <rect class="cls-9" x="1620" y="265.76" width="35" height="85.24"/>
          <rect class="cls-10" x="1655" y="271.55" width="35" height="79.45"/>
          <rect class="cls-11" x="1690" y="255" width="21" height="96"/>
          <rect class="cls-12" x="1711" y="271.55" width="35" height="79.45"/>
          <rect class="cls-13" x="1746" y="265.76" width="35" height="85.24"/>
          <rect class="cls-14" x="1781" y="271.55" width="28" height="79.45"/>
          <rect class="cls-15" x="1809" y="269.07" width="35" height="81.93"/>
          <rect class="cls-16" x="1844" y="271.55" width="25" height="79.45"/>
          <rect class="cls-9" x="1869" y="271.55" width="19" height="79.45"/>
        </g>
        <g>
          <rect class="cls-8" x="1783" y="743" width="35" height="77"/>
          <rect class="cls-9" x="1606" y="733.76" width="35" height="86.24"/>
          <rect class="cls-10" x="1818" y="731" width="35" height="89"/>
          <rect class="cls-11" x="1585" y="723" width="21" height="97"/>
          <rect class="cls-12" x="1853" y="739.55" width="35" height="79.45"/>
          <rect class="cls-13" x="1641" y="728" width="35" height="92"/>
          <rect class="cls-14" x="1720" y="740.55" width="28" height="79.45"/>
          <rect class="cls-15" x="1748" y="734" width="35" height="86.34"/>
          <rect class="cls-16" x="1676" y="737" width="25" height="83"/>
        </g>
        <rect class="cls-9" x="1701" y="743" width="19" height="77"/>
        <g>
          <rect class="cls-8" x="1739" y="407" width="35" height="94"/>
          <rect class="cls-9" x="1676" y="412" width="35" height="89"/>
          <rect class="cls-10" x="1774" y="421.55" width="35" height="79.45"/>
          <rect class="cls-11" x="1585" y="405" width="21" height="96"/>
          <rect class="cls-12" x="1606" y="421.55" width="35" height="79.45"/>
          <rect class="cls-13" x="1641" y="415.76" width="35" height="85.24"/>
          <rect class="cls-14" x="1711" y="421.55" width="28" height="79.45"/>
          <rect class="cls-15" x="1809" y="419.07" width="35" height="81.93"/>
          <rect class="cls-16" x="1844" y="413" width="25" height="88"/>
          <rect class="cls-9" x="1869" y="421.55" width="19" height="79.45"/>
        </g>
        <g>
          <rect class="cls-16" x="1585" y="633" width="140" height="24"/>
          <rect class="cls-11" x="1585" y="611" width="127" height="22"/>
          <rect class="cls-17" x="1585" y="594" width="134" height="17"/>
          <g>
            <rect class="cls-18" x="1867" y="573" width="21" height="84"/>
            <rect class="cls-19" x="1809" y="573" width="58" height="84"/>
          </g>
          <g>
            <rect class="cls-20" x="1801.33" y="588" width="18.67" height="69"/>
            <rect class="cls-21" x="1764" y="588" width="37.33" height="69"/>
          </g>
        </g>
      </g>
    </g>
  </g>
  <g id="table">
    <g>
      <rect class="cls-22" x="1438" y="668" width="289" height="42"/>
      <rect class="cls-23" x="1296" y="668" width="142" height="42"/>
      <rect class="cls-23" x="1307" y="710" width="28" height="253"/>
      <rect class="cls-23" x="1335" y="710" width="103" height="24"/>
      <rect class="cls-23" x="1412" y="729" width="26" height="234"/>
      <rect class="cls-22" x="1335" y="734" width="21" height="229"/>
      <rect class="cls-23" x="1571" y="710" width="28" height="253"/>
      <rect class="cls-24" x="1599" y="734" width="21" height="229"/>
      <rect class="cls-22" x="1438" y="718" width="21" height="245"/>
      <rect class="cls-23" x="1671" y="734" width="21" height="229"/>
      <rect class="cls-22" x="1456" y="718" width="262" height="19"/>
      <rect class="cls-24" x="1307" y="710" width="411" height="8"/>
      <rect class="cls-22" x="1692" y="734" width="26" height="229"/>
    </g>
  </g>
  <g id="books_on_the_table">
    <g>
      <path class="cls-25" d="M1674,668h-44q-8.05-12.5,0-25h44Q1664.32,655.5,1674,668Z"/>
      <path class="cls-26" d="M1635,668h-74.21q-13.57-12.5,0-25H1635Q1618.67,655.5,1635,668Z"/>
      <rect class="cls-26" x="1631" y="643" width="43" height="3"/>
      <rect class="cls-26" x="1631" y="665" width="43" height="3"/>
    </g>
    <g>
      <path class="cls-25" d="M1660,643h-37.58q-6.87-9.5,0-19H1660Q1651.74,633.5,1660,643Z"/>
      <path class="cls-27" d="M1625.75,643h-55.66q-10.18-9.5,0-19h55.66Q1613.5,633.5,1625.75,643Z"/>
      <rect class="cls-27" x="1614" y="641" width="46" height="2"/>
      <rect class="cls-27" x="1614" y="624" width="46" height="2"/>
    </g>
  </g>
  <g id="painting">
    <g>
      <rect class="cls-28" x="891" y="217" width="306" height="16"/>
      <rect class="cls-28" x="891" y="404" width="306" height="16"/>
      <rect class="cls-28" x="798.5" y="311.5" width="201" height="16" transform="translate(1218.5 -579.5) rotate(90)"/>
      <rect class="cls-28" x="1088.5" y="311.5" width="201" height="16" transform="translate(1508.5 -869.5) rotate(90)"/>
      <rect class="cls-29" x="907" y="348" width="274" height="56"/>
      <rect class="cls-30" x="907" y="233" width="274" height="87"/>
      <polygon class="cls-31" points="907 348 1181 348 1181 278.28 907 319.5 907 348"/>
    </g>
  </g>
  <g id="foreground">
    <g class="cls-32">
      <path class="cls-33" d="M1920,171Q1168.27,96.63,0,171V6H1920Z"/>
    </g>
  </g>
  <g id="UI_hearts">
    <path class="cls-34" d="M253.81,37.37a12.06,12.06,0,0,1,8.58,3.55L263.45,42a12.14,12.14,0,0,1,0,17.15L236.74,85.84l0,0-.31.3L209.68,59.4a12.14,12.14,0,0,1,0-17.15l1.06-1.06a12.13,12.13,0,0,1,17.15,0l3.59,3.59,5,4.95,4.95-4.95,3.86-3.86a12,12,0,0,1,8.57-3.55m0-7A19,19,0,0,0,240.29,36l-3.86,3.86-3.59-3.59a19.13,19.13,0,0,0-27.05,0l-1.06,1.06a19.13,19.13,0,0,0,0,27.05L236.39,96l.31-.31,0,0L268.4,64.08a19.13,19.13,0,0,0,0-27L267.34,36a19.06,19.06,0,0,0-13.53-5.6Z"/>
    <path class="cls-34" d="M94.08,64.08,62.42,95.73l0,0-.31.31L30.41,64.35a19.13,19.13,0,0,1,0-27l1.06-1.06a19.13,19.13,0,0,1,27.05,0l3.59,3.59L66,36A19.13,19.13,0,0,1,93,36L94.08,37A19.13,19.13,0,0,1,94.08,64.08Z"/>
    <path class="cls-34" d="M180.08,64.08,148.42,95.73l0,0-.31.31L116.41,64.35a19.13,19.13,0,0,1,0-27l1.06-1.06a19.13,19.13,0,0,1,27.05,0l3.59,3.59L152,36A19.13,19.13,0,0,1,179,36L180.08,37A19.13,19.13,0,0,1,180.08,64.08Z"/>
    <path class="cls-34" d="M1084.73,609l-51.61,51.6-.06-.07-.51.51-51.61-51.6a31.18,31.18,0,0,1,0-44.1l1.73-1.73a31.2,31.2,0,0,1,44.1,0l5.84,5.85,6.29-6.29a31.2,31.2,0,0,1,44.1,0l1.73,1.73A31.2,31.2,0,0,1,1084.73,609Z"/>
  </g>
  <g id="UI_waterdrop">
    <g>
      <path class="cls-35" d="M1396,73.25A25.71,25.71,0,0,1,1370.59,99a.83.83,0,0,1-.22,0h0a25.73,25.73,0,0,1-25.63-25.73c0-8.93,5.59-17.61,10.07-24.58,4.21-6.54,9.19-14,15-20.37a1,1,0,0,1,.73-.32h.07a1,1,0,0,1,.75.44c2.21,3.36,4.9,6.79,7.74,10.42a135.09,135.09,0,0,1,11.46,16.19C1394.2,61.57,1396,67.52,1396,73.25Z"/>
      <path class="cls-36" d="M1369.87,89.13c.79.53,2.88,2.75,1.54,3.5a4.5,4.5,0,0,1-2.45.22,20.8,20.8,0,0,1-3-.39,11.15,11.15,0,0,1-2.74-1.22c-.86-.46-1.69-1-2.51-1.51a30.17,30.17,0,0,1-5.19-4.4,21.94,21.94,0,0,1-6.17-14.14,5.93,5.93,0,0,1,1.09-4,3.39,3.39,0,0,1,1.2-1.21,1.88,1.88,0,0,1,1.28-.17c1.32.3.95,1.77,1,2.81a18.76,18.76,0,0,0,.74,3.68,21.24,21.24,0,0,0,3.57,6.7C1361.44,83.13,1365.66,86.31,1369.87,89.13Z"/>
    </g>
  </g>
  <g id="UI_settings">
    <g>
      <path class="cls-37" d="M1886.67,54.14h-6.92a23.16,23.16,0,0,0-3.7-8.19l5.25-5.25a1.33,1.33,0,0,0,0-1.88l-4.14-4.15a1.34,1.34,0,0,0-1.89,0L1869.91,40a23.12,23.12,0,0,0-8.47-3.44l-.4-6.94a1.32,1.32,0,0,0-1.4-1.25l-5.85.33a1.33,1.33,0,0,0-1.26,1.4l.37,6.45a23,23,0,0,0-8.62,3.5l-3.81-4.74a1.34,1.34,0,0,0-1.88-.2L1834,38.81a1.35,1.35,0,0,0-.21,1.88l4.32,5.37a23.16,23.16,0,0,0-3.65,8.21l-6.72-.27a1.34,1.34,0,0,0-1.38,1.28l-.23,5.85a1.33,1.33,0,0,0,1.28,1.39l6.71.27a23.14,23.14,0,0,0,3,8.56L1831.84,76a1.34,1.34,0,0,0-.13,1.88l3.84,4.42a1.33,1.33,0,0,0,1.88.13l5.42-4.7a22.94,22.94,0,0,0,9.88,4.49v6.44a1.33,1.33,0,0,0,1.33,1.33h5.86a1.34,1.34,0,0,0,1.33-1.33V82.29a23.17,23.17,0,0,0,9.84-4.3l3.8,4.38a1.34,1.34,0,0,0,1.88.13l4.42-3.84a1.32,1.32,0,0,0,.13-1.88l-4.44-5.12a22.89,22.89,0,0,0,3.25-9h6.54a1.33,1.33,0,0,0,1.33-1.33V55.47A1.33,1.33,0,0,0,1886.67,54.14ZM1857.13,75a15.58,15.58,0,1,1,15.58-15.58A15.59,15.59,0,0,1,1857.13,75Z"/>
      <path class="cls-2" d="M1880.38,52.93h-6.6a22.18,22.18,0,0,0-3.54-7.81l5-5a1.29,1.29,0,0,0,0-1.8l-4-4a1.27,1.27,0,0,0-1.8,0l-5.12,5.11a22,22,0,0,0-8.09-3.27l-.37-6.63a1.27,1.27,0,0,0-1.34-1.2l-5.58.32a1.27,1.27,0,0,0-1.2,1.34l.34,6.15a22.17,22.17,0,0,0-8.23,3.34L1836.28,35a1.27,1.27,0,0,0-1.79-.19l-4.36,3.5a1.27,1.27,0,0,0-.19,1.79l4.12,5.13a22,22,0,0,0-3.49,7.83l-6.41-.25a1.27,1.27,0,0,0-1.32,1.22l-.22,5.58a1.27,1.27,0,0,0,1.22,1.32l6.41.26a22.06,22.06,0,0,0,2.91,8.17L1828,73.81a1.28,1.28,0,0,0-.12,1.8l3.67,4.22a1.27,1.27,0,0,0,1.79.12l5.17-4.49a22,22,0,0,0,9.43,4.29v6.14a1.27,1.27,0,0,0,1.27,1.28h5.59a1.28,1.28,0,0,0,1.28-1.28V79.8a22.08,22.08,0,0,0,9.39-4.09l3.63,4.17a1.27,1.27,0,0,0,1.79.13l4.22-3.67a1.27,1.27,0,0,0,.13-1.79L1871,69.66a21.79,21.79,0,0,0,3.11-8.59h6.24a1.27,1.27,0,0,0,1.27-1.27V54.21A1.27,1.27,0,0,0,1880.38,52.93Zm-28.19,19.93A14.88,14.88,0,1,1,1867.06,58,14.87,14.87,0,0,1,1852.19,72.86Z"/>
    </g>
  </g>
  <g id="UI_timeba_background">
    <g class="cls-38">
      <rect class="cls-39" x="564.26" y="38" width="493.19" height="49" rx="16.5"/>
    </g>
    <path d="M1324,48.8a4.81,4.81,0,0,1-.88.43l-.86.05a2.16,2.16,0,0,0-.86.16l-1,.41-1-.22-2.15.54a4.37,4.37,0,0,1-.64-.27l-.72.27-1.21-.16a.21.21,0,0,0-.16-.06c-.13,0-.31.13-.56.38l-4,.61-1.82-.16-.43.22-.27-.22-2.19.38-1.16-.27-1,.27-.78-.16-.53.53-1,.11v.56l-.83,1.93v.54l-.43.16a4,4,0,0,0-.67,1.55.66.66,0,0,0-.16.49l-.43.26a2.56,2.56,0,0,1-1,1.48c0,.25-.33.51-.94.77l.43.62.33-.35a2.17,2.17,0,0,0,1.23.46q.48,0,.48-.57l1.26-.1a1.28,1.28,0,0,1,1,.4,3.9,3.9,0,0,1,1.21-.3,1.6,1.6,0,0,1,.88.3l1.26-.3,3,.11.83.35a.61.61,0,0,1,.45-.16.78.78,0,0,1,.46.13,3,3,0,0,0,1.18.18,4.62,4.62,0,0,1,1.58.28l1.55.67.7,1a4,4,0,0,0,1.1.65l.45,1.87.33.43-.11.73.05.75a4.27,4.27,0,0,0-.48,2l-.24.16a8.17,8.17,0,0,1-1,2.06.91.91,0,0,1-.59.19,7.77,7.77,0,0,0-1.48,2.3,1.08,1.08,0,0,0-.84.53,2.1,2.1,0,0,1-1.14.73,1.49,1.49,0,0,0-.78.51,1.41,1.41,0,0,1-.72.51q-.43.13-1.23.3a3.31,3.31,0,0,0-1.35.55,3,3,0,0,1-1.68.38l-.62,0a1.83,1.83,0,0,0-1.36.51l-.78-.27-.91.32-1.15-.16-.46.16a1.17,1.17,0,0,0-1-.45h-.21a1.68,1.68,0,0,0-.75-.22,3.14,3.14,0,0,0-.94.16l-.89-.59-.61.22-1-.83h-.93l-.89-.81-2-.77.06-.57-.89-1-.48-2.2a2.07,2.07,0,0,1-.11-.4.22.22,0,0,1,.11-.18.22.22,0,0,0,.11-.2,1.09,1.09,0,0,0-.11-.26,1.42,1.42,0,0,1,.78-.35c.37,0,.55.17.53.51l-.1,2.19a9.63,9.63,0,0,0,.55.87,4.38,4.38,0,0,0,.43.54,3.37,3.37,0,0,0,1,.49l.54.84.72.1a5.86,5.86,0,0,1,1.37.67h.72l.59.43.56-.11.43.38,2.15.13,1.15,0,.83.16,1.21-.4a2.28,2.28,0,0,1,.83.24l.8-.46h.94l.67-.16a4.58,4.58,0,0,1,2.68-.93l-.11-.27.11-.43h1.1a1.68,1.68,0,0,1,.83-.56l.43-.33c.17-.41.36-.61.56-.61h.11a1.92,1.92,0,0,0,1-1.11,8.59,8.59,0,0,1,.55-1.36l.56.06v-.16a2.14,2.14,0,0,1,.4-.77,2.14,2.14,0,0,0,.4-1.22,1.07,1.07,0,0,0,0-.37l.16-.11,0-.88.29-.49-.4-.56v-.88l-.32-.7-1.88-1-.43-.46h-.51l-.32-.16-.69.11-.57-.38-.53.27-.67-.54-.67.22-1.48-.27h-1.2l-.64-.16-1.1.32-.83-.32-.94.32H1300l-1.77.32-.54-.21-1.37.43-.56-.22a5.64,5.64,0,0,0-1.15,1h-1.31l.11-.88-.43-.43.26-.16V60.8l.67.06-.05-1.21.59-.16c.8-.86,1.21-1.44,1.21-1.74v-.11c.12,0,.29-.36.52-.92s.45-.87.69-.91a2.26,2.26,0,0,0,.51-.14c.1,0,.18-.16.23-.36l.19-.64.72-1.69-.45-.35a2,2,0,0,0-.22.35l.67-1a1.69,1.69,0,0,0-.88-.19h-.38l-.24-.51a2.53,2.53,0,0,0-.64-.7l.43-.64,2.09-.46.27.3.56-.51,1.2.16a1,1,0,0,1,.94-.38h.86l2.6.22.21-.22,1.48,0,.88.32,4.23-.48,2.47.21.45.13a2.49,2.49,0,0,0,.59.09,3.87,3.87,0,0,0,.78-.13l.43-.14,2.47-.11,1.68-.21a7.16,7.16,0,0,0,1.93-.27A6.64,6.64,0,0,0,1324,48.8Z"/>
  </g>
  <g id="UI_timebar_foreground">
    <g>
      <path class="cls-40" d="M1128,91H580a20,20,0,0,1-20-20V55a20,20,0,0,1,20-20h548a20,20,0,0,1,20,20V71A20,20,0,0,1,1128,91ZM580,42a13,13,0,0,0-13,13V71a13,13,0,0,0,13,13h548a13,13,0,0,0,13-13V55a13,13,0,0,0-13-13Z"/>
      <g>
        <path class="cls-40" d="M414.27,44.71l-.38.73-1,.14h-2.41l-1.12.23-.93-.23-4.92.36-1.67-.36a10.9,10.9,0,0,1-2.95.7h-2.36l-1.44-.47c0,.22-.19.38-.58.47a8.24,8.24,0,0,0-2.11.26,7.64,7.64,0,0,1-1.92.27l-1.59-.53-1.36.53-.15.43h-.7l-.43.67-.31,4.42.31.63-.15.74.08,2-.24,2v.6a.89.89,0,0,1-.21.65,2.24,2.24,0,0,0-.33,1.08l.62.87-.15,1.1-.55.33a2,2,0,0,0,.47,1l-.47.67v.76l-.62.8.39,1.93-.15,2.79L384.34,72a.87.87,0,0,1,.16.4,1,1,0,0,1-.14.45.55.55,0,0,0,0,.5,1.22,1.22,0,0,1,.09.41,2.61,2.61,0,0,1-.39.88c-.25.46-.34.74-.27.85a9.39,9.39,0,0,1,.27,1.07,4,4,0,0,0-.38,1.36,11.83,11.83,0,0,0,.15,1.5,3.43,3.43,0,0,1-.83-.1,2.51,2.51,0,0,0-.45-.1c-.41,0-.62-.66-.62-2l.16-1a13.16,13.16,0,0,0-.16-1.63,12.53,12.53,0,0,1-.15-1.56l.46-4.79a5.49,5.49,0,0,1-.62-1,.77.77,0,0,1,.39-.63.92.92,0,0,1-.31-.6c0-.13.16-.27.46-.4a2.79,2.79,0,0,1-.3-.9,2.64,2.64,0,0,1,.27-1,3.47,3.47,0,0,0,.27-.72L382.29,62a6.59,6.59,0,0,1,.74-1.5q-.66,0-.66-.9c0-1,.15-1.63.46-1.76V55l-.46-1.36.46-2.86-.46-2,.46-1.6a1.13,1.13,0,0,0-1.08-.93,1,1,0,0,0-.74.33l-1.12.1a2.9,2.9,0,0,0-1.24.37l-1-.07-.93.07v.23h-.66a4.5,4.5,0,0,1-2.13-.43l-.16.43-1.67-.43-4.61-.14-1.82.47c-1.37-1-2.06-1.7-2.06-2A9.11,9.11,0,0,1,364,44h1.28l5.62,1,1.36-.4,3.72.13,3.49.27,2.33-.77h.62l.66-1.56,1.08.3.23.66.51-.2a4.55,4.55,0,0,0,1.82,1.17l1.28-.37a3.07,3.07,0,0,1,2.21.9l.47-.53,2.94-.5,1.82.13a4,4,0,0,0,1.44.3h.39a4.34,4.34,0,0,1,1.2-.23l1.12.17a.48.48,0,0,0,.47-.24l1.59-.2,1.82.37a1.1,1.1,0,0,0,1.1.11,4.48,4.48,0,0,1,1-.21l1.44.23,3.95-.06,1.75.26Z"/>
        <path class="cls-40" d="M424.35,34.43A2.69,2.69,0,0,1,423,35.56V36l-.7.67a.92.92,0,0,1-.62.4,1.63,1.63,0,0,1-.43-.13l-2.13,2.19-.54.73-1.9.5-1,1.23-.89.34a8.36,8.36,0,0,0-1.75,1.29l-.46-.26-.08-.83,1.82-.7c.26-1.11.59-1.74,1-1.88s.6-.24.6-.29V39l.39-.2.15.07.2-.5H417l-.31-.6h1.24v-1l.58-.13.39-.53.62-.2.58-.9c.2,0,.36-.13.46-.4H421l.08-.7a2.31,2.31,0,0,0,1-1.36A2.92,2.92,0,0,1,424.35,34.43Zm7.87,34.27-.15.67-.74.46-.31.83-1.09.27a3.27,3.27,0,0,1-1.12,1.7l-1,.3-.85.79A6.75,6.75,0,0,0,425.63,75h-.54a2.41,2.41,0,0,1-1.75.76c-.56.6-.89,1-1,1.07a4.56,4.56,0,0,1-1.5.48c-.6.1-1,.17-1.14.21l-.31.4h-1.28l-.7.47-2-1.26-1.12-2.2-.15-3.53-.24-.7.78-5.59.5-.33L415,61.25a3.25,3.25,0,0,1,.21-1.18,9.86,9.86,0,0,0,.41-1.52l.31-.16a3.87,3.87,0,0,0-.54-1.9l.31-.9V54.33l.38-.44a7.7,7.7,0,0,0-.27-1.08,4.91,4.91,0,0,1-.19-.68c0-.35.1-.53.31-.53a.26.26,0,0,0,.15.07,4.45,4.45,0,0,1-.54-1.37c0-.33.18-.5.54-.5a1.46,1.46,0,0,1,.53.18,1.32,1.32,0,0,0,.6.19,2,2,0,0,0,.39-.13q0-.57.54-.57c.31,0,.48.05.52.15a11.74,11.74,0,0,1,.22,1.28l.85.33L419,52l-.81,4.36.66,1.1a1.56,1.56,0,0,1-.74,1.29l-.23.87.23.76-.93,2.8.08.33-.39,2.26V67.4l-.58,1.1.15.93L416.33,71a6.31,6.31,0,0,0,.66,3.06l-.08.36.7.4.81-.2.93.34,1.13-.47a3.71,3.71,0,0,1,1.35-.5l.55-.46.15.19.47-.53.81-.2a5.1,5.1,0,0,1,2-.9,1.47,1.47,0,0,1,1.12-.53l.47-.63.89-.07-.2-.73h.35l.16-.36,1.67-.74.15-.83,1.51.07A2.28,2.28,0,0,1,432.22,68.7Z"/>
        <path class="cls-40" d="M500.38,71.89l-.43.54-.54.13a1.19,1.19,0,0,1-.53,1c-.35.25-.52.43-.52.57v.13l-.23.13a2.07,2.07,0,0,1-.84.82,2.51,2.51,0,0,1-.75.35l-.7-.1-.08.7a4.09,4.09,0,0,1-.73.53c-.06,0-.39,0-1-.13a3.8,3.8,0,0,1-1.75.43,23.25,23.25,0,0,1-2.63-.3.75.75,0,0,0-.55-.33,1.43,1.43,0,0,0-.66.2c-.12-.31-.54-.62-1.24-.94l.16-.49a1.32,1.32,0,0,1-.89-1.37l.08-.6-.94-.63-.5-2-.7-1.1V69l-.54-2.2.08-.86-.58-2.4-.08-1,.15-2.1-.31-2.66-1,1-1.67,2.49-.7,1.43a4.19,4.19,0,0,0-2,2.2c-.55,0-.82.5-.82,1.49a5.58,5.58,0,0,0-.81,1c-.24.35-.42.62-.57.82a1.93,1.93,0,0,0-.21.33v.17a4.44,4.44,0,0,0-1.66,2.29,5.29,5.29,0,0,0-.78,1,14.48,14.48,0,0,1-2.06,2.33,2.24,2.24,0,0,0-1.2,1.24,1.28,1.28,0,0,1-.83.76.64.64,0,0,0-.52.7v.3a8.43,8.43,0,0,0-2.37.66,1.1,1.1,0,0,1-1-.79l-.15-1-.47-.83v-.8l-.66-2.26a1.36,1.36,0,0,0,.08-.47,1.8,1.8,0,0,0-.39-.9l.31-2.29-.31-.5.31-1.1-.15-.6v-.46l-.31-.64.54-1-.39-2.13.16-.6.23-2.53-.54-1.56.15-1.24-.39-1c-.49-1-.79-1.73-.91-2s-.29-.48-.52-.48a.52.52,0,0,0-.31-.07,9.06,9.06,0,0,0-2,1l-1.12,1.3-1,.83L455,58.25l-.16.77-1.28,1.23-.54,1.3a2.58,2.58,0,0,0-.76,1.16c-.19.53-.41.83-.65.9a3.78,3.78,0,0,0-1,.5l-.08,1.23a7.09,7.09,0,0,0-.7,1.07,3.47,3.47,0,0,1-.85,1,2.41,2.41,0,0,0-.74,1.39c-.59,0-.89.31-.89.94a.86.86,0,0,1-.85.69,2.68,2.68,0,0,0-.31,1v.2c-.65.46-1,.75-1,.86a.68.68,0,0,0,.23.44,2.8,2.8,0,0,0-1.4,1.26,3.25,3.25,0,0,1-.81,1.1v.3a.71.71,0,0,1-.31.66c-.21.14-.56.42-1.07.85a2.1,2.1,0,0,1-1.26.65c-.38,0-.67-.52-.85-1.56a.83.83,0,0,0,.08-.4,1.06,1.06,0,0,0-.54-.9v-1a2.05,2.05,0,0,1,.31-1.06l-.39-1.5.08-1.1-.08-1.16v-.27a1.42,1.42,0,0,1,.39-1.09l.15-.54a10,10,0,0,0-.11-1q-.12-.77-.12-.9V64.18a2.39,2.39,0,0,1,.7-1.07l-.62-.7c.2-.15.27-.31.19-.48a1,1,0,0,1-.12-.38,1.91,1.91,0,0,1,.41-.82,3,3,0,0,0,.52-1.18l-.54-1.3.24-.66-.47-2.33.23-.93-.46-1.87.15-1.23-.54-1.06c.54-1.07,1.07-1.59,1.59-1.57l.31.14.23.93a1.07,1.07,0,0,1,1,1.1l-.16,1.43c0,.29.22.46.66.53a2.89,2.89,0,0,0-.73,1.43v.23l.42,3.46-.19,2.6-.31.73.31.83-.23.34.35.49a1.06,1.06,0,0,0-.59.87l.16.57a.9.9,0,0,1-.47.79l.31,1.9-.31.7a1.83,1.83,0,0,0-.21,1.23,3.26,3.26,0,0,1,.14.73.77.77,0,0,1-.16.57,4.56,4.56,0,0,1,.39.73,1.21,1.21,0,0,1-.39.7l.78.46,1.51-1.69.31-1a1.71,1.71,0,0,0,.7-.58,2.4,2.4,0,0,0,.38-.81,4.71,4.71,0,0,1,.93-1.4c.11,0,.27-.11.49-.34a9.85,9.85,0,0,0,.81-1,10.06,10.06,0,0,1,1.15-1.23,2.41,2.41,0,0,1,.37-.68,3.36,3.36,0,0,1,.5-.59,4,4,0,0,0,.64-1.36l.89-1.36.12-.5a3.5,3.5,0,0,1,.77-.9l1.48-1.33q.27,0,.93-1.2a6.18,6.18,0,0,1,1.47-1.85c.54-.43.83-.8.85-1.11.47-.07.7-.28.7-.63a1.29,1.29,0,0,0,1-.93l.23.06c.26,0,.56-.43.89-1.3a3.51,3.51,0,0,1,1.67-.89l1.9.4a.92.92,0,0,1,.15.43,1,1,0,0,1-.15.4l.54.13a5,5,0,0,0,1.13,1.7v1.1l.69.69v.87a5.92,5.92,0,0,1,.9,2.66l-.31,1.1.31,1-.74.73.43,2.13a4.52,4.52,0,0,0-.28,1.63l.28,1.83-.2.6.2.7-.28.27a14.53,14.53,0,0,1,.59,3.69l-.16.53-.35.27a2.46,2.46,0,0,1,.58,1.56l1.36.37,3.64-3.83a4.26,4.26,0,0,0,.72-1.14,14.77,14.77,0,0,1,.87-1.52c.29,0,.49-.32.6-1s.42-1,.92-1.11a1.29,1.29,0,0,1,.15-.72,6,6,0,0,1,1.36-.88V64c0-.62.5-1.28,1.51-2a6.5,6.5,0,0,1,1-1.89,6.61,6.61,0,0,0,1.39-1.47l.82-1.33a5.79,5.79,0,0,0,.73-1.56c.86-.27,1.57-1.16,2.14-2.66a1.72,1.72,0,0,0,1.2-1.43l1.28-.5,1.08.5-.38.33.54.46c-.42.14-.62.3-.62.5s.13.36.39.47l-.55.9-.46,3.13a1.28,1.28,0,0,1,.54.46,3.76,3.76,0,0,0-.62,2.33l.08,1.23-.16.47.24.89a2.12,2.12,0,0,1-.3.29.51.51,0,0,0-.21.38,1.3,1.3,0,0,0,.27.6c.31.09.47.39.47.9a.58.58,0,0,1-.23.4.53.53,0,0,1,.15.36,1,1,0,0,1-.23.4,6.13,6.13,0,0,0,.73,2.76,10.14,10.14,0,0,1,.62,2.43l1,.47.39,1.5a2.09,2.09,0,0,1,1.12.89l1,.34,1.17.2a4.65,4.65,0,0,0,.89.13,3.88,3.88,0,0,0,1.12-.23,6.21,6.21,0,0,0,1.13-.49,10.85,10.85,0,0,1,1.47-.64,10.65,10.65,0,0,0,1.2-1.64l1-.39.46-.7,1.09.06C500.26,71.48,500.3,71.83,500.38,71.89Z"/>
        <path class="cls-40" d="M527.09,71.56a2.4,2.4,0,0,1,.58,1.13,2.78,2.78,0,0,1-.72,1.13,6.7,6.7,0,0,0-1.1,1.83l-.59.07-.85,1.43-1,.14-2.13,1.23-.39.73-.66-.07-.69.7h-1.13l-.23.33-.54-.06a2.09,2.09,0,0,0-1.52.66l-.5-.33a3.7,3.7,0,0,1-1.32.33,2.73,2.73,0,0,1-1.43-.33,7,7,0,0,1-1,.07l-.47-.34a3.72,3.72,0,0,1-2.86-1v-.83l-1.28-.6-.31-.7a2.93,2.93,0,0,0-.86-.86v-.54l-.89-3.22.16-2.3.31-1.3V67.4l.42-1.23-.15-.9a1.34,1.34,0,0,0,.54-.74,3.75,3.75,0,0,1,.47-1,14.15,14.15,0,0,1-.31-1.7l.69-.5-.69-.66a2.74,2.74,0,0,0,.54-1l-.39-2a4.7,4.7,0,0,1,.23-1.43,1.33,1.33,0,0,0,1.05.6,10.59,10.59,0,0,0,1.51-.26,1.37,1.37,0,0,1-.07-.47c0-.31.2-.59.62-.83a11.93,11.93,0,0,1,1.74-3.13,1.57,1.57,0,0,0,.74-1.36H513l.39-.67.47-.16a2.56,2.56,0,0,1,.81-1,5,5,0,0,0,2.13-1.57,1.91,1.91,0,0,0,.66.07c.08,0,.29-.26.62-.77q1.37-.39,1.44-.39a1,1,0,0,1,.7.39l.73-.13.39.27h.46a1.59,1.59,0,0,0,1.59,1.1h.24a1,1,0,0,0,.5.69l-.35.14c.91.38,1.36,1.25,1.36,2.63l-.23.76.23,1.9-.39.3-.89,2-1.59,1.69-.08,1a24.75,24.75,0,0,1-4.65,2.73.53.53,0,0,1-.5.4,2.89,2.89,0,0,1-.62-.14l-1.75,1h-1l-1.51.6-.66-.33A6.82,6.82,0,0,0,509.8,63a3.06,3.06,0,0,0-1.21,2.5l-.54.57a6.19,6.19,0,0,1-.39,1.76l-.42.2.42,2.46-.42.33.07.77-.07.93a9.58,9.58,0,0,0,.19,1.26c.13.69.34,1.09.62,1.2-.13.31.12.69.76,1.13a6,6,0,0,0,2,.94v.39l2.06.27,2.94.13,2-.2a9.13,9.13,0,0,1,1.75-.89l.62-.8h.73l.08-.34a7.18,7.18,0,0,0,1.88-.68.5.5,0,0,0,.17-.35.78.78,0,0,1,.7-.4l.23-.43a2.4,2.4,0,0,0,2.18-2A1.55,1.55,0,0,1,527.09,71.56ZM520.57,56c.21,0,.56-.3,1-.83l.23-.8A13.91,13.91,0,0,0,523,52.61a2.57,2.57,0,0,0,.15-.94,6.84,6.84,0,0,0-.54-2L521,49.2a5.31,5.31,0,0,1-.81.14l-.47-.14a.82.82,0,0,0-.81.6,7.44,7.44,0,0,0-2.14.5l-.23.47a.7.7,0,0,0-.31-.07.66.66,0,0,0-.21,0,.77.77,0,0,0-.18.1l-.15.15a.93.93,0,0,0-.14.22c0,.09-.07.18-.11.28l-.12.3a2.48,2.48,0,0,1-.48.58l-.59.6-1.12,1.83-.58.44a1.46,1.46,0,0,0-.43.86,13.69,13.69,0,0,1-2.09,3.2l.54.26.27.57,1.32.33a7.42,7.42,0,0,1,2.4-.9l.24-.4a2.38,2.38,0,0,0,.62.14,1,1,0,0,0,.73-.41l.93-.13.59-.83h.54l.39-.73a3,3,0,0,0,2-.83Z"/>
      </g>
    </g>
  </g>
  <g id="kitten">
    <path class="cls-1" d="M1343.26,499.39a.93.93,0,0,0,.34.05l3.14.07a8.43,8.43,0,0,0-.12,1.33.45.45,0,0,0,.08.34c.15.16.42,0,.6-.07"/>
    <g>
      <path class="cls-41" d="M1408.61,480.08c0,26.76-23.15,41.31-50.76,42.51-28.09,1.22-53.45-16.12-50.76-42.51s24.52-41.34,50.76-42.51C1387,436.27,1408.67,452.69,1408.61,480.08Z"/>
      <g>
        <path class="cls-42" d="M1439.86,589.69a78.94,78.94,0,0,1,29.82,13.64c7.08,5.27,16.91,12.6,21.89,26,8.06,21.69-3.17,41.52-5.71,46-1.48,2.61-13.32,23.06-25.38,21.25-2.38-.35-5.72-1.72-6.34-4.12-1.09-4.19,7.12-7.48,14.59-16.18,2.5-2.91,10.71-12.72,11.74-26.65a41.29,41.29,0,0,0-7-26c-1.63-2.35-8.37-12.11-20-15.22-6.55-1.76-9.88-.11-14-3.49-4.86-4-7-12.11-4.44-14.6C1435.75,589.7,1437.05,589.1,1439.86,589.69Z"/>
        <path class="cls-41" d="M1334.06,519.85c-6.52,23.16-11.08,43.14-14.28,58.8-3.64,17.83-5,27.73-2.22,39.87a68.31,68.31,0,0,0,14,27.71c2.21,2.62,19.67,22.74,46.32,23,31.8.28,60.29-27.89,63.45-55.75,1.62-14.24-3.59-26.54-12.37-47.31a153.24,153.24,0,0,0-18.72-32.77c-7.79-10.33-12.87-17-20.31-21.29C1368.09,499.65,1339.67,516.4,1334.06,519.85Z"/>
        <path class="cls-42" d="M1348.32,667.34c-.74,1-1.88,1.46-3.58,2.08a13,13,0,0,1-4,.89,10.7,10.7,0,0,1-4.67-.9c-2.11-.94-2.33-2.1-2.59-4.26-.64-5.36-1.13-10.74-1.38-16.13s-.27-11,0-16.43.21-11.56,1.69-16.73c4.87-17,13.6-16.79,14.91,0,.74,9.74,1.27,19.5,1.27,29.26,0,4.39-.11,8.78-.39,13.16a56,56,0,0,1-.32,6.73A5.64,5.64,0,0,1,1348.32,667.34Z"/>
        <path class="cls-42" d="M1397.79,666.66c.82,1,2,1.32,3.72,1.82a13.57,13.57,0,0,0,4.1.6,10.69,10.69,0,0,0,4.59-1.23c2-1.09,2.18-2.26,2.28-4.43.26-5.4.37-10.8.23-16.19s-.5-11-1.15-16.39-1-11.52-2.87-16.57c-6-16.57-14.75-15.78-14.87,1.06,0,9.76.11,19.54.8,29.28.31,4.37.73,8.74,1.32,13.09a53.74,53.74,0,0,0,.81,6.7A5.67,5.67,0,0,0,1397.79,666.66Z"/>
        <g>
          <g>
            <path d="M1338.82,476.27c-.37,6.58-4.69,9.53-11.1,10.15s-10.38-3.14-11.09-10.15c-.56-5.57,4.32-9.63,11.09-10.15S1339.16,470.05,1338.82,476.27Z"/>
            <path d="M1389,476c-.36,6.83-4.68,11.13-11.09,10.54-5.65-.52-10.49-3.92-11.09-10.54-.54-5.86,6.07-10.54,11.09-10.54C1384.61,465.49,1389.3,469.56,1389,476Z"/>
          </g>
          <path class="cls-43" d="M1321.58,478c.22,1.33-.22,1.23-1.26-.19-.74-1.71-.39-3.49.81-5.33,1.45-1.56,1.7-1,1.25.19A8.61,8.61,0,0,0,1321.58,478Z"/>
          <path class="cls-43" d="M1373.29,478c.22,1.33-.21,1.23-1.26-.19-.73-1.71-.38-3.49.81-5.33,1.45-1.56,1.7-1,1.26.19A8.68,8.68,0,0,0,1373.29,478Z"/>
        </g>
        <g>
          <path class="cls-6" d="M1334.12,459.12l-.06,0h0l-.31,0c-8.08.86-13.48,3.53-17.26,7.28l-.12-.29c3.79-4.71,9.54-7.17,17.32-7.3a34,34,0,0,0-1.24-5l.37-.09C1333.19,455.08,1333.65,457,1334.12,459.12Z"/>
          <path class="cls-6" d="M1334.05,459.14l-.31.08v-.05Z"/>
          <path class="cls-6" d="M1335.17,454.64a1.62,1.62,0,0,1,.35-.12,29.18,29.18,0,0,1,1.53,4.37.51.51,0,0,0-.35.12A30.63,30.63,0,0,0,1335.17,454.64Z"/>
        </g>
        <g>
          <path class="cls-6" d="M1370.79,458h.08l.36,0c9.45-.38,16.15,1.44,21.16,4.57l.09-.31c-5.2-4.08-12.26-5.63-21.23-4.58a29.69,29.69,0,0,1,.54-5.11l-.45,0C1371.14,453.9,1371,455.91,1370.79,458Z"/>
          <path class="cls-6" d="M1370.87,458.05l.36,0s0,0,0,0Z"/>
          <path class="cls-6" d="M1368.79,453.77a1.58,1.58,0,0,0-.43-.07,25.33,25.33,0,0,0-1,4.56.66.66,0,0,1,.43.06A25.37,25.37,0,0,1,1368.79,453.77Z"/>
        </g>
        <path class="cls-44" d="M1346.47,488.17c4.28-2,9.09-2,14.27-.64-2.17,3-4.5,5.23-7.14,6l1.11,11.73a53.61,53.61,0,0,1,7.3,7.93c-.29.31-.67.29-1.11,0l-6.66-6.13a49.33,49.33,0,0,0-5.24,7.08c-.58-.1-.82-.3-.63-.63a49,49,0,0,1,5.08-7.62c-.25-4.83-.57-11-.64-12.37A13,13,0,0,1,1346.47,488.17Z"/>
        <path class="cls-41" d="M1402.51,458.37a.82.82,0,0,1-.45.14.8.8,0,0,1-.44-.13L1372,439.11a.79.79,0,0,1-.26-1.06l18.38-31.66a.8.8,0,0,1,.81-.38.79.79,0,0,1,.65.61l11.21,50.93A.78.78,0,0,1,1402.51,458.37Z"/>
        <polygon class="cls-44" points="1387.67 422.97 1381.63 434.95 1390.53 439.79 1387.67 422.97"/>
        <g>
          <path class="cls-41" d="M1335.75,445.22l-25.26,24.68a.78.78,0,0,1-.55.23.91.91,0,0,1-.32-.06.83.83,0,0,1-.48-.75l1-52.13a.78.78,0,0,1,.52-.73.76.76,0,0,1,.86.22l24.21,27.45A.79.79,0,0,1,1335.75,445.22Z"/>
          <polygon class="cls-44" points="1315.98 431.18 1324.25 441.75 1316.47 448.23 1315.98 431.18"/>
        </g>
        <g>
          <path class="cls-44" d="M1267.22,501.52c25-2.09,49.22-6.27,63.1-2.14l0,.48c-12.52-3.3-38.5-.35-63.11,2.13Z"/>
          <path class="cls-44" d="M1293.52,505.24c15.06-4.05,29.4-6,40.79-4.16l.07.67c-7-1.81-23.6-.63-40.79,4.16Z"/>
          <path class="cls-44" d="M1279.33,513.77c18.1-5.32,35.3-8.87,50.79-9.68l-.13-.69c-14.25.85-32,4.7-50.79,9.69Z"/>
          <path class="cls-44" d="M1293.75,521.2c13.36-7.1,26.88-12.14,40.59-14.65l-.22-.6c-13.74,2.39-27.26,7.44-40.58,14.65Z"/>
        </g>
        <g>
          <path class="cls-44" d="M1430.62,490.07c-25,2.64-49.54,3.06-62.39,9.72l.07.47c11.68-5.59,37.75-7.54,62.39-9.72Z"/>
          <path class="cls-44" d="M1410.77,497.06c-15.54-1.16-30-.41-40.84,3.55l.06.68c6.53-3.1,23.06-5.05,40.84-3.56Z"/>
          <path class="cls-44" d="M1422.57,504.08c-18.78-1.84-36.34-2.1-51.71,0v-.7c14.16-1.83,32.29-1.37,51.71,0Z"/>
          <path class="cls-44" d="M1410.2,513.5a140.55,140.55,0,0,0-42.61-6.79l.1-.63c14-.23,28.17,2.2,42.61,6.79Z"/>
        </g>
      </g>
    </g>
  </g>
  <g id="firedrop">
    <g>
      <path class="cls-45" d="M734.92,418l.1-.19c-.56,1.05,2.57,7.07,3.05,8.3,1.12,2.86,2.33,5.69,3.7,8.44,2.46,4.9,4.88,10.91,9.89,13.75a90,90,0,0,1-.34-9c-.15-3.68-.15-7.36,0-11A110.29,110.29,0,0,1,754.55,406,93.4,93.4,0,0,1,762,386.24c3-5.76,7.06-13.74,12.35-17.66-.83.62.33,7.89.46,9a72.74,72.74,0,0,0,2,10.34,116.4,116.4,0,0,0,7.57,20.25c2.77,5.9,5.86,11.7,7.78,17.93a35.81,35.81,0,0,1,1.73,13.63c-.13,1.49-1.68,5.13.23,5.12,1.26,0,3.89-2.82,4.81-3.63A39.27,39.27,0,0,0,811.11,421c2.77,5.44,3.71,11.6,4.54,17.65,1,7.19,1.87,14.48,1,21.69s-3.7,14.41-9.08,19.27c-4.41,4-10.21,6.12-16.06,7.14s-11.81,1-17.75,1.17c-5.38.16-10.82.47-16.13-.48a41.63,41.63,0,0,1-14.15-5.6c-5.9-3.61-11.17-8.48-14.42-14.59-4.07-7.63-4.75-16.75-3.22-25.27S730.88,425.54,734.92,418Z"/>
      <path class="cls-46" d="M764.91,471.24c-.07-.23,1.56-1.8,1.75-2,.69-.84,1.36-1.69,2-2.57a48.55,48.55,0,0,0,3.45-5.37,34.61,34.61,0,0,0,4.1-12c.21-1.53,0-3.3.32-4.78,1.41.74,2.73,2.6,3.69,3.84a24,24,0,0,1,2.67,4.35,24.4,24.4,0,0,1,2.23,10,27.53,27.53,0,0,1-1.17,9,7.76,7.76,0,0,0,2.78-.31,12.37,12.37,0,0,0,2.85-1.22,18,18,0,0,0,2.74-2c.72-.64,1.53-2.05,2.42-2.32a12.87,12.87,0,0,1-.4,3.36c-.17,1-.37,2-.61,3a31.17,31.17,0,0,1-1.63,5,19.93,19.93,0,0,1-4.4,6.51,19.49,19.49,0,0,1-4.47,3.17c-1.15.61-3.17.58-4.46.71-1.73.18-3.47.27-5.2.31-2.59.07-5.18,0-7.77-.07a22.51,22.51,0,0,1-4.71-.36A16.61,16.61,0,0,1,757,485.4a36.92,36.92,0,0,1-4.44-3,25.25,25.25,0,0,1-6.3-7.05,21.44,21.44,0,0,1-2.57-7.15c-.17-1-.24-2-.31-3a10.06,10.06,0,0,1,0-3.71c.4-1.14,3.36-.4,4.36-.24a24.27,24.27,0,0,1,5.67,1.59A34.26,34.26,0,0,1,764.91,471.24Z"/>
    </g>
    <g>
      <path class="cls-47" d="M930.92,776l.1-.19c-.56,1.05,2.57,7.07,3.05,8.3,1.12,2.86,2.33,5.69,3.7,8.44,2.46,4.9,4.88,10.91,9.89,13.75a90,90,0,0,1-.34-9c-.15-3.68-.15-7.36,0-11A110.29,110.29,0,0,1,950.55,764,93.4,93.4,0,0,1,958,744.24c3-5.76,7.06-13.74,12.35-17.66-.83.62.33,7.89.46,9a72.74,72.74,0,0,0,2,10.34,116.4,116.4,0,0,0,7.57,20.25c2.77,5.9,5.86,11.7,7.78,17.93a35.81,35.81,0,0,1,1.73,13.63c-.13,1.49-1.68,5.13.23,5.12,1.26,0,3.89-2.82,4.81-3.63a39.27,39.27,0,0,0,12.27-20.3c2.77,5.44,3.71,11.6,4.54,17.65,1,7.19,1.87,14.48,1,21.69s-3.7,14.41-9.08,19.27c-4.41,4-10.21,6.12-16.06,7.14s-11.81,1-17.75,1.17c-5.38.16-10.82.47-16.13-.48a41.63,41.63,0,0,1-14.15-5.6c-5.9-3.61-11.17-8.48-14.42-14.59-4.07-7.63-4.75-16.75-3.22-25.27S926.88,783.54,930.92,776Z"/>
      <path class="cls-46" d="M960.91,829.24c-.07-.23,1.56-1.8,1.75-2,.69-.84,1.36-1.69,2-2.57a48.55,48.55,0,0,0,3.45-5.37,34.61,34.61,0,0,0,4.1-12c.21-1.53,0-3.3.32-4.78,1.41.74,2.73,2.6,3.69,3.84a24,24,0,0,1,2.67,4.35,24.4,24.4,0,0,1,2.23,10,27.53,27.53,0,0,1-1.17,9,7.76,7.76,0,0,0,2.78-.31,12.37,12.37,0,0,0,2.85-1.22,18,18,0,0,0,2.74-2c.72-.64,1.53-2.05,2.42-2.32a12.87,12.87,0,0,1-.4,3.36c-.17,1-.37,2-.61,3a31.17,31.17,0,0,1-1.63,5,19.93,19.93,0,0,1-4.4,6.51,19.49,19.49,0,0,1-4.47,3.17c-1.15.61-3.17.58-4.46.71-1.73.18-3.47.27-5.2.31-2.59.07-5.18,0-7.77-.07a22.51,22.51,0,0,1-4.71-.36A16.61,16.61,0,0,1,953,843.4a36.92,36.92,0,0,1-4.44-3,25.25,25.25,0,0,1-6.3-7,21.44,21.44,0,0,1-2.57-7.15c-.17-1-.24-2-.31-3a10.06,10.06,0,0,1,0-3.71c.4-1.14,3.36-.4,4.36-.24a24.27,24.27,0,0,1,5.67,1.59A34.26,34.26,0,0,1,960.91,829.24Z"/>
    </g>
  </g>
  <g id="waterdrop">
    <g>
      <path class="cls-35" d="M1009.38,467.39a44.58,44.58,0,0,1-44,44.57,1.64,1.64,0,0,1-.38,0h0a44.56,44.56,0,0,1-44.39-44.57c0-15.48,9.67-30.51,17.44-42.59,7.3-11.33,15.92-24.35,25.9-35.29a1.71,1.71,0,0,1,1.26-.55h.13a1.7,1.7,0,0,1,1.29.77c3.83,5.81,8.48,11.75,13.41,18,7,9,14.27,18.21,19.85,28.05C1006.26,447.16,1009.38,457.47,1009.38,467.39Z"/>
      <path class="cls-36" d="M964.1,494.9c1.39.92,5,4.76,2.67,6.07-1.16.66-2.91.48-4.24.37a33.17,33.17,0,0,1-5.22-.68,19.19,19.19,0,0,1-4.76-2.1q-2.22-1.2-4.34-2.63a52.08,52.08,0,0,1-9-7.61c-6.35-6.79-10.42-15.42-10.69-24.5a10.32,10.32,0,0,1,1.88-6.88,6,6,0,0,1,2.08-2.09,3.14,3.14,0,0,1,2.22-.3c2.28.52,1.64,3.06,1.82,4.88a31.88,31.88,0,0,0,1.28,6.36A36.92,36.92,0,0,0,944,477.41C949.5,484.51,956.81,490,964.1,494.9Z"/>
    </g>
    <g>
      <path class="cls-35" d="M860.38,668.39a44.58,44.58,0,0,1-44,44.57,1.64,1.64,0,0,1-.38,0h0a44.56,44.56,0,0,1-44.39-44.57c0-15.48,9.67-30.51,17.44-42.59,7.3-11.33,15.92-24.35,25.9-35.29a1.71,1.71,0,0,1,1.26-.55h.13a1.7,1.7,0,0,1,1.29.77c3.83,5.81,8.48,11.75,13.41,18,7,9,14.27,18.21,19.85,28.05C857.26,648.16,860.38,658.47,860.38,668.39Z"/>
      <path class="cls-36" d="M815.1,695.9c1.39.92,5,4.76,2.67,6.07-1.16.66-2.91.48-4.24.37a33.17,33.17,0,0,1-5.22-.68,19.19,19.19,0,0,1-4.76-2.1q-2.22-1.2-4.34-2.63a52.08,52.08,0,0,1-9-7.61c-6.35-6.79-10.42-15.42-10.69-24.5a10.32,10.32,0,0,1,1.88-6.88,6,6,0,0,1,2.08-2.09,3.14,3.14,0,0,1,2.22-.3c2.28.52,1.64,3.06,1.82,4.88a31.88,31.88,0,0,0,1.28,6.36A36.92,36.92,0,0,0,795,678.41C800.5,685.51,807.81,691,815.1,695.9Z"/>
    </g>
  </g>
  <g id="fire">
    <g>
      <path class="cls-48" d="M332.48,808.3c10.63,48.65,25.43,84.5,47.81,97-14.94-56.77-4.71-105.81,59.13-138.34.19,43.49,9.2,83.59,30.83,118.82,7-20.24,9.38-40.28,3.68-60,55.9,93.09,55.4,147-9.35,156.17l-68.45,1.13C326.84,980.31,289.17,941,332.48,808.3Z"/>
      <path class="cls-46" d="M408.3,941.27c12.9-13.57,18.51-32.15,20.93-52.9,20.4,24.46,28.3,44.31,18.67,57.71,7.68-5.22,15.37-10.73,21.81-17.46,4.54-4.73,8.36-10.22,9.28-16.84.34,2,1.16,3.74,1.63,5.69s.95,4.12,1.37,6.2c.78,3.85,1.43,7.73,1.86,11.63a71.31,71.31,0,0,1-.19,19.9c-1.85,10.93-7.93,20.08-18.43,24.28-5.33,2.13-10.16,2.25-15.83,2.25H415.33c-4.95,0-10.08.71-15-.11a36.36,36.36,0,0,1-7.85-2.48A44.69,44.69,0,0,1,379,970.31c-10.26-9.73-15.7-23.53-19-37-.64-2.6-1-5.32-1.73-7.88.18.3,4.6-.31,5.12-.33,2.1-.07,4.2-.07,6.3,0a69.85,69.85,0,0,1,12.22,1.56,52,52,0,0,1,22,10.41A56.65,56.65,0,0,1,408.3,941.27Z"/>
    </g>
  </g>
</svg>
