<svg xmlns="http://www.w3.org/2000/svg" width="110" height="110" viewBox="0 0 110 110">
  <defs>
    <style>
      .cls-1 {
        fill: #54329e;
      }

      .cls-2 {
        fill: #a28dcc;
      }
    </style>
  </defs>
  <g id="start_screen_title">
    <g>
      <g>
        <g>
          <rect class="cls-1" x="40.04" y="34.69" width="65.93" height="45.69" rx="21.96" transform="translate(146.01 115.06) rotate(-180)"/>
          <g>
            <polygon class="cls-1" points="2.47 57.34 61.32 10.42 61.32 104.25 2.47 57.34"/>
            <path class="cls-1" d="M60.35,105.47,1.5,58.55a1.56,1.56,0,0,1,0-2.43L60.35,9.2A1.57,1.57,0,0,1,62,9a1.55,1.55,0,0,1,.88,1.4v93.83a1.56,1.56,0,0,1-.88,1.41,1.64,1.64,0,0,1-.68.15A1.53,1.53,0,0,1,60.35,105.47ZM5,57.34,59.76,101V13.65Z"/>
          </g>
        </g>
        <rect class="cls-2" x="43.15" y="30.01" width="65.93" height="45.69" rx="12.33" transform="translate(152.24 105.71) rotate(-180)"/>
        <g>
          <polygon class="cls-2" points="5.59 52.66 64.44 5.75 64.44 99.58 5.59 52.66"/>
          <path class="cls-2" d="M63.47,100.8,4.62,53.88a1.55,1.55,0,0,1,0-2.43L63.47,4.53A1.55,1.55,0,0,1,66,5.75V99.58a1.55,1.55,0,0,1-.88,1.4,1.44,1.44,0,0,1-.67.16A1.57,1.57,0,0,1,63.47,100.8ZM8.09,52.66,62.88,96.35V9Z"/>
        </g>
      </g>
      <g>
        <path d="M48.35,54.42l-.16.21.05.58-.51.7v.28l-.31.36.12.22a2.73,2.73,0,0,0-.5.75l-.48.29a.46.46,0,0,1-.31.22l-.37.08-.05.14-.07-.09-.21.09-.15-.09a.67.67,0,0,0-.33.12l0,.1-.34,0-.09.11-.17-.11-.43.23-.22-.23-.49,0L43,58.27a1,1,0,0,1-.61-.37l-.28-.09-.16-.46c0-.11-.12-.19-.32-.24l-.23.09-.33-.14-.36-.82.07-.19-.14-.27v-.44l-.09-.2.09-.39-.18-.21.09-.27v-.76l.09-.25,0-1.53.09-.6-.09-.1.16-.55-.07-.34v-.32l.12-.18a2.07,2.07,0,0,0-.12-.76l.22-.77-.15-.83.15-.09-.1-.28v-.43l0-.73.07-.21-.09-.43.09,0c-.08,0-.12-.09-.12-.14a.35.35,0,0,1,.06-.14.36.36,0,0,0,.06-.2v-.07l-.09-.23a1.33,1.33,0,0,0,0-.3,1,1,0,0,0-.19-.53c0-.11,0-.17.14-.17l-.14-.35.09-.3-.19-.48.26,0,0-.21.17-.1a.94.94,0,0,1,.17.43l.23.19-.16.15.31.38-.15.21-.16,0a1.84,1.84,0,0,1,.19.22.13.13,0,0,1-.1.12l.12.16-.12.11.22.16a.31.31,0,0,0-.1.24l.22.48-.09.27.09.07-.12,0a.47.47,0,0,1,.12.24c0,.07-.06.16-.2.26l.25,0a3.91,3.91,0,0,0-.08.5,1.29,1.29,0,0,1-.19.48c.12,0,.18.19.18.43l-.08.3.08.21-.23,1,.23.32-.23.4.07.36-.07.25.15.21-.22.22.07.16,0,.21,0,.13-.07.21.12.22-.12.17.12.24-.12.09a.79.79,0,0,1,.07.29.41.41,0,0,1-.16.3l.14.11,0,.37v1a1.13,1.13,0,0,0,.22.19c.11,0,.17-.12.17-.36v-.09a1.47,1.47,0,0,0,.24-.28A1.14,1.14,0,0,0,42.1,53v-.16l.11-.13A1.41,1.41,0,0,1,42.4,52l0-.45.15,0,0-.14.07,0,.07-.34.17-.33v-.15l.15-.28,0-.23.23-.3.16-.08v-.17a.45.45,0,0,0,.22-.38l.26-.31L44,49v-.12l.13-.1a1.36,1.36,0,0,1,.3-.6q-.09-.06-.09-.12s0-.08.12-.09l0-.12a1.64,1.64,0,0,0,.44-.25l.13-.36h.14l-.05-.12a1.12,1.12,0,0,1,.67-.16l-.19,0,.23-.13h.1l-.1-.09.14,0,0-.07h.24l0,.07.6.1.13.23a2.55,2.55,0,0,1,.11.63l.21,0,0,.34.21.19v.29l.08.12,0,.21.28.15.05.46v.09a1.6,1.6,0,0,0,.29.71.57.57,0,0,1-.17.3.31.31,0,0,0,.22.14.28.28,0,0,0,.16,0,.4.4,0,0,1-.21.39l.14,1a.12.12,0,0,1,.07.12l0,.21,0,1.28.07.21-.07.39Zm-.55-1.76-.07-.52v-.41l-.19-1.25-.22-.89L47,48.77l-.56-.92a.64.64,0,0,0-.19-.27l-.36.09-.16-.05-.17.23-.31.07v.3s-.06.06-.19.08-.21.14-.27.36a1.64,1.64,0,0,0-.38.42,1.84,1.84,0,0,1-.27.35H44l-.15.55-.19.28-.32.77a1.16,1.16,0,0,1-.14.6l-.32.55,0,.39-.33.48-.2.8-.23.18,0,0a.12.12,0,0,1,0,.07,1.24,1.24,0,0,1,0,.39,1.35,1.35,0,0,1-.11.57l-.18.07.11.39-.2.07,0,.25-.07.18q-.21.15-.21.27c0,.08,0,.12.14.12a.26.26,0,0,0-.09.16.25.25,0,0,0,.09.15l.5-.22.34,0s0,.07.05.07h0c.19,0,.29.06.31.2l0-.13,0,.2a1,1,0,0,1,.35.11v.32a1.33,1.33,0,0,1,.39.31h.82l.67-.17,0-.14.14.09.2-.15a2.27,2.27,0,0,1,.53-.18l0-.15h.21v-.11h.07c.11,0,.2-.1.25-.29a1.07,1.07,0,0,1,.12-.32l.67-.74v-.32l.27-.55V54l.07-.7,0-.33Z"/>
        <path d="M59.66,57.83l-.34.17-.07.21a1.4,1.4,0,0,0-.36.13l-.12-.09-.17.09-.38-.46v-.53L58,57.2l.05-.74L58,54.93l.09-.51-.16-.27.21-.12L58,53.82l0-.22.12-.09,0-.3h.13v-.48l.05-.23c-.07,0-.14-.09-.23-.22l-.37.17a.88.88,0,0,1-.32.39l0,.26-.27.11-.05.34-.16.12v.18a1,1,0,0,0-.34.42l-.16.1L56,55l-.57.57-.19.32-.5.53-.13.28-.69.48-.78.91-.25.07a1.1,1.1,0,0,0-.37.25h-.07c-.13,0-.24-.13-.31-.39-.61-.23-.92-.57-.95-1l.18-.11a3.07,3.07,0,0,1-.18-.94L51,55.89l.08-.13a.77.77,0,0,0,.07-.24c0-.12,0-.27.07-.48l.16-.89a.51.51,0,0,1,0-.16.54.54,0,0,1,.07-.27,1.25,1.25,0,0,1,0-.26,1.08,1.08,0,0,1,0-.25l.09,0a.78.78,0,0,0,.2-.46.23.23,0,0,0-.07-.18s-.08-.08-.08-.1,0-.09.13-.11c-.12,0-.18-.08-.18-.16s.09-.11.25-.11v0a.85.85,0,0,1,.15-.48,1.28,1.28,0,0,0,.16-.29l-.17,0,.32-.51v-.11a1.24,1.24,0,0,1,.33-.87l0-.43.11-.07A.35.35,0,0,1,52.6,49s0-.07.15-.07v-.38q.12,0,.12-.12a.23.23,0,0,0,0-.13q.07-.1.33-.39a2,2,0,0,0,.34-.47h.07c.18,0,.27,0,.27-.13a.16.16,0,0,0-.07-.11c.32,0,.49-.06.5-.19l.44-.22,1.24.1V47l1,.21h.09c.15,0,.22.06.22.2l.12,0a.26.26,0,0,0,.27.21l.12,0,.21.21.5.13v.21a3.54,3.54,0,0,1,.87-.39v.39h-.12l.24.12-.05,0,.19.61-.21.24-.1.39a1.69,1.69,0,0,1-.22.5l.15.3-.13.19A.91.91,0,0,0,59,51a.13.13,0,0,1,.07.12l0,.19,0,.17-.07.26L59,52l-.14.16,0,.53-.07.07.07.11-.07.07a.14.14,0,0,1,0,.09.35.35,0,0,1-.07.21l.07.15-.12.21c-.06,0-.09.16-.09.34l.09.31-.22.29a.82.82,0,0,0,.22.32,2.4,2.4,0,0,0-.29.92l.2.05,0,.13a.28.28,0,0,1,0,.16,1,1,0,0,1-.18.48h.15l.07.37.48,0,.17.31s-.07.06-.07.08.08.14.23.24h0s0,0,0,0S59.53,57.72,59.66,57.83Zm-1.23-8.62-.14-.44-.39-.11-.66-.6A.63.63,0,0,0,57,48a.76.76,0,0,0-.19,0l-.11-.12H56.3l-.12-.15-.27.11-.12-.11-.19.06-.38-.06a2.28,2.28,0,0,0-.84.27l0,.1-.21.07,0,.09-.27,0v.14a2,2,0,0,0-.55.77,8.59,8.59,0,0,1-.44,1.23l.19.09-.31.27.1.19a1.29,1.29,0,0,0-.21.74v.13l-.18.25v.41a.85.85,0,0,0-.21.44l-.09.09v.43l-.08.12a3.45,3.45,0,0,1-.1.65l.13.29a1,1,0,0,0-.34.29l.09.19-.14.19.19.48-.21.29,0,.57-.07.27.12.07,0,.17a.79.79,0,0,1,.34.27l.55-.13a.58.58,0,0,1,.53-.38l-.05-.17.38-.1a.36.36,0,0,0,0-.14.57.57,0,0,1,.21-.24h.05s.07,0,.07-.1l.43-.5h-.09l.26-.23a1,1,0,0,1,.38-.23l.18-.45c.3-.13.47-.3.5-.51h.14l.24-.3-.05-.2.22,0a.24.24,0,0,1,0-.12,1,1,0,0,1,.16-.26c.11-.15.2-.28.26-.38l.11,0a.57.57,0,0,1,.25-.44.6.6,0,0,1,.19-.3.44.44,0,0,1,.2-.11h.16l0-.29a.12.12,0,0,0,0-.09.17.17,0,0,0-.07-.14,1.56,1.56,0,0,1,.34-.44l.05-.26.16-.13,0-.21a1.11,1.11,0,0,0,.17-.43l.21-.21Z"/>
        <path d="M70.94,54.22l-.38.41a1.35,1.35,0,0,1,0,.33.79.79,0,0,1-.08.26,1.18,1.18,0,0,1-.17.22,2.51,2.51,0,0,0-.24.41,2.86,2.86,0,0,1-.28.45,2.35,2.35,0,0,1-.33.37A3.38,3.38,0,0,1,69,57a2.21,2.21,0,0,0-.58.42l-.2,0a1.73,1.73,0,0,0-.45.3l-.27,0-.55.41L66.76,58l-.5.24-.48-.12-.14.18-.29-.06-.29.06L65,58.25l-.33-.06a.7.7,0,0,1-.34-.15l-.38-.31-.35-.53a.91.91,0,0,1-.25-.65v-.09l-.26-.41v-.36l-.1-.14,0-.48-.09-.39.15-.38-.1-.17.24-.39-.07-.5L63.2,53a1,1,0,0,1,.22-.48l0-.55.17-.14-.07-.16.17-.23a7.42,7.42,0,0,1,.5-1.51l.41-.41.12-.3.19-.32a1.21,1.21,0,0,1,.24-.53.73.73,0,0,0,.48-.2c0-.27.22-.4.72-.4a1.85,1.85,0,0,1,.45.12.67.67,0,0,1,.46.38c.24,0,.36.09.36.26l.7,0,0,.22.14.16,0,.28.17.23,0,.3,0,.18,0,.48.12.16v.25l.07.5-.48.26-.51-.6,0-.77L67.7,50v-.3l-.28-.34a2.39,2.39,0,0,0-.54-.42l-.33.14h-.29a1.24,1.24,0,0,0-.51.2,2.23,2.23,0,0,0-.55.7,2,2,0,0,1-.5.66l0,.34-.2.17v.48l-.24.31-.09.33a2.06,2.06,0,0,0-.19.56c-.05.21-.09.32-.13.33l0,.39-.21.5,0,.36-.09,0,0,.91,0,0,0,.21-.11.09.35.41a1.27,1.27,0,0,1,.13.39l-.07.07.25.34.18.07,0,.23,1.28.29a.45.45,0,0,1,.3-.17l.25.06a.66.66,0,0,1,.32-.15l.18,0,.16-.1a.94.94,0,0,1,.46-.11c.13-.28.3-.41.5-.41l.19,0c.41-.17.61-.32.61-.46a.52.52,0,0,1,.51-.25h.09c.66-.73,1-1.12.94-1.19a1.47,1.47,0,0,0,.41-.67l.21-.14,0-.31C70.88,53.66,70.94,53.88,70.94,54.22Z"/>
        <path d="M86,56.46l-.12.26a1.43,1.43,0,0,1-.19.8c-.2.16-.3.29-.3.38a3.24,3.24,0,0,1-.21.44l-.21.17a.94.94,0,0,0-.2.33l-.78.42a3.67,3.67,0,0,1-.85.15l-.36-.17h-.28l-.25-.19L82,59l-.87-.46L79.2,56.82l-.48-.75-.39-.34a2.5,2.5,0,0,0-.38-.52,2.75,2.75,0,0,1-.45-.54,1.4,1.4,0,0,0-.66-.52l-.46-.91c0-.08.07-.33.18-.74l.46.32.26.28a5.7,5.7,0,0,0,.72.5h.31l.13.12a.67.67,0,0,1,.23,0,.56.56,0,0,1,.27.08,1.72,1.72,0,0,1,.67-.29,5.12,5.12,0,0,0,.67-.2l.11-.23h.54a.23.23,0,0,1,.14-.17l.14-.06h.07c.25,0,.41-.2.51-.59a2.84,2.84,0,0,0,.43-.25l.15-.15a2.12,2.12,0,0,0,.33-.53h0c.15,0,.31-.29.48-.89h.12l0-.17,0-.4,0-.41q0-.27-.69-.6a.33.33,0,0,0-.32-.22h-.07l-.14-.12c-.33,0-.68-.06-1-.11l-.64-.08a1.8,1.8,0,0,0-1,.36,2.85,2.85,0,0,0-.64.07l0,0-.27.07-.25.11-.28.17a2,2,0,0,1-.29.15l-.31.11-.84.69-.84.92v.16l-.4.8-.2.53a2.12,2.12,0,0,0-.39,1,.58.58,0,0,0,.11.31c0,.14,0,.23-.13.26a.88.88,0,0,0-.16.51l0,.21a.89.89,0,0,1-.07.36,1.52,1.52,0,0,0-.27.41l.1.44-.1.5.06.36a1.53,1.53,0,0,0-.18.74v.14a1.37,1.37,0,0,1,0,.18c0,.19-.15.32-.43.4s-.25-.19-.31-.46l-.09-.3.07-.41-.07-.94.07-.21V55l0-.31v-.29c0-.42,0-.79,0-1.11s0-.48,0-.49v-.39l0-.22v-.67l.07-.26L73.7,51l.07-.82v-1l-.07-.33.12-.22,0-.26L73.7,47l-.16-.8V46l.11-.89-.09-.39,0-.6a4.32,4.32,0,0,1-.05-.46c0-.32.18-.48.55-.48l.07.18.14-.08,0,.38.12.68-.16.72,0,.94.12.38-.07.38,0,.65-.1.51.12.48-.07.16.12.34-.07.6-.1,1.7a2,2,0,0,1,0,.36l0,.34,0,.46a1.14,1.14,0,0,1-.09.46,1.07,1.07,0,0,0,.34.23l.28-.6,0-.11a6.09,6.09,0,0,1,.46-1.18,6.67,6.67,0,0,1,1-1.66c.11,0,.16-.06.16-.12a.16.16,0,0,0,0-.1,6.81,6.81,0,0,0,.67-.44c.06-.07.12-.12.17-.17l.2-.13.2-.08a.33.33,0,0,0,.16-.09l.24-.15a4,4,0,0,1,.5-.21,1.46,1.46,0,0,1,1-.39l.92-.11,1.69.11.26.16a1.53,1.53,0,0,0,.41.11,8.61,8.61,0,0,0,.94.86.56.56,0,0,0-.07-.14l.33.77,0,.19a.61.61,0,0,1,.17.39,1,1,0,0,1-.27.52v.21l-.26.83-.36.52-.16,0a.76.76,0,0,1-.2.3.91.91,0,0,0-.19.29.63.63,0,0,0-.48.27.37.37,0,0,0-.27.26,1,1,0,0,0-.55.36.08.08,0,0,0,.07,0h0a12.34,12.34,0,0,1-2.24.82,1,1,0,0,0-.37-.13q-.18,0-.18.27v0l0,.12.19.22.08.35a.64.64,0,0,0,.4.41l.41.82.62.39,0,.11.27.15.09.24.14,0,.73.71.89.37.55.16.45,0,.22-.09a2.22,2.22,0,0,0,.72-.29,3.46,3.46,0,0,0,.38-.26l.43-.82.18-.22a2,2,0,0,0,.21-.47l.18,0A.23.23,0,0,1,86,56.46Z"/>
      </g>
    </g>
  </g>
</svg>
