<svg xmlns="http://www.w3.org/2000/svg" width="655" height="135" viewBox="0 0 655 135">
  <defs>
    <style>
      .cls-1 {
        fill: #54329e;
      }

      .cls-2 {
        fill: #a28dcc;
      }

      .cls-3 {
        fill: #391e62;
      }
    </style>
  </defs>
  <g id="pause">
    <rect class="cls-1" x="92.1" y="17.43" width="470.21" height="108" rx="14.14"/>
    <path class="cls-2" d="M104.41,119H545.9c7,0,12.65-6.71,12.65-15V23.35c0-8.27-5.66-15-12.65-15H104.41c-7,0-12.64,6.71-12.64,15v80.7C91.77,112.33,97.43,119,104.41,119Z"/>
    <g>
      <path class="cls-3" d="M157.16,36A2.49,2.49,0,0,1,156,37.21v.45l-.62.69c-.2.28-.39.42-.55.42a1.19,1.19,0,0,1-.38-.14l-1.89,2.27-.48.76-1.69.52-.87,1.27-.79.35a7.94,7.94,0,0,0-1.55,1.34l-.41-.27-.07-.87,1.62-.72c.23-1.15.52-1.8.88-2s.53-.24.53-.29v-.28l.35-.2.13.07.18-.52h.27l-.27-.62h1.1v-1l.52-.14.34-.55.55-.21.52-.93c.18,0,.32-.13.41-.41h.42l.07-.72a2.47,2.47,0,0,0,.86-1.42A2.76,2.76,0,0,1,157.16,36Zm7,35.5-.14.69-.66.48-.27.86-1,.28a3.47,3.47,0,0,1-1,1.76l-.86.31-.76.82A7,7,0,0,0,158.3,78h-.48a2,2,0,0,1-1.56.79c-.5.62-.79,1-.86,1.1a3.47,3.47,0,0,1-1.32.5c-.54.11-.88.18-1,.23l-.28.41h-1.13l-.62.48-1.76-1.31-1-2.27-.14-3.65-.21-.73.69-5.79.45-.34-.21-3.62A4,4,0,0,1,149,62.6a11.2,11.2,0,0,0,.37-1.57l.27-.17a4.53,4.53,0,0,0-.48-2l.27-.93V56.65l.35-.45c0-.32-.13-.69-.24-1.12a5.33,5.33,0,0,1-.17-.7c0-.37.09-.55.27-.55a.22.22,0,0,0,.14.06,5,5,0,0,1-.48-1.41c0-.34.16-.52.48-.52a1.21,1.21,0,0,1,.46.19,1.13,1.13,0,0,0,.54.19,1.16,1.16,0,0,0,.34-.13c0-.39.16-.59.49-.59s.43.05.46.16a10.69,10.69,0,0,1,.19,1.32l.76.35-.62.79-.72,4.51.58,1.14a1.72,1.72,0,0,1-.65,1.35l-.21.89.21.79-.83,2.9.07.34-.35,2.35V70.2L150,71.33l.13,1L150,73.92a7.48,7.48,0,0,0,.58,3.17l-.07.38.62.41.73-.21.82.35,1-.48a3.21,3.21,0,0,1,1.21-.52l.48-.48.14.2.41-.55.73-.2a4.31,4.31,0,0,1,1.76-.94,1.25,1.25,0,0,1,1-.55l.42-.65.79-.07-.17-.76h.31l.14-.38,1.48-.76.14-.86,1.34.07A4,4,0,0,1,164.16,71.54Z"/>
      <path class="cls-3" d="M209.34,70.13c.09.36-.2.73-.87,1.1l.11.24a3.71,3.71,0,0,1-.93,1.47,3.23,3.23,0,0,0-.93,1.7l-.76.21a1.54,1.54,0,0,1-1.28,1.69c-.07.27-.18.41-.34.41h-.14a.69.69,0,0,1-.79.59l-.41.82-1,.21-.83.55a1.57,1.57,0,0,1-.45.17l-1.55.28-.55-.07-.52.07-.21-.28-.62-.07-.79-1h-.34a1,1,0,0,1-.28-.76,3.49,3.49,0,0,1-1.14-1.93V75l-.48-.93v-.42l.35-.2-.28-1-.52-1.28.11-1.89-.73-1.14V66.37a51.77,51.77,0,0,1-1-6.27v-.28A3.75,3.75,0,0,1,192,59a.89.89,0,0,1,.07-.41,4.26,4.26,0,0,1-.83-2l-.35-.31-1.48,1.55-.72,1-2.48,3-1,1.75a17,17,0,0,1-.83,1.67,8.3,8.3,0,0,1-1.37,1.57l.2.66-.48,1.34-.55.07v.62h-.38l-1.34,1.62c-.05.78-.35,1.23-.9,1.34a4.43,4.43,0,0,0-.55,1.31c-.16.58-.43.88-.79.9L178,75a9.82,9.82,0,0,1-1.22,1.74,12.63,12.63,0,0,1-1.61,1.36c-.16.78-.44,1.25-.86,1.41l-.07.35a1.7,1.7,0,0,1-.34.91,3.16,3.16,0,0,1-1.69.77c-.34,0-.61-.43-.79-1.17S171,79.18,170.6,79l-.21-.45.55-.9-.06-.86.34-.34-.34-.62.06-.86-.55-1.55.49-.94-.28-1a6.76,6.76,0,0,0,.48-2.9v-.37a2.56,2.56,0,0,0-.41-.83,1.2,1.2,0,0,0,.55-.86l-.14-1.11.42-2.68-.28-.52.07-1.1-.35-.66.28-2.24-.14-.79.21-1.28-.21-1.82.49-.93A5.4,5.4,0,0,1,173,54a1.31,1.31,0,0,1,.17.64,15,15,0,0,1,.06,1.6l.58.93-.21,1.35.28,2.89-.48,1.55.2,1.83v.86l-.65,1,.45,1.48a7.42,7.42,0,0,0-.52,1.93l.35.82a9.35,9.35,0,0,0-.56,2.76l.07,2.55.21.35.86-.42h.69l.38-1.55a1.27,1.27,0,0,0,1-.79c.07-.55.43-.83,1.07-.83a1.5,1.5,0,0,1,.49-1.07c.18,0,.4-.33.65-1a6.6,6.6,0,0,0,1.14-1.48v-1h.07c.18,0,.39-.17.63-.5a1.1,1.1,0,0,1,.92-.5,2.82,2.82,0,0,1,.62-1.28l1-1.2.89-2a4.1,4.1,0,0,1-.14-.72.19.19,0,0,1,.21-.21c.94-.62,1.41-1.23,1.41-1.82v-.87c.72-.27,1.07-.52,1.07-.75a1.1,1.1,0,0,0-.1-.4,1.13,1.13,0,0,1-.1-.33c0-.23.09-.34.27-.34a1.06,1.06,0,0,1,.55.2q.53-1.89,1.59-1.89a2.3,2.3,0,0,1,.62.14,2.19,2.19,0,0,1,.62-1.62c.09-.3.64-.66,1.65-1.07l.35-.55h.27a3.4,3.4,0,0,0,1,1l.14.48.35.14.13,1.34.93.55-.31,1.21.52,2.2v2l.48,2.41.21,2.52.72,2.34.14,2.34s.15.27.36.67a4.7,4.7,0,0,1,.47,1.57l.31.21v1.07l.62.69-.14.51.48.28v.34a2.23,2.23,0,0,0,1.14.42,2.06,2.06,0,0,0,1.07-.28.88.88,0,0,0,.34.14c.21,0,.42-.18.62-.55.67-.07,1-.25,1-.55v-.17c.07-.17.54-.4,1.42-.69a3.86,3.86,0,0,1,.72-.69l-.07-.18a1.63,1.63,0,0,1,.26-.39,5.58,5.58,0,0,1,.67-.62,2.66,2.66,0,0,0,.66-.74l.38-.76c.29-.41.74-1.08,1.34-2l1-.48h.66Z"/>
      <path class="cls-3" d="M236.39,75.4l-.48.55a16.62,16.62,0,0,0-.93,2.14l-1,.72.07.41h-.93l-.9,1H231l-.79.42a1.18,1.18,0,0,0-.76.41,2.18,2.18,0,0,0-.93-.21,2.41,2.41,0,0,0-.89.21v.41l-1.28-.13-1,.13-.93-.13-.14.2-.34-.2-.62.2h-.45a3.29,3.29,0,0,0-1,.18l-.73-.25-.55.38-.27-.31-.52.31a3.21,3.21,0,0,0-1.48-.51,1.64,1.64,0,0,0-.62.2,3.27,3.27,0,0,0-1.21-.31l-1.55-.17a3.83,3.83,0,0,0-1.14.14l-.14-.28-.62.42a.6.6,0,0,0-.51-.28l-.21-.41c-1.45-.07-2.17-1.11-2.17-3.1l1.48-.21-.07-.52.35-.48.2.41h.42v.35l.65-.35c.37.07.55.25.55.52a1.64,1.64,0,0,1-.2.62l.62.07V79l1.79.27.69.62.2-.34,9-.55,3.11-.59.17-.34.76-.14.2-.28a7.35,7.35,0,0,0,2.83-1.13l.21.2.13-.41.52-.41.07-.24-.35-.49.14-.62-.79-.65-.14-.55A1.45,1.45,0,0,1,232,73l-.31.14-.69-.65h-.27l-.31-.42h-.69a.79.79,0,0,0-.79-.55l-.49.07a3.34,3.34,0,0,1-2.1-.72h-.72l-.9-.56-.45.28-.2-.34h-.49l-.79-.66-2.1-.9-.79-.72-2.38-.41-.07-.21-2-1.41-.9-2.28-.72-1.1-.21-3.27.21-.35a4.11,4.11,0,0,1,.72-2.41c.88-.51,1.33-1,1.35-1.48l.48.07a3.66,3.66,0,0,1,1.31-1.69l.86-.76,4.1-1.76,2.07-.38,2-.62,3.17.21.14.41h.21a1.21,1.21,0,0,1,.93.38v.62l.86.62c-.25,1.11-.38,1.73-.38,1.86a.54.54,0,0,1-.62.62c-.18,0-.51-.49-1-1.48L228.19,53l-.49.14a5.09,5.09,0,0,0-1.27-.82c-.14,0-.21.06-.21.2l-.65.48a2.86,2.86,0,0,0-1.9.62,3,3,0,0,0-1.82.87h-.8l-.58.44a5.62,5.62,0,0,1-1.38.49l-.28.34-.38.21-1,.93-.66,1c-.66.44-1,.73-1,.86l-.72,2.9.34.21v.2a2.42,2.42,0,0,0,1.14,2v.35l1.89,1.13h.45l1,1h1.41l.86.72,1.62.21.48.41,3,.93q0,.42.51.42a3.09,3.09,0,0,1,1.59.41,4.21,4.21,0,0,0,1.38.52l.07.34.62.34h1.34l1.21.8A2.21,2.21,0,0,0,235,73l-.07.21.34.48.62.14-.27.52A2.2,2.2,0,0,1,236.39,75.4Z"/>
      <path class="cls-3" d="M249.73,54.38l4.86.2,4.65-.2,1.14.07.48-.07h2.55c.48,0,.72.2.72.62s-.38.79-1.14.93a1,1,0,0,0-.58-.14,1.44,1.44,0,0,0-.9.34l-1-.2-1.89.07a5.43,5.43,0,0,1-2.62.72l-1.35-.24-.68.65h-.66v-.41l-1.21.55h-.62l-.2.62a11.85,11.85,0,0,0-2.07-.27c-.07.27-.18.41-.35.41s-.23-.09-.41-.28l-1,.14-.69.73-.2,3.44.13,2.07-.2,2.65.07,3,.2,1.41v1.28l.83,1.75v.31A3,3,0,0,0,249,76.81l.21.59,1.27.27.94,1,2.61.49,3.45-.8,1,.31,2.45-1.13.93.13a1.36,1.36,0,0,1,.48.9q0,.51-.9,1.14l-.51-.21-1.11.93-2.34.28-.79.48-.83-.48a5.27,5.27,0,0,1-2.48.62L252,81.05h-.76l-2.55-1.48-1.21-1.69-.83-.93-1.27-3.38-.59-3.17.31-1.27-.58-.69.27-.79-.27-1.28.72-.55-.31-.66.17-.82-.31-.93.14-1.35-.14-.69.31-.2V58.62c-.13-.62-.33-.93-.58-.93a.51.51,0,0,0-.42.27l-.79-.34-1.1.27L241,57.07h-.58c-.56,0-.83-.31-.83-.94l.07-1.06-.48-.35.27-.62,1,.14.79-.14,1.13.35h3l.14-1.62V51.21L245.07,50l.56-.41a2.38,2.38,0,0,0,.13-.52.89.89,0,0,0-.55-.76l.14-2.76-.59-.86.14-.62c-.46-.09-.69-.27-.69-.55l.48-1.86a5.16,5.16,0,0,0,.66-1,7.71,7.71,0,0,1,2.1,1.2V42l-.27.69a4,4,0,0,1,.48,1.55v.21a2.8,2.8,0,0,0-.21,1,.74.74,0,0,0,.21.55l-.07.58.07.76-.62,1,.41,1.76-.27,2.14.27.41-.41.62.55,1.76h1.27Z"/>
      <path class="cls-3" d="M292.08,53.24l-.21.86-2.06.28-1.35,1-.89.13-1.14.69-1.14.52a4.67,4.67,0,0,1-1.34.9V58l-1,.52-.72,1.14h-.76l-.38,1.1-.79.52a2,2,0,0,0-.76.75l-.69,1.28a2.18,2.18,0,0,0-.93,1.89l-.34-.13-.14.44-.52.35L276.4,67a3.28,3.28,0,0,0-.76,1.61l-.65.28V70.4a1.93,1.93,0,0,0-.35.76l.14.24-.69.28.21.55a10.7,10.7,0,0,1-1.07,2.55l.34.9-.68,1.13a5.92,5.92,0,0,1,.13,1.07L272.89,79l.31,1.24a1.41,1.41,0,0,0,.31.41l.51.52a4,4,0,0,1-.86,1.21l-.93-.35.14.62-1.55-.27v-.94l-.21-.62.21-1.13-.21-.49.14-2.41-.14-1.62c-.32-.11-.48-.25-.48-.41a1.74,1.74,0,0,1,.48-.86v-1a6.92,6.92,0,0,0-.07-1.2l.28-.35L270.54,70l.21-1.07-.21-.65.21-1.9-.35-.55.21-.66-.41-1.41.14-1.1a8.68,8.68,0,0,0-.14-1.28l.2-.34L270,58.62l-.52-.35.52-1.2a3.92,3.92,0,0,1-.72-2.35v-1a1.91,1.91,0,0,1-.42-.66A3.94,3.94,0,0,1,270.61,52l.52.14a3.52,3.52,0,0,0,.76,1.66l-.14,1.75.69,5.35a1.29,1.29,0,0,1-.42.93l.35,1.48-.21,1.07.21,1.13-.14.9.52,1.07-.31.21.24,1.62.55.13.24-1.38a4.66,4.66,0,0,1,.83-1.24,2.28,2.28,0,0,0,.89-1.75v-.42l.45-.2c.07,0,.13-.09.17-.26s.13-.26.25-.26h.2l.42-1.38,1.06-.72.07-.42h.49l-.21-.79,1.07-.48.07-.86,1-.14a3.22,3.22,0,0,0,1-1.35l.65-.13a7.65,7.65,0,0,1,1.28-1.28.34.34,0,0,0,.34-.21l1.14-.62L285,55l.62-.35a5.9,5.9,0,0,1,2.48-1.34h.27a1.42,1.42,0,0,0,1-.35l.62.21a1.52,1.52,0,0,1,.8-.34A3.67,3.67,0,0,1,292.08,53.24Z"/>
      <path class="cls-3" d="M327.16,77.47a7.65,7.65,0,0,1,1.14-.07c.51,0,.76.18.76.55s-.25.68-.76,1.07l-.52.27-.34.38a5.61,5.61,0,0,1-1.21.76l-1.13.35a3.93,3.93,0,0,1-2.31.41,5.35,5.35,0,0,1-1-.28,3.57,3.57,0,0,1-1.1-.48l-2.31-2.07-.52-2.17-.68-.65v-.35a3.44,3.44,0,0,0-.49-1.82l.07-1.69A10.73,10.73,0,0,0,317,70.2a3.21,3.21,0,0,0-.42-1.56l.21-3.17-.79.42-.48.76-.66.44a2.24,2.24,0,0,0-.69.83l-.62.07a1.91,1.91,0,0,0-.79,1.41,2.19,2.19,0,0,0-1.31,1.23,5,5,0,0,1-1.07,1.62,3.71,3.71,0,0,1-1.21,1,1.48,1.48,0,0,0-.65.41l-2,2.48h-.21l-1.65,2-1.31.72-.59.9a21,21,0,0,0-2.89,1.2l-1.07-.69a1.3,1.3,0,0,1-.49.07c-.27,0-.41-.12-.41-.38a.89.89,0,0,1,.07-.41l-.72-.41a1.52,1.52,0,0,1,.24-.73l-.93-.89.55-.73h-.76l-.52-1.34.52-.41-.65-.93q0-1.73.24-1.83l0-1.21a4.81,4.81,0,0,1,.38-1.48l-.59-.41a2.47,2.47,0,0,0,.59-1.35,3,3,0,0,0-.34-1.13c.27-.14.41-.51.41-1.11a7.54,7.54,0,0,0-.07-.93L296,62.27l.83-4.93a21,21,0,0,0-.34-2.69l-.28-1.2c0-.74.4-1.11,1.21-1.11l1,.28.52.62-.31,1.48-.14,3.55.14,2.24-.48,1.14.27.69-.27,1.07v.93c-.19.07-.25.21-.18.43a1.88,1.88,0,0,1,.11.46,1.39,1.39,0,0,1-.28.8l.48.62-.69.86.42.62-.21.93.21,1.14v1.34l.41.48-.34,1.69a2.13,2.13,0,0,0,.41,1.07l-.21.76.35,1a7,7,0,0,1,1.48,1.34,2.32,2.32,0,0,0,1.34-.69A10.48,10.48,0,0,1,303,76s-.1-.07-.28-.07q1.14-.53,1.14-1.14A3.65,3.65,0,0,0,305,74.5l.14-.86.69-.27A4,4,0,0,1,308.17,72l.07-.69,1.28-1.07A1.44,1.44,0,0,1,311,68.85l.28-.93.62-.27.93-1.35h.41v-.41l.66-.35.41-1c.57-.29,1.14-.56,1.69-.79l.27-.76.52-.2v-.45l.28-.07c.11-1.13.51-1.69,1.2-1.69l-.2-.21,1.31-3.89h.31v-1h.06c.16,0,.57-.85,1.21-2.55l1.24-.13-.14.27.73,1.35-.59,2.62-1,1.55-.73,2.62-.89.62v1.55l-.52,1,.14,1.13-.48.49.13,3.1L318.55,73l.21.42-.07.55h.2V75a6,6,0,0,1,1.14,2.1l1,.24.21.62c.64.28,1.2.54,1.68.79l.94-.07.75.21,1.11-.45A6.71,6.71,0,0,0,327.16,77.47Z"/>
      <path class="cls-3" d="M357.9,69.61l-1.1,1.21a4.47,4.47,0,0,1-.14,1,2.33,2.33,0,0,1-.24.76,3.47,3.47,0,0,1-.51.65,6.36,6.36,0,0,0-.69,1.21,9.79,9.79,0,0,1-.83,1.31,7.41,7.41,0,0,1-1,1.1,10.15,10.15,0,0,1-1.2.9A7.77,7.77,0,0,0,350.49,79l-.58.1a5.41,5.41,0,0,0-1.31.86l-.79.07-1.62,1.21-.55-.35-1.49.69-1.41-.34-.41.52-.86-.18-.83.18-.24-.25-1-.17a2.13,2.13,0,0,1-1-.45l-1.13-.93-1-1.55a2.72,2.72,0,0,1-.72-1.89v-.28l-.76-1.2V73.92l-.31-.42.14-1.41L334.33,71l.45-1.1-.31-.52.72-1.13-.2-1.49.17-.62a2.79,2.79,0,0,1,.65-1.41l.07-1.62.52-.41-.21-.45.49-.69a23.41,23.41,0,0,1,1.48-4.44l1.2-1.21.35-.86.55-1a3.85,3.85,0,0,1,.72-1.55,2.17,2.17,0,0,0,1.42-.58c0-.78.65-1.18,2.1-1.18a5.83,5.83,0,0,1,1.34.35,2,2,0,0,1,1.35,1.14c.71,0,1.07.25,1.07.75l2,.07.07.66.41.48-.07.83.52.65-.07.9.14.52-.14,1.41.34.48v.72l.21,1.49-1.41.75-1.48-1.75-.14-2.28-.28-.82V56.2l-.82-1A7.17,7.17,0,0,0,346,54l-1,.42h-.87a3.53,3.53,0,0,0-1.5.58,6.46,6.46,0,0,0-1.6,2,6,6,0,0,1-1.48,2l-.07,1-.58.48v1.42l-.69.93-.28,1a7.22,7.22,0,0,0-.57,1.66c-.12.59-.25.91-.36,1l.07,1.14L336.47,69l.14,1.07-.28.07-.07,2.69-.14.06.14.62-.31.28L337,75a3.25,3.25,0,0,1,.37,1.13l-.2.21.72,1,.55.21.07.69,3.76.86a1.3,1.3,0,0,1,.89-.52,3.46,3.46,0,0,1,.73.17,1.88,1.88,0,0,1,1-.45l.52.07a3.14,3.14,0,0,0,.48-.29,2.83,2.83,0,0,1,1.35-.33c.39-.8.88-1.2,1.48-1.2a1.67,1.67,0,0,1,.55.07c1.19-.51,1.79-1,1.79-1.35a1.5,1.5,0,0,1,1.48-.76h.28q2.89-3.19,2.76-3.48a4.28,4.28,0,0,0,1.2-2l.62-.42.07-.93C357.74,68,357.9,68.6,357.9,69.61Z"/>
      <path class="cls-3" d="M369.93,54.38l4.86.2,4.65-.2,1.14.07.48-.07h2.55c.49,0,.73.2.73.62s-.38.79-1.14.93a1.07,1.07,0,0,0-.59-.14,1.4,1.4,0,0,0-.89.34l-1-.2-1.9.07a5.37,5.37,0,0,1-2.62.72l-1.34-.24-.69.65h-.65v-.41l-1.21.55h-.62l-.21.62a11.85,11.85,0,0,0-2.06-.27c-.07.27-.19.41-.35.41s-.23-.09-.41-.28l-1,.14-.69.73-.21,3.44.14,2.07-.21,2.65.07,3,.21,1.41v1.28l.83,1.75v.31a3,3,0,0,0,1.41,2.31l.21.59,1.27.27.93,1,2.62.49,3.45-.8,1,.31,2.44-1.13.93.13a1.38,1.38,0,0,1,.49.9q0,.51-.9,1.14l-.52-.21-1.1.93-2.34.28-.8.48-.82-.48a5.3,5.3,0,0,1-2.48.62l-1.42-.28h-.76l-2.55-1.48-1.2-1.69-.83-.93-1.27-3.38L365,70.4l.31-1.27-.59-.69.28-.79-.28-1.28.73-.55-.31-.66.17-.82-.31-.93.14-1.35-.14-.69.31-.2V58.62c-.14-.62-.33-.93-.59-.93a.48.48,0,0,0-.41.27l-.79-.34-1.11.27-1.13-.82h-.59c-.55,0-.83-.31-.83-.94l.07-1.06-.48-.35.28-.62,1,.14.79-.14,1.14.35h3l.14-1.62V51.21L365.28,50l.55-.41a2.7,2.7,0,0,0,.14-.52.91.91,0,0,0-.55-.76l.14-2.76-.59-.86.14-.62c-.46-.09-.69-.27-.69-.55l.48-1.86a5.77,5.77,0,0,0,.66-1,7.71,7.71,0,0,1,2.1,1.2V42l-.28.69a4,4,0,0,1,.48,1.55v.21a3,3,0,0,0-.2,1,.77.77,0,0,0,.2.55l-.06.58.06.76-.62,1,.42,1.76-.28,2.14.28.41-.42.62L367.8,55h1.27Z"/>
      <path class="cls-3" d="M398.09,36a2.53,2.53,0,0,1-1.21,1.17v.45l-.62.69c-.21.28-.39.42-.55.42a1.11,1.11,0,0,1-.38-.14l-1.89,2.27-.49.76-1.69.52-.86,1.27-.79.35a7.64,7.64,0,0,0-1.55,1.34l-.41-.27-.07-.87,1.62-.72c.23-1.15.52-1.8.88-2s.53-.24.53-.29v-.28l.34-.2.14.07.17-.52h.28l-.28-.62h1.11v-1l.51-.14.35-.55.55-.21.52-.93c.18,0,.32-.13.41-.41h.41l.07-.72a2.37,2.37,0,0,0,.86-1.42A2.76,2.76,0,0,1,398.09,36Zm7,35.5-.13.69-.66.48-.27.86-1,.28a3.47,3.47,0,0,1-1,1.76l-.86.31-.76.82a7,7,0,0,0-1.2,1.28h-.49a2,2,0,0,1-1.55.79c-.5.62-.79,1-.86,1.1a3.52,3.52,0,0,1-1.33.5,10,10,0,0,0-1,.23l-.28.41h-1.14l-.62.48-1.75-1.31-1-2.27-.14-3.65-.21-.73.69-5.79.45-.34-.21-3.62A4,4,0,0,1,390,62.6a10.1,10.1,0,0,0,.36-1.57l.28-.17a4.53,4.53,0,0,0-.48-2l.27-.93V56.65l.35-.45c-.05-.32-.13-.69-.24-1.12a6.7,6.7,0,0,1-.18-.7c0-.37.1-.55.28-.55a.22.22,0,0,0,.14.06,5.17,5.17,0,0,1-.49-1.41c0-.34.17-.52.49-.52a1.28,1.28,0,0,1,.46.19,1.13,1.13,0,0,0,.54.19,1.16,1.16,0,0,0,.34-.13c0-.39.16-.59.48-.59s.43.05.47.16.1.54.19,1.32l.76.35-.62.79-.73,4.51.59,1.14a1.7,1.7,0,0,1-.66,1.35l-.2.89.2.79-.82,2.9.07.34-.35,2.35V70.2L391,71.33l.14,1L391,73.92a7.47,7.47,0,0,0,.59,3.17l-.07.38.62.41.73-.21.82.35,1-.48a3.14,3.14,0,0,1,1.21-.52l.48-.48.14.2.41-.55.73-.2a4.27,4.27,0,0,1,1.75-.94,1.27,1.27,0,0,1,1-.55l.42-.65.79-.07L401.4,73h.31l.13-.38,1.49-.76.13-.86,1.35.07A3,3,0,0,1,405.08,71.54Z"/>
      <path class="cls-3" d="M431.76,64.06l-.48,1.48.27.62-.24,1.66a3.56,3.56,0,0,1-.52,1.1v.83l-.51,1.41-.42.62a7.5,7.5,0,0,0-.69,1.79l-.51.21-.28.93-.76.48L427,76.47,426,77l-.1.93-.9.35-.84,1.1a2.13,2.13,0,0,1-.93.48,4.19,4.19,0,0,0-1,.41c-.12.74-.77,1.15-2,1.24a1.22,1.22,0,0,1-1,.52,1.66,1.66,0,0,1-.55-.14,4.07,4.07,0,0,1-1.79,1l-.55.86-.93-.55-.21.41-1-.41L411.74,83a11,11,0,0,0-1.83-2.52l.27-.93-1-2.55.42-.83-.42-1.93.42-1.1c0-.11,0-.42-.11-.91s-.1-.81-.1-1a1.33,1.33,0,0,1,.73-1.17v-.38a3.13,3.13,0,0,1,.41-1.55h.41a2,2,0,0,0,.52-1.35l-.21-.48.21-1.07v-.69a2.44,2.44,0,0,0,.62-1.55l-.21-1.13a1.46,1.46,0,0,1,.21-.83c.71-.37,1.07-.73,1.07-1.07a1.2,1.2,0,0,0-.28-.72l.69-1.21a1.16,1.16,0,0,1,.43-.45,1.48,1.48,0,0,0,.36-.24l-.13-.69a1.05,1.05,0,0,0,1.1-1.14,4.17,4.17,0,0,0-.21-1.27,3,3,0,0,0,3.1-2.41h.45c.32-.32.55-.49.69-.49a3.88,3.88,0,0,1,.6.18,6.19,6.19,0,0,0,1.68.17l1.1-.48v.48a4.21,4.21,0,0,1,1.79.79h1c.23.46.44.69.65.69l.14-.07a5.5,5.5,0,0,0,1.62,1.76l.34.86.66.28,1.1,1.62,1.14,3.24v.65Zm-2.24,2a1.59,1.59,0,0,0,.41-.87.77.77,0,0,0-.24-.5c-.16-.17-.24-.28-.24-.32h.41a1.38,1.38,0,0,0-.48-.73l.14-.2L429,62.27l.13-1.55-.65-1.1c-.51-.33-.76-.57-.76-.73v-.2a.36.36,0,0,0-.26-.37c-.17,0-.26-.15-.26-.29V58a6.15,6.15,0,0,1,.31-.89l-.44-.35-.69-.07-.28-.52.28-.41-.93-.48-.69-.66-2-.82-.83-.18c-1.36,0-2,.38-2,1.14l.1,2.35-1.41.06-2.2,1.35-.21.76-.79.51-.35,2-.69.48c-.13.07-.2.4-.2,1a4.85,4.85,0,0,0,.13,1.27l-.86.49c-.18.09-.27.54-.27,1.34a1.42,1.42,0,0,1-.66,1.07v.69l-.62,1v.62l-.2.45.13,1-.93,2.28.31.75v1.66L410.94,77l.07,1.72,1,1.35a3.28,3.28,0,0,0,1.24.75l.2.35.49-.14.44.14.83-.35,1.69.07.79-.2.21-.49.72.07c.74,0,1.1-.24,1.1-.72l1,.28.21-.56.66-.07.34-.79c.51-.39.78-.71.83-1h1.13l.35-.73,1.21-1.06.44-.66a2.29,2.29,0,0,1,.62-.59l1-.51a8.61,8.61,0,0,1,.62-2l-.13-.62,1-.45-.14-.34c.27-.39.53-.72.76-1h-.35a1.2,1.2,0,0,0,.28-.62,1.73,1.73,0,0,0-.11-.52,1.5,1.5,0,0,1-.1-.41,2.53,2.53,0,0,1,.21-1,2.93,2.93,0,0,0,.2-.66A.35.35,0,0,0,429.52,66Z"/>
      <path class="cls-3" d="M479.07,70.13c.1.36-.19.73-.86,1.1l.11.24a3.71,3.71,0,0,1-.93,1.47,3.23,3.23,0,0,0-.93,1.7l-.76.21a1.54,1.54,0,0,1-1.28,1.69c-.07.27-.18.41-.34.41h-.14a.69.69,0,0,1-.79.59l-.42.82-1,.21-.82.55a1.57,1.57,0,0,1-.45.17l-1.55.28-.55-.07-.52.07-.21-.28-.62-.07-.79-1h-.34a1,1,0,0,1-.28-.76,3.49,3.49,0,0,1-1.14-1.93V75l-.48-.93v-.42l.34-.2-.27-1-.52-1.28.11-1.89-.73-1.14V66.37a51.77,51.77,0,0,1-1-6.27v-.28a4,4,0,0,1-.14-.79,1,1,0,0,1,.07-.41,4.22,4.22,0,0,1-.82-2l-.35-.31-1.48,1.55-.72,1-2.48,3-1,1.75a17,17,0,0,1-.83,1.67,8.09,8.09,0,0,1-1.38,1.57l.21.66-.48,1.34-.55.07v.62h-.38l-1.35,1.62c0,.78-.34,1.23-.89,1.34a4.43,4.43,0,0,0-.55,1.31c-.16.58-.43.88-.8.9l-.27.28a10.37,10.37,0,0,1-1.22,1.74,12.63,12.63,0,0,1-1.61,1.36c-.16.78-.45,1.25-.86,1.41l-.07.35a1.79,1.79,0,0,1-.34.91,3.16,3.16,0,0,1-1.69.77c-.35,0-.61-.43-.79-1.17s-.46-1.18-.83-1.34l-.21-.45.55-.9-.07-.86.35-.34-.35-.62.07-.86-.55-1.55.48-.94-.27-1a6.76,6.76,0,0,0,.48-2.9v-.37a2.56,2.56,0,0,0-.41-.83,1.2,1.2,0,0,0,.55-.86l-.14-1.11.42-2.68-.28-.52.07-1.1-.35-.66.28-2.24-.14-.79L441,56.2l-.21-1.82.48-.93a5.56,5.56,0,0,1,1.4.51,1.31,1.31,0,0,1,.17.64,15.72,15.72,0,0,1,.05,1.6l.59.93-.21,1.35.28,2.89-.48,1.55.2,1.83v.86l-.65,1,.45,1.48a7.42,7.42,0,0,0-.52,1.93l.34.82a9.59,9.59,0,0,0-.55,2.76l.07,2.55.21.35.86-.42h.69l.38-1.55a1.27,1.27,0,0,0,1-.79c.07-.55.43-.83,1.07-.83a1.54,1.54,0,0,1,.48-1.07c.19,0,.41-.33.66-1a6.6,6.6,0,0,0,1.14-1.48v-1H449c.19,0,.4-.17.64-.5a1.1,1.1,0,0,1,.92-.5,2.82,2.82,0,0,1,.62-1.28l1-1.2.89-2a4.1,4.1,0,0,1-.14-.72.19.19,0,0,1,.21-.21c.94-.62,1.41-1.23,1.41-1.82v-.87c.72-.27,1.07-.52,1.07-.75a1.1,1.1,0,0,0-.1-.4,1.3,1.3,0,0,1-.11-.33c0-.23.1-.34.28-.34a1.06,1.06,0,0,1,.55.2c.35-1.26.87-1.89,1.59-1.89a2.38,2.38,0,0,1,.62.14,2.16,2.16,0,0,1,.62-1.62c.09-.3.64-.66,1.65-1.07l.35-.55h.27a3.4,3.4,0,0,0,1,1l.14.48.34.14.14,1.34.93.55-.31,1.21.52,2.2v2l.48,2.41.21,2.52.72,2.34.14,2.34s.14.27.36.67a4.7,4.7,0,0,1,.47,1.57l.31.21v1.07l.62.69-.14.51.48.28v.34a2.23,2.23,0,0,0,1.14.42,2.06,2.06,0,0,0,1.07-.28.88.88,0,0,0,.34.14c.21,0,.42-.18.62-.55.67-.07,1-.25,1-.55v-.17q.11-.25,1.41-.69a3.9,3.9,0,0,1,.73-.69l-.07-.18a1.63,1.63,0,0,1,.26-.39,4.89,4.89,0,0,1,.67-.62,2.66,2.66,0,0,0,.66-.74l.37-.76c.3-.41.75-1.08,1.35-2l1-.48h.66Z"/>
      <path class="cls-3" d="M506.13,75.4l-.48.55a17.52,17.52,0,0,0-.94,2.14l-1,.72.06.41h-.93l-.89,1h-1.21l-.79.42a1.18,1.18,0,0,0-.76.41,2.18,2.18,0,0,0-.93-.21,2.5,2.5,0,0,0-.9.21v.41l-1.27-.13-1,.13-.93-.13-.14.2-.34-.2-.62.2h-.45a3.4,3.4,0,0,0-1,.18l-.72-.25-.55.38-.28-.31-.51.31a3.2,3.2,0,0,0-1.49-.51,1.76,1.76,0,0,0-.62.2,3.21,3.21,0,0,0-1.2-.31l-1.55-.17a3.78,3.78,0,0,0-1.14.14l-.14-.28-.62.42a.61.61,0,0,0-.51-.28l-.21-.41c-1.45-.07-2.17-1.11-2.17-3.1l1.48-.21-.07-.52.34-.48.21.41h.42v.35l.65-.35c.37.07.55.25.55.52a1.53,1.53,0,0,1-.21.62l.62.07V79l1.8.27.69.62.2-.34,9-.55,3.1-.59.18-.34.75-.14.21-.28a7.35,7.35,0,0,0,2.83-1.13l.2.2.14-.41.52-.41.07-.24-.35-.49.14-.62-.79-.65-.14-.55a1.45,1.45,0,0,1-.69-.42l-.31.14-.69-.65h-.27l-.31-.42h-.69a.8.8,0,0,0-.8-.55l-.48.07a3.34,3.34,0,0,1-2.1-.72h-.72l-.9-.56-.45.28-.21-.34h-.48l-.79-.66-2.1-.9-.8-.72-2.37-.41-.07-.21-2-1.41-.9-2.28-.72-1.1-.21-3.27.21-.35a4.11,4.11,0,0,1,.72-2.41c.88-.51,1.32-1,1.35-1.48l.48.07a3.66,3.66,0,0,1,1.31-1.69l.86-.76,4.1-1.76,2.07-.38,2-.62,3.17.21.14.41H500a1.21,1.21,0,0,1,.93.38v.62l.86.62c-.25,1.11-.38,1.73-.38,1.86a.55.55,0,0,1-.62.62c-.18,0-.52-.49-1-1.48L497.93,53l-.49.14a5.09,5.09,0,0,0-1.27-.82c-.14,0-.21.06-.21.2l-.65.48a2.84,2.84,0,0,0-1.9.62,3.08,3.08,0,0,0-1.83.87h-.79l-.58.44a5.62,5.62,0,0,1-1.38.49l-.28.34-.38.21-1,.93-.66,1c-.66.44-1,.73-1,.86l-.72,2.9.34.21v.2a2.42,2.42,0,0,0,1.14,2v.35l1.89,1.13h.45l1,1h1.42l.86.72,1.62.21.48.41,3,.93c0,.28.18.42.52.42a3.14,3.14,0,0,1,1.59.41,4.25,4.25,0,0,0,1.37.52l.07.34.62.34h1.35l1.2.8a2.31,2.31,0,0,0,.93,1.27l-.06.21.34.48.62.14-.27.52A2.2,2.2,0,0,1,506.13,75.4Z"/>
    </g>
  </g>
</svg>
