<svg xmlns="http://www.w3.org/2000/svg" width="170" height="115" viewBox="0 0 170 115">
  <defs>
    <style>
      .cls-1 {
        fill: #f7931e;
      }

      .cls-2 {
        fill: #f15a24;
      }
    </style>
  </defs>
  <g id="foreground">
    <g>
      <path class="cls-1" d="M140.24,72.52c-.05,25.53-22.09,39.4-48.42,40.55-26.79,1.17-51-15.38-48.41-40.55S66.8,33.1,91.82,32C119.58,30.74,140.29,46.4,140.24,72.52Z"/>
      <g>
        <path class="cls-2" d="M85.25,87.69A12.34,12.34,0,0,1,79,83.62c3.95-2,8.52-2.38,13.54-1.59-1.87,2.69-3.94,4.76-6.39,5.65Z"/>
        <path class="cls-2" d="M93,73a.46.46,0,0,1-.19,0,.47.47,0,0,1-.22-.61c1.54-3.29,5.66-6,9.8-6.35a10.75,10.75,0,0,1,10,4.78.45.45,0,0,1-.1.63.46.46,0,0,1-.64-.1,9.74,9.74,0,0,0-9.17-4.41c-3.85.36-7.66,2.82-9.06,5.84A.47.47,0,0,1,93,73Z"/>
        <path class="cls-2" d="M57.05,74.24a.45.45,0,0,1-.19,0,.44.44,0,0,1-.21-.6,10.75,10.75,0,0,1,9-6.47c4.15-.34,8.68,1.56,10.77,4.53a.47.47,0,0,1-.11.64.46.46,0,0,1-.63-.11c-1.92-2.73-6.1-4.47-10-4.15a9.73,9.73,0,0,0-8.26,6A.45.45,0,0,1,57.05,74.24Z"/>
        <g>
          <path class="cls-2" d="M80.36,95.07a5.89,5.89,0,0,1-4.63-2.61l.72-.56c1.41,1.84,3.11,2.58,4.91,2.13a6.07,6.07,0,0,0,4.22-4.32l.89.15a7,7,0,0,1-4.89,5A5.17,5.17,0,0,1,80.36,95.07Z"/>
          <path class="cls-2" d="M91.79,94.22l-.5,0A6.9,6.9,0,0,1,85.76,90l.87-.28a6,6,0,0,0,4.75,3.6c1.86.18,3.45-.81,4.59-2.87l.79.44C95.55,93,93.8,94.22,91.79,94.22Z"/>
        </g>
        <g>
          <g>
            <path class="cls-1" d="M123.73,34l-2.72-16a.75.75,0,0,0-.63-.62.77.77,0,0,0-.79.41l-5.76,11.42a.77.77,0,0,0,.32,1l8.48,4.61a.77.77,0,0,0,.36.09.79.79,0,0,0,.44-.14A.76.76,0,0,0,123.73,34Zm-9.22-4.48,5.76-11.43,2.72,16Z"/>
            <path class="cls-1" d="M123.73,34l-2.72-16a.75.75,0,0,0-.63-.62.77.77,0,0,0-.79.41l-5.76,11.42a.77.77,0,0,0,.32,1l8.48,4.61a.77.77,0,0,0,.36.09.79.79,0,0,0,.44-.14A.76.76,0,0,0,123.73,34Zm-8.22-4.8,4.4-8.71L122,32.69Zm8.22,4.8-2.72-16a.75.75,0,0,0-.63-.62.77.77,0,0,0-.79.41l-5.76,11.42a.77.77,0,0,0,.32,1l8.48,4.61a.77.77,0,0,0,.36.09.79.79,0,0,0,.44-.14A.76.76,0,0,0,123.73,34Zm-8.22-4.8,4.4-8.71L122,32.69Zm8.22,4.8-2.72-16a.75.75,0,0,0-.63-.62.77.77,0,0,0-.79.41l-5.76,11.42a.77.77,0,0,0,.32,1l8.48,4.61a.77.77,0,0,0,.36.09.79.79,0,0,0,.44-.14A.76.76,0,0,0,123.73,34Zm-8.22-4.8,4.4-8.71L122,32.69Z"/>
            <path class="cls-1" d="M134.72,51,124,2.47a.75.75,0,0,0-1.39-.22L105.11,32.44a.75.75,0,0,0,.24,1l28.22,18.38A.72.72,0,0,0,134,52a.76.76,0,0,0,.43-.14A.75.75,0,0,0,134.72,51ZM123.43,34.71a.79.79,0,0,1-.44.14.77.77,0,0,1-.36-.09l-8.48-4.61a.77.77,0,0,1-.32-1l5.76-11.42a.77.77,0,0,1,.79-.41.75.75,0,0,1,.63.62l2.72,16A.76.76,0,0,1,123.43,34.71Z"/>
          </g>
          <g>
            <polygon class="cls-1" points="122.99 34.1 114.51 29.49 120.27 18.06 122.99 34.1"/>
            <path class="cls-1" d="M123.73,34l-2.72-16a.75.75,0,0,0-.63-.62.77.77,0,0,0-.79.41l-5.76,11.42a.77.77,0,0,0,.32,1l8.48,4.61a.77.77,0,0,0,.36.09.79.79,0,0,0,.44-.14A.76.76,0,0,0,123.73,34Zm-8.22-4.8,4.4-8.71L122,32.69Z"/>
          </g>
          <polygon class="cls-2" points="122.99 34.1 114.51 29.49 120.27 18.06 122.99 34.1"/>
        </g>
        <g>
          <path class="cls-1" d="M70.74,39.28,46.66,62.82a.79.79,0,0,1-.53.22.78.78,0,0,1-.3-.07.75.75,0,0,1-.46-.71l1-49.72a.74.74,0,0,1,.5-.69.76.76,0,0,1,.83.2L70.78,38.24A.76.76,0,0,1,70.74,39.28Z"/>
          <polygon class="cls-2" points="51.89 25.89 59.78 35.97 52.36 42.15 51.89 25.89"/>
        </g>
        <g>
          <path class="cls-2" d="M2.05,93c23.87-2,47-6,60.19-2v.46c-11.94-3.15-36.71-.33-60.18,2Z"/>
          <path class="cls-2" d="M27.14,96.52c14.36-3.86,28-5.74,38.9-4l.07.64c-6.67-1.74-22.51-.61-38.9,4Z"/>
          <path class="cls-2" d="M13.6,104.66c17.27-5.08,33.67-8.46,48.45-9.24l-.12-.65c-13.6.81-30.5,4.48-48.45,9.24Z"/>
          <path class="cls-2" d="M27.36,111.75a134.16,134.16,0,0,1,38.71-14l-.21-.57c-13.11,2.28-26,7.09-38.7,14Z"/>
        </g>
        <g>
          <path class="cls-2" d="M167.88,82.36c-23.83,2.51-47.24,2.92-59.51,9.27l.07.45c11.14-5.33,36-7.2,59.51-9.27Z"/>
          <path class="cls-2" d="M149,89c-14.83-1.1-28.62-.39-39,3.39l0,.64c6.24-3,22-4.81,39-3.38Z"/>
          <path class="cls-2" d="M160.21,95.72c-17.91-1.75-34.66-2-49.32,0v-.67c13.5-1.74,30.79-1.31,49.32,0Z"/>
          <path class="cls-2" d="M148.41,104.7a134.29,134.29,0,0,0-40.64-6.48l.09-.59c13.3-.23,26.87,2.09,40.64,6.47Z"/>
        </g>
      </g>
    </g>
  </g>
</svg>
