<svg xmlns="http://www.w3.org/2000/svg" width="230" height="295" viewBox="0 0 230 295">
  <defs>
    <style>
      .cls-1 {
        fill: #f7931e;
      }

      .cls-2 {
        fill: #f4800c;
      }

      .cls-3 {
        fill: #fff;
      }

      .cls-4 {
        fill: #42210b;
      }

      .cls-5 {
        fill: #f15a24;
      }
    </style>
  </defs>
  <g id="kitten">
    <g>
      <path class="cls-1" d="M142.79,76.22C142.73,103,119.63,117.53,92,118.73,63.93,120,38.57,102.61,41.26,76.22S65.78,34.88,92,33.71C121.12,32.41,142.84,48.83,142.79,76.22Z"/>
      <g>
        <path class="cls-2" d="M174,185.83a79,79,0,0,1,29.83,13.64c7.07,5.28,16.9,12.61,21.89,26,8.05,21.69-3.18,41.51-5.71,46-1.49,2.62-13.33,23.06-25.38,21.25-2.38-.35-5.72-1.72-6.35-4.12-1.09-4.19,7.12-7.48,14.59-16.18,2.5-2.91,10.71-12.72,11.74-26.65a41.19,41.19,0,0,0-7-26c-1.63-2.36-8.37-12.12-20-15.23-6.56-1.76-9.88-.11-14-3.49-4.87-4-7.06-12.11-4.44-14.59C169.93,185.85,171.23,185.24,174,185.83Z"/>
        <path class="cls-1" d="M68.23,116c-6.51,23.16-11.08,43.14-14.28,58.8-3.64,17.83-5,27.73-2.22,39.87a68.39,68.39,0,0,0,14,27.71c2.21,2.63,19.67,22.74,46.32,23,31.8.27,60.29-27.9,63.45-55.76,1.62-14.23-3.59-26.54-12.37-47.3a153.12,153.12,0,0,0-18.72-32.78c-7.79-10.32-12.86-17-20.3-21.29C102.26,95.79,73.85,112.55,68.23,116Z"/>
        <path class="cls-2" d="M82.5,263.48c-.75,1-1.89,1.47-3.58,2.09a13.73,13.73,0,0,1-4,.89,10.88,10.88,0,0,1-4.67-.91c-2.1-.94-2.33-2.1-2.59-4.26-.64-5.36-1.12-10.74-1.38-16.13s-.27-11,0-16.43.2-11.56,1.68-16.73c4.87-16.95,13.6-16.79,14.91,0,.75,9.74,1.28,19.5,1.28,29.26,0,4.39-.11,8.78-.39,13.16a58.28,58.28,0,0,1-.33,6.74A5.8,5.8,0,0,1,82.5,263.48Z"/>
        <path class="cls-2" d="M132,262.8c.82,1,2,1.33,3.72,1.82a13.58,13.58,0,0,0,4.1.61,10.81,10.81,0,0,0,4.59-1.24c2-1.08,2.18-2.26,2.29-4.43.26-5.39.36-10.79.23-16.19s-.51-11-1.16-16.39-1-11.52-2.87-16.56c-6.05-16.57-14.75-15.79-14.87,1.05,0,9.76.11,19.54.8,29.28.31,4.38.74,8.75,1.32,13.1a57.89,57.89,0,0,0,.81,6.69A5.6,5.6,0,0,0,132,262.8Z"/>
        <g>
          <g>
            <path d="M73,72.41C72.63,79,68.31,81.94,61.9,82.57S51.51,79.42,50.81,72.41c-.56-5.57,4.32-9.63,11.09-10.15S73.33,66.19,73,72.41Z"/>
            <path d="M123.13,72.16C122.77,79,118.46,83.29,112,82.7c-5.65-.52-10.48-3.91-11.09-10.54C100.42,66.3,107,61.62,112,61.63,118.79,61.63,123.48,65.7,123.13,72.16Z"/>
          </g>
          <path class="cls-3" d="M55.75,74.11c.22,1.32-.21,1.22-1.26-.19-.73-1.72-.38-3.5.81-5.34,1.45-1.55,1.7-1,1.26.19A8.72,8.72,0,0,0,55.75,74.11Z"/>
          <path class="cls-3" d="M107.46,74.11c.23,1.32-.21,1.22-1.25-.19-.74-1.72-.39-3.5.8-5.34,1.45-1.55,1.7-1,1.26.19A8.72,8.72,0,0,0,107.46,74.11Z"/>
        </g>
        <g>
          <path class="cls-4" d="M68.29,55.27h-.07l-.31,0c-8.07.85-13.48,3.52-17.25,7.27l-.13-.29c3.79-4.71,9.54-7.17,17.32-7.3a33.49,33.49,0,0,0-1.24-5l.38-.1C67.36,51.22,67.82,53.19,68.29,55.27Z"/>
          <path class="cls-4" d="M68.22,55.28l-.3.08a.06.06,0,0,1,0,0Z"/>
          <path class="cls-4" d="M69.34,50.79a1.4,1.4,0,0,1,.35-.13A28.46,28.46,0,0,1,71.22,55a.5.5,0,0,0-.35.13A27.63,27.63,0,0,0,69.34,50.79Z"/>
        </g>
        <g>
          <path class="cls-4" d="M105,54.18h.45c9.45-.38,16.14,1.43,21.15,4.56l.09-.3c-5.2-4.08-12.25-5.64-21.23-4.58a29.7,29.7,0,0,1,.54-5.12l-.44,0C105.31,50.05,105.14,52.05,105,54.18Z"/>
          <path class="cls-4" d="M105.05,54.19l.36,0v0Z"/>
          <path class="cls-4" d="M103,49.91a1.91,1.91,0,0,0-.43-.06,25.24,25.24,0,0,0-1,4.55.68.68,0,0,1,.43.07A25.29,25.29,0,0,1,103,49.91Z"/>
        </g>
        <path class="cls-5" d="M80.64,84.31c4.29-2,9.09-2,14.27-.63-2.17,3-4.5,5.22-7.13,6l1.11,11.72a53.52,53.52,0,0,1,7.29,7.93c-.29.31-.66.29-1.11,0l-6.66-6.12a48,48,0,0,0-5.23,7.08c-.59-.11-.82-.31-.64-.64a49.7,49.7,0,0,1,5.08-7.61L87,89.7A13.13,13.13,0,0,1,80.64,84.31Z"/>
        <path class="cls-1" d="M136.68,54.51a.75.75,0,0,1-.45.14.82.82,0,0,1-.43-.12L106.21,35.25a.77.77,0,0,1-.25-1.06L124.33,2.54a.79.79,0,0,1,1.46.22L137,53.69A.77.77,0,0,1,136.68,54.51Z"/>
        <polygon class="cls-5" points="121.85 19.12 115.81 31.1 124.7 35.93 121.85 19.12"/>
        <g>
          <path class="cls-1" d="M69.92,41.36,44.67,66.05a.83.83,0,0,1-.87.16.79.79,0,0,1-.48-.75l1-52.13a.78.78,0,0,1,.52-.73.79.79,0,0,1,.87.22L70,40.27A.79.79,0,0,1,69.92,41.36Z"/>
          <polygon class="cls-5" points="50.16 27.32 58.42 37.89 50.64 44.37 50.16 27.32"/>
        </g>
        <g>
          <path class="cls-5" d="M1.39,97.66c25-2.09,49.23-6.27,63.1-2.14l0,.48C52,92.7,26,95.66,1.4,98.13Z"/>
          <path class="cls-5" d="M27.69,101.38c15.06-4,29.4-6,40.79-4.16l.07.68c-7-1.82-23.6-.64-40.79,4.15Z"/>
          <path class="cls-5" d="M13.5,109.91c18.1-5.32,35.3-8.87,50.8-9.68l-.13-.68c-14.26.85-32,4.69-50.8,9.68Z"/>
          <path class="cls-5" d="M27.93,117.34a140.93,140.93,0,0,1,40.58-14.65l-.22-.59c-13.74,2.38-27.25,7.43-40.58,14.65Z"/>
        </g>
        <g>
          <path class="cls-5" d="M164.79,86.21c-25,2.64-49.53,3.06-62.39,9.72l.07.47c11.68-5.58,37.75-7.54,62.39-9.72Z"/>
          <path class="cls-5" d="M145,93.2c-15.55-1.16-30-.41-40.85,3.56l.06.67c6.53-3.1,23.06-5,40.85-3.55Z"/>
          <path class="cls-5" d="M156.74,100.22c-18.78-1.83-36.34-2.1-51.71,0v-.69c14.17-1.84,32.29-1.38,51.71,0Z"/>
          <path class="cls-5" d="M144.37,109.64c-14.45-4.47-28.67-6.89-42.61-6.79l.1-.63c14-.23,28.17,2.2,42.61,6.79Z"/>
        </g>
      </g>
    </g>
  </g>
</svg>
