<svg xmlns="http://www.w3.org/2000/svg" width="170" height="120" viewBox="0 0 170 120">
  <defs>
    <style>
      .cls-1 {
        fill: #f7931e;
      }

      .cls-2 {
        fill: #fff;
      }

      .cls-3 {
        fill: #42210b;
      }

      .cls-4 {
        fill: #f15a24;
      }
    </style>
  </defs>
  <g id="kitten">
    <g>
      <path class="cls-1" d="M144.66,75.75c0,26.76-23.15,41.31-50.76,42.51-28.09,1.23-53.45-16.12-50.76-42.51S67.66,34.41,93.9,33.24C123,31.94,144.72,48.36,144.66,75.75Z"/>
      <g>
        <g>
          <path d="M74.86,72c-.36,6.57-4.68,9.52-11.09,10.15S53.39,79,52.68,72c-.56-5.57,4.32-9.63,11.09-10.16S75.21,65.72,74.86,72Z"/>
          <path d="M125,71.7c-.36,6.82-4.68,11.12-11.09,10.53-5.65-.51-10.49-3.91-11.09-10.53-.54-5.87,6.07-10.55,11.09-10.54C120.66,61.17,125.35,65.23,125,71.7Z"/>
        </g>
        <path class="cls-2" d="M57.62,73.64c.23,1.33-.21,1.22-1.25-.19-.74-1.72-.39-3.5.81-5.34,1.45-1.55,1.69-1,1.25.2A8.68,8.68,0,0,0,57.62,73.64Z"/>
        <path class="cls-2" d="M109.33,73.64c.23,1.33-.21,1.22-1.25-.19-.74-1.72-.39-3.5.81-5.34,1.45-1.55,1.7-1,1.25.2A8.68,8.68,0,0,0,109.33,73.64Z"/>
      </g>
      <g>
        <path class="cls-3" d="M70.16,54.8h-.07l-.3,0c-8.08.86-13.48,3.52-17.26,7.27l-.12-.29c3.79-4.71,9.54-7.16,17.32-7.29a34.59,34.59,0,0,0-1.24-5l.37-.09C69.24,50.76,69.69,52.72,70.16,54.8Z"/>
        <path class="cls-3" d="M70.09,54.81l-.3.08v0Z"/>
        <path class="cls-3" d="M71.21,50.32a1.45,1.45,0,0,1,.36-.13,29.27,29.27,0,0,1,1.53,4.38c-.07,0-.2,0-.36.12A28,28,0,0,0,71.21,50.32Z"/>
      </g>
      <g>
        <path class="cls-3" d="M106.84,53.71h.44c9.45-.38,16.14,1.43,21.16,4.56l.09-.3c-5.2-4.08-12.26-5.63-21.23-4.58a29.81,29.81,0,0,1,.54-5.12l-.45,0C107.19,49.58,107,51.59,106.84,53.71Z"/>
        <path class="cls-3" d="M106.92,53.72l.36,0v0Z"/>
        <path class="cls-3" d="M104.84,49.45a1.58,1.58,0,0,0-.43-.07,24.41,24.41,0,0,0-1,4.55.69.69,0,0,1,.43.07A24.19,24.19,0,0,1,104.84,49.45Z"/>
      </g>
      <path class="cls-4" d="M82.51,83.84c4.29-2,9.1-2,14.28-.63-2.17,3-4.51,5.22-7.14,6L90.76,101a53.17,53.17,0,0,1,7.3,7.94c-.29.31-.67.29-1.11,0l-6.66-6.13a48.78,48.78,0,0,0-5.24,7.08c-.58-.1-.82-.31-.63-.64a49.57,49.57,0,0,1,5.07-7.61c-.24-4.83-.56-11-.63-12.37A13.13,13.13,0,0,1,82.51,83.84Z"/>
      <path class="cls-1" d="M138.56,54.05a.85.85,0,0,1-.45.14.84.84,0,0,1-.44-.13L108.08,34.79a.81.81,0,0,1-.25-1.07L126.21,2.07a.79.79,0,0,1,.8-.39.81.81,0,0,1,.66.62l11.21,50.92A.81.81,0,0,1,138.56,54.05Z"/>
      <polygon class="cls-4" points="123.72 18.65 117.68 30.63 126.58 35.46 123.72 18.65"/>
      <g>
        <path class="cls-1" d="M71.79,40.89,46.54,65.58a.82.82,0,0,1-.55.22.87.87,0,0,1-.32-.06.82.82,0,0,1-.48-.75l1-52.13a.79.79,0,0,1,1.39-.51L71.83,39.8A.78.78,0,0,1,71.79,40.89Z"/>
        <polygon class="cls-4" points="52.03 26.86 60.3 37.42 52.52 43.9 52.03 26.86"/>
      </g>
      <g>
        <path class="cls-4" d="M3.26,97.19c25-2.09,49.23-6.27,63.11-2.13l0,.47c-12.52-3.3-38.5-.34-63.11,2.14Z"/>
        <path class="cls-4" d="M29.57,100.92c15-4.06,29.4-6,40.79-4.16l.07.67c-7-1.82-23.6-.64-40.79,4.16Z"/>
        <path class="cls-4" d="M15.37,109.44c18.11-5.31,35.31-8.87,50.8-9.68L66,99.08c-14.25.85-32,4.69-50.8,9.68Z"/>
        <path class="cls-4" d="M29.8,116.88a140.44,140.44,0,0,1,40.58-14.65l-.21-.6c-13.74,2.38-27.26,7.43-40.58,14.65Z"/>
      </g>
      <g>
        <path class="cls-4" d="M166.66,85.75c-25,2.63-49.53,3.06-62.39,9.72l.08.47c11.68-5.59,37.75-7.55,62.39-9.72Z"/>
        <path class="cls-4" d="M146.82,92.73c-15.54-1.16-30-.41-40.84,3.56L106,97c6.53-3.09,23.06-5,40.84-3.55Z"/>
        <path class="cls-4" d="M158.62,99.75c-18.78-1.83-36.34-2.1-51.71,0v-.69c14.16-1.84,32.29-1.38,51.71,0Z"/>
        <path class="cls-4" d="M146.25,109.17c-14.46-4.47-28.68-6.89-42.61-6.79l.1-.63c13.94-.23,28.16,2.2,42.6,6.8Z"/>
      </g>
    </g>
  </g>
</svg>
