<svg xmlns="http://www.w3.org/2000/svg" xmlns:xlink="http://www.w3.org/1999/xlink" width="1920" height="1080" viewBox="0 0 1920 1080">
  <defs>
    <style>
      .cls-1 {
        fill: url(#linear-gradient);
      }

      .cls-2 {
        fill: none;
      }

      .cls-3 {
        fill: #f7931e;
      }

      .cls-4 {
        fill: #f15a24;
      }
    </style>
    <linearGradient id="linear-gradient" x1="2" y1="540" x2="1922" y2="540" gradientUnits="userSpaceOnUse">
      <stop offset="0" stop-color="#895ecc"/>
      <stop offset="0.1" stop-color="#8255cc"/>
      <stop offset="0.44" stop-color="#703dcc"/>
      <stop offset="0.74" stop-color="#652ecc"/>
      <stop offset="1" stop-color="#6129cc"/>
    </linearGradient>
  </defs>
  <g id="background">
    <rect class="cls-1" x="2" width="1920" height="1080"/>
    <g>
      <g>
        <path d="M509.26,232.91,506.67,234l.56,1.51c0,.85-1.19,1.27-3.57,1.27l-1.12,2.1-4.76,2.2A19.76,19.76,0,0,1,495,243.5a9,9,0,0,0-4.3,1.2c-1.48.8-2.46,1.32-2.95,1.56a15,15,0,0,1-1.64.68,13.52,13.52,0,0,1-1.86.52,18.14,18.14,0,0,0-2.66.85,14.57,14.57,0,0,1-2.1.71,9.83,9.83,0,0,1-1.09,0h-.91q-2.65,0-6.86,2.29l-2.17-.29-1.76.39a13.09,13.09,0,0,1-2.52.44,10.89,10.89,0,0,1-2.06-.22,10.19,10.19,0,0,0-1.51-.22h-.28a3.72,3.72,0,0,1-1.75.54,2.59,2.59,0,0,1-1.54-.64l-2.45-.19a4.69,4.69,0,0,0-1.47.29l-2-.49-1.33.39-2.87-.88-1.26-.68a21.43,21.43,0,0,0-3.29-.93l-.77-1.27c-2.29-.42-3.53-.66-3.71-.71s-.39-.44-.6-1.19a2.21,2.21,0,0,0-1.12-1.51,4.38,4.38,0,0,1-1.3-.93,6.45,6.45,0,0,1-.94-1.47,8.08,8.08,0,0,0-1.09-1.66,7.52,7.52,0,0,1-1.36-1.93,4.13,4.13,0,0,1-.46-1.83v-.29l.28-3.08a3.41,3.41,0,0,1-.84-2.1l.84-1.7v-1.71l.84-.3.28-1.61,1.75-4.59,1.26-2.2.63-.09.28-1.52c.47-.09.8-.67,1-1.73a4.15,4.15,0,0,1,1.72-2.66q1.44-1.08,1.44-1.71a1.78,1.78,0,0,0-.56-1.32l1.68-.39a11.12,11.12,0,0,1,2.73-2.1l.77-2.1,1.82-.78.56-1.61c2-.29,3.39-.87,4.13-1.74a4.46,4.46,0,0,1,2.81-1.53l.91-.64a11.46,11.46,0,0,1,2.94-.88l.42.2,1.61-1.12,1,.83,1.4.19a17.74,17.74,0,0,1,4.63-.58l2.87.34c.14,0,.49.14,1.05.34l4.48,1.17,10.09,4.44a4.31,4.31,0,0,0,2,2.1l.84,1.91a8,8,0,0,1,1.33,3.07l-.14,2.2a6.56,6.56,0,0,0-.35,2.1c0,.07.07.13.21.2s-.32.54-1,1.05-1.08.88-1.36,1.14l-2.59.39-.91-.48a2.12,2.12,0,0,1-.7-.49l-.42-.54a1.74,1.74,0,0,1-.46-.83c-.12-.39-.25-.76-.39-1.12V213l-.42-1.7v-2.4l.56-1.8a10.71,10.71,0,0,0-6.79-4c-.56-.1-.84-.21-.84-.34v-.1q-.07-.19-.63-.39a1.49,1.49,0,0,1-.77-.49h-3l-2-1.12c-1.41,0-2.11.2-2.11.59l-1.33-.59-1.4.68-1.89-.19-1.4.73a10.59,10.59,0,0,0-1.75-.1,8.34,8.34,0,0,0-2.17.3l-2.31,2.29-3.86,2.69-3,3.22-1.26.39-1.19,2.59-2,1.12v1.37L440,218.7,438.8,222h-1l.57,1.9L437,225.78l.42.68h-.84V228l-.56.3.14,3.9-.63,2.93c1.12,1.14,1.66,2,1.61,2.59l1.27.69v1.22l1.05,1.07-.63,1.12,2.73,2,.14,1,4.48,1.22-.42,1.27,5.88.34,1.83,1.27,3-.68,1.61,1.32,3.29-.83a4.13,4.13,0,0,1,1.89-.69q.42,0,.42.3l2.1-.1,1.19.68,2.32-.58h.7a4.66,4.66,0,0,0,3-.76,4.62,4.62,0,0,1,3-.76,16.85,16.85,0,0,1,2,.2c.23-.72,1.24-1.11,3-1.17a8.43,8.43,0,0,1,3.58-1.42,17.65,17.65,0,0,0,4.13-1l1.05-1.22c.51-.09,1.84-.5,4-1.22l1.54-1.36,2.46-.74,7.63-5.56,2.59-1Z"/>
        <path d="M561.87,226.71l-1,2.09.56.88L561,232a4.55,4.55,0,0,1-1.05,1.56v1.17l-1,2-.84.88a9.36,9.36,0,0,0-1.4,2.54l-1.06.29-.56,1.32-1.54.69-1.19,1.8-2.1.69-.21,1.32-1.82.48-1.72,1.57a5.09,5.09,0,0,1-1.89.68,10,10,0,0,0-2,.59c-.24,1-1.57,1.62-4,1.75a3,3,0,0,1-2,.74,5.28,5.28,0,0,1-1.12-.2,9.87,9.87,0,0,1-3.64,1.47l-1.12,1.22-1.89-.79-.42.59-2.11-.59-5-.34a16.75,16.75,0,0,0-3.71-3.56l.56-1.32L516,245l.84-1.18-.84-2.73.84-1.56a9.74,9.74,0,0,0-.21-1.3,9.26,9.26,0,0,1-.21-1.34c0-.68.49-1.24,1.47-1.66v-.54a3.53,3.53,0,0,1,.84-2.19h.84a2.41,2.41,0,0,0,1.05-1.91l-.42-.68.42-1.51v-1a3,3,0,0,0,1.26-2.2l-.42-1.61a1.61,1.61,0,0,1,.42-1.17c1.45-.52,2.17-1,2.17-1.52a1.47,1.47,0,0,0-.56-1l1.4-1.71a2,2,0,0,1,.88-.63,5.42,5.42,0,0,0,.74-.35l-.29-1c1.5-.1,2.25-.64,2.25-1.61a4.37,4.37,0,0,0-.42-1.81q4.76,0,6.3-3.42h.91a3.16,3.16,0,0,1,1.4-.68,12.23,12.23,0,0,1,1.23.24,17,17,0,0,0,3.39.25l2.25-.69v.69a10.56,10.56,0,0,1,3.64,1.12h2c.47.65.91,1,1.33,1l.28-.1a10,10,0,0,0,3.29,2.49l.7,1.22,1.33.39,2.25,2.29,2.31,4.59v.93Zm-4.55,2.78c.56-.49.84-.9.84-1.22a1,1,0,0,0-.49-.71c-.33-.25-.49-.4-.49-.46H558a2,2,0,0,0-1-1l.28-.29-1-1.61.29-2.2-1.34-1.56c-1-.46-1.54-.8-1.54-1v-.29c0-.26-.17-.43-.52-.52s-.53-.21-.53-.41v-.1a6.42,6.42,0,0,1,.63-1.27l-.91-.49-1.4-.09-.56-.74.56-.58-1.89-.68-1.4-.93-4.06-1.17-1.68-.25c-2.76,0-4.11.54-4.07,1.61l.21,3.32-2.87.1-4.48,1.9-.42,1.08-1.61.73-.7,2.88-1.41.69c-.28.09-.42.57-.42,1.41a4.79,4.79,0,0,0,.29,1.81l-1.76.68c-.37.13-.56.77-.56,1.91,0,.52-.44,1-1.33,1.51v1l-1.26,1.41v.88l-.42.64.28,1.36L519.56,240l.63,1.07v2.34l-.63,1.66.14,2.45,2.1,1.9a7.68,7.68,0,0,0,2.52,1.07l.42.49,1-.19.91.19,1.69-.49,3.43.1,1.61-.29.42-.68,1.47.09c1.5,0,2.24-.34,2.24-1l2,.39.42-.78,1.33-.1.71-1.12c1-.56,1.58-1,1.68-1.37H546l.7-1,2.45-1.51.91-.93a4.06,4.06,0,0,1,1.26-.83l2-.73a9.88,9.88,0,0,1,1.26-2.78l-.28-.88,2-.64-.28-.49c.57-.55,1.08-1,1.55-1.41h-.7c.37-.36.56-.65.56-.88a1.75,1.75,0,0,0-.21-.73,1.87,1.87,0,0,1-.21-.59,2.8,2.8,0,0,1,.42-1.37,2.82,2.82,0,0,0,.42-.92C557.88,229.75,557.69,229.59,557.32,229.49Z"/>
        <path d="M658,235.3c.19.52-.39,1-1.75,1.56l.21.34c0,.33-.63,1-1.89,2.08s-1.89,1.86-1.89,2.42l-1.54.29c0,1.37-.91,2.16-2.59,2.39a.75.75,0,0,1-.7.59h-.28c-.15.55-.68.83-1.62.83l-.84,1.17-2,.29-1.68.78a4.46,4.46,0,0,1-.91.25l-3.15.39-1.12-.1-1,.1-.42-.39-1.26-.1-1.61-1.42h-.71a1.25,1.25,0,0,1-.56-1.07c-1.54-1.17-2.31-2.08-2.31-2.74v-.78l-1-1.31v-.59l.7-.29-.56-1.42-1-1.81.21-2.68-1.47-1.61V230c-1.36-4.85-2-7.82-2-8.89v-.39a3.81,3.81,0,0,1-.28-1.12A1,1,0,0,1,623,219a5.17,5.17,0,0,1-1.68-2.78l-.7-.44-3,2.19-1.47,1.42-5,4.2-2,2.49a28.75,28.75,0,0,1-1.68,2.37,15.7,15.7,0,0,1-2.8,2.22l.42.93-1,1.9-1.12.1v.88h-.78l-2.73,2.29a1.93,1.93,0,0,1-1.82,1.91,5.59,5.59,0,0,0-1.12,1.85,1.75,1.75,0,0,1-1.61,1.27l-.56.39a14.69,14.69,0,0,1-2.49,2.47,24.38,24.38,0,0,1-3.25,1.93,2.64,2.64,0,0,1-1.75,2l-.15.49a2.06,2.06,0,0,1-.7,1.29c-.42.41-1.56.77-3.43,1.1-.7-.07-1.24-.62-1.61-1.66a2.72,2.72,0,0,0-1.68-1.9l-.42-.64L580,246l-.14-1.22.7-.49-.7-.88.14-1.22L578.89,240l1-1.32-.56-1.37a7.06,7.06,0,0,0,1-4.1v-.54q0-.24-.84-1.17c.75-.42,1.12-.83,1.12-1.22l-.28-1.56.84-3.81-.56-.73.14-1.57-.7-.92.56-3.18-.28-1.12.42-1.81-.42-2.59,1-1.31a13.77,13.77,0,0,1,2.84.73,1.47,1.47,0,0,1,.35.9,17.5,17.5,0,0,1,.1,2.27l1.19,1.32-.42,1.9.56,4.11-1,2.19.42,2.59v1.22L584,230.37l.91,2.1a8.27,8.27,0,0,0-1,2.73l.7,1.17a10,10,0,0,0-1.12,3.91l.14,3.61.42.49,1.75-.59h1.41l.77-2.19c1.07-.23,1.72-.6,2-1.13.14-.78.86-1.17,2.17-1.17a1.94,1.94,0,0,1,1-1.51c.37,0,.82-.47,1.33-1.42a10.42,10.42,0,0,0,2.31-2.1v-1.36h.14a2.07,2.07,0,0,0,1.3-.71,2.57,2.57,0,0,1,1.85-.71,3.83,3.83,0,0,1,1.26-1.81l2-1.71,1.82-2.78a3.92,3.92,0,0,1-.28-1q0-.3.42-.3c1.91-.88,2.87-1.74,2.87-2.58v-1.23c1.45-.39,2.17-.74,2.17-1.07a1.26,1.26,0,0,0-.21-.56,1.47,1.47,0,0,1-.21-.47c0-.32.19-.48.56-.48a2.62,2.62,0,0,1,1.12.29c.7-1.79,1.78-2.69,3.22-2.69a6.24,6.24,0,0,1,1.26.2,2.68,2.68,0,0,1,1.27-2.3c.18-.42,1.3-.92,3.36-1.51l.7-.78h.56a6.33,6.33,0,0,0,2,1.42l.28.68.7.19.28,1.91,1.89.78-.63,1.71,1,3.12v2.88l1,3.42.42,3.57,1.47,3.32.28,3.32.74,1a5.26,5.26,0,0,1,.94,2.22l.64.29V242l1.26,1-.28.74,1,.39v.49a5.45,5.45,0,0,0,4.48.19,2.32,2.32,0,0,0,.7.2,1.71,1.71,0,0,0,1.26-.78c1.36-.1,2-.36,2-.79v-.24c.14-.23,1.1-.55,2.87-1a7.69,7.69,0,0,1,1.48-1l-.14-.25a2.12,2.12,0,0,1,.52-.56,11.63,11.63,0,0,1,1.37-.88,4.24,4.24,0,0,0,1.33-1.05l.77-1.07c.6-.59,1.52-1.53,2.73-2.83l2-.69h1.33Z"/>
        <path d="M728.23,238,727,241.79l.28.88-.56.49a3.49,3.49,0,0,1,.84,2.15l-.28,1,.14,2a23.08,23.08,0,0,1-.63,4.73c-.42,1.92-.68,3.21-.77,3.86l-.21,1.47a9.06,9.06,0,0,1-1.54,2.73h.77l-.35,1.51-.84.74a4.36,4.36,0,0,0-.95,1.66,8.38,8.38,0,0,1-1.23,2.19c-.46.59-1.06,1.28-1.78,2.08a9.7,9.7,0,0,1-2.42,1.95c-.89.51-2.15,1.26-3.78,2.27l-2.17.69a6.52,6.52,0,0,1-2.59,1l-.7.59c-3.37.45-5.09.68-5.19.68h-.28l-.28.34a16.26,16.26,0,0,1-4.62.59h-5.11l-3.72-.59-2.31.3-1-.64-4.13-.39L679.9,275a26.78,26.78,0,0,0-3.65-1.62c-2.52-.71-4-1.79-4.55-3.22l.56-.49-.56-1.8a1.7,1.7,0,0,1,1.26-.49,1.25,1.25,0,0,1,.84-.39c.14,0,.69.06,1.65.19s2.09.23,3.4.3l-.14,1a5.21,5.21,0,0,1,2,.59,1.64,1.64,0,0,1-.28.83l-.28.49c0,.74.42,1.17,1.26,1.27,0,.42.08.65.24.68s.5.11,1,.24l6,1.37,1.61-.19.28.39h3.16a9.85,9.85,0,0,1,2.45.34c.88-.49,3.41-.87,7.56-1.13a5.47,5.47,0,0,0,2.31-.78c1.78-.13,2.83-.4,3.16-.83h.42a4.8,4.8,0,0,0,1.36-.19,3.35,3.35,0,0,0,1.16-.59l4.83-3.51,2.73-2.88.14-1.32,1.54-1.61.28-1.47.78-1.22.84-3,1.12-2.93-.14-2.1v-.78a5.9,5.9,0,0,1,1.05-3.61l-.91-2.2v-5.17l-1-1.91v-3l-1.26-2.1.28-3.37-1.76-3.71a1.69,1.69,0,0,0-1-.29,3,3,0,0,0-1.89,1l.28,1-2,.59-1,1.9-1.82,1.27-2.59,2.93-3.43,1.71-4.07,3.18c-1.21.78-2.32,1.46-3.32,2.05s-2,1.14-3.09,1.68a9.12,9.12,0,0,0-1.85,1.1l-.7.73a8.36,8.36,0,0,1-1.89,1l-2.32.73-1.26.93a17.86,17.86,0,0,1-3.08,1.36,2.21,2.21,0,0,1-1.82.69h-.42a12.12,12.12,0,0,1-6.3,1.71,15.72,15.72,0,0,1-2-.1l-1.19.49a13,13,0,0,0-3-.49q-5.32-3.72-5.88-6l-.84-3.9.28-2.49,1.61-3.81-.14-1.17.56-1.66a8.53,8.53,0,0,1,1.33-2.54,4.28,4.28,0,0,0,.84-2.44l.14-1.57,2.87-3.9a4.74,4.74,0,0,1,.84-.71,18,18,0,0,0,2.45-2.61l1.55-1.18a5.31,5.31,0,0,1,2.34-2.34,3.5,3.5,0,0,0,1.86-2.29,6.17,6.17,0,0,1,2.94-.88,3.75,3.75,0,0,0,3.08-1.91l1,.2,2.59-1.27a4.07,4.07,0,0,1,2.6-1.12,6.22,6.22,0,0,1,1.12.19l4.2-1.07,2.66.39h1.89l1.47.68h.84a15.11,15.11,0,0,0,2.77,2.1,16.87,16.87,0,0,1,2.7,2,3.62,3.62,0,0,1-.91,2.3h-2.24l-1.9-2.1a7.38,7.38,0,0,1-3-1.27l-.7.19a10.77,10.77,0,0,0-3-.63,10.52,10.52,0,0,0-4.9,1.32l-1-.1-.28.68h-1.34l-1.82.3a2.59,2.59,0,0,1-2.45,1.41,12.21,12.21,0,0,1-2.73,1.61l-.84,1.27-1.33.25-.14.68h-1.26l-2.31,2.78-1.89.93-.85,1.81-2,2.1a5,5,0,0,0-.49,2.29L671.7,228l-1.61,4.5-1.4,1.12.14,1.81-1.75,4.1.56,1.37-.28,1.9a3.25,3.25,0,0,1,1.12,1.51A2.36,2.36,0,0,0,670,245.7l.42,1a6,6,0,0,1,1.89.58,7.77,7.77,0,0,1,2-.29l1.4.19c.19,0,.77-.06,1.76-.19.65-.55,2.94-1,6.86-1.27.47-.36,1-.83,1.68-1.42a7,7,0,0,1,1.93-1.27c.63-.26,1.42-.62,2.38-1.1a11.64,11.64,0,0,1,2.07-.85c1.68-.29,2.52-.91,2.52-1.85q3.5-1,3.92-2.1l1.12-.25a6.07,6.07,0,0,0,1.51-.78,22.26,22.26,0,0,0,3.25-2.88l.84.39.56-.93,1.62-.39a.67.67,0,0,1-.14-.49,1.59,1.59,0,0,1,.84-1.22,3.94,3.94,0,0,0,1-.12,1,1,0,0,0,.67-.51l.49-.73,2.73-2.49h.56l.42-2q.84-.34,3.85-6.39l1.05-.25-.77-1.56-.49-1.61a4.23,4.23,0,0,0-.91-1.51l-1.47-1.71.91-1.57-.63-1.8a2,2,0,0,1,1.61-1,1.92,1.92,0,0,1,.77.15,7,7,0,0,1,1.54,1.66l1.4.49-.14,1.8.63,1.32a3.86,3.86,0,0,1,.36,1,5.19,5.19,0,0,0,.56,1.39,3.69,3.69,0,0,1,.49,1.39q0,.39-.42.39a8.36,8.36,0,0,0,1.82,2.59l-.42,2c1.07,1,1.61,1.58,1.61,1.81,0,.39-.31.79-.91,1.22l.35,1.27,1,.29-.42,1.32.56,2.59a4.18,4.18,0,0,1,.7,2.19s0,.1-.14.2a4.13,4.13,0,0,0-.42,2.29l1,.54Z"/>
        <path d="M797,211.37l-.42,1.22-4.21.39-2.73,1.42-1.82.2-2.31,1-2.31.73a9.79,9.79,0,0,1-2.73,1.27v.49l-2.11.73-1.47,1.62H775.3l-.77,1.56-1.61.73a3.69,3.69,0,0,0-1.54,1.08l-1.4,1.8a3,3,0,0,0-1.89,2.69l-.7-.2-.28.64-1.05.49-1,1.7c-1,1-1.54,1.78-1.54,2.3l-1.33.39v2.1a2.59,2.59,0,0,0-.7,1.07l.28.35-1.4.39.42.78a12.77,12.77,0,0,1-2.17,3.61l.7,1.27-1.4,1.61a5.81,5.81,0,0,1,.28,1.52l-.28,1.61.63,1.75a2.81,2.81,0,0,0,.63.59l1,.73a6.16,6.16,0,0,1-1.75,1.71l-1.89-.49.28.88-3.15-.39v-1.32l-.42-.88.42-1.61-.42-.68.28-3.42-.28-2.29c-.66-.17-1-.36-1-.59s.32-.67,1-1.22v-1.46a7.56,7.56,0,0,0-.14-1.71l.56-.49-.56-1.91.42-1.51-.42-.93.42-2.68-.7-.78.42-.93-.84-2,.28-1.57a8.83,8.83,0,0,0-.28-1.8l.42-.49-.84-3.42-1-.49,1-1.71a4.46,4.46,0,0,1-1.47-3.32v-1.36a2.81,2.81,0,0,1-.85-.93,8.51,8.51,0,0,1,3.58-1.61l1.05.19a4.54,4.54,0,0,0,1.54,2.35l-.28,2.49,1.4,7.56a1.63,1.63,0,0,1-.84,1.32l.7,2.1-.42,1.52.42,1.61L756.6,230l1,1.51-.63.29.49,2.3,1.12.19.49-2a7.09,7.09,0,0,1,1.68-1.76c1.22-.75,1.82-1.58,1.82-2.49v-.58l.91-.3c.14,0,.26-.12.35-.36a.5.5,0,0,1,.49-.37h.42l.84-2,2.18-1,.14-.58h1l-.42-1.13,2.17-.68.14-1.22,2-.2a5.21,5.21,0,0,0,2.1-1.9l1.33-.2a13.71,13.71,0,0,1,2.59-1.8.79.79,0,0,0,.7-.3l2.32-.87.56-.74,1.26-.48q3.7-1.9,5-1.91h.56a3.7,3.7,0,0,0,2-.49l1.26.3a3.81,3.81,0,0,1,1.61-.49A10.14,10.14,0,0,1,797,211.37Z"/>
        <path d="M852.63,249.61l-2,.68-.42.88a12.75,12.75,0,0,0-2.17.54l-.7-.35-1,.35L844,249.8v-2.2l-1-.63.28-3.08-.84-6.39.56-2.1-1-1.13,1.26-.48-.84-.88.28-.93.7-.39-.14-1.22H844v-2l.28-1a2.73,2.73,0,0,1-1.33-.93l-2.25.73a4.47,4.47,0,0,1-1.89,1.61l-.14,1.08-1.61.49-.28,1.41-1,.49V233a5.1,5.1,0,0,0-2,1.76l-1,.44-2.17,2.69-3.43,2.39-1.13,1.32-3,2.19L822.3,245l-4.13,2-4.62,3.81-1.54.29a6.55,6.55,0,0,0-2.18,1h-.42q-1.18,0-1.89-1.62-5.38-1.46-5.67-4.19l1.12-.49a10,10,0,0,1-1.12-3.91l-.77-.39.49-.54a2.14,2.14,0,0,0,.42-1q.13-.71.42-2l1-3.71a1.23,1.23,0,0,1-.14-.68,1.93,1.93,0,0,1,.42-1.12,3.38,3.38,0,0,1-.28-1.08,2.62,2.62,0,0,1,.28-1l.56-.1a3,3,0,0,0,1.19-1.9.91.91,0,0,0-.45-.79c-.31-.19-.46-.32-.46-.39,0-.23.26-.39.77-.48-.7-.1-1-.31-1-.64s.49-.49,1.47-.49v-.19a2.77,2.77,0,0,1,.88-2,3.6,3.6,0,0,0,.94-1.25l-1-.19,1.89-2.1v-.49a4.47,4.47,0,0,1,2-3.61l-.14-1.81.63-.29a1.32,1.32,0,0,1-.49-1c0-.19.31-.29.92-.29v-1.61c.46-.1.7-.26.7-.49a.94.94,0,0,0-.14-.54,20.51,20.51,0,0,1,2-1.61,8.85,8.85,0,0,0,2-2h.42c1.07,0,1.61-.18,1.61-.54,0-.13-.14-.29-.42-.49,1.91,0,2.92-.26,3-.78l2.59-.93,7.43.44v.39l6,.88h.56c.89,0,1.33.28,1.33.83l.7-.19a1.55,1.55,0,0,0,1.61.88l.71-.1,1.26.88,3,.53v.88a26,26,0,0,1,5.18-1.61v1.61h-.7l1.4.49-.28.2,1.12,2.54-1.26,1-.56,1.66a6.85,6.85,0,0,1-1.33,2l.91,1.27c-.09.1-.36.36-.8.78a3,3,0,0,0-.67,2.25c.28.1.42.26.42.49l-.28.83.14.68-.42,1.08.28.92-.84.69.28,2.19-.42.3.42.44-.42.29a.46.46,0,0,1,.14.39,1.29,1.29,0,0,1-.42.88l.42.63-.7.88c-.37.17-.56.64-.56,1.42l.56,1.27L846,235.69a3.81,3.81,0,0,0,1.33,1.32,8.22,8.22,0,0,0-1.75,3.86l1.19.19-.14.54a1.1,1.1,0,0,1,.14.68,3.47,3.47,0,0,1-1,2h.91l.42,1.52,2.87.19,1,1.27c-.28.13-.42.25-.42.34,0,.26.47.59,1.4,1h-.14c-.18,0-.28,0-.28.1S851.84,249.15,852.63,249.61Zm-7.35-35.94-.84-1.81-2.31-.49-4-2.49a3.92,3.92,0,0,0-1.47-.39,5.28,5.28,0,0,0-1.12.2l-.7-.49h-2.31l-.7-.64-1.61.44-.7-.44-1.19.25-2.25-.25a18.48,18.48,0,0,0-5,1.13l.28.39-1.26.29-.28.39-1.61.15v.58a9.31,9.31,0,0,0-3.29,3.18,27.68,27.68,0,0,1-2.59,5.12l1.12.4-1.82,1.12.56.78a4.32,4.32,0,0,0-1.27,3.08v.53l-1,1.08v1.71a3,3,0,0,0-1.26,1.8l-.56.39v1.81l-.49.49a9,9,0,0,1-.56,2.68l.77,1.22a5.49,5.49,0,0,0-2,1.23l.56.78-.84.78,1.12,2-1.26,1.22.14,2.39-.42,1.13.7.29.28.68a4.82,4.82,0,0,1,2,1.13l3.3-.54a3.57,3.57,0,0,1,3.15-1.56l-.28-.74,2.27-.41c.07,0,.18-.21.32-.56a2.33,2.33,0,0,1,1.26-1h.28q.42,0,.42-.39l2.59-2.1h-.56l1.54-1a7.33,7.33,0,0,1,2.31-.93l1.06-1.91c1.77-.52,2.77-1.22,3-2.1h.84l1.4-1.27-.28-.83L832,232a1,1,0,0,1-.28-.49c0-.1.33-.46,1-1.1s1.17-1.16,1.54-1.59l.63.2a2.5,2.5,0,0,1,1.54-1.81A2.32,2.32,0,0,1,837.5,226a3.1,3.1,0,0,1,1.19-.47h1l.14-1.22c.19-.13.28-.26.28-.39s-.14-.39-.42-.58a6.89,6.89,0,0,1,2-1.81l.28-1.07,1-.54-.28-.88a4.23,4.23,0,0,0,1-1.81l1.26-.88Z"/>
        <path d="M885.34,213l9.88.3,9.46-.3,2.31.1,1-.1h5.18c1,0,1.47.3,1.47.88s-.77,1.13-2.31,1.32a2.89,2.89,0,0,0-1.19-.19,3.62,3.62,0,0,0-1.82.48l-2-.29-3.85.1a14.82,14.82,0,0,1-5.33,1l-2.73-.34-1.4.93h-1.33v-.59l-2.45.79h-1.26l-.42.87a33.24,33.24,0,0,0-4.21-.39c-.14.39-.37.59-.7.59a1.81,1.81,0,0,1-.84-.39l-2,.19-1.4,1-.42,4.88.28,2.93-.42,3.76.14,4.2.42,2v1.81l1.68,2.49v.44q0,1.71,2.87,3.27l.42.83,2.6.39,1.89,1.42,5.32.68,7-1.12,2,.44,5-1.61L910,246c.65.46,1,.88,1,1.27s-.61,1-1.82,1.61l-1-.29-2.24,1.32-4.76.39-1.62.68-1.68-.68a14.37,14.37,0,0,1-5,.88l-2.87-.39h-1.54l-5.19-2.1-2.45-2.39L879,245l-2.59-4.79-1.19-4.49.63-1.81-1.19-1,.56-1.13-.56-1.8,1.47-.78-.63-.93.35-1.17-.63-1.32.28-1.91-.28-1,.63-.3V219c-.28-.88-.68-1.32-1.19-1.32a1.08,1.08,0,0,0-.84.39l-1.61-.49L870,218l-2.31-1.17H866.5q-1.68,0-1.68-1.32L865,214l-1-.49.56-.88,2.1.2,1.61-.2,2.31.49h6l.28-2.29v-2.3l-1-1.71,1.12-.58a2.51,2.51,0,0,0,.28-.74c0-.42-.37-.78-1.12-1.07l.28-3.91-1.19-1.22.28-.88c-.94-.13-1.4-.39-1.4-.78l1-2.63a8.58,8.58,0,0,0,1.33-1.37c2.85,1,4.27,1.55,4.27,1.71v.1l-.56,1a4.51,4.51,0,0,1,1,2.2v.29a3.07,3.07,0,0,0-.42,1.42.91.91,0,0,0,.42.78l-.14.83.14,1.07-1.26,1.42.84,2.49-.56,3,.56.58-.84.88,1.12,2.49h2.59Z"/>
        <path d="M989.23,245.7a22.07,22.07,0,0,1,2.31-.1c1,0,1.54.26,1.54.78s-.52,1-1.54,1.52l-1,.39-.7.53a14,14,0,0,1-2.46,1.08l-2.31.49c-.56.39-2.12.58-4.69.58a15.43,15.43,0,0,1-2.1-.39,9.47,9.47,0,0,1-2.24-.68l-4.7-2.93-1-3.08-1.4-.93v-.48a3.84,3.84,0,0,0-1-2.59l.14-2.39a12.54,12.54,0,0,0,.56-2.1,3.55,3.55,0,0,0-.84-2.2l.42-4.49-1.61.58-1,1.08-1.33.63a3.75,3.75,0,0,0-1.4,1.17l-1.26.1c-1.08.65-1.61,1.32-1.61,2a4.17,4.17,0,0,0-2.67,1.74,7.07,7.07,0,0,1-2.17,2.29,7.72,7.72,0,0,1-2.45,1.39,3.35,3.35,0,0,0-1.33.59l-4.13,3.51h-.42l-3.37,2.79-2.66,1-1.19,1.27a56.64,56.64,0,0,0-5.88,1.71l-2.17-1a4.18,4.18,0,0,1-1,.09c-.56,0-.84-.18-.84-.53a1,1,0,0,1,.14-.59l-1.48-.59a1.75,1.75,0,0,1,.49-1L927,245.7l1.12-1h-1.54l-1-1.9,1-.59-1.33-1.31c0-1.63.17-2.49.49-2.59l.07-1.71a5.38,5.38,0,0,1,.77-2.1l-1.19-.59a3,3,0,0,0,1.19-1.9,3.2,3.2,0,0,0-.7-1.61c.56-.2.84-.72.84-1.57a7.59,7.59,0,0,0-.14-1.31l-.56-3.32,1.68-7a19,19,0,0,0-.7-3.8l-.56-1.71c0-1,.82-1.57,2.45-1.57l2.11.39,1,.88-.63,2.1-.28,5,.28,3.18-1,1.61.56,1-.56,1.52v1.32c-.38.09-.49.3-.35.61a1.87,1.87,0,0,1,.21.66,1.57,1.57,0,0,1-.56,1.12l1,.88-1.41,1.22.85.88-.42,1.32.42,1.61v1.9l.84.68-.7,2.4a2.6,2.6,0,0,0,.84,1.51l-.42,1.07.7,1.42a14.2,14.2,0,0,1,3,1.91,5.65,5.65,0,0,0,2.73-1,21.91,21.91,0,0,1,3-1.71c0-.07-.18-.1-.56-.1,1.54-.49,2.31-1,2.31-1.61a10.88,10.88,0,0,0,2.31-.39l.28-1.22,1.41-.39a9.22,9.22,0,0,1,4.76-1.91l.14-1,2.59-1.52c.23-1.27,1.24-1.93,3-2l.56-1.32,1.26-.39,1.9-1.9h.84v-.59l1.33-.49.84-1.41c1.16-.43,2.31-.8,3.43-1.12l.56-1.08,1-.29v-.64l.56-.09c.23-1.6,1-2.4,2.45-2.4l-.42-.29,2.66-5.52H974V214.6h.14q.48,0,2.45-3.62l2.52-.19-.28.39,1.47,1.9-1.19,3.71L977,219l-1.47,3.71-1.82.88v2.2l-1.06,1.41.28,1.61-1,.69.28,4.39-.56,5.42.42.59-.14.78h.42v1.51c1.55,1.57,2.32,2.56,2.32,3l2,.34.42.88c1.3.39,2.45.77,3.43,1.13l1.89-.1,1.54.29,2.24-.63A14.84,14.84,0,0,0,989.23,245.7Z"/>
        <path d="M1036.79,238.28c.6.29.91.6.91.93,0,.81-.31,1.26-.91,1.36a4.71,4.71,0,0,1-3.44,1.91q0,.44-4.69,3.32a5.32,5.32,0,0,0-1.86.56c-.3.21-.94.62-1.92,1.24a2.81,2.81,0,0,0-2.59,1.18l-1.4.29-.56-.2-.42.83h-.43a11.55,11.55,0,0,0-3,.59c-1.3.39-2.12.62-2.45.68l-1.47.39h-1l-.84-.88-1.33-.78a9.33,9.33,0,0,0-2.17-2.63l-.42-2.4.14-1.17-.7-.63.14-2.88-.14-2.49.14-1.22a1.25,1.25,0,0,0,.42-.79,3.22,3.22,0,0,0-1-1.8c.37-2.77.56-4.3.56-4.59a2.53,2.53,0,0,0-1.12-1.81l1.12-.39.42-3.81-.28-1.61,1.05-1.81-.77-2a3.37,3.37,0,0,0,1.19-2.59v-3.32l.42-.78-.14-4.88.42-4.83a5.81,5.81,0,0,1-.7-3.76l.42-3-.42-1.08.7-4.54c.51-.13,1.06-.29,1.64-.48a5.21,5.21,0,0,1,1.09-.3,1.87,1.87,0,0,1,.56.2l.7,1.61,1.47.88-1,1v.39a2,2,0,0,0,.49,1.22c-.09,1.11-.44,1.66-1.05,1.66l.42.54a12.67,12.67,0,0,0,.77,4.2l-1.19,2.59.91.88a6.07,6.07,0,0,0-1.61,3.81c0,.65.42,1,1.26,1.22l-1,1.9a3.72,3.72,0,0,1,.56,1.17,2.65,2.65,0,0,1-.56,1.32l.28,1.17-.7,3.23-.07,1.51a15.11,15.11,0,0,1-1.19,3.17l.7,2.1-.42,3.81-.77.39.91,1.22-.63,1.91-.56,3,.56.73-.56.29a3,3,0,0,1,.91,2.39,2.94,2.94,0,0,1-.63,1.18l.63,1.12-.35,1.51.63,1.08-.28.83,1.54,3.27,1.75.49a13.35,13.35,0,0,1,3.29-.88l.84.1,2-1.18a5.83,5.83,0,0,1,1.75-.53,3.16,3.16,0,0,1,2.45-1l.7-.54,1,.1.28-.49,1.4-.29,1.33-.68,1.4-.3a12.94,12.94,0,0,0,1.37-.88,11.93,11.93,0,0,1,2.2-1.22c0-.29.31-.53.92-.73a.77.77,0,0,0,.56.2A3.47,3.47,0,0,0,1036.79,238.28Z"/>
        <path d="M1099,249.61l-2,.68-.42.88a12.51,12.51,0,0,0-2.17.54l-.7-.35-1.06.35-2.24-1.91v-2.2l-1-.63.28-3.08-.84-6.39.56-2.1-1-1.13,1.26-.48-.84-.88.28-.93.7-.39-.14-1.22h.77v-2l.28-1a2.78,2.78,0,0,1-1.33-.93l-2.24.73a4.58,4.58,0,0,1-1.89,1.61l-.14,1.08-1.61.49-.28,1.41-1,.49V233a5,5,0,0,0-2,1.76l-1,.44-2.18,2.69-3.43,2.39-1.12,1.32-3,2.19-.77,1.18-4.13,2-4.63,3.81-1.54.29a6.43,6.43,0,0,0-2.17,1h-.42q-1.2,0-1.89-1.62-5.4-1.46-5.68-4.19l1.13-.49a10.06,10.06,0,0,1-1.13-3.91l-.77-.39.49-.54a2,2,0,0,0,.42-1l.42-2,1-3.71a1.15,1.15,0,0,1-.14-.68,1.93,1.93,0,0,1,.42-1.12,3.38,3.38,0,0,1-.28-1.08,2.62,2.62,0,0,1,.28-1l.56-.1a3,3,0,0,0,1.19-1.9.92.92,0,0,0-.46-.79q-.45-.29-.45-.39c0-.23.25-.39.77-.48-.7-.1-1.05-.31-1.05-.64s.49-.49,1.47-.49v-.19a2.8,2.8,0,0,1,.87-2,3.68,3.68,0,0,0,1-1.25l-1-.19,1.89-2.1v-.49a4.45,4.45,0,0,1,2-3.61l-.14-1.81.63-.29a1.28,1.28,0,0,1-.49-1c0-.19.3-.29.91-.29v-1.61c.47-.1.7-.26.7-.49a.94.94,0,0,0-.14-.54,20.51,20.51,0,0,1,2-1.61,8.44,8.44,0,0,0,2-2h.42q1.62,0,1.62-.54c0-.13-.14-.29-.42-.49,1.91,0,2.91-.26,3-.78l2.59-.93,7.42.44v.39l6,.88h.56c.88,0,1.33.28,1.33.83l.7-.19a1.54,1.54,0,0,0,1.61.88l.7-.1,1.26.88,3,.53v.88a26.31,26.31,0,0,1,5.19-1.61v1.61h-.7l1.4.49-.28.2,1.12,2.54-1.26,1-.56,1.66a6.85,6.85,0,0,1-1.33,2l.91,1.27-.81.78a3.09,3.09,0,0,0-.66,2.25c.28.1.42.26.42.49l-.28.83.14.68-.42,1.08.28.92-.84.69.28,2.19-.42.3.42.44-.42.29a.46.46,0,0,1,.14.39,1.29,1.29,0,0,1-.42.88l.42.63-.7.88c-.38.17-.57.64-.57,1.42l.57,1.27-1.34,1.22a3.82,3.82,0,0,0,1.34,1.32,8.21,8.21,0,0,0-1.76,3.86l1.19.19-.14.54a1,1,0,0,1,.14.68,3.47,3.47,0,0,1-1,2h.91l.42,1.52,2.88.19,1,1.27c-.28.13-.42.25-.42.34,0,.26.46.59,1.4,1h-.14c-.19,0-.28,0-.28.1S1098.19,249.15,1099,249.61Zm-7.36-35.94-.84-1.81-2.31-.49-4-2.49a4,4,0,0,0-1.47-.39,5.18,5.18,0,0,0-1.12.2l-.7-.49h-2.32l-.7-.64-1.61.44-.7-.44-1.19.25-2.24-.25a18.41,18.41,0,0,0-5,1.13l.28.39-1.26.29-.28.39-1.61.15v.58a9.23,9.23,0,0,0-3.3,3.18,26.5,26.5,0,0,1-2.59,5.12l1.12.4-1.82,1.12.56.78a4.31,4.31,0,0,0-1.26,3.08v.53l-1,1.08v1.71a2.92,2.92,0,0,0-1.26,1.8l-.56.39v1.81l-.49.49a9.37,9.37,0,0,1-.56,2.68l.77,1.22a5.34,5.34,0,0,0-2,1.23l.56.78-.84.78,1.12,2-1.26,1.22.14,2.39-.42,1.13.7.29.28.68a4.88,4.88,0,0,1,2,1.13l3.29-.54a3.6,3.6,0,0,1,3.15-1.56l-.28-.74,2.28-.41c.07,0,.17-.21.31-.56a2.32,2.32,0,0,1,1.27-1h.28q.42,0,.42-.39l2.59-2.1h-.56l1.54-1a7.13,7.13,0,0,1,2.31-.93l1-1.91c1.77-.52,2.78-1.22,3-2.1h.84l1.4-1.27-.28-.83,1.33-.19a1.09,1.09,0,0,1-.28-.49c0-.1.33-.46,1-1.1s1.16-1.16,1.54-1.59l.63.2a2.5,2.5,0,0,1,1.54-1.81,2.28,2.28,0,0,1,1.12-1.24,3.1,3.1,0,0,1,1.19-.47h1l.14-1.22c.19-.13.28-.26.28-.39s-.14-.39-.42-.58a7,7,0,0,1,2-1.81l.28-1.07,1-.54L1089,219a4.23,4.23,0,0,0,1-1.81l1.26-.88Z"/>
        <path d="M1131.7,213l9.88.3,9.45-.3,2.31.1,1-.1h5.18c1,0,1.47.3,1.47.88s-.77,1.13-2.31,1.32a2.92,2.92,0,0,0-1.19-.19,3.59,3.59,0,0,0-1.82.48l-2-.29-3.85.1a14.77,14.77,0,0,1-5.32,1l-2.73-.34-1.4.93H1139v-.59l-2.46.79h-1.26l-.42.87a32.82,32.82,0,0,0-4.2-.39c-.14.39-.37.59-.7.59a1.73,1.73,0,0,1-.84-.39l-2,.19-1.4,1-.42,4.88.28,2.93-.42,3.76.14,4.2.42,2v1.81l1.68,2.49v.44c0,1.14,1,2.23,2.87,3.27l.42.83,2.59.39,1.89,1.42,5.33.68,7-1.12,2,.44,5-1.61,1.89.19c.65.46,1,.88,1,1.27s-.61,1-1.82,1.61l-1-.29-2.25,1.32-4.76.39-1.61.68-1.68-.68a14.38,14.38,0,0,1-5.05.88l-2.87-.39h-1.54l-5.18-2.1-2.45-2.39L1125.4,245l-2.6-4.79-1.19-4.49.63-1.81-1.19-1,.56-1.13-.56-1.8,1.47-.78-.63-.93.35-1.17-.63-1.32.28-1.91-.28-1,.63-.3V219c-.28-.88-.67-1.32-1.19-1.32a1.11,1.11,0,0,0-.84.39l-1.61-.49-2.24.39-2.31-1.17h-1.19q-1.68,0-1.68-1.32l.14-1.51-1-.49.56-.88,2.1.2,1.61-.2,2.31.49h6l.28-2.29v-2.3l-1-1.71,1.12-.58a2.51,2.51,0,0,0,.28-.74c0-.42-.37-.78-1.12-1.07l.28-3.91-1.19-1.22.28-.88c-.93-.13-1.4-.39-1.4-.78l1-2.63a7.67,7.67,0,0,0,1.33-1.37c2.85,1,4.28,1.55,4.28,1.71v.1l-.56,1a4.51,4.51,0,0,1,1,2.2v.29a3.07,3.07,0,0,0-.42,1.42.91.91,0,0,0,.42.78l-.14.83.14,1.07-1.26,1.42.84,2.49-.56,3,.56.58-.84.88,1.12,2.49H1130Z"/>
        <path d="M1188.93,187a4.85,4.85,0,0,1-2.45,1.66v.63l-1.26,1a1.8,1.8,0,0,1-1.13.59,3.14,3.14,0,0,1-.77-.2l-3.85,3.22-1,1.08-3.43.73-1.75,1.81-1.61.48a15.92,15.92,0,0,0-3.16,1.91l-.84-.39-.14-1.22,3.3-1c.46-1.63,1.06-2.55,1.78-2.76s1.09-.35,1.09-.41v-.39l.7-.3.28.1.35-.73h.56l-.56-.88h2.24v-1.42l1-.19.7-.78,1.12-.29,1-1.32a.89.89,0,0,0,.84-.59h.84l.14-1a3.46,3.46,0,0,0,1.76-2C1187.08,184.79,1188.46,185.71,1188.93,187Zm14.22,50.29-.28,1-1.33.68-.56,1.22-2,.39a4.94,4.94,0,0,1-2,2.49l-1.75.44-1.54,1.17a12.32,12.32,0,0,0-2.45,1.81h-1a4.8,4.8,0,0,1-3.15,1.12c-1,.88-1.61,1.4-1.75,1.57a9.42,9.42,0,0,1-2.7.7c-1.1.15-1.79.26-2.07.32l-.56.59h-2.31l-1.26.68-3.57-1.85-2-3.23-.28-5.17-.42-1,1.4-8.2.91-.49-.42-5.13a3.91,3.91,0,0,1,.38-1.73,12.4,12.4,0,0,0,.74-2.22l.56-.25a4.9,4.9,0,0,0-1-2.78l.56-1.32v-1.85l.7-.64a11.89,11.89,0,0,0-.49-1.59,6.06,6.06,0,0,1-.35-1c0-.52.18-.78.56-.78a.44.44,0,0,0,.28.1,5.69,5.69,0,0,1-1-2c0-.49.32-.73,1-.73a3.2,3.2,0,0,1,.94.26,3.11,3.11,0,0,0,1.09.27,3,3,0,0,0,.7-.19c0-.56.33-.83,1-.83s.88.07,1,.22a14.08,14.08,0,0,1,.38,1.88l1.54.49-1.26,1.12-1.47,6.4,1.19,1.61a2.24,2.24,0,0,1-1.33,1.9l-.42,1.27.42,1.12L1176,229.2l.14.48-.7,3.32v2.4l-1,1.61.28,1.37-.28,2.29a7.87,7.87,0,0,0,1.19,4.49l-.14.54,1.26.59,1.47-.3,1.68.49,2-.68a7.94,7.94,0,0,1,2.46-.74l1-.68.28.29.84-.78,1.47-.29a10.21,10.21,0,0,1,3.57-1.32,2.88,2.88,0,0,1,2-.78l.84-.93,1.61-.1-.35-1.07h.63l.28-.54,3-1.07.28-1.22,2.73.1A4,4,0,0,1,1203.15,237.3Z"/>
        <path d="M1257.36,226.71l-1,2.09.56.88-.49,2.35a4.25,4.25,0,0,1-1,1.56v1.17l-1.05,2-.84.88a9.36,9.36,0,0,0-1.4,2.54l-1,.29-.56,1.32-1.54.69-1.19,1.8-2.1.69-.21,1.32-1.82.48-1.72,1.57a5.25,5.25,0,0,1-1.89.68,10.15,10.15,0,0,0-2,.59c-.23,1-1.56,1.62-4,1.75a3,3,0,0,1-2,.74,5.18,5.18,0,0,1-1.12-.2,9.85,9.85,0,0,1-3.65,1.47l-1.12,1.22-1.89-.79-.42.59-2.1-.59-5-.34a16.75,16.75,0,0,0-3.71-3.56l.56-1.32-2-3.61.84-1.18-.84-2.73.84-1.56a9.74,9.74,0,0,0-.21-1.3,9.26,9.26,0,0,1-.21-1.34c0-.68.49-1.24,1.48-1.66v-.54a3.53,3.53,0,0,1,.84-2.19h.84a2.41,2.41,0,0,0,1-1.91l-.42-.68.42-1.51v-1a3,3,0,0,0,1.26-2.2l-.42-1.61a1.61,1.61,0,0,1,.42-1.17c1.44-.52,2.17-1,2.17-1.52a1.51,1.51,0,0,0-.56-1l1.4-1.71a2,2,0,0,1,.88-.63,5.07,5.07,0,0,0,.73-.35l-.28-1c1.5-.1,2.24-.64,2.24-1.61a4.37,4.37,0,0,0-.42-1.81q4.77,0,6.31-3.42h.91a3.16,3.16,0,0,1,1.4-.68,12.34,12.34,0,0,1,1.22.24,17.19,17.19,0,0,0,3.4.25l2.24-.69v.69a10.61,10.61,0,0,1,3.65,1.12h2c.46.65.91,1,1.33,1l.28-.1a10,10,0,0,0,3.29,2.49l.7,1.22,1.33.39,2.24,2.29,2.31,4.59v.93Zm-4.55,2.78c.56-.49.84-.9.84-1.22a1,1,0,0,0-.49-.71c-.33-.25-.49-.4-.49-.46h.84a2,2,0,0,0-1-1l.28-.29-1-1.61.28-2.2-1.33-1.56c-1-.46-1.54-.8-1.54-1v-.29c0-.26-.18-.43-.53-.52s-.52-.21-.52-.41v-.1a6.42,6.42,0,0,1,.63-1.27l-.91-.49-1.4-.09-.56-.74.56-.58-1.89-.68-1.41-.93-4.06-1.17-1.68-.25c-2.75,0-4.11.54-4.06,1.61l.21,3.32-2.87.1-4.49,1.9-.42,1.08-1.61.73-.7,2.88-1.4.69c-.28.09-.42.57-.42,1.41a4.81,4.81,0,0,0,.28,1.81l-1.75.68c-.37.13-.56.77-.56,1.91,0,.52-.44,1-1.33,1.51v1l-1.26,1.41v.88l-.42.64.28,1.36-1.89,3.23.63,1.07v2.34l-.63,1.66.14,2.45,2.1,1.9a7.45,7.45,0,0,0,2.52,1.07l.42.49,1-.19.91.19,1.68-.49,3.43.1,1.62-.29.42-.68,1.47.09c1.49,0,2.24-.34,2.24-1l2,.39.42-.78,1.33-.1.7-1.12c1-.56,1.59-1,1.68-1.37h2.31l.7-1,2.46-1.51.91-.93a4.06,4.06,0,0,1,1.26-.83l2-.73a9.35,9.35,0,0,1,1.26-2.78l-.28-.88,2-.64-.28-.49c.56-.55,1.07-1,1.54-1.41h-.7c.37-.36.56-.65.56-.88a1.75,1.75,0,0,0-.21-.73,1.87,1.87,0,0,1-.21-.59,2.8,2.8,0,0,1,.42-1.37,2.82,2.82,0,0,0,.42-.92C1253.37,229.75,1253.18,229.59,1252.81,229.49Z"/>
        <path d="M1353.54,235.3c.19.52-.4,1-1.75,1.56l.21.34c0,.33-.63,1-1.89,2.08s-1.89,1.86-1.89,2.42l-1.55.29c0,1.37-.91,2.16-2.59,2.39-.14.39-.37.59-.7.59h-.28c-.14.55-.68.83-1.61.83l-.84,1.17-2,.29-1.68.78a4.66,4.66,0,0,1-.91.25l-3.15.39-1.13-.1-1,.1-.42-.39-1.26-.1-1.61-1.42h-.7a1.25,1.25,0,0,1-.56-1.07c-1.54-1.17-2.31-2.08-2.31-2.74v-.78l-1-1.31v-.59l.7-.29-.56-1.42-1-1.81.21-2.68-1.47-1.61V230c-1.36-4.85-2-7.82-2-8.89v-.39a3.81,3.81,0,0,1-.28-1.12,1,1,0,0,1,.14-.59,5.27,5.27,0,0,1-1.69-2.78l-.7-.44-3,2.19-1.47,1.42-5,4.2-2,2.49a28.75,28.75,0,0,1-1.68,2.37,15.89,15.89,0,0,1-2.81,2.22l.42.93-1,1.9-1.12.1v.88h-.77l-2.73,2.29a1.93,1.93,0,0,1-1.82,1.91,5.43,5.43,0,0,0-1.12,1.85,1.76,1.76,0,0,1-1.61,1.27l-.56.39a14.69,14.69,0,0,1-2.49,2.47,24.6,24.6,0,0,1-3.26,1.93,2.61,2.61,0,0,1-1.75,2l-.14.49a2.11,2.11,0,0,1-.7,1.29c-.42.41-1.56.77-3.43,1.1-.7-.07-1.24-.62-1.61-1.66a2.76,2.76,0,0,0-1.68-1.9l-.42-.64,1.12-1.27-.14-1.22.7-.49-.7-.88.14-1.22-1.12-2.19,1-1.32-.56-1.37a7.06,7.06,0,0,0,1-4.1v-.54q0-.24-.84-1.17c.74-.42,1.12-.83,1.12-1.22l-.28-1.56.84-3.81-.56-.73.14-1.57-.7-.92.56-3.18-.28-1.12.42-1.81-.42-2.59,1-1.31a13.35,13.35,0,0,1,2.83.73,1.46,1.46,0,0,1,.36.9,17.5,17.5,0,0,1,.1,2.27l1.19,1.32-.42,1.9.56,4.11-1,2.19.42,2.59v1.22l-1.33,1.47.91,2.1a8.27,8.27,0,0,0-1.05,2.73l.7,1.17a9.84,9.84,0,0,0-1.12,3.91l.14,3.61.42.49,1.75-.59h1.4l.77-2.19c1.08-.23,1.73-.6,2-1.13.14-.78.87-1.17,2.18-1.17a1.94,1.94,0,0,1,1-1.51c.37,0,.81-.47,1.33-1.42a10.42,10.42,0,0,0,2.31-2.1v-1.36h.14a2.05,2.05,0,0,0,1.29-.71,2.58,2.58,0,0,1,1.86-.71,3.83,3.83,0,0,1,1.26-1.81l2-1.71,1.82-2.78a4.41,4.41,0,0,1-.28-1q0-.3.42-.3,2.88-1.32,2.88-2.58v-1.23c1.44-.39,2.17-.74,2.17-1.07a1.26,1.26,0,0,0-.21-.56,1.47,1.47,0,0,1-.21-.47c0-.32.18-.48.56-.48a2.66,2.66,0,0,1,1.12.29c.7-1.79,1.77-2.69,3.22-2.69a6.24,6.24,0,0,1,1.26.2,2.69,2.69,0,0,1,1.26-2.3c.19-.42,1.31-.92,3.36-1.51l.7-.78h.57a6.33,6.33,0,0,0,2,1.42l.28.68.7.19.28,1.91,1.89.78-.63,1.71,1,3.12v2.88l1,3.42.42,3.57,1.47,3.32.28,3.32.74,1a5.26,5.26,0,0,1,.94,2.22l.63.29V242l1.26,1-.28.74,1,.39v.49a5.48,5.48,0,0,0,4.49.19,2.25,2.25,0,0,0,.7.2,1.71,1.71,0,0,0,1.26-.78c1.35-.1,2-.36,2-.79v-.24c.14-.23,1.1-.55,2.87-1a7.94,7.94,0,0,1,1.47-1l-.14-.25a2.39,2.39,0,0,1,.53-.56,11.28,11.28,0,0,1,1.36-.88,4,4,0,0,0,1.33-1.05l.77-1.07c.61-.59,1.52-1.53,2.74-2.83l2-.69h1.33Z"/>
        <path d="M1408.53,242.77l-1,.78a23.21,23.21,0,0,0-1.9,3l-2,1,.14.59h-1.89l-1.82,1.42h-2.45l-1.61.58a2.77,2.77,0,0,0-1.54.59,6,6,0,0,0-1.89-.3,6.8,6.8,0,0,0-1.83.3v.58l-2.59-.19-2,.19-1.89-.19-.28.29-.7-.29-1.26.29h-.91a9.37,9.37,0,0,0-2.1.25l-1.47-.35-1.12.54-.57-.44-1,.44a8.41,8.41,0,0,0-3-.73,4.43,4.43,0,0,0-1.26.29A8.84,8.84,0,0,0,1368,251l-3.15-.24a10.76,10.76,0,0,0-2.31.19l-.29-.39-1.26.59a1.48,1.48,0,0,0-1-.39l-.42-.59q-4.41-.15-4.41-4.39l3-.3-.14-.73.7-.68.42.58h.84v.49l1.33-.49c.75.1,1.13.35,1.13.74a1.93,1.93,0,0,1-.43.88l1.27.09v1.52l3.64.39,1.4.88.42-.49,18.35-.78,6.31-.83.35-.49,1.54-.2.42-.39a19.08,19.08,0,0,0,5.74-1.61l.42.29.28-.58,1-.59.14-.34-.7-.68.28-.88-1.61-.93-.28-.78a3.35,3.35,0,0,1-1.4-.59l-.63.2-1.4-.93H1397l-.63-.59H1395a1.66,1.66,0,0,0-1.61-.78l-1,.1a8.88,8.88,0,0,1-4.28-1h-1.47l-1.82-.79-.91.39-.42-.48h-1l-1.61-.93-4.27-1.27-1.62-1-4.83-.58-.14-.3-4.06-2-1.82-3.22-1.47-1.56-.43-4.64.43-.49a4.69,4.69,0,0,1,1.47-3.42q2.65-1.07,2.73-2.1l1,.1a6,6,0,0,1,2.66-2.39l1.75-1.08,8.34-2.49,4.2-.53,4.13-.88,6.45.29.28.59h.42a3.09,3.09,0,0,1,1.89.53v.88l1.75.88a19.58,19.58,0,0,0-.77,2.64c0,.58-.42.88-1.26.88-.37,0-1-.7-2-2.1l-3.85-.2-1,.2a11.73,11.73,0,0,0-2.59-1.17c-.28,0-.42.09-.42.29l-1.33.68a42.25,42.25,0,0,0-7.56,2.1h-1.61l-1.19.64a15.92,15.92,0,0,1-2.81.68l-.56.49-.77.29-2,1.32-1.33,1.46q-2,.93-2.1,1.23l-1.47,4.1.7.29v.29c0,1.11.77,2,2.31,2.84v.48l3.85,1.61h.91l2.1,1.47h2.88l1.75,1,3.29.3,1,.58,6.16,1.32c0,.39.35.59,1.05.59a8.67,8.67,0,0,1,3.23.58,10.89,10.89,0,0,0,2.8.74l.14.48,1.26.49h2.73l2.45,1.13a3.62,3.62,0,0,0,1.89,1.8l-.14.3.7.68,1.27.19-.56.74A3.49,3.49,0,0,1,1408.53,242.77Z"/>
        <path d="M1440.05,197.8l-.56.68a2.77,2.77,0,0,1-1,1.42l1,2.68-.7.88.56.44-.28.78.42.59q-1.26.15-1.26.93a13.83,13.83,0,0,0,.56,1.9l-.71,1.37,1,.93a4,4,0,0,0-1,2.29l-.62,9.28.77.93-.77,2.29.77,2.1-.77,1.27.77,1-.15,1.07.15.73-.77.2a3.2,3.2,0,0,1,.62,1.8c0,.53-.44.82-1.33.88.66.49,1,.9,1,1.22,0,.59-.43.88-1.27.88s-1.26-.7-1.26-2.1v-2.19a21.35,21.35,0,0,0-1-4.2l.7-1.27-.7-1.42.7-3.61-1.26-.49.56-1.22-.28-1.27v-.93l.56-.19-.84-1.42.28-.68v-.2a2.79,2.79,0,0,1,.84-1.61l-.56-.88v-1.41l-.56-.2,1.12-.78-.84-1.61.56-1.52-1-.88,1-.83-.28-1.46.28-1a1.21,1.21,0,0,1-.42-.78,2.64,2.64,0,0,1,.42-1l-.84-.2v-2.1l-1.12-.88.14-2,1.54.2,2-.39,3.16.78Zm2.17,52.1-1.75,1-2-.4-1.76.49-1.4-.49h-1.47l-.84-2.19.56-1.52,1.12-.78h.35a1.09,1.09,0,0,0,.6-.32c.25-.21.48-.38.66-.51a16.44,16.44,0,0,0,2.6.64h.14q0-.11-.42-.39h.28a9,9,0,0,1,1.68.48,7.84,7.84,0,0,1,1.61,2.4.51.51,0,0,0-.42.49A2.56,2.56,0,0,0,1442.22,249.9Z"/>
        <path d="M1482.36,197.8l-.57.68a2.65,2.65,0,0,1-1,1.42l1,2.68-.7.88.57.44-.28.78.41.59q-1.26.15-1.26.93a15.76,15.76,0,0,0,.56,1.9l-.7,1.37,1,.93a4,4,0,0,0-1,2.29l-.63,9.28.77.93-.77,2.29.77,2.1-.77,1.27.77,1-.14,1.07.14.73-.77.2a3.22,3.22,0,0,1,.63,1.8c0,.53-.44.82-1.33.88.66.49,1,.9,1,1.22,0,.59-.42.88-1.26.88s-1.26-.7-1.26-2.1v-2.19a21.35,21.35,0,0,0-1-4.2l.7-1.27-.7-1.42.7-3.61-1.26-.49.56-1.22-.28-1.27v-.93l.56-.19-.84-1.42.28-.68v-.2a2.79,2.79,0,0,1,.84-1.61l-.56-.88v-1.41l-.56-.2,1.12-.78-.84-1.61.56-1.52-1-.88,1-.83-.28-1.46.28-1a1.21,1.21,0,0,1-.42-.78,2.64,2.64,0,0,1,.42-1l-.84-.2v-2.1l-1.12-.88.14-2,1.54.2,2-.39,3.16.78Zm2.17,52.1-1.75,1-2-.4-1.75.49-1.4-.49h-1.47l-.84-2.19.56-1.52L1477,246h.35a1.09,1.09,0,0,0,.6-.32c.25-.21.48-.38.66-.51a16.45,16.45,0,0,0,2.59.64h.15c0-.07-.15-.2-.43-.39h.28a8.83,8.83,0,0,1,1.69.48,7.84,7.84,0,0,1,1.61,2.4.51.51,0,0,0-.42.49A2.56,2.56,0,0,0,1484.53,249.9Z"/>
        <path d="M1524.66,197.8l-.56.68a2.71,2.71,0,0,1-1,1.42l1,2.68-.7.88.56.44-.28.78.42.59q-1.26.15-1.26.93a15.76,15.76,0,0,0,.56,1.9l-.7,1.37,1,.93a4.05,4.05,0,0,0-1,2.29l-.63,9.28.77.93-.77,2.29.77,2.1-.77,1.27.77,1-.14,1.07.14.73-.77.2a3.22,3.22,0,0,1,.63,1.8c0,.53-.44.82-1.33.88.66.49,1,.9,1,1.22,0,.59-.42.88-1.26.88s-1.26-.7-1.26-2.1v-2.19a21.35,21.35,0,0,0-1-4.2l.7-1.27-.7-1.42.7-3.61-1.26-.49.56-1.22-.28-1.27v-.93l.56-.19-.84-1.42.28-.68v-.2a2.79,2.79,0,0,1,.84-1.61l-.56-.88v-1.41l-.56-.2,1.12-.78-.84-1.61.56-1.52-1-.88,1-.83-.28-1.46.28-1a1.21,1.21,0,0,1-.42-.78,2.64,2.64,0,0,1,.42-1l-.84-.2v-2.1l-1.12-.88.14-2,1.54.2,2-.39,3.15.78Zm2.17,52.1-1.75,1-2-.4-1.75.49-1.4-.49h-1.47l-.84-2.19.56-1.52,1.12-.78h.35a1.09,1.09,0,0,0,.6-.32q.38-.31.66-.51a16.45,16.45,0,0,0,2.59.64h.14q0-.11-.42-.39h.28a8.62,8.62,0,0,1,1.68.48,7.5,7.5,0,0,1,1.61,2.4.5.5,0,0,0-.41.49A2.52,2.52,0,0,0,1526.83,249.9Z"/>
      </g>
      <g>
        <path d="M300.68,363.73l-1.12.68V366a6,6,0,0,0-3.36,1.22,3.8,3.8,0,0,1-2.11,1.08,1.16,1.16,0,0,1-1.26,1.07l-3.57,2.2-1.47,1.71h-1.26a8.86,8.86,0,0,1-2.31,2.29,10.51,10.51,0,0,0-2.87,1.13l-3,2.49-2.17,1.12A13.89,13.89,0,0,1,273,381.4l-1.4,1.91-2,.83a19.55,19.55,0,0,0-3.08,1.95l-1.47,2.64-5,4.3a21.5,21.5,0,0,0-3.29,4.1l.84,1.07-.84,1.61.7,1.91-1,2.19.56,2.59,1,.78a4.78,4.78,0,0,0-1.68,3.32,3.41,3.41,0,0,1-.63,2.2,12.07,12.07,0,0,1,.42,3.32l-1,4.69.14,2.29-.56,1,1,3.56-1.26,1.52.84,1.9-.84,1c1.16,1.37,1.61,2.33,1.33,2.88a14.1,14.1,0,0,0-1,2.54l.84,2.68-1.4,2.49,1.54,1.61-.42,3.62a2.2,2.2,0,0,1-1.82,2.1l-.91-3.42-1.12-3-.28-2.78-1-.44.77-1.17-.77-1.71.77-3.13-1-3.27.42-2.78-.14-.64.14-2.19-.57-4.69.57-2.2L249.9,416l1-4.64-1.33-1.66.56-2a7.51,7.51,0,0,0-1-4,4.5,4.5,0,0,0,1.13-2.59q0-.78-2.11-6a8.9,8.9,0,0,1-3-2.44,3.69,3.69,0,0,1-2-.88l-4.27-3.61-2.17-.88-1.9-2.39-5.46-3.81-1-1.41-2.73-2.4-3.43-2v-1.07l-1.68-.88a3.94,3.94,0,0,1-1.48-1.13l-1.26-1.61a4.93,4.93,0,0,0-2.31-1q-4.2-1.56-4.2-5.18l.14-.93h1.33c.09-.45.51-.68,1.26-.68a19.34,19.34,0,0,1,3.64.49l.7,1.61,2.74.83,2.24,2.59,3.22,1.61.14,2.1c0,.52.7.85,2.1,1l1.47,1.61,2.1,1.17,6.94,7.23-.28.78,1.54.39,2,1.9,7.14,4.84a7,7,0,0,1,1.65,1.36q.87.93,1.23.93a12.67,12.67,0,0,0,1.26-.85,18,18,0,0,0,3.08-3.25c.28-1.2.61-1.81,1-1.81h1c.42,0,.63-.19.63-.58v-.35c0-.39.65-.94,2-1.66l-.14-.34c0-.58,1.05-1.2,3.16-1.85l1.33-1.42v-.19c0-.72,1.09-1.13,3.29-1.22.74-.26,1.12-.56,1.12-.88a.72.72,0,0,0-.14-.49,6.45,6.45,0,0,0,3.08-1l2.38-2a11.61,11.61,0,0,1,3.26-3,8.09,8.09,0,0,1,2.21-1.15h.28l1.26-1.22a10,10,0,0,1,2.59-1.56l.56-1.52a3.33,3.33,0,0,0,1.33.2c.84,0,1.26-.51,1.26-1.52v-.09c0-.26.72-.49,2.17-.69l-.42-.58,1.68-.49h1.61l.85-1.71,3.43.29,1.05-.29.84,1.27Z"/>
        <path d="M353.77,392.93l-1,2.1.56.88-.49,2.34a4.25,4.25,0,0,1-1.05,1.56V401l-1.05,2-.84.88a9.06,9.06,0,0,0-1.4,2.53l-1,.3-.56,1.32-1.54.68-1.19,1.81-2.1.68-.21,1.32-1.82.49-1.72,1.56a5.06,5.06,0,0,1-1.89.68,10.92,10.92,0,0,0-2,.59c-.23,1-1.56,1.63-4,1.76a3,3,0,0,1-2,.73,5.18,5.18,0,0,1-1.12-.2,9.68,9.68,0,0,1-3.65,1.47l-1.12,1.22-1.89-.78-.42.58-2.1-.58-5-.34a16.77,16.77,0,0,0-3.71-3.57l.56-1.32-2-3.61.84-1.17-.84-2.74.84-1.56a8.36,8.36,0,0,0-.21-1.29,9.32,9.32,0,0,1-.21-1.35c0-.68.49-1.23,1.48-1.66v-.53a3.55,3.55,0,0,1,.84-2.2h.84a2.4,2.4,0,0,0,1-1.9l-.42-.69.42-1.51v-1a3,3,0,0,0,1.26-2.2l-.42-1.61a1.61,1.61,0,0,1,.42-1.17c1.44-.52,2.17-1,2.17-1.51a1.51,1.51,0,0,0-.56-1l1.4-1.71a2,2,0,0,1,.88-.63,5.5,5.5,0,0,0,.73-.34l-.28-1c1.5-.1,2.24-.64,2.24-1.61a4.37,4.37,0,0,0-.42-1.81q4.77,0,6.31-3.42h.91a3.16,3.16,0,0,1,1.4-.68,12.34,12.34,0,0,1,1.22.24,16.45,16.45,0,0,0,3.4.25l2.24-.69v.69a10.61,10.61,0,0,1,3.65,1.12h2c.46.65.91,1,1.33,1l.28-.1a10,10,0,0,0,3.29,2.49l.7,1.22,1.33.39,2.24,2.3,2.31,4.59v.92Zm-4.55,2.78c.56-.49.84-.89.84-1.22s-.16-.46-.49-.71-.49-.4-.49-.46h.84a2,2,0,0,0-1-1l.28-.29-1-1.61.28-2.2-1.33-1.56c-1-.46-1.54-.8-1.54-1v-.29c0-.26-.18-.43-.53-.51s-.52-.22-.52-.42v-.09a6.14,6.14,0,0,1,.63-1.27l-.91-.49-1.4-.1-.56-.73.56-.59-1.89-.68-1.41-.93-4.06-1.17-1.68-.25c-2.75,0-4.11.54-4.06,1.62L330,383l-2.87.09L322.67,385l-.42,1.07-1.61.73-.7,2.89-1.4.68q-.42.15-.42,1.41a4.77,4.77,0,0,0,.28,1.81l-1.75.68c-.37.14-.56.77-.56,1.91,0,.52-.44,1-1.33,1.51v1l-1.26,1.42V401l-.42.64.28,1.37-1.89,3.22.63,1.07v2.35l-.63,1.66.14,2.44,2.1,1.9a7.6,7.6,0,0,0,2.52,1.08l.42.49,1-.2.91.2,1.68-.49,3.43.09,1.62-.29.42-.68,1.47.1c1.49,0,2.24-.35,2.24-1l2,.39.42-.78,1.33-.1.7-1.12c1-.55,1.59-1,1.68-1.37h2.31l.7-1,2.46-1.52.91-.92a4.09,4.09,0,0,1,1.26-.84l2-.73a9.35,9.35,0,0,1,1.26-2.78l-.28-.88,2-.63-.28-.49c.56-.56,1.07-1,1.54-1.42h-.7c.37-.36.56-.65.56-.88a1.79,1.79,0,0,0-.21-.73,1.79,1.79,0,0,1-.21-.59,2.77,2.77,0,0,1,.42-1.36,2.92,2.92,0,0,0,.42-.93C349.78,396,349.59,395.81,349.22,395.71Z"/>
        <path d="M434.19,411.92c.65-.06,1.42-.1,2.31-.1s1.54.26,1.54.79-.51,1-1.54,1.51l-1.05.39-.7.54a14.06,14.06,0,0,1-2.45,1.07l-2.31.49c-.56.39-2.13.59-4.7.59a17,17,0,0,1-2.1-.4,9.15,9.15,0,0,1-2.24-.68l-4.69-2.93-1.05-3.07-1.4-.93v-.49a3.84,3.84,0,0,0-1-2.59l.13-2.39a11.55,11.55,0,0,0,.57-2.1,3.51,3.51,0,0,0-.85-2.2l.42-4.49-1.61.59-1,1.07-1.33.63a3.76,3.76,0,0,0-1.4,1.18l-1.26.09c-1.07.66-1.61,1.32-1.61,2a4.14,4.14,0,0,0-2.66,1.73,7.2,7.2,0,0,1-2.17,2.29,7.93,7.93,0,0,1-2.46,1.4,3.34,3.34,0,0,0-1.33.58L392.16,410h-.42l-3.36,2.78-2.66,1-1.19,1.27a53.39,53.39,0,0,0-5.89,1.7l-2.17-1a4,4,0,0,1-1,.1q-.84,0-.84-.54a1,1,0,0,1,.14-.59l-1.47-.58a1.69,1.69,0,0,1,.49-1l-1.89-1.27,1.12-1H371.5L370.45,409l1.05-.58-1.33-1.32c0-1.63.16-2.49.49-2.59l.07-1.71a5.17,5.17,0,0,1,.77-2.1l-1.19-.58a3.06,3.06,0,0,0,1.19-1.91,3.29,3.29,0,0,0-.7-1.61q.84-.3.84-1.56a8.72,8.72,0,0,0-.14-1.32l-.56-3.32,1.68-7a20.54,20.54,0,0,0-.7-3.81l-.56-1.71c0-1,.81-1.56,2.45-1.56l2.1.39,1,.88-.63,2.1-.28,5,.28,3.18-1,1.61.56,1-.56,1.51v1.32c-.37.1-.49.3-.35.61a1.94,1.94,0,0,1,.21.66,1.57,1.57,0,0,1-.56,1.12l1,.88-1.4,1.22.84.88-.42,1.32.42,1.61v1.9l.84.69-.7,2.39a2.57,2.57,0,0,0,.84,1.51l-.42,1.08.7,1.41a14,14,0,0,1,3,1.91,5.65,5.65,0,0,0,2.73-1,23.19,23.19,0,0,1,3-1.71c0-.06-.19-.1-.56-.1,1.54-.48,2.31-1,2.31-1.61a9.92,9.92,0,0,0,2.31-.39l.28-1.22,1.4-.39a9.22,9.22,0,0,1,4.76-1.9l.14-1,2.6-1.51c.23-1.27,1.23-1.94,3-2l.56-1.31,1.26-.39,1.89-1.91h.84v-.58l1.33-.49.84-1.42c1.17-.42,2.31-.8,3.43-1.12l.56-1.08,1.05-.29v-.63l.57-.1c.23-1.6,1.05-2.39,2.45-2.39l-.42-.3,2.66-5.51H419v-1.37h.14c.33,0,1.14-1.21,2.45-3.61l2.52-.2-.28.39,1.47,1.9L424.1,383l-2.1,2.19-1.47,3.71-1.82.88V392l-1,1.42.28,1.61-1,.68.28,4.4-.56,5.42.42.58-.14.78h.42v1.52q2.31,2.34,2.31,3l2,.35.42.88c1.31.39,2.45.76,3.43,1.12l1.89-.1,1.55.29,2.24-.63A14.56,14.56,0,0,0,434.19,411.92Z"/>
        <path d="M540.73,416.12a4.9,4.9,0,0,1,.14,1.27c0,1.53-1,2.3-3.15,2.3-1.4,0-2.36-.83-2.87-2.49l-1-3.08v-.93a8.73,8.73,0,0,0,.13-1.66,4.06,4.06,0,0,0-1.47-2.64l1-1.61-.56-2.39.56-1.17v-1.61l.36-1.42-.64-1.56.64-.93v-3.71l.13-4.78-1-3.18.56-1.32-1.26-3.81v-1.22l-2.31-.68-2.59,1.66a6.85,6.85,0,0,1-1.4.63l-2.45.74-4,4-1.62.29-3.57,4.11v.48h-1l-.42.88-1.54,1a4.24,4.24,0,0,0-1.33,1.9l-1.47,3.47-2.17,1.95a4.68,4.68,0,0,0-1,1.66l-1.4.93-.64,2.59-3,2-.28,2.78h-.56l-1,1.91-2.31,2.88a20.91,20.91,0,0,0-3.29,2.93l-.7-.2h-.91l-.42-.53-1.26-3.37-.28-5.52-.43-1.61.43-2-.14-3.47.7-.2,1-8.49.42-1.61-.14-1.22.77-.3-.35-.68.63-3.52.7-1.41-.42-1.47L493,382l-.42-.59.42-3.32-.7-.48.42-.69-.14-3.81-.91-1.71h.91v-.87l-1.33-4.11v-2l-.56-.93-.7-3.17a15.9,15.9,0,0,0-2.32-4.1l1.62-1.61-.29-.3c1.13,0,1.69.41,1.69,1.23l2,1.26.56,1.18a6.8,6.8,0,0,0,1.75,1.66l-.35.88.91,1.8-.91.88,1.33.73-.14,2.59.14,5,.84,2.54-.56,1.08.14,1.9-.56,1.61.42,2.49-1,2.49.56.69-.28,6.1.28.93-.56.48-.63,3.72-.7,1.07.56,1.22-.28.59-.28,3.32-1.4,2.88c1,.84,1.54,1.41,1.54,1.71L493,407.72a4.05,4.05,0,0,1,.7,2.4l1.33-.74.56-1.27,2.24-3.22,1-2.29q2.31-.5,2.31-2.1a10.1,10.1,0,0,0,2.1-2.4l.63-1.27a5.51,5.51,0,0,1,1.41-1.61l.14-1.32-.42-.29,1-.58.28.29,2.31-2c.74-.26,1.12-.67,1.12-1.22v-.39c1.26-.13,1.89-.74,1.89-1.81l.42-.2v-.49l1.19-.19.14-1.32h1l-.14-.78h1v-.63a4.53,4.53,0,0,1,1.19-.49c.1,0,.14.06.14.19v.2l.14-.88h.42c1.12,0,1.69-.64,1.69-1.91l1.75-1,.28.39a3.58,3.58,0,0,0,1.33-2l1-.3.42-.83,1.12-.09a4.13,4.13,0,0,1,1.61-.52,8.31,8.31,0,0,0,1.12-.17l-.28-.39a16.27,16.27,0,0,1,3.57-1.12,3.86,3.86,0,0,1,2.31,1.32c.71.06,1,.36,1,.88l1.27.73c0,.45.77,1.58,2.31,3.37v7.81l-.28,4.1.56,1v7.32l-.28,1.32v2.49l.28,2.1-.56,2.49c.37.26.65,1.25.84,3l1.4,1.22v1.22Z"/>
        <path d="M610.5,415.83l-2,.68-.42.88a12.87,12.87,0,0,0-2.18.54l-.7-.34-1,.34L601.88,416v-2.19l-1-.64.28-3.07-.84-6.4.56-2.1-1-1.12,1.26-.49-.84-.88.28-.93.7-.39-.14-1.22h.77v-2l.28-1a2.64,2.64,0,0,1-1.33-.93l-2.24.74A4.66,4.66,0,0,1,596.7,395l-.14,1.07-1.61.49-.28,1.42-1,.48v.74a5,5,0,0,0-2,1.75l-1,.44-2.17,2.69-3.43,2.39L584,407.82l-3,2.2-.77,1.17-4.14,2L571.41,417l-1.54.29a6.64,6.64,0,0,0-2.17,1h-.42c-.8,0-1.43-.54-1.89-1.61q-5.4-1.47-5.68-4.2l1.12-.49a10.16,10.16,0,0,1-1.12-3.91l-.77-.39.49-.53a2,2,0,0,0,.42-1l.42-2,1-3.71a1.27,1.27,0,0,1-.14-.69,2,2,0,0,1,.42-1.12,3.71,3.71,0,0,1-.28-1.07,2.85,2.85,0,0,1,.28-1l.56-.1a3,3,0,0,0,1.2-1.9.89.89,0,0,0-.46-.78q-.45-.3-.45-.39c0-.23.25-.39.77-.49-.7-.1-1.06-.31-1.06-.64s.49-.49,1.48-.49v-.19a2.8,2.8,0,0,1,.87-2,3.84,3.84,0,0,0,.95-1.24l-1-.2,1.89-2.1v-.49a4.45,4.45,0,0,1,2-3.61l-.14-1.81.63-.29a1.28,1.28,0,0,1-.49-1c0-.19.3-.29.91-.29V377c.47-.1.7-.26.7-.49a1,1,0,0,0-.14-.54,20.51,20.51,0,0,1,2-1.61,8.44,8.44,0,0,0,2-1.95h.42c1.08,0,1.61-.18,1.61-.54,0-.13-.14-.29-.42-.49,1.92,0,2.92-.26,3-.78l2.59-.92,7.42.43v.4l6,.87H595c.88,0,1.33.28,1.33.83l.7-.19a1.53,1.53,0,0,0,1.61.88l.7-.1,1.26.88,3,.54v.88a26,26,0,0,1,5.19-1.62v1.62h-.7l1.4.48-.28.2,1.12,2.54-1.26,1-.56,1.66a6.74,6.74,0,0,1-1.34,2.06l.92,1.27-.81.78a3,3,0,0,0-.67,2.24c.28.1.43.26.43.49l-.29.83.14.68-.42,1.08.28.93-.84.68.28,2.2-.42.29.42.44-.42.29a.44.44,0,0,1,.14.39,1.27,1.27,0,0,1-.42.88l.42.64-.7.88c-.37.16-.56.63-.56,1.41l.56,1.27-1.33,1.22a3.64,3.64,0,0,0,1.33,1.32,8.32,8.32,0,0,0-1.75,3.86l1.19.19-.14.54a1.05,1.05,0,0,1,.14.68,3.49,3.49,0,0,1-1.05,2h.91l.42,1.51,2.88.19,1,1.27c-.28.14-.42.25-.42.35,0,.26.46.58,1.4,1h-.14c-.19,0-.28,0-.28.1S609.7,415.37,610.5,415.83Zm-7.36-35.94-.84-1.81L600,377.6l-4-2.49a4.07,4.07,0,0,0-1.47-.4,5.18,5.18,0,0,0-1.12.2l-.7-.49h-2.32l-.7-.63-1.61.44-.7-.44-1.19.24-2.24-.24a18.29,18.29,0,0,0-5,1.12l.28.39-1.26.29-.28.39-1.62.15v.59a9.35,9.35,0,0,0-3.29,3.17,27.19,27.19,0,0,1-2.59,5.13l1.12.39-1.82,1.12.56.78a4.33,4.33,0,0,0-1.26,3.08v.54l-1,1.07v1.71a2.94,2.94,0,0,0-1.26,1.81l-.56.39v1.8l-.49.49a9.42,9.42,0,0,1-.56,2.69l.77,1.22a5.29,5.29,0,0,0-2,1.22l.56.78-.84.78,1.12,2-1.26,1.22.14,2.4-.42,1.12.7.29.28.69a4.86,4.86,0,0,1,2,1.12l3.29-.54a3.6,3.6,0,0,1,3.15-1.56l-.28-.73,2.28-.42c.07,0,.17-.2.31-.56a2.33,2.33,0,0,1,1.26-1h.28q.42,0,.42-.39l2.6-2.1h-.56l1.54-1a7.13,7.13,0,0,1,2.31-.93l1-1.9c1.77-.52,2.78-1.22,3-2.1h.84l1.4-1.27-.28-.83,1.33-.2a1.09,1.09,0,0,1-.28-.49,5,5,0,0,1,1-1.1c.66-.63,1.17-1.16,1.55-1.58l.63.19a2.47,2.47,0,0,1,1.54-1.8,2.29,2.29,0,0,1,1.12-1.25,3,3,0,0,1,1.19-.46h1l.14-1.22c.19-.13.28-.26.28-.39s-.14-.39-.42-.59a7,7,0,0,1,2-1.81l.28-1.07,1-.54-.28-.88a4.26,4.26,0,0,0,1.05-1.8l1.26-.88Z"/>
        <path d="M691.26,368.9l-.7,1,.14,1.46-1.47.64-.7,2.05c-.09.29-.54.73-1.33,1.32l-.28,1.32h-1.54a7.07,7.07,0,0,1,.7,1.8c0,.52-.77.92-2.31,1.18v.73l-1.27,3.37-1.19,1.61h-.84a1.59,1.59,0,0,1,.84,1.22l-1.82,1.27-3.29,6-3,3.62v1.61c0,.23-.34.55-1,1s-1,.76-1,1,.23.46.7.78a6.29,6.29,0,0,1-3.15.69l.56,1.12a5.33,5.33,0,0,0-1.54,2.1c-1,.52-1.48,1-1.48,1.37a1.13,1.13,0,0,0,.14.63h-1.12v1.07l-1.89.83-1,1.27-2.87,2.2-3.71,4a4.3,4.3,0,0,1-3.15,1.12c-1.92,0-3.25-.44-4-1.32l-4.62-5.08-.28-1.8-.84-.4-.14-2.29-1.61-1.22v-2.3l-3.43-6.1.14-1.22-.92-1.12a5.62,5.62,0,0,1-.56-2.05l-1-.93-.7-1.32a3,3,0,0,0-1.05-1.17L632,388.92l-1.26-3.51-1.47-.88a5.16,5.16,0,0,1-1.33-1.17l-1.26-1.66a2.89,2.89,0,0,1-.84.19c-1,0-1.47-.86-1.47-2.59,0-1.13,1-1.93,2.87-2.39,1.68,1,2.88,1.7,3.61,2.17a12.72,12.72,0,0,1,2.73,3c1.09,1.52,2.11,2.34,3,2.47-.42.06-.63.23-.63.49a1.22,1.22,0,0,0,.42.68v.83l1.76,1-.42.88.42,2,1.61,3.22.42.29.28,1.32.7.3v1l1.75,4.4.42,1.71,2.31,3.61,1.82,4.69,1.47.83v.19c0,.91,1,1.37,3,1.37h.57v-.49c0-.1.31-.22.94-.37a3.13,3.13,0,0,0,1.79-1.44,3.17,3.17,0,0,0,.7.2q.42,0,.42-.39a2.61,2.61,0,0,0-.28-.78l3.29-1.32a3.31,3.31,0,0,1,.35-1.17,2.65,2.65,0,0,1,.84-.93l1.26-.78,2.59-2.59.84-1.81,1.48-.73.55-1.07a4.43,4.43,0,0,1,1.41-1.22l-.14-1.08.7-.19.49-1,.56.39a2.34,2.34,0,0,1-.28-.78c0-.45.32-.71,1-.78a1.36,1.36,0,0,1,1.26-.73,4.7,4.7,0,0,0,1.05-2.79h1.12l.14-1.31a8.14,8.14,0,0,0,1.33-2.79l.84-.1,2-4.1.42-.39-.14.59a3.74,3.74,0,0,0,1.3-1.69c.21-.6.38-.9.52-.9a1.73,1.73,0,0,1,.63.2l1.83-4.59,1.33-1.22v-.59l1,.19-.28-1.61a7.41,7.41,0,0,0,2.69-2.76c.54-1,1.07-1.53,1.58-1.53a3.07,3.07,0,0,1,.77.09l.14-.58Z"/>
        <path d="M737.14,407.72c.7.75,1.05,1.31,1.05,1.66s-.43.82-1.29,1.66a10.05,10.05,0,0,0-2,2.69l-1,.1-1.54,2.1-1.75.19-3.86,1.81L726,419l-1.19-.1-1.26,1h-2l-.42.49-1-.1a4.18,4.18,0,0,0-2.73,1l-.91-.49a8.21,8.21,0,0,1-2.38.49,6,6,0,0,1-2.6-.49,15.07,15.07,0,0,1-1.89.1l-.84-.49c-2.57-.1-4.29-.6-5.18-1.52v-1.22l-2.31-.88-.56-1a4.76,4.76,0,0,0-1.54-1.27v-.78L697.57,409l.27-3.37.57-1.9v-2.1l.77-1.81-.28-1.32a2,2,0,0,0,1-1.09,5.12,5.12,0,0,1,.84-1.49,18.54,18.54,0,0,1-.56-2.49l1.26-.74-1.26-1c.65-.75,1-1.22,1-1.42l-.7-3a5.54,5.54,0,0,1,.42-2.1,2.55,2.55,0,0,0,1.89.88,22.06,22.06,0,0,0,2.73-.39,1.59,1.59,0,0,1-.14-.68c0-.46.37-.86,1.12-1.22a17.1,17.1,0,0,1,3.15-4.59,2.23,2.23,0,0,0,1.33-2h.7l.7-1,.85-.25a4.07,4.07,0,0,1,1.47-1.46,9.4,9.4,0,0,0,3.85-2.3,4.25,4.25,0,0,0,1.19.1c.14,0,.51-.37,1.12-1.12,1.64-.39,2.5-.59,2.59-.59a1.88,1.88,0,0,1,1.26.59L726,371l.7.39h.84a2.9,2.9,0,0,0,2.88,1.62h.42a1.66,1.66,0,0,0,.91,1l-.63.2c1.63.55,2.45,1.84,2.45,3.85l-.42,1.13.42,2.78-.7.44-1.61,3-2.87,2.49-.14,1.41a48,48,0,0,1-8.41,4,.94.94,0,0,1-.91.58,6.08,6.08,0,0,1-1.12-.19l-3.15,1.51h-1.89l-2.74.88-1.19-.49a15.22,15.22,0,0,0-2.94-.39,4.24,4.24,0,0,0-2.17,3.66l-1,.83a8.22,8.22,0,0,1-.7,2.59l-.77.3.77,3.61-.77.49.14,1.12-.14,1.37a11.67,11.67,0,0,0,.35,1.85c.23,1,.6,1.6,1.12,1.76-.24.46.22,1,1.36,1.66a12.28,12.28,0,0,0,3.68,1.37v.58l3.71.39,5.33.2,3.57-.29a18,18,0,0,1,3.15-1.32l1.12-1.17H726l.14-.49a15.8,15.8,0,0,0,3.4-1,.73.73,0,0,0,.32-.52,1.45,1.45,0,0,1,1.26-.58l.42-.64q3.15-.33,3.92-2.88A3.42,3.42,0,0,1,737.14,407.72Zm-11.77-22.8a4.42,4.42,0,0,0,1.89-1.22l.43-1.17a21.68,21.68,0,0,0,2-2.61,3.23,3.23,0,0,0,.28-1.4,8.69,8.69,0,0,0-1-2.93l-2.88-.68a11.16,11.16,0,0,1-1.47.2l-.84-.2a1.49,1.49,0,0,0-1.47.88,15.73,15.73,0,0,0-3.85.73l-.42.69a1.62,1.62,0,0,0-.56-.1,1.23,1.23,0,0,0-.39.05,1.09,1.09,0,0,0-.31.14l-.28.22a1,1,0,0,0-.25.32l-.21.41-.21.44a3.88,3.88,0,0,1-.87.86l-1,.88-2,2.68-1,.64a2.11,2.11,0,0,0-.77,1.27q-.27,1-3.78,4.69l1,.39.49.83,2.38.48a14.92,14.92,0,0,1,4.35-1.31l.42-.59a5.18,5.18,0,0,0,1.12.2,2,2,0,0,0,1.33-.59l1.68-.2,1-1.22h1l.7-1.07a6,6,0,0,0,3.57-1.22Z"/>
        <path d="M834.72,409l-1,.78a22.54,22.54,0,0,0-1.89,3l-2,1,.14.58h-1.89l-1.82,1.42h-2.45l-1.61.58a2.77,2.77,0,0,0-1.54.59,6,6,0,0,0-1.89-.29,6.68,6.68,0,0,0-1.82.29v.59l-2.6-.2-2,.2-1.89-.2-.28.29-.7-.29-1.26.29h-.91a9.37,9.37,0,0,0-2.1.25l-1.47-.34-1.12.53-.56-.44-1,.44a8.46,8.46,0,0,0-3-.73,4.43,4.43,0,0,0-1.26.29,9.15,9.15,0,0,0-2.45-.44l-3.15-.24a10.06,10.06,0,0,0-2.31.2l-.28-.4-1.26.59a1.49,1.49,0,0,0-1.06-.39l-.42-.59c-2.94-.09-4.41-1.56-4.41-4.39l3-.29-.14-.74.7-.68.42.59h.84v.48l1.34-.48c.74.09,1.12.34,1.12.73a1.84,1.84,0,0,1-.42.88l1.26.1v1.51l3.64.39,1.4.88.42-.49,18.35-.78,6.31-.83.35-.49,1.54-.19.42-.4a19.08,19.08,0,0,0,5.74-1.61l.42.3.28-.59,1-.59.14-.34-.7-.68.28-.88-1.61-.93-.28-.78a3.45,3.45,0,0,1-1.4-.58l-.63.19-1.4-.93h-.56l-.63-.58h-1.4a1.66,1.66,0,0,0-1.61-.78l-1,.09a8.88,8.88,0,0,1-4.28-1h-1.47l-1.82-.78-.91.39-.42-.49h-1l-1.61-.93-4.27-1.27-1.61-1-4.84-.59-.14-.29-4.06-2-1.82-3.23-1.47-1.56-.42-4.64.42-.49a4.65,4.65,0,0,1,1.47-3.41q2.65-1.08,2.73-2.1l1,.09a6,6,0,0,1,2.66-2.39l1.75-1.07,8.34-2.49,4.2-.54,4.13-.88,6.45.29.28.59h.42a3,3,0,0,1,1.89.54v.88L826,376a20.54,20.54,0,0,0-.77,2.64c0,.59-.42.88-1.26.88-.37,0-1-.7-2-2.1l-3.85-.19-1,.19a11.92,11.92,0,0,0-2.6-1.17c-.28,0-.42.1-.42.29l-1.33.69a41.15,41.15,0,0,0-7.56,2.09h-1.61l-1.19.64a15.92,15.92,0,0,1-2.81.68l-.56.49-.77.29-2,1.32-1.33,1.47c-1.35.62-2,1-2.1,1.22l-1.47,4.1.7.29v.3c0,1.1.77,2,2.31,2.83v.49l3.85,1.61h.91l2.11,1.46h2.87l1.75,1,3.29.29,1,.59,6.16,1.31c0,.4.36.59,1.06.59a8.66,8.66,0,0,1,3.22.59,10.85,10.85,0,0,0,2.8.73l.14.49,1.26.49h2.73l2.45,1.12a3.62,3.62,0,0,0,1.9,1.81l-.14.29.7.68,1.26.2-.56.73A3.49,3.49,0,0,1,834.72,409Z"/>
        <path d="M900.14,415.83l-2,.68-.42.88a12.51,12.51,0,0,0-2.17.54l-.7-.34-1.05.34L891.53,416v-2.19l-1.06-.64.28-3.07-.84-6.4.56-2.1-1-1.12,1.26-.49-.84-.88.28-.93.7-.39-.14-1.22h.78v-2l.28-1a2.66,2.66,0,0,1-1.34-.93l-2.24.74a4.6,4.6,0,0,1-1.89,1.61l-.14,1.07-1.61.49-.28,1.42-1,.48v.74a4.94,4.94,0,0,0-2,1.75l-1,.44-2.17,2.69-3.44,2.39-1.12,1.32-3,2.2-.77,1.17-4.13,2L861.05,417l-1.54.29a6.74,6.74,0,0,0-2.17,1h-.42c-.79,0-1.42-.54-1.89-1.61q-5.4-1.47-5.67-4.2l1.12-.49a9.82,9.82,0,0,1-1.12-3.91l-.77-.39.49-.53a2.18,2.18,0,0,0,.42-1c.09-.47.23-1.13.42-2l1-3.71a1.18,1.18,0,0,1-.14-.69,2,2,0,0,1,.42-1.12,3.4,3.4,0,0,1-.28-1.07,2.66,2.66,0,0,1,.28-1l.56-.1a3,3,0,0,0,1.19-1.9.87.87,0,0,0-.46-.78q-.45-.3-.45-.39c0-.23.25-.39.77-.49-.7-.1-1-.31-1-.64s.49-.49,1.47-.49v-.19a2.8,2.8,0,0,1,.87-2,3.68,3.68,0,0,0,.95-1.24l-1-.2,1.89-2.1v-.49a4.45,4.45,0,0,1,2-3.61l-.14-1.81.63-.29a1.32,1.32,0,0,1-.49-1c0-.19.31-.29.91-.29V377c.47-.1.7-.26.7-.49a.89.89,0,0,0-.14-.54,22,22,0,0,1,2-1.61,8.74,8.74,0,0,0,2-1.95h.42c1.07,0,1.61-.18,1.61-.54,0-.13-.14-.29-.42-.49,1.91,0,2.92-.26,3-.78l2.59-.92,7.43.43v.4l6,.87h.56c.89,0,1.33.28,1.33.83l.7-.19a1.53,1.53,0,0,0,1.61.88l.7-.1,1.26.88,3,.54v.88a25.92,25.92,0,0,1,5.18-1.62v1.62h-.7l1.4.48-.28.2,1.12,2.54-1.26,1-.56,1.66a6.87,6.87,0,0,1-1.33,2.06l.91,1.27-.81.78a3,3,0,0,0-.66,2.24c.28.1.42.26.42.49l-.28.83.14.68-.42,1.08.28.93-.84.68.28,2.2-.42.29.42.44-.42.29a.47.47,0,0,1,.14.39,1.27,1.27,0,0,1-.42.88l.42.64-.7.88c-.38.16-.56.63-.56,1.41l.56,1.27-1.33,1.22a3.56,3.56,0,0,0,1.33,1.32,8.22,8.22,0,0,0-1.75,3.86l1.19.19-.14.54a1.12,1.12,0,0,1,.14.68,3.49,3.49,0,0,1-1,2h.91l.42,1.51,2.87.19,1,1.27c-.28.14-.42.25-.42.35,0,.26.47.58,1.4,1h-.14c-.19,0-.28,0-.28.1S899.35,415.37,900.14,415.83Zm-7.35-35.94-.84-1.81-2.32-.48-4-2.49a4.07,4.07,0,0,0-1.47-.4,5.28,5.28,0,0,0-1.12.2l-.7-.49H880l-.7-.63-1.61.44-.7-.44-1.2.24-2.24-.24a18.37,18.37,0,0,0-5,1.12l.28.39-1.26.29-.28.39-1.61.15v.59a9.27,9.27,0,0,0-3.29,3.17,27.18,27.18,0,0,1-2.6,5.13l1.13.39-1.83,1.12.56.78a4.33,4.33,0,0,0-1.26,3.08v.54l-1,1.07v1.71a2.94,2.94,0,0,0-1.26,1.81l-.56.39v1.8l-.49.49a9.42,9.42,0,0,1-.56,2.69l.77,1.22a5.37,5.37,0,0,0-2,1.22l.56.78-.84.78,1.12,2-1.26,1.22.14,2.4-.42,1.12.7.29.28.69a4.86,4.86,0,0,1,2,1.12l3.29-.54a3.6,3.6,0,0,1,3.15-1.56l-.27-.73,2.27-.42c.07,0,.18-.2.32-.56a2.33,2.33,0,0,1,1.26-1h.28q.42,0,.42-.39l2.59-2.1h-.56l1.54-1a7.13,7.13,0,0,1,2.31-.93l1-1.9c1.78-.52,2.78-1.22,3-2.1H877l1.4-1.27-.28-.83,1.33-.2a1,1,0,0,1-.28-.49,4.67,4.67,0,0,1,1-1.1c.65-.63,1.16-1.16,1.54-1.58l.63.19a2.47,2.47,0,0,1,1.54-1.8,2.33,2.33,0,0,1,1.12-1.25,3,3,0,0,1,1.19-.46h1l.14-1.22c.19-.13.28-.26.28-.39s-.14-.39-.42-.59a7,7,0,0,1,2-1.81l.28-1.07,1-.54-.28-.88a4.4,4.4,0,0,0,1.06-1.8l1.26-.88Z"/>
        <path d="M980.91,368.9l-.7,1,.14,1.46-1.48.64-.7,2.05c-.09.29-.53.73-1.33,1.32l-.28,1.32H975a6.67,6.67,0,0,1,.7,1.8c0,.52-.77.92-2.31,1.18v.73l-1.26,3.37L971,385.41h-.84a1.59,1.59,0,0,1,.84,1.22l-1.82,1.27-3.29,6-3,3.62v1.61c0,.23-.34.55-1,1s-1,.76-1,1,.24.46.7.78a6.23,6.23,0,0,1-3.15.69l.56,1.12a5.44,5.44,0,0,0-1.54,2.1c-1,.52-1.47,1-1.47,1.37a1.13,1.13,0,0,0,.14.63h-1.12v1.07l-1.89.83-1,1.27-2.88,2.2-3.71,4a4.3,4.3,0,0,1-3.15,1.12q-2.88,0-4-1.32l-4.63-5.08-.28-1.8-.84-.4-.14-2.29-1.61-1.22v-2.3l-3.43-6.1.14-1.22-.91-1.12a5.42,5.42,0,0,1-.56-2.05l-1-.93-.7-1.32a3,3,0,0,0-1-1.17l-1.68-1.08-1.27-3.51-1.47-.88a5.33,5.33,0,0,1-1.33-1.17l-1.26-1.66a2.77,2.77,0,0,1-.84.19c-1,0-1.47-.86-1.47-2.59,0-1.13,1-1.93,2.87-2.39,1.68,1,2.89,1.7,3.61,2.17a12.72,12.72,0,0,1,2.73,3c1.1,1.52,2.11,2.34,3,2.47-.42.06-.63.23-.63.49a1.22,1.22,0,0,0,.42.68v.83l1.75,1-.42.88.42,2,1.61,3.22.42.29.28,1.32.7.3v1l1.75,4.4.42,1.71,2.31,3.61,1.83,4.69,1.47.83v.19c0,.91,1,1.37,3,1.37h.56v-.49c0-.1.32-.22,1-.37A3.12,3.12,0,0,0,944.9,411a3.32,3.32,0,0,0,.7.2q.42,0,.42-.39a2.34,2.34,0,0,0-.28-.78L949,408.7a3.53,3.53,0,0,1,.35-1.17,2.58,2.58,0,0,1,.85-.93l1.26-.78,2.59-2.59.84-1.81,1.47-.73.56-1.07a4.36,4.36,0,0,1,1.4-1.22l-.14-1.08.7-.19.49-1,.56.39a2.34,2.34,0,0,1-.28-.78c0-.45.33-.71,1-.78a1.36,1.36,0,0,1,1.26-.73,4.7,4.7,0,0,0,1.05-2.79h1.12l.14-1.31a8.19,8.19,0,0,0,1.34-2.79l.84-.1,2-4.1.42-.39-.14.59a3.79,3.79,0,0,0,1.29-1.69c.21-.6.39-.9.53-.9a1.73,1.73,0,0,1,.63.2l1.82-4.59,1.33-1.22v-.59l1,.19L975,373.1a7.53,7.53,0,0,0,2.7-2.76c.53-1,1.06-1.53,1.57-1.53a3.15,3.15,0,0,1,.78.09l.14-.58Z"/>
        <path d="M1026.79,407.72c.7.75,1,1.31,1,1.66s-.44.82-1.3,1.66a10.27,10.27,0,0,0-2,2.69l-1,.1-1.54,2.1-1.75.19-3.85,1.81-.7,1.07-1.19-.1-1.26,1h-2l-.42.49-1-.1a4.22,4.22,0,0,0-2.73,1l-.91-.49a8.14,8.14,0,0,1-2.38.49,5.92,5.92,0,0,1-2.59-.49,15.31,15.31,0,0,1-1.89.1l-.84-.49c-2.57-.1-4.3-.6-5.19-1.52v-1.22l-2.31-.88-.56-1a4.76,4.76,0,0,0-1.54-1.27v-.78L987.21,409l.28-3.37.56-1.9v-2.1l.77-1.81-.28-1.32a2,2,0,0,0,1-1.09,5.12,5.12,0,0,1,.84-1.49,20.25,20.25,0,0,1-.56-2.49l1.26-.74-1.26-1c.66-.75,1-1.22,1-1.42l-.7-3a5.54,5.54,0,0,1,.42-2.1,2.55,2.55,0,0,0,1.89.88,21.55,21.55,0,0,0,2.73-.39A1.59,1.59,0,0,1,995,385c0-.46.38-.86,1.13-1.22a16.65,16.65,0,0,1,3.15-4.59,2.24,2.24,0,0,0,1.33-2h.7l.7-1,.84-.25a4.24,4.24,0,0,1,1.47-1.46,9.28,9.28,0,0,0,3.85-2.3,4.3,4.3,0,0,0,1.19.1c.14,0,.52-.37,1.12-1.12,1.64-.39,2.5-.59,2.6-.59a1.88,1.88,0,0,1,1.26.59l1.33-.2.7.39h.84a2.88,2.88,0,0,0,2.87,1.62h.42a1.66,1.66,0,0,0,.91,1l-.63.2c1.64.55,2.45,1.84,2.45,3.85l-.42,1.13.42,2.78-.7.44-1.61,3L1018,387.9l-.14,1.41a47.64,47.64,0,0,1-8.41,4,.93.93,0,0,1-.91.58,6.22,6.22,0,0,1-1.12-.19l-3.15,1.51h-1.89l-2.73.88-1.19-.49a15.39,15.39,0,0,0-3-.39,4.26,4.26,0,0,0-2.17,3.66l-1,.83a8,8,0,0,1-.7,2.59l-.77.3.77,3.61-.77.49.14,1.12-.14,1.37a13.09,13.09,0,0,0,.35,1.85c.23,1,.61,1.6,1.12,1.76-.23.46.22,1,1.37,1.66a12.18,12.18,0,0,0,3.68,1.37v.58l3.71.39,5.32.2,3.57-.29a17.68,17.68,0,0,1,3.16-1.32l1.12-1.17h1.33l.14-.49a16,16,0,0,0,3.4-1,.72.72,0,0,0,.31-.52,1.45,1.45,0,0,1,1.26-.58l.42-.64q3.15-.33,3.92-2.88A3.43,3.43,0,0,1,1026.79,407.72ZM1015,384.92a4.54,4.54,0,0,0,1.89-1.22l.42-1.17a20.59,20.59,0,0,0,2-2.61,3.09,3.09,0,0,0,.28-1.4,8.69,8.69,0,0,0-1-2.93l-2.87-.68a11.6,11.6,0,0,1-1.47.2l-.84-.2a1.49,1.49,0,0,0-1.47.88,15.79,15.79,0,0,0-3.86.73l-.42.69a1.54,1.54,0,0,0-.56-.1,1.13,1.13,0,0,0-.38.05,1.15,1.15,0,0,0-.32.14l-.28.22a1.16,1.16,0,0,0-.24.32l-.21.41-.21.44a4,4,0,0,1-.88.86l-1,.88-2,2.68-1.05.64a2,2,0,0,0-.77,1.27q-.29,1-3.78,4.69l1,.39.49.83,2.38.48a14.77,14.77,0,0,1,4.34-1.31l.42-.59a5.28,5.28,0,0,0,1.12.2,1.94,1.94,0,0,0,1.33-.59l1.68-.2,1-1.22h1l.7-1.07a6,6,0,0,0,3.57-1.22Z"/>
        <path d="M1100.54,412c-1,2.57-2.31,4.3-3.85,5.18a4.6,4.6,0,0,1-2.31-1.08l-2.59-2.83-1-1.56-1.89-4.64V402.6l-.42-3.91.42-2.2-.42-1.9V391.8l-1.33-1.31-.56.83-1.12.09-2.18,3.52-2.59,2.59h-1.12l-.35,1a4.88,4.88,0,0,1-.8,1.32l-1.44,1.76-3.85,3-3,3.12-3.29,2.4a19.24,19.24,0,0,1-2.59,2.49l-2,1.07a12.78,12.78,0,0,0-2.38,2.05l-2.45.59a6.17,6.17,0,0,0-1.68,1.07l-1.69.24a11.85,11.85,0,0,0-2.94,1l-1.26-.19-.42.58-1.61-.1-4.55-2.39a6.5,6.5,0,0,1-1.68-2.9c-.38-1.22-.91-1.85-1.62-1.88l-.77.19,1.48-1.61-.71-1.61.56-1.27-.28-1.9,1-3v-2.79l1-1V396.2a4.29,4.29,0,0,0,1-2.3l.56-.29V391.8l1.26-1.61.14-1.36a6.07,6.07,0,0,0,1.33-2l.7-3a2.87,2.87,0,0,1,1.61-1.81l.14-1.07a3.77,3.77,0,0,1,.91-1.32,2.39,2.39,0,0,0,.77-1.52,18.58,18.58,0,0,1,3.57-2.1l-.28-.39c.61-.09,1-.26,1-.48a2.55,2.55,0,0,0,.85.09,3,3,0,0,0,.84-.09l-.7-.2,6.16-1.22c.89-.07,1.7-.11,2.45-.15s1.12-.14,1.12-.34v-.1l2.31-.09,1.26.48.77-.19c.15.32.52.49,1.13.49a1.89,1.89,0,0,0,.56-.1l2.31.1v.44l.56-.2,2.17,1.27,2.17-.39,1.26,1.61,2.31,1.32a5.47,5.47,0,0,1,1.26,1.46l2.32.88a3.32,3.32,0,0,0,1.75.83.55.55,0,0,0,.56-.39l1-3.41,1.12-1.81-.42-2.59.63-4.69-.63-1.22a2.64,2.64,0,0,0,1-2.1l-.63-.88.49-2.73-.49-2.78.63-.59-.63-.29c.51-.33.77-.6.77-.83a1.19,1.19,0,0,0-.28-.59,2.85,2.85,0,0,0,.42-1.41,2.94,2.94,0,0,0-.42-1.47h.7a1.53,1.53,0,0,1-.28-.93c0-.42.47-.81,1.4-1.17l-.56-.24.7-.1a1.06,1.06,0,0,1,1,.83,1.41,1.41,0,0,1,1.26,1.27h-.7l.14,1.61-.14.93h-.84l1.54,1.17-.56,1.42,1,1.61-.7.68a3.94,3.94,0,0,1,.7,1.81,2,2,0,0,1-.42,1.17l1.12.63c-.46.2-.7.39-.7.59s.4.59,1.19.78v.29c0,.43-.39.8-1.19,1.13v.88a52.76,52.76,0,0,1-1.12,8.39,1.43,1.43,0,0,1,.14.74,4,4,0,0,1-.7,1.9l.56.88-.84,2.29-.42,2.45a5,5,0,0,1-.91,1.66l.42,1.12-.84,1.81.84,1.36-1.12,3.13.7,2.39-.42,1.42.28,1.27-.84.29a14.89,14.89,0,0,1,1.4,1.71c0,.29-.28.49-.84.58l.28.64-.28.29,1,.69-.7,1.61,1,2.19-.42.69.42.73-.84,1.81.7.49h1.19l1,.87,2-.39.7.78Zm-13.65-27.3-.84-.19-1.48-.93-1.19-.49a4,4,0,0,1-1.08-1.29,6.46,6.46,0,0,0-2-1.93,3.21,3.21,0,0,1-1.26-.59v-.68l-2.17-.29-2.1-.83a6.94,6.94,0,0,0-1.72-.49l-2.91-.49-4.34.39-1.26.49-1.33-.68-2.24.49h-2.87l-.49.87-.84.25c0,.55.18.88.56,1a12.21,12.21,0,0,1-3.58,2.2l-1,1.81-1.33.49-1.26,2.73-.42,3-1.33.88v1.71c-1,.65-1.54,1.19-1.54,1.61l.28,2.39-2.31,3.13-.56,2.19-.14,3.37.42.74-1,1.36.7.83-1.12,1.66a14.38,14.38,0,0,1,2,3.62l1.33.48-.28.64h1.4a7.2,7.2,0,0,0,1.75.68c.09,0,.32-.16.67-.49a3.46,3.46,0,0,1,2.2-.48v.39a2.57,2.57,0,0,0,1.12-.93c.75,0,1.12-.23,1.12-.68l1.34-.4.56.3.42-1.13,2.87-.78.28-.88,2-.83v-.48l1.54-1.13.49.15c.37,0,.56-.24.56-.73h1v-.59l2.31-.68-.56-1.52,1.54-.68-1-.73a2.9,2.9,0,0,0,.84.1,4.05,4.05,0,0,0,1.75-.49l.15-.39,1.54-.1,1.61-2.93,1.4-1,.56-1.8,1.75-.39a13.79,13.79,0,0,1,3.15-3v-1.37l1.33-.39,3.58-5Z"/>
        <path d="M388.06,499.21l9.88.29,9.46-.29,2.31.09,1-.09h5.18c1,0,1.47.29,1.47.88s-.77,1.12-2.31,1.31a2.92,2.92,0,0,0-1.19-.19,3.53,3.53,0,0,0-1.82.49l-2-.3-3.86.1a14.57,14.57,0,0,1-5.32,1l-2.73-.34-1.4.92h-1.33v-.58l-2.45.78h-1.27l-.42.88a31,31,0,0,0-4.2-.39.73.73,0,0,1-.7.58,1.73,1.73,0,0,1-.84-.39l-2,.2-1.4,1-.42,4.89.28,2.93-.42,3.76.14,4.19.42,2v1.8l1.68,2.49v.44q0,1.71,2.87,3.27l.42.83,2.59.39,1.9,1.42,5.32.68,7-1.12,2,.44,5-1.61,1.89.19c.65.46,1,.88,1,1.27s-.61,1-1.82,1.62l-1.05-.3-2.24,1.32-4.77.39-1.61.69-1.68-.69a14.37,14.37,0,0,1-5,.88l-2.87-.39h-1.55l-5.18-2.1-2.45-2.39-1.68-1.32-2.59-4.79L378,521.91l.63-1.8-1.19-1L378,518l-.56-1.81,1.47-.78-.63-.93.35-1.17L378,512l.28-1.9-.28-1,.63-.29v-3.62c-.28-.88-.68-1.32-1.19-1.32a1.09,1.09,0,0,0-.84.4L375,503.8l-2.24.39L370.41,503h-1.19q-1.68,0-1.68-1.32l.14-1.52-1-.48.56-.88,2.1.19,1.61-.19,2.31.48h6l.28-2.29v-2.3l-1-1.7,1.12-.59a2.86,2.86,0,0,0,.28-.73c0-.43-.38-.78-1.12-1.08l.28-3.9L378,485.49l.28-.88q-1.41-.19-1.41-.78l1-2.64a8.15,8.15,0,0,0,1.33-1.37c2.84,1,4.27,1.55,4.27,1.71v.1l-.56,1a4.45,4.45,0,0,1,1,2.19v.3a3,3,0,0,0-.42,1.41.89.89,0,0,0,.42.78l-.14.83.14,1.08-1.26,1.41.84,2.49-.56,3,.56.59-.84.88,1.12,2.49h2.59Z"/>
        <path d="M480.17,536.12a4.5,4.5,0,0,1,.14,1.27c0,1.53-1.05,2.3-3.15,2.3-1.4,0-2.36-.83-2.87-2.49l-1-3.08v-.93a8.64,8.64,0,0,0,.14-1.66,4.06,4.06,0,0,0-1.47-2.64l1-1.61-.56-2.39.56-1.17v-1.61l.35-1.42-.63-1.56.63-.93v-3.71l.14-4.78-1.05-3.18.56-1.32-1.26-3.81v-1.22l-2.31-.68-2.6,1.66a6.85,6.85,0,0,1-1.4.63l-2.45.74-4,4-1.61.29-3.57,4.11v.48h-1l-.42.88-1.55,1a4.24,4.24,0,0,0-1.33,1.9L448,518.69l-2.17,1.95a4.68,4.68,0,0,0-1,1.66l-1.4.93-.63,2.59-3,2-.28,2.78H439l-1,1.91-2.32,2.88a21.42,21.42,0,0,0-3.29,2.93l-.7-.2h-.91l-.42-.53-1.26-3.37-.28-5.52-.42-1.61.42-2-.14-3.47.7-.2,1-8.49.42-1.61-.14-1.22.77-.3-.35-.68.63-3.52.7-1.41-.42-1.47.42-.73-.42-.59.42-3.32-.7-.48.42-.69L432,493.1l-.91-1.71H432v-.87l-1.33-4.11v-2l-.56-.93-.7-3.17a16.16,16.16,0,0,0-2.31-4.1l1.61-1.61-.28-.3q1.68,0,1.68,1.23l2,1.26.56,1.18a7,7,0,0,0,1.75,1.66l-.35.88.91,1.8-.91.88,1.33.73-.14,2.59.14,5,.84,2.54-.56,1.08.14,1.9-.56,1.61.42,2.49-1,2.49.56.69-.28,6.1.28.93-.56.48-.63,3.72-.7,1.07.56,1.22-.28.59-.28,3.32L432,524.6c1,.84,1.54,1.41,1.54,1.71l-1.12,1.41a4,4,0,0,1,.7,2.4l1.33-.74.56-1.27,2.25-3.22,1.05-2.29q2.31-.5,2.31-2.1a10.1,10.1,0,0,0,2.1-2.4l.63-1.27a5.44,5.44,0,0,1,1.4-1.61l.14-1.32-.42-.29,1-.58.28.29,2.31-2c.75-.26,1.12-.67,1.12-1.22v-.39c1.26-.13,1.89-.74,1.89-1.81l.43-.2v-.49l1.19-.19.14-1.32h1l-.14-.78h1v-.63a4.4,4.4,0,0,1,1.19-.49c.09,0,.14.06.14.19v.2l.14-.88h.42c1.12,0,1.68-.64,1.68-1.91l1.75-1,.28.39a3.58,3.58,0,0,0,1.33-2l1-.3.42-.83,1.12-.09a4.13,4.13,0,0,1,1.61-.52,8,8,0,0,0,1.12-.17l-.28-.39a16.45,16.45,0,0,1,3.58-1.12,3.92,3.92,0,0,1,2.31,1.32c.7.06,1.05.36,1.05.88l1.26.73c0,.45.77,1.58,2.31,3.37v7.81l-.28,4.1.56,1v7.32l-.28,1.32v2.49l.28,2.1-.56,2.49c.38.26.66,1.25.84,3l1.4,1.22v1.22Z"/>
        <path d="M537.4,527.72c.7.75,1.05,1.31,1.05,1.66s-.43.82-1.29,1.66a10.05,10.05,0,0,0-2,2.69l-1,.1-1.54,2.1-1.75.19L527,537.93l-.7,1.07-1.19-.1-1.26,1h-2l-.42.49-1-.1a4.18,4.18,0,0,0-2.73,1l-.91-.49a8.21,8.21,0,0,1-2.38.49,6,6,0,0,1-2.6-.49,15.07,15.07,0,0,1-1.89.1l-.84-.49c-2.57-.1-4.29-.6-5.18-1.52v-1.22l-2.31-.88-.56-1a4.76,4.76,0,0,0-1.54-1.27v-.78L497.83,529l.28-3.37.56-1.9v-2.1l.77-1.81-.28-1.32a2,2,0,0,0,1-1.09,5.12,5.12,0,0,1,.84-1.49,18.54,18.54,0,0,1-.56-2.49l1.26-.74-1.26-1c.65-.75,1-1.22,1-1.42l-.7-3a5.54,5.54,0,0,1,.42-2.1,2.55,2.55,0,0,0,1.89.88,22.06,22.06,0,0,0,2.73-.39,1.59,1.59,0,0,1-.14-.68c0-.46.37-.86,1.12-1.22a17.1,17.1,0,0,1,3.15-4.59,2.24,2.24,0,0,0,1.34-2h.7l.7-1,.84-.25a4.07,4.07,0,0,1,1.47-1.46,9.4,9.4,0,0,0,3.85-2.3,4.25,4.25,0,0,0,1.19.1c.14,0,.51-.37,1.12-1.12,1.64-.39,2.5-.59,2.59-.59a1.88,1.88,0,0,1,1.26.59l1.33-.2.7.39h.85a2.88,2.88,0,0,0,2.87,1.62h.42a1.66,1.66,0,0,0,.91,1l-.63.2c1.63.55,2.45,1.84,2.45,3.85l-.42,1.13.42,2.78-.7.44-1.61,3-2.87,2.49-.14,1.41a48,48,0,0,1-8.41,4,.94.94,0,0,1-.91.58,6.08,6.08,0,0,1-1.12-.19l-3.15,1.51H513l-2.74.88-1.19-.49a15.22,15.22,0,0,0-2.94-.39,4.24,4.24,0,0,0-2.17,3.66l-1,.83a8.22,8.22,0,0,1-.7,2.59l-.77.3.77,3.61-.77.49.14,1.12-.14,1.37a11.67,11.67,0,0,0,.35,1.85c.23,1,.61,1.6,1.12,1.76-.23.46.22,1,1.37,1.66a12.22,12.22,0,0,0,3.67,1.37v.58l3.71.39,5.33.2,3.57-.29a18,18,0,0,1,3.15-1.32l1.12-1.17h1.33l.15-.49a15.83,15.83,0,0,0,3.39-1,.73.73,0,0,0,.32-.52,1.45,1.45,0,0,1,1.26-.58l.42-.64q3.15-.33,3.92-2.88A3.42,3.42,0,0,1,537.4,527.72Zm-11.77-22.8a4.49,4.49,0,0,0,1.9-1.22l.42-1.17a21.68,21.68,0,0,0,2-2.61,3.23,3.23,0,0,0,.28-1.4,8.69,8.69,0,0,0-1-2.93l-2.87-.68a11.45,11.45,0,0,1-1.48.2l-.84-.2a1.49,1.49,0,0,0-1.47.88,15.73,15.73,0,0,0-3.85.73l-.42.69a1.58,1.58,0,0,0-.56-.1,1.23,1.23,0,0,0-.39.05,1.09,1.09,0,0,0-.31.14l-.28.22a1,1,0,0,0-.25.32l-.21.41-.21.44a3.88,3.88,0,0,1-.87.86l-1,.88-2,2.68-1.06.64a2.11,2.11,0,0,0-.77,1.27q-.27,1-3.78,4.69l1,.39.49.83,2.38.48a14.92,14.92,0,0,1,4.35-1.31l.42-.59a5.18,5.18,0,0,0,1.12.2,2,2,0,0,0,1.33-.59l1.68-.2,1-1.22h1l.7-1.07a6,6,0,0,0,3.57-1.22Z"/>
        <path d="M665.24,530.12l-.77,1.07a4.44,4.44,0,0,1-1.12,3.32c-1.17.68-1.75,1.22-1.75,1.61-.28.46-.7,1.06-1.26,1.81l-1.27.73a3.31,3.31,0,0,0-1.19,1.37l-4.69,1.76a34,34,0,0,1-5,.63l-2.17-.73h-1.69l-1.47-.78-1.54-.1-5.18-1.91-11.49-7.27-2.87-3.13-2.31-1.41a11.93,11.93,0,0,0-2.24-2.2,13.49,13.49,0,0,1-2.73-2.22,8.49,8.49,0,0,0-3.93-2.17l-2.73-3.81a26.69,26.69,0,0,1,1.05-3.08l2.73,1.32,1.54,1.17a37.53,37.53,0,0,0,4.35,2.1h1.82l.77.49a7.11,7.11,0,0,1,1.4-.1,5,5,0,0,1,1.61.29,14.35,14.35,0,0,1,4-1.19c1.65-.28,3-.55,4-.81l.7-1H635c0-.3.32-.53.84-.71a7,7,0,0,1,.84-.27h.42a3.07,3.07,0,0,0,3-2.44,21.61,21.61,0,0,0,2.59-1l.91-.63a10.46,10.46,0,0,0,2-2.2h.28q1.39,0,2.87-3.71h.7l.28-.73-.28-1.66.28-1.71q0-1.12-4.13-2.49a2.15,2.15,0,0,0-1.9-.93h-.42l-.84-.49q-3-.15-6.2-.46c-2.12-.21-3.39-.32-3.81-.32a14.49,14.49,0,0,0-5.75,1.47,25,25,0,0,0-3.78.29l.21.19a13.13,13.13,0,0,0-1.61.3,15.49,15.49,0,0,0-1.51.46c-.49.18-1.05.41-1.68.68a10.85,10.85,0,0,1-1.71.61l-1.82.49-5,2.88-5,3.81V508l-2.38,3.32-1.19,2.19c-1.54,1.76-2.32,3.13-2.32,4.11a1.82,1.82,0,0,0,.63,1.26,1.05,1.05,0,0,1-.77,1.13,2.94,2.94,0,0,0-1,2.1l.14.88a3,3,0,0,1-.42,1.51,6.85,6.85,0,0,0-1.61,1.71l.63,1.81-.63,2.1.35,1.51a4.93,4.93,0,0,0-1.05,3.08v.58a2.6,2.6,0,0,1,.28.73c0,.78-.86,1.34-2.59,1.66a2.48,2.48,0,0,1-1.82-1.9l-.56-1.27.42-1.71-.42-3.91.42-.87v-3.81l.14-1.32v-1.17a33.3,33.3,0,0,1,.28-4.64c.18-1.34.28-2,.28-2.05v-1.61l.28-.93v-2.78l.42-1.08-.42-1.42.42-3.41v-4.1l-.42-1.37.7-.93-.28-1.07-.42-5.72-1-3.32v-.78l.7-3.71-.56-1.61-.14-2.49a10.93,10.93,0,0,1-.28-1.91c0-1.33,1.1-2,3.29-2l.42.74.84-.35-.28,1.61.7,2.84-1,3,.28,3.9.7,1.61-.42,1.57.28,2.73-.56,2.1.7,2-.42.69.7,1.41-.42,2.49-.56,7.08a8.44,8.44,0,0,1,.28,1.52l-.28,1.41.28,1.91a3.34,3.34,0,0,1-.56,1.9,6.38,6.38,0,0,0,2,1l1.68-2.49-.14-.49c0-.39.93-2,2.77-4.91a28.33,28.33,0,0,1,6-6.91c.65-.1,1-.26,1-.49s-.09-.27-.28-.44a28.26,28.26,0,0,0,4-1.83,12.12,12.12,0,0,1,1-.68,10.56,10.56,0,0,1,1.19-.54,5.92,5.92,0,0,1,1.2-.34,2.69,2.69,0,0,0,1-.37,10.74,10.74,0,0,1,1.43-.66,27.31,27.31,0,0,1,3-.85q1.18-1.17,5.88-1.61l5.54-.49,10.08.49,1.54.63a10.86,10.86,0,0,0,2.46.49,56.08,56.08,0,0,0,5.6,3.57c0-.1-.14-.3-.42-.59l2,3.22-.35.78a2.25,2.25,0,0,1,1,1.62c0,.52-.54,1.25-1.61,2.19v.88l-1.54,3.42-2.17,2.2-1,.09a3.17,3.17,0,0,1-1.16,1.27,3.36,3.36,0,0,0-1.15,1.22,4.39,4.39,0,0,0-2.88,1.13c-.88.19-1.42.55-1.61,1.07a6.06,6.06,0,0,0-3.29,1.52.76.76,0,0,0,.42-.1H638q0,.39-13.38,3.42a6.59,6.59,0,0,0-2.17-.54,1,1,0,0,0-1.12,1.12v.2l-.14.49,1.12.92.49,1.47c.19.68,1,1.25,2.38,1.71l2.45,3.42,3.72,1.61.14.48,1.61.59.56,1,.84-.1,4.34,3,5.32,1.51,3.3.68,2.73-.19,1.26-.39a15.88,15.88,0,0,0,4.34-1.22A16.85,16.85,0,0,0,658,536l2.6-3.41,1-.93a6.57,6.57,0,0,0,1.26-2,6.08,6.08,0,0,1,1.12-.19A1.49,1.49,0,0,1,665.24,530.12Z"/>
        <path d="M693.75,473.23a4.79,4.79,0,0,1-2.45,1.66v.64l-1.26,1a1.8,1.8,0,0,1-1.13.59,3,3,0,0,1-.77-.2l-3.85,3.23-1,1.07-3.43.73-1.75,1.81-1.61.49a15.66,15.66,0,0,0-3.16,1.9l-.84-.39-.14-1.22,3.3-1c.46-1.62,1.06-2.54,1.78-2.75s1.09-.35,1.09-.42v-.39l.7-.29.28.09.35-.73h.56l-.56-.88h2.24V476.7l1-.2.7-.78,1.12-.29,1-1.32a.89.89,0,0,0,.84-.59h.84l.14-1a3.48,3.48,0,0,0,1.76-2Q693,471.28,693.75,473.23ZM708,523.52l-.28,1-1.33.68-.56,1.22-2,.39a4.86,4.86,0,0,1-2,2.5l-1.75.43-1.54,1.18a12.09,12.09,0,0,0-2.45,1.8h-1a4.86,4.86,0,0,1-3.15,1.13c-1,.88-1.61,1.4-1.75,1.56a9.83,9.83,0,0,1-2.7.71c-1.1.14-1.79.25-2.07.31l-.56.59h-2.31l-1.26.68-3.57-1.85-2-3.22-.28-5.18-.42-1,1.4-8.2.91-.49-.42-5.12a4,4,0,0,1,.38-1.74,11.86,11.86,0,0,0,.74-2.22l.56-.24a5,5,0,0,0-1-2.79l.56-1.31v-1.86l.7-.64a11.38,11.38,0,0,0-.49-1.58,6.43,6.43,0,0,1-.35-1c0-.52.18-.78.56-.78a.49.49,0,0,0,.28.09,5.69,5.69,0,0,1-1-2c0-.49.32-.73,1-.73a3,3,0,0,1,.94.27,3.11,3.11,0,0,0,1.09.27,3.32,3.32,0,0,0,.7-.2c0-.55.33-.83,1-.83s.88.07,1,.22a14.51,14.51,0,0,1,.38,1.88l1.54.49L684.15,499l-1.47,6.4,1.19,1.61a2.22,2.22,0,0,1-1.33,1.9l-.42,1.27.42,1.13-1.68,4.1.14.49-.7,3.32v2.39l-1,1.61.28,1.37-.28,2.29a7.77,7.77,0,0,0,1.19,4.49l-.14.54,1.26.59,1.47-.3,1.68.49,2-.68a8,8,0,0,1,2.45-.73l1-.69.28.3.84-.78,1.47-.3a10.21,10.21,0,0,1,3.57-1.32,2.88,2.88,0,0,1,2-.78l.84-.93,1.61-.09-.35-1.08h.63l.28-.53,3-1.08.28-1.22,2.74.1A4,4,0,0,1,708,523.52Z"/>
        <path d="M730.1,499.21l9.88.29,9.45-.29,2.32.09,1-.09h5.18c1,0,1.47.29,1.47.88s-.77,1.12-2.31,1.31a2.92,2.92,0,0,0-1.19-.19,3.5,3.5,0,0,0-1.82.49l-2-.3-3.86.1a14.57,14.57,0,0,1-5.32,1l-2.73-.34-1.4.92h-1.33v-.58l-2.46.78h-1.26l-.42.88a31,31,0,0,0-4.2-.39.73.73,0,0,1-.7.58,1.73,1.73,0,0,1-.84-.39l-2,.2-1.4,1-.42,4.89.28,2.93-.42,3.76.14,4.19.42,2v1.8l1.68,2.49v.44c0,1.14,1,2.23,2.87,3.27l.42.83,2.59.39,1.89,1.42,5.33.68,7-1.12,2,.44,5-1.61,1.89.19c.65.46,1,.88,1,1.27s-.61,1-1.82,1.62l-1-.3-2.25,1.32-4.76.39-1.61.69-1.68-.69a14.37,14.37,0,0,1-5,.88l-2.88-.39h-1.54l-5.18-2.1-2.45-2.39-1.68-1.32-2.59-4.79-1.2-4.49.64-1.8-1.2-1L720,518l-.56-1.81,1.48-.78-.64-.93.36-1.17L720,512l.28-1.9-.28-1,.64-.29v-3.62q-.42-1.32-1.2-1.32a1.12,1.12,0,0,0-.84.4L717,503.8l-2.24.39L712.45,503h-1.19q-1.68,0-1.68-1.32l.14-1.52-1-.48.56-.88,2.1.19,1.61-.19,2.31.48h6l.28-2.29v-2.3l-1-1.7,1.12-.59a2.86,2.86,0,0,0,.28-.73c0-.43-.38-.78-1.12-1.08l.28-3.9-1.2-1.22.28-.88c-.93-.13-1.4-.39-1.4-.78l1-2.64a8.15,8.15,0,0,0,1.33-1.37c2.84,1,4.27,1.55,4.27,1.71v.1l-.56,1a4.45,4.45,0,0,1,1,2.19v.3a3,3,0,0,0-.42,1.41.89.89,0,0,0,.42.78l-.14.83.14,1.08-1.26,1.41.84,2.49-.56,3,.56.59-.84.88,1.12,2.49h2.59Z"/>
        <path d="M780,499.21l9.88.29,9.46-.29,2.31.09,1-.09h5.18c1,0,1.47.29,1.47.88s-.77,1.12-2.31,1.31a2.89,2.89,0,0,0-1.19-.19,3.53,3.53,0,0,0-1.82.49l-2-.3-3.85.1a14.62,14.62,0,0,1-5.33,1l-2.73-.34-1.4.92h-1.33v-.58l-2.45.78h-1.26l-.42.88a31.42,31.42,0,0,0-4.21-.39.73.73,0,0,1-.7.58,1.81,1.81,0,0,1-.84-.39l-2,.2-1.4,1-.42,4.89.28,2.93-.42,3.76.14,4.19.42,2v1.8l1.68,2.49v.44q0,1.71,2.87,3.27l.42.83,2.6.39,1.89,1.42,5.32.68,7-1.12,2,.44,5-1.61,1.89.19c.65.46,1,.88,1,1.27s-.61,1-1.82,1.62l-1.05-.3-2.24,1.32-4.76.39-1.62.69-1.68-.69a14.37,14.37,0,0,1-5,.88L784.6,537h-1.54l-5.19-2.1-2.45-2.39-1.68-1.32-2.59-4.79L770,521.91l.63-1.8-1.19-1L770,518l-.56-1.81,1.47-.78-.63-.93.35-1.17L770,512l.28-1.9-.28-1,.63-.29v-3.62c-.28-.88-.68-1.32-1.19-1.32a1.09,1.09,0,0,0-.84.4L767,503.8l-2.24.39L762.39,503H761.2q-1.68,0-1.68-1.32l.14-1.52-1-.48.56-.88,2.1.19,1.61-.19,2.31.48h6l.28-2.29v-2.3l-1-1.7,1.12-.59a2.5,2.5,0,0,0,.28-.73c0-.43-.37-.78-1.12-1.08l.28-3.9L770,485.49l.28-.88c-.94-.13-1.4-.39-1.4-.78l1-2.64a8.15,8.15,0,0,0,1.33-1.37c2.85,1,4.27,1.55,4.27,1.71v.1l-.56,1a4.45,4.45,0,0,1,1,2.19v.3a3,3,0,0,0-.42,1.41.89.89,0,0,0,.42.78l-.14.83.14,1.08-1.26,1.41.84,2.49-.56,3,.56.59-.84.88,1.12,2.49h2.59Z"/>
        <path d="M855.77,527.72c.7.75,1.05,1.31,1.05,1.66s-.44.82-1.3,1.66a10,10,0,0,0-2,2.69l-1.06.1-1.54,2.1-1.75.19-3.85,1.81-.7,1.07-1.19-.1-1.26,1h-2l-.42.49-1-.1a4.22,4.22,0,0,0-2.74,1l-.91-.49a8.14,8.14,0,0,1-2.38.49,5.92,5.92,0,0,1-2.59-.49,15.31,15.31,0,0,1-1.89.1l-.84-.49c-2.57-.1-4.3-.6-5.19-1.52v-1.22l-2.31-.88-.56-1a4.64,4.64,0,0,0-1.54-1.27v-.78L816.19,529l.28-3.37.56-1.9v-2.1l.77-1.81-.28-1.32a2,2,0,0,0,1-1.09,5.12,5.12,0,0,1,.84-1.49,22.3,22.3,0,0,1-.56-2.49l1.26-.74-1.26-1c.66-.75,1-1.22,1-1.42l-.7-3a5.54,5.54,0,0,1,.42-2.1,2.55,2.55,0,0,0,1.89.88,21.86,21.86,0,0,0,2.74-.39A1.45,1.45,0,0,1,824,505c0-.46.38-.86,1.13-1.22a16.65,16.65,0,0,1,3.15-4.59,2.24,2.24,0,0,0,1.33-2h.7l.7-1,.84-.25a4.24,4.24,0,0,1,1.47-1.46,9.28,9.28,0,0,0,3.85-2.3,4.34,4.34,0,0,0,1.2.1c.13,0,.51-.37,1.12-1.12,1.63-.39,2.49-.59,2.59-.59a1.88,1.88,0,0,1,1.26.59l1.33-.2.7.39h.84A2.88,2.88,0,0,0,849,493h.42a1.69,1.69,0,0,0,.91,1l-.63.2c1.64.55,2.45,1.84,2.45,3.85l-.42,1.13.42,2.78-.7.44-1.61,3L847,507.9l-.14,1.41a47.64,47.64,0,0,1-8.41,4,.93.93,0,0,1-.91.58,6.22,6.22,0,0,1-1.12-.19l-3.15,1.51h-1.89l-2.73.88-1.19-.49a15.37,15.37,0,0,0-2.94-.39,4.25,4.25,0,0,0-2.18,3.66l-1,.83a8,8,0,0,1-.7,2.59l-.77.3.77,3.61-.77.49.14,1.12-.14,1.37a13.09,13.09,0,0,0,.35,1.85c.24,1,.61,1.6,1.12,1.76-.23.46.22,1,1.37,1.66a12.18,12.18,0,0,0,3.68,1.37v.58l3.71.39,5.32.2,3.58-.29a17.36,17.36,0,0,1,3.15-1.32l1.12-1.17h1.33l.14-.49a16,16,0,0,0,3.4-1,.72.72,0,0,0,.31-.52,1.45,1.45,0,0,1,1.26-.58l.42-.64q3.15-.33,3.92-2.88A3.43,3.43,0,0,1,855.77,527.72ZM844,504.92a4.54,4.54,0,0,0,1.89-1.22l.42-1.17a20.59,20.59,0,0,0,2-2.61,3.09,3.09,0,0,0,.28-1.4,8.69,8.69,0,0,0-1-2.93l-2.87-.68a11.6,11.6,0,0,1-1.47.2l-.84-.2a1.49,1.49,0,0,0-1.47.88,15.79,15.79,0,0,0-3.86.73l-.42.69a1.54,1.54,0,0,0-.56-.1,1.13,1.13,0,0,0-.38.05,1.15,1.15,0,0,0-.32.14l-.28.22a1.16,1.16,0,0,0-.24.32l-.21.41-.21.44a4,4,0,0,1-.88.86l-1,.88-2,2.68-1,.64a2,2,0,0,0-.77,1.27q-.29,1-3.78,4.69l1,.39.49.83,2.38.48a14.77,14.77,0,0,1,4.34-1.31l.42-.59a5.39,5.39,0,0,0,1.12.2,1.94,1.94,0,0,0,1.33-.59l1.68-.2,1.06-1.22h1l.7-1.07a6,6,0,0,0,3.57-1.22Z"/>
        <path d="M951.17,521.52c.19.52-.4,1-1.75,1.56l.21.35q0,.48-1.89,2.07c-1.26,1.06-1.89,1.87-1.89,2.42l-1.54.29c0,1.37-.91,2.17-2.6,2.39-.14.39-.37.59-.7.59h-.28c-.14.55-.67.83-1.61.83l-.84,1.17-2,.29-1.68.79a4.72,4.72,0,0,1-.91.24l-3.15.39-1.12-.1-1.06.1-.41-.39-1.27-.1L925,533h-.7a1.25,1.25,0,0,1-.56-1.08q-2.31-1.75-2.31-2.73v-.78l-1-1.32v-.59l.7-.29-.56-1.42-1-1.8.21-2.69-1.47-1.61V516.2c-1.36-4.85-2-7.81-2-8.89v-.39a3.74,3.74,0,0,1-.28-1.12,1,1,0,0,1,.14-.59,5.14,5.14,0,0,1-1.68-2.78l-.7-.44-3,2.2-1.47,1.41-5,4.2-2,2.49a25.61,25.61,0,0,1-1.68,2.37,14.65,14.65,0,0,1-2.81,2.22l.42.93-1,1.9-1.12.1v.88h-.77l-2.73,2.3a1.92,1.92,0,0,1-1.82,1.9,5.54,5.54,0,0,0-1.12,1.86,1.79,1.79,0,0,1-1.61,1.27l-.56.39a15,15,0,0,1-2.49,2.46,24.6,24.6,0,0,1-3.26,1.93,2.57,2.57,0,0,1-1.75,2l-.14.49a2,2,0,0,1-.7,1.29,7.65,7.65,0,0,1-3.43,1.1c-.7-.06-1.24-.62-1.61-1.66a2.78,2.78,0,0,0-1.68-1.9l-.42-.64,1.12-1.27L873,531l.7-.48-.7-.88.14-1.22-1.12-2.2,1-1.32-.56-1.37a7,7,0,0,0,1-4.1v-.54q0-.24-.84-1.17c.74-.42,1.12-.83,1.12-1.22l-.28-1.56.84-3.81-.56-.73.14-1.56-.7-.93.56-3.18-.28-1.12.42-1.81-.42-2.58,1-1.32a14.57,14.57,0,0,1,2.84.73,1.47,1.47,0,0,1,.35.9,17.6,17.6,0,0,1,.1,2.27l1.19,1.32-.42,1.91.56,4.1-1,2.2.42,2.58v1.22l-1.33,1.47.91,2.1a8.27,8.27,0,0,0-1,2.73l.7,1.18a9.85,9.85,0,0,0-1.12,3.9l.14,3.62.42.48,1.75-.58h1.4l.77-2.2c1.08-.23,1.73-.6,2-1.12.14-.78.87-1.17,2.18-1.17a2,2,0,0,1,1-1.52c.37,0,.81-.47,1.33-1.41a10.93,10.93,0,0,0,2.31-2.1v-1.37H890a2.1,2.1,0,0,0,1.3-.71,2.56,2.56,0,0,1,1.85-.71,3.8,3.8,0,0,1,1.26-1.8l2-1.71,1.82-2.79a4.41,4.41,0,0,1-.28-1c0-.2.15-.29.42-.29,1.92-.88,2.88-1.75,2.88-2.59v-1.22c1.44-.39,2.17-.75,2.17-1.08a1.3,1.3,0,0,0-.21-.56,1.46,1.46,0,0,1-.21-.46c0-.33.18-.49.56-.49a2.81,2.81,0,0,1,1.12.29c.7-1.79,1.77-2.68,3.22-2.68a6.06,6.06,0,0,1,1.26.19,2.67,2.67,0,0,1,1.26-2.29c.19-.43,1.31-.93,3.37-1.52l.7-.78H915a6.33,6.33,0,0,0,2,1.42l.28.68.7.2.28,1.9,1.89.78-.63,1.71,1,3.13v2.88l1,3.42.42,3.56,1.47,3.32.28,3.32.74.95a5.26,5.26,0,0,1,.94,2.22l.63.3v1.51l1.26,1-.28.73,1,.39v.49a5.48,5.48,0,0,0,4.49.19,2.25,2.25,0,0,0,.7.2,1.71,1.71,0,0,0,1.26-.78c1.35-.1,2-.36,2-.78v-.25a7.83,7.83,0,0,1,2.87-1,8,8,0,0,1,1.47-1l-.14-.24a2.4,2.4,0,0,1,.53-.57,10.36,10.36,0,0,1,1.36-.87,4.48,4.48,0,0,0,1.34-1l.77-1.08c.6-.58,1.51-1.53,2.73-2.83l2-.68h1.33Z"/>
        <path d="M974,532.9l-.43.29.29,1.12-.78.3v.78a6.89,6.89,0,0,0-2.66,1.71,23,23,0,0,0-3.78.49.91.91,0,0,1-.73-.47.75.75,0,0,0-.67-.41h-.42c0-.26-.09-.39-.28-.39a.9.9,0,0,0-.49.19l-.28-.39-.56-.1.14-.53-.56-.39.42-.59-1-.2v-2.58c0-.39.57-.81,1.71-1.25s1.81-.87,2-1.29l.56-.3a10.68,10.68,0,0,0,2.35.52,3.93,3.93,0,0,1,1.92.75,9.2,9.2,0,0,0,2.31,1.13Z"/>
      </g>
    </g>
  </g>
  <g id="kitten_happy">
    <path class="cls-2" d="M1554.53,548.32a2.76,2.76,0,0,0,1.07.17l9.9.22a29.54,29.54,0,0,0-.39,4.19,1.48,1.48,0,0,0,.27,1.07c.47.49,1.3.14,1.88-.23"/>
    <path class="cls-3" d="M1783.5,497.31c-.16,84.35-73,130.2-160,134-88.55,3.85-168.49-50.83-160-134,8.54-83.63,77.29-130.3,160-134C1715.22,359.2,1783.68,411,1783.5,497.31Z"/>
    <g>
      <path class="cls-4" d="M1601.77,547.43c-7.73-1.87-14.51-6.61-20.6-13.47,13-6.57,28.14-7.84,44.73-5.24-6.19,8.9-13,15.75-21.13,18.68Z"/>
      <path class="cls-4" d="M1627.27,491a1.56,1.56,0,0,1-.63-.14,1.5,1.5,0,0,1-.73-2c5.07-10.89,18.69-19.73,32.39-21,13.09-1.24,24.83,4.37,33,15.79a1.5,1.5,0,1,1-2.44,1.75c-9.69-13.48-21.84-15.36-30.32-14.56-12.7,1.2-25.3,9.31-29.95,19.29A1.49,1.49,0,0,1,1627.27,491Z"/>
      <path class="cls-4" d="M1508.59,503a1.5,1.5,0,0,1-1.35-2.15c6.07-12.68,16.63-20.27,29.74-21.37,13.71-1.14,28.67,5.16,35.58,15a1.5,1.5,0,1,1-2.45,1.73c-6.34-9-20.17-14.77-32.88-13.72-8.49.71-20.12,4.7-27.29,19.68A1.48,1.48,0,0,1,1508.59,503Z"/>
      <g>
        <path class="cls-4" d="M1585.6,571.8c-5.62,0-10.94-3-15.29-8.62l2.38-1.83c4.68,6.08,10.29,8.51,16.24,7,7.19-1.8,13-8.84,13.92-14.3l3,.5c-1.07,6.36-7.56,14.56-16.16,16.71A16.63,16.63,0,0,1,1585.6,571.8Z"/>
        <path class="cls-4" d="M1623.41,569c-.55,0-1.11,0-1.67-.08-8.75-.84-16.3-7.91-18.27-14l2.86-.93c1.68,5.19,8.39,11.22,15.7,11.92,6.15.59,11.4-2.69,15.16-9.5l2.63,1.45C1635.82,565.12,1630,569,1623.41,569Z"/>
      </g>
      <g>
        <g>
          <path class="cls-3" d="M1729,369.89l-9-53a2.5,2.5,0,0,0-4.69-.71l-19,37.76a2.51,2.51,0,0,0,1,3.33l28,15.24a2.5,2.5,0,0,0,3.65-2.62Zm-30.5-14.82,19-37.76,9,53Z"/>
          <path class="cls-3" d="M1729,369.89l-9-53a2.5,2.5,0,0,0-4.69-.71l-19,37.76a2.51,2.51,0,0,0,1,3.33l28,15.24a2.5,2.5,0,0,0,3.65-2.62ZM1701.78,354l14.53-28.8,6.86,40.43ZM1729,369.89l-9-53a2.5,2.5,0,0,0-4.69-.71l-19,37.76a2.51,2.51,0,0,0,1,3.33l28,15.24a2.5,2.5,0,0,0,3.65-2.62ZM1701.78,354l14.53-28.8,6.86,40.43ZM1729,369.89l-9-53a2.5,2.5,0,0,0-4.69-.71l-19,37.76a2.51,2.51,0,0,0,1,3.33l28,15.24a2.5,2.5,0,0,0,3.65-2.62ZM1701.78,354l14.53-28.8,6.86,40.43Z"/>
          <path class="cls-3" d="M1765.28,426.29l-35.34-160.52a2.5,2.5,0,0,0-4.6-.72l-57.93,99.77a2.49,2.49,0,0,0,.8,3.35l93.27,60.75a2.41,2.41,0,0,0,1.36.41,2.53,2.53,0,0,0,1.42-.44A2.5,2.5,0,0,0,1765.28,426.29Zm-37.33-54a2.49,2.49,0,0,1-2.64.17l-28-15.24a2.51,2.51,0,0,1-1-3.33l19-37.76a2.5,2.5,0,0,1,4.69.71l9,53A2.49,2.49,0,0,1,1728,372.34Z"/>
        </g>
        <g>
          <polygon class="cls-3" points="1726.5 370.31 1698.46 355.07 1717.5 317.31 1726.5 370.31"/>
          <path class="cls-3" d="M1729,369.89l-9-53a2.5,2.5,0,0,0-4.69-.71l-19,37.76a2.51,2.51,0,0,0,1,3.33l28,15.24a2.5,2.5,0,0,0,3.65-2.62ZM1701.78,354l14.53-28.8,6.86,40.43Z"/>
        </g>
        <polygon class="cls-4" points="1726.5 370.31 1698.46 355.07 1717.5 317.31 1726.5 370.31"/>
      </g>
      <g>
        <path class="cls-3" d="M1553.82,387.43l-79.6,77.81a2.54,2.54,0,0,1-1.75.71,2.65,2.65,0,0,1-1-.2,2.52,2.52,0,0,1-1.51-2.35l3.28-164.33a2.51,2.51,0,0,1,4.38-1.61L1553.94,384A2.5,2.5,0,0,1,1553.82,387.43Z"/>
        <polygon class="cls-4" points="1491.53 343.18 1517.59 376.49 1493.07 396.91 1491.53 343.18"/>
      </g>
      <g>
        <path class="cls-4" d="M1326.81,564.88c78.9-6.58,155.17-19.76,198.92-6.73l0,1.5c-39.47-10.4-121.35-1.08-198.92,6.73Z"/>
        <path class="cls-4" d="M1409.73,576.62c47.45-12.77,92.67-19,128.57-13.11l.21,2.12c-22-5.73-74.39-2-128.57,13.11Z"/>
        <path class="cls-4" d="M1365,603.5c57.07-16.76,111.28-28,160.12-30.52l-.41-2.15c-44.94,2.68-100.79,14.8-160.12,30.52Z"/>
        <path class="cls-4" d="M1410.46,626.93c42.11-22.39,84.72-38.26,127.92-46.18l-.68-1.88c-43.32,7.51-85.91,23.43-127.92,46.18Z"/>
      </g>
      <g>
        <path class="cls-4" d="M1874.86,529.81c-78.74,8.3-156.13,9.64-196.66,30.63l.23,1.48c36.82-17.61,119-23.78,196.66-30.63Z"/>
        <path class="cls-4" d="M1812.32,551.83c-49-3.66-94.59-1.3-128.75,11.2l.18,2.12c20.6-9.75,72.7-15.89,128.75-11.19Z"/>
        <path class="cls-4" d="M1849.5,574c-59.19-5.79-114.54-6.63-163,0v-2.19c44.65-5.78,101.78-4.34,163,0Z"/>
        <path class="cls-4" d="M1810.5,603.65c-45.56-14.11-90.38-21.72-134.31-21.41l.32-2c44-.73,88.78,6.93,134.3,21.41Z"/>
      </g>
    </g>
  </g>
</svg>
