<svg xmlns="http://www.w3.org/2000/svg" width="560" height="160" viewBox="0 0 560 160">
  <defs>
    <style>
      .cls-1 {
        fill: #391e62;
      }
    </style>
  </defs>
  <g id="start_screen_title">
    <g>
      <path class="cls-1" d="M96.27,65.35a5.28,5.28,0,0,1-3.62-4.61c-.34-2.34-.1-9.64.82-21.89s1.1-20.92.39-26a30,30,0,0,0-2-7.95A1.34,1.34,0,0,1,93.05,3c6.51-.31,11.22.81,14.11,3.31a1.37,1.37,0,0,0,1.48.16,59,59,0,0,1,18.55-5c7.4-.85,13.6-.17,18.59,2s7.63,5,8,8.47-1.22,7.1-4.61,10.91c-3.14,3.54-7.89,6.51-14.24,9a1.35,1.35,0,0,0-.61,2l.91,1.35a72.43,72.43,0,0,0,14,15.38,98.3,98.3,0,0,0,11.06,8.36,1.35,1.35,0,0,1-.42,2.46c-1.69.34-3.38.59-5.07.76a22.59,22.59,0,0,1-8.69-.9,34.15,34.15,0,0,1-7.55-3.11,34.77,34.77,0,0,1-7.11-6,85.31,85.31,0,0,1-5.87-6.55q-1.85-2.37-4-5.24c-1.48-1.9-2.26-2.92-2.36-3.07s-.24-.31-.42-.52a3.11,3.11,0,0,1-.44-.59l-3.88.49a1.34,1.34,0,0,1-1.47-1l-.2-.83a1.35,1.35,0,0,1,1.1-1.63c9.25-1.61,16-4.67,20.21-9.31,2.43-2.71,3.52-5.32,3.25-7.83a8.46,8.46,0,0,0-.78-2.73c-1.72-3.12-5.2-4.8-10.44-5a35.64,35.64,0,0,0-6.07.33,41.72,41.72,0,0,0-9.11,2.5,1.33,1.33,0,0,0-.87,1.3c.08,2.65-.29,8.71-1,18.17-.87,10.84-.8,19.78.14,26.84a38.09,38.09,0,0,0,1.18,5.85A1.34,1.34,0,0,1,109.23,65c-1.59.28-2.67.45-3.27.54C101.57,66.12,98.35,66.07,96.27,65.35Z"/>
      <path class="cls-1" d="M195.52,36.42a78.74,78.74,0,0,1-9.71,0,1.33,1.33,0,0,0-1.43,1.39c0,.26,0,.55.05.86q.47,6.27,4.33,9.18a12.83,12.83,0,0,0,8.86,2.58,24.36,24.36,0,0,0,9.46-2.56,25,25,0,0,0,7.21-5.38,1.31,1.31,0,0,1,1.13-.42,5.05,5.05,0,0,1,3.23,1.32,1.33,1.33,0,0,1-.08,1.77c-6.48,6.78-14.88,10.46-25.34,11.18a30.94,30.94,0,0,1-17.48-3.58,15.56,15.56,0,0,1-8.53-12.92,21.89,21.89,0,0,1,2.84-12.68q3.42-6.18,11.73-10.89A43.16,43.16,0,0,1,200.66,11c7-.43,12.22.31,15.6,2.17s5.13,4.43,5.28,7.71q.33,7.11-7.26,11C209.23,34.41,203,35.93,195.52,36.42Zm3.69-20.66a13.09,13.09,0,0,0-10,5.45,23.33,23.33,0,0,0-4.38,10.23,1.37,1.37,0,0,0,1.43,1.6h.09c6.86-.5,11.86-2,15-4.42s4.64-5.29,4.45-8.46A4.33,4.33,0,0,0,204,16.87,7,7,0,0,0,199.21,15.76Z"/>
      <path class="cls-1" d="M260.46,13.1a12.46,12.46,0,0,0-6,1.52,4.34,4.34,0,0,0-2.55,4c0,1.71,1,3.31,2.91,4.78a28.45,28.45,0,0,0,6.91,3.85q4.07,1.63,8.17,3.38A28.09,28.09,0,0,1,277.12,35a8.93,8.93,0,0,1,3.42,5.65,2.46,2.46,0,0,1,0,.28c-.06,3.57-2.48,6.58-7.22,9.06s-10.75,3.82-17.89,4-12.76-.61-16.9-2.34-6.28-3.79-6.37-6.21a6.72,6.72,0,0,1,3.24-6A15.6,15.6,0,0,1,244,36.9c.74,0,1.46,0,2.16,0a1.34,1.34,0,0,1,.89,2.22,5.29,5.29,0,0,0,1,8.32,11.47,11.47,0,0,0,6.7,1.58,16.15,16.15,0,0,0,7.05-1.54q2.83-1.44,2.81-3.68a5.19,5.19,0,0,0-2.06-4,19.47,19.47,0,0,0-5.05-3q-3-1.26-6.62-2.84c-2.39-1.06-4.6-2.12-6.65-3.2a16.65,16.65,0,0,1-5.17-4.16,9.12,9.12,0,0,1-2.22-5.65c-.13-3.58,2.1-6.6,6.72-9S254,8.29,261,8.17s12.18.71,15.43,2.41,4.88,3.71,4.88,6-1.13,4.25-3.39,5.88A14.84,14.84,0,0,1,269.23,25c-.81,0-1.67,0-2.58-.12a1.34,1.34,0,0,1-.76-2.34,10.75,10.75,0,0,0,1.39-1.5,6.06,6.06,0,0,0,1.39-3.69c0-1.21-.82-2.23-2.43-3A12.36,12.36,0,0,0,260.46,13.1Z"/>
      <path class="cls-1" d="M309.34,35.29c-.16,8.44,3.58,12.71,11.2,12.93a23,23,0,0,0,9.07-1.69,25.3,25.3,0,0,0,7.68-4.68,1.29,1.29,0,0,1,1.17-.32c1.72.4,2.8,1,3.23,1.85a1.31,1.31,0,0,1-.3,1.5,27.8,27.8,0,0,1-11.85,6.88,46.39,46.39,0,0,1-14.27,1.92c-6.36-.15-11.74-1.76-16.18-4.88s-6.67-7.54-6.63-13.35c.05-7.43,3.29-13.77,9.83-19s15.39-7.65,26.47-7.28c6.17.21,10.79,1.35,13.83,3.38s4.48,4.35,4.36,7-1.48,4.79-4.06,6.6a15.43,15.43,0,0,1-9.68,2.48,21.61,21.61,0,0,1-3.1-.34,1.34,1.34,0,0,1-.79-2.21A16.84,16.84,0,0,0,331,23.73a10.65,10.65,0,0,0,1.74-5.06c.11-3.07-1.95-4.7-6.19-4.84-4.95-.15-9.06,2-12.27,6.56A26.15,26.15,0,0,0,309.34,35.29Z"/>
      <path class="cls-1" d="M404.5,13.73c4.15.38,7.27,1.16,9.34,2.32a5.28,5.28,0,0,1,2.71,5.6A105.83,105.83,0,0,1,413.24,32a70.53,70.53,0,0,0-3.79,15.88,31.88,31.88,0,0,0,.43,9.67,1.35,1.35,0,0,1-1.76,1.58c-4.39-1.59-7.46-3.39-9.21-5.45a11.18,11.18,0,0,1-2.68-8.52c0-.26.07-.58.14-1A1.35,1.35,0,0,0,394,43.12a37.53,37.53,0,0,1-8,7.18c-5.25,3.52-10,5.14-14.35,4.84-8.91-.6-13.13-5-12.66-13.39a49.25,49.25,0,0,1,2.62-11.5,49.44,49.44,0,0,0,2.64-11.19,18.84,18.84,0,0,0-.64-6,1.35,1.35,0,0,1,1.4-1.7c5.63.44,9.76,1.26,12.39,2.42a6.3,6.3,0,0,1,4,6.78q-.2,2.58-3.24,10t-3.28,11.31q-.39,5.59,4.29,5.92a10,10,0,0,0,5.54-1.67,29.14,29.14,0,0,0,6.3-5.05,30.7,30.7,0,0,0,5.5-8.21,29.82,29.82,0,0,0,2.86-10.32,52.81,52.81,0,0,0,.18-7.6A1.34,1.34,0,0,1,401,13.51C402.58,13.59,403.76,13.67,404.5,13.73Z"/>
      <path class="cls-1" d="M456.57,44.88A78.42,78.42,0,0,1,447,43a1.34,1.34,0,0,0-1.67,1.09c0,.26-.08.54-.11.85-.52,4.16.31,7.44,2.45,9.85a12.88,12.88,0,0,0,8.2,4.27,24.46,24.46,0,0,0,9.79-.66,25,25,0,0,0,8.14-3.86,1.32,1.32,0,0,1,1.2-.2,5.17,5.17,0,0,1,2.91,1.93,1.34,1.34,0,0,1-.43,1.73c-7.7,5.37-16.67,7.34-27.09,6A31,31,0,0,1,434,57.08a15.53,15.53,0,0,1-5.84-14.34,21.79,21.79,0,0,1,5.26-11.88c3.05-3.59,7.59-6.41,13.65-8.39a43.49,43.49,0,0,1,19.58-1.55c7,.95,11.94,2.71,14.9,5.19s4.18,5.35,3.69,8.59c-.72,4.7-3.83,7.8-9.29,9.34S464,45.85,456.57,44.88Zm7.66-19.54a13.09,13.09,0,0,0-10.85,3.38,23.4,23.4,0,0,0-6.31,9.19,1.35,1.35,0,0,0,1.09,1.84h.1c6.83.86,12,.41,15.59-1.4s5.59-4.27,6-7.43a4.3,4.3,0,0,0-1.14-3.56A7,7,0,0,0,464.23,25.34Z"/>
      <path class="cls-1" d="M2.06,101.09A1.33,1.33,0,0,1,3.24,99.8c8.1-1,17.6-2.55,28.52-4.72a318.64,318.64,0,0,0,33.42-8.66A1.36,1.36,0,0,1,66.91,88c-1,5.32-5.21,8.88-12.56,10.75-2.42.68-6.07,1.59-11,2.76a1.34,1.34,0,0,0-1,1.33c.06,2.58,0,8.75-.1,18.49-.12,11.58.28,19.47,1.11,23.68a26.81,26.81,0,0,0,2,6.57,1.34,1.34,0,0,1-1.24,1.91c-5-.07-8.67-.66-10.93-1.83a8.51,8.51,0,0,1-4.76-6c-.55-2.67-.85-8.66-.83-18a184.75,184.75,0,0,0-.85-20.75,1.35,1.35,0,0,0-1.66-1.16q-8.28,2-16.3,3.73c-3.41.74-5.58-.86-6.49-4.85l0-.16A17.61,17.61,0,0,1,2.06,101.09Z"/>
      <path class="cls-1" d="M99.06,103.73c4.67-4.64,9.32-7.27,13.87-7.88s7.91-.11,10.06,1.48a9.83,9.83,0,0,1,3.8,7.08,58.41,58.41,0,0,1-.52,13.46c-.73,5.85-.91,10.06-.58,12.64s1,4.4,2.14,5.45a11.32,11.32,0,0,0,5.18,2.45c-.93.17-2.27.36-4,.58-6.1.77-10.52.71-13.28-.24s-4.38-3-4.83-6.29c-.26-1.85,0-5.57.69-11.15s.93-9.7.57-12.35c-.45-3.31-2.18-4.76-5.16-4.34a11.47,11.47,0,0,0-5.65,2.87A26.79,26.79,0,0,0,96,113.92a29,29,0,0,0-3.57,9.7,32.09,32.09,0,0,0-.29,11.2,47.57,47.57,0,0,0,1.4,6.55,1.33,1.33,0,0,1-1,1.7c-1.46.29-2.46.47-3,.56-4.13.66-7.18.67-9.15,0a5,5,0,0,1-3.51-4.22q-.54-3.21-.19-12.56c.87-19.2.65-33.61-.91-43.24A29.92,29.92,0,0,0,74,77a1.34,1.34,0,0,1,1.34-1.84c4.62.26,8,1.13,10,2.58Q89,80.3,89.82,85.84c.38,2.5.42,7.86.19,16.07-.12,4-.19,7.46-.24,10.38a1.34,1.34,0,0,0,2.55.61A35.82,35.82,0,0,1,99.06,103.73Z"/>
      <path class="cls-1" d="M168.43,114.8a68.91,68.91,0,0,1-9.06.24,1.35,1.35,0,0,0-1.41,1.44c0,.26,0,.54.08.84q.63,6.25,4.36,9.08a11.65,11.65,0,0,0,8.43,2.4,21.71,21.71,0,0,0,8.84-2.75,23.56,23.56,0,0,0,6.6-5.48,1.4,1.4,0,0,1,1.24-.48,4.18,4.18,0,0,1,3.1,1.45,1.3,1.3,0,0,1-.16,1.52c-5.92,6.93-13.74,10.81-23.59,11.74a27.88,27.88,0,0,1-16.58-3.23,15.81,15.81,0,0,1-8.44-12.74,22.66,22.66,0,0,1,2.29-12.72c2-4.17,5.6-7.89,10.75-11.12a39,39,0,0,1,17.65-5.74c6.61-.57,11.55.06,14.79,1.84s5,4.32,5.21,7.59q.51,7.11-6.54,11.13C181.3,112.5,175.46,114.15,168.43,114.8Zm2.87-20.73a12.08,12.08,0,0,0-9.25,5.65,23.84,23.84,0,0,0-3.83,10.34,1.36,1.36,0,0,0,1.47,1.54h0c6.46-.63,11.12-2.19,14-4.72s4.22-5.38,4-8.55a4.4,4.4,0,0,0-1.8-3.23A6.37,6.37,0,0,0,171.3,94.07Z"/>
      <path class="cls-1" d="M263.74,71.22a5.52,5.52,0,0,1,1.13,2.29,28.7,28.7,0,0,1,.22,3.86c0,1.87-.85,7.14-2.59,15.8-.11.48-.21,1-.31,1.44a1.35,1.35,0,0,0,2,1.44,255.83,255.83,0,0,0,23.06-15c6.3-4.68,11-8.69,14.07-12.09a1.35,1.35,0,0,1,2.1.12,12.26,12.26,0,0,1,2.6,7.31c0,2.81-2.26,5.63-6.57,8.5A183.74,183.74,0,0,1,281.3,95a1.35,1.35,0,0,0-.61,1.8q7.68,15.85,16.8,24.78,3.18,3.08,7.65,6.59a1.35,1.35,0,0,1-.67,2.4,42.27,42.27,0,0,1-4.89.2,22.24,22.24,0,0,1-8.31-1.82,30.36,30.36,0,0,1-7.4-4.27A42.49,42.49,0,0,1,277.4,118a135.73,135.73,0,0,1-9.85-14.93,1.35,1.35,0,0,0-1.78-.53c-1.57.8-3.24,1.63-5,2.47a1.38,1.38,0,0,0-.76,1,103.06,103.06,0,0,0-1.56,16.41,23.76,23.76,0,0,0,.78,6.14,1.34,1.34,0,0,1-1.54,1.69c-4.9-.94-8.37-2.16-10.37-3.69a9.42,9.42,0,0,1-3.65-7.59c-.06-1.91.55-6.81,1.88-14.68,2.38-13.06,3.53-23.14,3.34-30.26,0-1.21-.17-2.75-.41-4.65a1.35,1.35,0,0,1,1.37-1.53q7.54.19,11.22,1.51A5.33,5.33,0,0,1,263.74,71.22Z"/>
      <path class="cls-1" d="M319.28,116.25a65.11,65.11,0,0,1,2.12-11.46,67,67,0,0,0,2.2-12.89,36,36,0,0,0-.19-5.67,1.35,1.35,0,0,1,1.33-1.5c1.08,0,2.1,0,3.07,0,4.39.16,7.42.78,9.08,1.83s2.44,2.77,2.33,5.15c0,.75-1.14,4.68-3.27,11.8a77.17,77.17,0,0,0-3.5,17.67,32.62,32.62,0,0,0,.23,7,1.34,1.34,0,0,1-1.69,1.51c-4.36-1.16-7.36-2.62-9-4.42Q319.11,122.16,319.28,116.25ZM335.91,78.7c-7.84-.31-11.7-2.24-11.59-5.88a11.82,11.82,0,0,1,1.54-4.64,1.36,1.36,0,0,1,1.13-.72c1.84-.09,3.47-.11,4.88-.06,7.92.3,11.78,2.32,11.61,5.95a12,12,0,0,1-1.6,4.62,1.35,1.35,0,0,1-1.14.71C338.92,78.75,337.31,78.76,335.91,78.7Z"/>
      <path class="cls-1" d="M374.41,105.32q-2.27,6.6-3.63,11.74A56.28,56.28,0,0,0,369,127.65a21.52,21.52,0,0,0,.21,5.63,1.35,1.35,0,0,1-1.7,1.57c-4.19-1.29-7.13-2.85-8.81-4.72q-3-3.33-2.66-9.08a57.21,57.21,0,0,1,3.16-13.74c1.44-4.34,2.52-7.62,3.21-9.85A1.34,1.34,0,0,0,361,95.73a70.74,70.74,0,0,0-9.12,1.42,1.34,1.34,0,0,1-1.65-1.26c0-.35,0-.65,0-.89a5.43,5.43,0,0,1,3.92-5.29,27.24,27.24,0,0,1,9.36-1,1.37,1.37,0,0,0,1.38-1.09,62.82,62.82,0,0,0,1.09-7c.11-1.66.18-3,.21-4.16,0-.36,0-.69,0-1a1.35,1.35,0,0,1,1.59-1.27c4.23.72,7.32,1.9,9.26,3.51A8.08,8.08,0,0,1,380,85a26.09,26.09,0,0,1-.57,3.44,1.36,1.36,0,0,0,1.27,1.66,36.25,36.25,0,0,0,10.81-.87,1.34,1.34,0,0,1,1.73,1.3c0,.15,0,.28,0,.4-.21,2.42-1,4-2.35,4.86s-3.54,1.11-6.54.87q-3.56-.28-5.77-.5a1.34,1.34,0,0,0-1.41.94C376.59,99,375.67,101.69,374.41,105.32Z"/>
      <path class="cls-1" d="M417.53,109.2q-2.5,6.51-4,11.61a56.35,56.35,0,0,0-2.11,10.52,22.21,22.21,0,0,0,0,5.63,1.34,1.34,0,0,1-1.75,1.51c-4.15-1.43-7-3.09-8.65-5q-2.88-3.44-2.35-9.17a57.87,57.87,0,0,1,3.63-13.62c1.59-4.28,2.78-7.53,3.54-9.73a1.34,1.34,0,0,0-1.35-1.78,70.78,70.78,0,0,0-9.17,1.11,1.36,1.36,0,0,1-1.61-1.32c0-.35,0-.65,0-.89a5.42,5.42,0,0,1,4.09-5.15,27,27,0,0,1,9.39-.65,1.36,1.36,0,0,0,1.42-1A57.75,57.75,0,0,0,410,84.27c.17-1.66.29-3,.36-4.15,0-.36,0-.69.06-1A1.35,1.35,0,0,1,412,77.91c4.21.86,7.27,2.14,9.15,3.83a8,8,0,0,1,2.65,7.34,25.69,25.69,0,0,1-.69,3.42,1.36,1.36,0,0,0,1.21,1.7,36.07,36.07,0,0,0,10.85-.5,1.34,1.34,0,0,1,1.68,1.36c0,.15,0,.28,0,.4q-.45,3.62-2.52,4.78t-6.57.64q-3.54-.41-5.75-.7a1.33,1.33,0,0,0-1.44.89C419.92,102.9,418.92,105.61,417.53,109.2Z"/>
      <path class="cls-1" d="M463.46,122.55a69.37,69.37,0,0,1-8.89-1.88,1.34,1.34,0,0,0-1.7,1.07c0,.25-.08.53-.12.83q-.84,6.24,2.12,9.86a11.68,11.68,0,0,0,7.64,4.3,22,22,0,0,0,9.26-.6,23.63,23.63,0,0,0,7.72-3.78,1.37,1.37,0,0,1,1.31-.18c1.49.58,2.39,1.29,2.68,2.14a1.3,1.3,0,0,1-.51,1.44c-7.39,5.35-15.92,7.29-25.73,5.89a28,28,0,0,1-15.38-7,15.81,15.81,0,0,1-5.22-14.36,22.68,22.68,0,0,1,5.2-11.84c3-3.57,7.3-6.35,13.06-8.29a39.17,39.17,0,0,1,18.54-1.44c6.57,1,11.23,2.76,14,5.26s3.83,5.36,3.3,8.6c-.78,4.68-3.79,7.76-9,9.28S470.46,123.57,463.46,122.55Zm7.65-19.47a12.11,12.11,0,0,0-10.33,3.32,24,24,0,0,0-6.15,9.16,1.36,1.36,0,0,0,1.07,1.84h0c6.43.89,11.34.47,14.75-1.31s5.37-4.24,5.86-7.39a4.39,4.39,0,0,0-1-3.56A6.37,6.37,0,0,0,471.11,103.08Z"/>
      <path class="cls-1" d="M547.57,112.09c4.4.93,7.35,2.52,8.84,4.74a9.79,9.79,0,0,1,1.22,8c-.68,3.08-2.36,7.24-5,12.5s-4.24,9.17-4.8,11.71-.49,4.5.19,5.86a11.35,11.35,0,0,0,4.08,4.05c-.94-.16-2.27-.43-4-.81-6-1.33-10.19-2.87-12.47-4.69s-3.11-4.33-2.45-7.55c.38-1.83,1.83-5.26,4.39-10.27s4.14-8.82,4.69-11.45q1-4.89-3.42-5.81a11.35,11.35,0,0,0-6.19.83,27.41,27.41,0,0,0-7.29,4.23,28.51,28.51,0,0,0-6.68,7.93,32.08,32.08,0,0,0-4,10.45,48.57,48.57,0,0,0-.87,6.64,1.34,1.34,0,0,1-1.54,1.26c-1.48-.22-2.48-.38-3-.48-4.12-.77-7-1.8-8.62-3.11a5.29,5.29,0,0,1-1.85-5.41c.18-1,1.61-4.69,4.34-11.08a76.72,76.72,0,0,0,5.18-15.5,31.55,31.55,0,0,0,.4-8.93,1.35,1.35,0,0,1,1.89-1.38c4,1.86,6.81,3.88,8.32,6a10,10,0,0,1,1.86,7.83c-.14.73-.31,1.48-.53,2.25a1.34,1.34,0,0,0,2.23,1.31,36.26,36.26,0,0,1,9.46-6.28C537.91,112.09,543.17,111.16,547.57,112.09Z"/>
    </g>
  </g>
</svg>
