<svg xmlns="http://www.w3.org/2000/svg" xmlns:xlink="http://www.w3.org/1999/xlink" width="65" height="65" viewBox="0 0 65 65">
  <defs>
    <style>
      .cls-1 {
        filter: url(#AI_GaussianBlur_4);
      }

      .cls-2 {
        fill: #521fcc;
      }

      .cls-3 {
        fill: #895ecc;
      }
    </style>
    <filter id="AI_GaussianBlur_4" name="AI_GaussianBlur_4">
      <feGaussianBlur stdDeviation="4"/>
    </filter>
  </defs>
  <g id="UI_settings">
    <g>
      <g class="cls-1">
        <rect class="cls-2" x="7.91" y="8.91" width="49.12" height="49.12"/>
      </g>
      <path d="M29.07,13.69a1.07,1.07,0,0,1-.5.49v.18l-.26.29c-.09.12-.16.17-.23.17a.38.38,0,0,1-.16-.05l-.79,1-.2.31-.71.22-.36.53-.33.15a3.41,3.41,0,0,0-.65.56l-.17-.12,0-.36.68-.3c.09-.48.22-.75.37-.81s.22-.1.22-.12v-.12l.14-.09.06,0,.07-.21h.12l-.12-.26h.46v-.42l.22-.06.14-.23.23-.08.22-.39c.08,0,.13-.06.17-.18h.18l0-.3a.92.92,0,0,0,.36-.59A1.13,1.13,0,0,1,29.07,13.69ZM32,28.52l-.06.29-.27.2-.12.36-.4.12a1.47,1.47,0,0,1-.42.73l-.36.13-.32.35a2.57,2.57,0,0,0-.5.53h-.2a.86.86,0,0,1-.65.33c-.21.26-.33.41-.36.46a1.38,1.38,0,0,1-.55.21l-.43.09-.11.18h-.48l-.26.2-.73-.55-.42-.95-.06-1.53-.09-.3L25.5,27l.19-.14L25.6,25.3a1.72,1.72,0,0,1,.08-.52,3.74,3.74,0,0,0,.15-.65l.12-.07a1.9,1.9,0,0,0-.2-.82l.11-.39V22.3l.15-.19c0-.13-.06-.29-.1-.46s-.08-.28-.08-.3,0-.23.12-.23a.09.09,0,0,0,.06,0,2,2,0,0,1-.2-.59c0-.15.06-.22.2-.22a.58.58,0,0,1,.19.08.54.54,0,0,0,.22.08l.15-.06c0-.16.07-.24.2-.24s.18,0,.19.06a3.11,3.11,0,0,1,.08.56l.32.14-.26.33-.3,1.89.24.47a.72.72,0,0,1-.27.57l-.09.37.09.33-.35,1.21,0,.14-.14,1V28l-.22.48.06.4-.06.68a3,3,0,0,0,.25,1.32l0,.16.26.17.3-.08.35.14.41-.2a1.36,1.36,0,0,1,.51-.22l.2-.2.06.09.17-.23.3-.09a1.83,1.83,0,0,1,.74-.39.51.51,0,0,1,.41-.23l.18-.27.33,0-.07-.32h.13l.05-.16.62-.31.06-.36.56,0A1.57,1.57,0,0,1,32,28.52Z"/>
      <rect class="cls-3" x="3.88" y="2" width="48.09" height="50.34"/>
      <g>
        <rect x="34.28" y="12.49" width="3.75" height="28.49" rx="1.87"/>
        <rect x="17.46" y="12.49" width="3.75" height="28.49" rx="1.87"/>
      </g>
    </g>
  </g>
</svg>
