<svg xmlns="http://www.w3.org/2000/svg" width="655" height="135" viewBox="0 0 655 135">
  <defs>
    <style>
      .cls-1 {
        fill: #54329e;
      }

      .cls-2 {
        fill: #a28dcc;
      }

      .cls-3 {
        fill: #391e62;
      }
    </style>
  </defs>
  <g id="pause">
    <rect class="cls-1" x="92.1" y="17.43" width="470.21" height="108" rx="14.14"/>
    <path class="cls-2" d="M104.41,119H545.9c7,0,12.65-6.71,12.65-15V23.35c0-8.27-5.66-15-12.65-15H104.41c-7,0-12.64,6.71-12.64,15v80.7C91.77,112.33,97.43,119,104.41,119Z"/>
    <g>
      <path class="cls-3" d="M190.06,72.29l-.66.94.45.27a4.48,4.48,0,0,1-.93,1.07l-.14.9-.86.06-.24.52a4.67,4.67,0,0,1-1.17.9l-.49-.14a3.42,3.42,0,0,1-2,.65l-.45-.31-.07.59L181.92,77a2.45,2.45,0,0,0-.76.51l-.27-.31-2.14-.2-1.27.2-.62-.55-1.49.21-.72-.62a2.66,2.66,0,0,1-1.1.34,2.14,2.14,0,0,1-1.07-.34,1.06,1.06,0,0,0-.35.76,5.21,5.21,0,0,0,.14.65,3.91,3.91,0,0,1,.14.83,4.47,4.47,0,0,1-.34,1.34l.27.93-.58.69a17.37,17.37,0,0,1,.24,2.76l-.24,2L172,88.6l-.66.93.42,1.34-.42,1.62.66.21v.75c-.35.07-.52.31-.52.73a4.59,4.59,0,0,0,.14.69l.2.07a3,3,0,0,0-.62,1.34l-.13,5.58c0,.81-.21,1.21-.55,1.21-.12,0-.45,0-1-.14l.06-1.34-.34-3,.55-1.13.21-2.11L169.58,93c.37-.25.56-.5.56-.76a10.68,10.68,0,0,0-.42-1.55l.49-.93-.49-1.55.49-1.2L170,85.7l.65-.41a1.12,1.12,0,0,1-1-1.14,15.25,15.25,0,0,1,.56-2.55l-.42-.83.28-1.13-.28-.28.28-.41-.28-2.55.42-3.38-.49-.73,1-.48-.51-.14-.42-.72-.41-.21.34-.2.07.2.21-.34-.28-.28.8.14-.31-.45.31.07v-.34c-.35-.16-.52-.32-.52-.48a2.19,2.19,0,0,1,.21-.94l-.21-.75c-.28-.07-.42-.2-.42-.38s.12-.14.35-.14h.14v-.21h.45L170,66l.21-.93v-.83l.06-.51L170,62.61l.27-1.24-.27-1,.27-1.27-.27-.49.07-1.13-.07-.8.07-1.1a2.67,2.67,0,0,1-.49-1.62H169l-.58-.38-1.07.86v-.2l-.48.2h-1l-.21.42-.83.07-.65.65-.83-.14-.58,1-.9-.42-.21.55c-.94-.52-1.41-1-1.41-1.55,0-.13.13-.28.38-.43s.38-.3.38-.46a2.73,2.73,0,0,0-.21-.73,5.71,5.71,0,0,1,2.48-.62l.21.14.62-.65a8.08,8.08,0,0,1,1.9-1l.24.21.62-.73,1.55.11,1.14-.38.2.14L170,49.2h.65a3.5,3.5,0,0,0,1.69,1.87l.28-.52.48.38.38-.24a5,5,0,0,1,2,.58,5.11,5.11,0,0,0,1.56.62,2,2,0,0,1,1.14.59l.41-.31.14.52.93.48.07-.21.62.21.52.69a2.39,2.39,0,0,0,.72.65l1.17.69.14.38.86.28v.2a1.64,1.64,0,0,1,1,1.28l.79.48.55,1.28h.35v.65l.41.41a3.52,3.52,0,0,1,.38,1.21l.55.14a2.19,2.19,0,0,0,.93,1.82v.93l.55.76-.07.86s.12.29.35.8a4.31,4.31,0,0,1,.38,1.58l-.35.14.14.59v.55l.35.07L189.57,71Zm-1.9-2.17-.07-.58.07-.42-.38-1.27.31-.69-.45-.93-.07-.86L187,64.2l-.27-.93L185.4,61l-.72-.62-.48-1.55-.93-.34-1-1.35v-.27l-.79-.25-.69.07-.93-1.24-.48.14-.38-.65-1-.21h-.86l-.14-.28-.48.28-.38-.41-.48.13-.28-.48-.65.14-2.24-.38a1,1,0,0,0-.66.93A.75.75,0,0,0,172,55a3.4,3.4,0,0,1,.12,1.19l-.25,1.48.52,1.55.55.52L172.34,61l.14,1.21-.41,2.55.27.55-.34.86.62.83-.35.24.07.89.55.35-.55.65.42.69-.69.93.27,1.42-.07,1.13.35,1.28,2.62-.17.13.44a3.32,3.32,0,0,1,.49-.58,9.19,9.19,0,0,1,.72.79,2.59,2.59,0,0,0,.53-.15,1.71,1.71,0,0,1,.44-.12,4.43,4.43,0,0,1,1.2.27c.14-.27.31-.41.52-.41s.21.09.27.27h1.11l.86.14,1.07-.41.07.27a6.73,6.73,0,0,0,3-.79h.21c.36,0,.55-.21.55-.62l.51.21.07-.8.62-.13.14-.69-.21-.73.52-.41-.17-.41Z"/>
      <path class="cls-3" d="M213.63,71a.85.85,0,0,1,.45.66q0,.86-.45,1c-.55.9-1.12,1.34-1.69,1.34,0,.21-.77,1-2.31,2.35a2,2,0,0,0-.91.39c-.15.15-.47.45-.95.88a1.31,1.31,0,0,0-1.28.83l-.69.21-.27-.14-.21.58h-.2a4.15,4.15,0,0,0-1.49.42q-1,.41-1.2.48l-.73.28h-.48l-.41-.62-.66-.56a6.51,6.51,0,0,0-1.07-1.86l-.2-1.68.07-.83-.35-.45.07-2-.07-1.76.07-.86a1,1,0,0,0,.21-.55,2.69,2.69,0,0,0-.48-1.28q.27-2.92.27-3.24a2,2,0,0,0-.55-1.27l.55-.28.21-2.69-.14-1.13.52-1.28-.38-1.41a2.92,2.92,0,0,0,.58-1.83V52.24l.21-.55-.07-3.45.21-3.41a5.76,5.76,0,0,1-.35-2.66l.21-2.13-.21-.76.35-3.21a8.39,8.39,0,0,0,.81-.34,2,2,0,0,1,.53-.21.75.75,0,0,1,.28.14l.34,1.14.73.62-.52.72v.28a1.84,1.84,0,0,0,.24.86c-.05.78-.22,1.17-.52,1.17l.21.38a12.41,12.41,0,0,0,.38,3l-.59,1.83.45.62a5.38,5.38,0,0,0-.79,2.69.8.8,0,0,0,.62.86l-.48,1.34a3.32,3.32,0,0,1,.27.83,2.4,2.4,0,0,1-.27.93l.13.83L201.29,56l0,1.07a14.58,14.58,0,0,1-.59,2.24l.34,1.48-.2,2.69-.38.28.45.86L200.57,66l-.28,2.11.28.51-.28.21a2.64,2.64,0,0,1,.45,1.69,2.36,2.36,0,0,1-.31.82l.31.8-.17,1.07.31.75-.14.59.76,2.31.86.34a5.24,5.24,0,0,1,1.62-.62l.41.07,1-.82a2.11,2.11,0,0,1,.86-.38,1.37,1.37,0,0,1,1.2-.69l.35-.38.52.07.13-.35.69-.2.66-.49.69-.2s.27-.23.67-.62a5.72,5.72,0,0,1,1.09-.87c0-.2.14-.38.44-.51a.33.33,0,0,0,.28.13A1.33,1.33,0,0,0,213.63,71Z"/>
      <path class="cls-3" d="M244.23,79l-1,.48-.21.62a4.73,4.73,0,0,0-1.06.38l-.35-.24-.52.24L240,79.08V77.53l-.52-.45.14-2.17-.41-4.51.27-1.48-.48-.8.62-.34-.41-.62.14-.66.34-.27-.07-.86H240V64l.14-.68q-.27-.08-.66-.66l-1.1.52a2.7,2.7,0,0,1-.93,1.13l-.07.76-.79.35-.14,1-.48.34v.52a3,3,0,0,0-1,1.24l-.48.31-1.07,1.89-1.69,1.69-.55.93-1.48,1.55-.38.83-2,1.41L225,79.77l-.76.21a3.09,3.09,0,0,0-1.07.72H223c-.39,0-.7-.38-.93-1.13q-2.65-1-2.79-3l.55-.34a9.09,9.09,0,0,1-.55-2.76l-.38-.27.24-.38a1.79,1.79,0,0,0,.2-.71l.21-1.4.48-2.62a1.27,1.27,0,0,1-.07-.48,1.73,1.73,0,0,1,.21-.79,3.55,3.55,0,0,1-.14-.76,2.7,2.7,0,0,1,.14-.72l.28-.07A2.44,2.44,0,0,0,221,64a.72.72,0,0,0-.22-.55c-.15-.13-.23-.23-.23-.27s.13-.28.38-.35c-.34-.07-.51-.21-.51-.45s.24-.34.72-.34v-.14a2.4,2.4,0,0,1,.43-1.39,3,3,0,0,0,.47-.88l-.49-.14.94-1.48v-.35a3.71,3.71,0,0,1,1-2.55l-.07-1.27.31-.21a1.09,1.09,0,0,1-.24-.69c0-.14.15-.2.45-.2V51.55c.23-.07.34-.19.34-.35a.83.83,0,0,0-.07-.38,13.11,13.11,0,0,1,1-1.13,5.61,5.61,0,0,0,1-1.38h.2c.53,0,.8-.13.8-.38a.58.58,0,0,0-.21-.35c.94,0,1.44-.18,1.48-.55l1.28-.65,3.65.31V47l3,.62h.28c.44,0,.66.2.66.59l.34-.14a.75.75,0,0,0,.79.62l.35-.07.62.62,1.48.38v.62a10.51,10.51,0,0,1,2.55-1.13V50.2H243l.69.35-.13.14.55,1.79-.62.69-.28,1.17a5.53,5.53,0,0,1-.65,1.45l.44.89c0,.07-.17.26-.39.55a2.81,2.81,0,0,0-.33,1.59.35.35,0,0,1,.21.34l-.14.59.07.48-.21.76.14.66-.41.48.13,1.55-.2.21.2.31-.2.2a.45.45,0,0,1,.07.28,1.1,1.1,0,0,1-.21.62l.21.45-.35.62c-.18.11-.27.45-.27,1l.27.89-.65.86a2.21,2.21,0,0,0,.65.93,7.41,7.41,0,0,0-.86,2.73l.59.13-.07.38a1.15,1.15,0,0,1,.07.49,3,3,0,0,1-.52,1.41h.45l.2,1.07,1.42.14.48.89q-.21.13-.21.24,0,.28.69.69h-.07c-.09,0-.14,0-.14.07S243.84,78.62,244.23,79Zm-3.62-25.37-.41-1.27L239.06,52l-2-1.76a1.53,1.53,0,0,0-.73-.27,1.66,1.66,0,0,0-.55.14l-.34-.35h-1.14l-.34-.45-.8.31-.34-.31-.59.18-1.1-.18a6.76,6.76,0,0,0-2.48.8l.14.27-.62.21-.14.27-.79.11v.41a5.81,5.81,0,0,0-1.62,2.24,24.07,24.07,0,0,1-1.28,3.62l.55.28-.89.79.27.55a3.84,3.84,0,0,0-.62,2.17v.38l-.52.76v1.2a2.39,2.39,0,0,0-.62,1.28l-.27.28v1.27l-.24.34a9.4,9.4,0,0,1-.28,1.9l.38.86a2.71,2.71,0,0,0-1,.86l.28.55-.42.56.55,1.41-.62.86.07,1.69-.2.79.34.21.14.48a2.45,2.45,0,0,1,1,.79l1.62-.38a1.71,1.71,0,0,1,1.55-1.1l-.14-.51,1.12-.3s.09-.14.16-.39a1.3,1.3,0,0,1,.62-.73h.13q.21,0,.21-.27l1.28-1.49h-.28l.76-.68a2.91,2.91,0,0,1,1.14-.66l.51-1.34c.88-.37,1.37-.87,1.48-1.49h.42l.69-.89-.14-.59.65-.14a.81.81,0,0,1-.13-.34,3.21,3.21,0,0,1,.48-.78c.32-.44.57-.82.76-1.12l.31.14a1.72,1.72,0,0,1,.76-1.27,1.54,1.54,0,0,1,.55-.88,1.25,1.25,0,0,1,.58-.33h.49l.06-.86a.36.36,0,0,0,.14-.28.63.63,0,0,0-.2-.41,4.12,4.12,0,0,1,1-1.27l.14-.76.48-.38-.13-.62a3.57,3.57,0,0,0,.51-1.28l.62-.62Z"/>
      <path class="cls-3" d="M288.14,66.16a1.58,1.58,0,0,0-.73,1.28,3.81,3.81,0,0,0,.07.68l.41,2.55-.41,2.76.14,1.14-.35,1,.21,3.11-.21.44V81.6l-.13,2,.27.69-.14,4.65.35.86-.35.42.21,1.27-.34.34.27,1.07h-.27l-.14.55v1.07l-.35.86.14.62-1.48,2.62-.14,1.35-.38-.07-.62.83a7.59,7.59,0,0,0-1.27,1.79l-1.28.76a2.05,2.05,0,0,1-2,1.62.28.28,0,0,1,.07.2c0,.16-.09.24-.28.24l-.31.28a2.73,2.73,0,0,0-1.17.83h-.79l-.21.27-.93-.2-1.41.93-.83-.14-2.27.34-.62-.07-.35.07-2.07-.34h-.55l-.72-.66-.35.07-2.48-.82-1.76-.28-.41-.72-1.14-.14-.48-1.21-.65-.2-1-1.35-1-.48-.93-1.35a2.27,2.27,0,0,0-.58-.51L255.29,99l.38-.9-.65-.72.07-.42a4.82,4.82,0,0,0-.49-1.82,4.57,4.57,0,0,1-.13-1,4.89,4.89,0,0,1,.27-1.41L255,92v-.2l.48-.28.17-.34.28.06.17-.82c.07-.35.62-1,1.65-1.93l1-.28,1.69-1.48,2,.14c.32-.48.61-.73.86-.73s.48.2.48.59a.69.69,0,0,1-.07.34l-.93.42-.62.52a7.74,7.74,0,0,1-1.62.62l-.48,1h-1a10.65,10.65,0,0,1-2,2.45l.06,1.35a3.12,3.12,0,0,0-.58,1.79l-.35.2L257.77,99l1.42.51.2.83,2.21,2.14.83.24a2.77,2.77,0,0,1,.89.52l1,.93h1.14l.86.82,1.14-.13.48.44,4-.17.55-.14v.14c0,.25.1.38.28.38,0,0,.08,0,.17-.14a2.48,2.48,0,0,1,1.83-.72h.34l2.24-.93v.31q.45-.34.45-.45h-.24a.62.62,0,0,1,.45-.14.82.82,0,0,1,.34.07c.07-.41.28-.62.62-.62h.24l.14-.41c.32,0,.48-.2.48-.59h.07c.26,0,.45-.17.59-.51a.76.76,0,0,1,.62-.56l.21.18a2,2,0,0,1,1.07-1.49,2.48,2.48,0,0,0,.82-1.93h.38c.71-1.51,1.23-2.71,1.55-3.58l-.14-.21.14-1.79.35-.21V90.22l.27-.49-.62-.79a3.23,3.23,0,0,0,.62-.69,2.84,2.84,0,0,0-.14-.53,4,4,0,0,1-.13-1.09v-.27l.13-2.9v-4.1l-.34-.79.34-1.42-.13-1.62V71.81l-.14-.79.27-.76-.27-.65.27-.62-.13-2.62-.66-.62.66-.66-.14-.55.14-1.07-.35-.41.14-.86-.45-.83a2.15,2.15,0,0,1-.89.55l-.35.86-.58.35-.14.82-1.14.8.14.34-.55.79-.49.14-.2.35-1.07.34v.93h-.52l-.2.83-2.38,2.2-1.62,1.83-.86.28-.42.65L272,74.91l-.65.14A16.91,16.91,0,0,1,270,76.19l-.2.62-.62.34h-.59l-.34.66-.76.14-1.42,1.41-1.27.21-.52.48c-.34.11-.81.29-1.41.52l-.21.55a4,4,0,0,1-1.62.2c-1,0-1.64-.2-1.89-.62l-1.42-2.41-.13-1.14-.73-2.58V72.29l-.27-.68.45-1.73-.31-1.1.31-.31.06-.9.49-1.07-.07-1.61.34-.94-.34-.62.69-3.24L258.05,58l.21-1.9-.62-2.62.27-.62-.27-.51.55-1.38-.28-.59.48-.41V49l.8-.07a3,3,0,0,0,.93,1.41l-.24.48.44.11-.2.89.55,1-.21.49.21,1.13.34.28-.48,1.07.41,1.82-.82,1.14.41.48-.41,2.69V64.4l-.31.35-.28,3.65-.76,1,.14.65v1.62l.35,1-.35.79.14,1.21-.28.55.28.62v.86l.76.79.24.83.48-.07.14.42.55-.35,1.48.14.52-1.14L265,76.6l.07.21a1,1,0,0,1,.55-.83,6.36,6.36,0,0,0,1.19-.84,4.62,4.62,0,0,1,1.5-.88l-.07.38c.23-.09.34-.22.34-.38a1.35,1.35,0,0,0-.14-.35,5.37,5.37,0,0,0,2.3-1.6A6,6,0,0,1,274,70.54l.86-1.42.14.42v-.62a1.21,1.21,0,0,0,1.1-1.14l.79-.55a1,1,0,0,0,.69-1V66a6,6,0,0,1,1.79-.93l.14-.55a15.47,15.47,0,0,0,1.76-2.34,3.19,3.19,0,0,0,1.48-1.42L284,58.1,284,56.48l.55-.28V54.86l-.35-1.14.21-1-.62-.38-.07-.21a1.75,1.75,0,0,1,.36-.78,3.3,3.3,0,0,0,.47-.91l.27-.21.07-.48a1.47,1.47,0,0,1,.79-.27l1.49,1.48.07.82,0,.69a6.37,6.37,0,0,0,.65,1.35l-.41.45.14,1-.14.79.59.62-.59.07v1L287.14,59l.34,1.82-.07,1.35.21.48-.14,1.28Z"/>
      <path class="cls-3" d="M342.21,79l-1,.48-.21.62a4.82,4.82,0,0,0-1.07.38l-.34-.24-.52.24L338,79.08V77.53l-.52-.45.14-2.17-.41-4.51.27-1.48-.48-.8.62-.34-.41-.62.13-.66.35-.27-.07-.86H338V64l.14-.68q-.28-.08-.66-.66l-1.1.52a2.7,2.7,0,0,1-.93,1.13l-.07.76-.79.35-.14,1-.48.34v.52a3,3,0,0,0-1,1.24l-.49.31-1.06,1.89-1.69,1.69-.55.93-1.49,1.55-.37.83-2,1.41L323,79.77l-.76.21a3,3,0,0,0-1.07.72h-.21c-.39,0-.7-.38-.93-1.13q-2.65-1-2.79-3l.55-.34a9.74,9.74,0,0,1-.55-2.76l-.38-.27.24-.38a1.76,1.76,0,0,0,.21-.71l.21-1.4.48-2.62a1.09,1.09,0,0,1-.07-.48,1.73,1.73,0,0,1,.21-.79,3.55,3.55,0,0,1-.14-.76,2.7,2.7,0,0,1,.14-.72l.27-.07A2.47,2.47,0,0,0,319,64a.76.76,0,0,0-.22-.55c-.15-.13-.23-.23-.23-.27s.13-.28.38-.35c-.34-.07-.52-.21-.52-.45s.25-.34.73-.34v-.14a2.4,2.4,0,0,1,.43-1.39,2.68,2.68,0,0,0,.46-.88l-.48-.14.93-1.48v-.35a3.68,3.68,0,0,1,1-2.55l-.07-1.27.31-.21a1.09,1.09,0,0,1-.24-.69c0-.14.15-.2.44-.2V51.55c.23-.07.35-.19.35-.35a.83.83,0,0,0-.07-.38,13.11,13.11,0,0,1,1-1.13,5.52,5.52,0,0,0,1-1.38h.21c.53,0,.79-.13.79-.38a.55.55,0,0,0-.2-.35c.94,0,1.43-.18,1.48-.55l1.27-.65,3.66.31V47l3,.62h.28c.43,0,.65.2.65.59l.35-.14a.75.75,0,0,0,.79.62l.34-.07.62.62,1.49.38v.62a10.17,10.17,0,0,1,2.55-1.13V50.2H341l.69.35-.14.14.55,1.79-.62.69-.27,1.17a5.29,5.29,0,0,1-.66,1.45l.45.89c0,.07-.18.26-.39.55a2.81,2.81,0,0,0-.33,1.59.34.34,0,0,1,.2.34l-.13.59.07.48-.21.76.14.66-.42.48.14,1.55-.21.21.21.31-.21.2a.39.39,0,0,1,.07.28,1.16,1.16,0,0,1-.2.62l.2.45-.34.62c-.19.11-.28.45-.28,1l.28.89-.66.86a2.21,2.21,0,0,0,.66.93,7.22,7.22,0,0,0-.86,2.73l.58.13-.07.38a1,1,0,0,1,.07.49,3,3,0,0,1-.51,1.41h.44l.21,1.07,1.41.14.49.89q-.21.13-.21.24,0,.28.69.69h-.07c-.09,0-.14,0-.14.07S341.82,78.62,342.21,79Zm-3.62-25.37-.41-1.27L337,52l-2-1.76a1.5,1.5,0,0,0-.72-.27,1.66,1.66,0,0,0-.55.14l-.35-.35h-1.13l-.35-.45-.79.31-.34-.31-.59.18-1.1-.18a6.76,6.76,0,0,0-2.48.8l.13.27-.62.21-.14.27-.79.11v.41a5.81,5.81,0,0,0-1.62,2.24,23.08,23.08,0,0,1-1.27,3.62l.55.28-.9.79.28.55a3.76,3.76,0,0,0-.62,2.17v.38l-.52.76v1.2a2.32,2.32,0,0,0-.62,1.28l-.27.28v1.27l-.25.34a9.25,9.25,0,0,1-.27,1.9l.38.86a2.71,2.71,0,0,0-1,.86l.27.55-.41.56.55,1.41-.62.86.07,1.69-.21.79.35.21.14.48a2.45,2.45,0,0,1,1,.79l1.61-.38a1.72,1.72,0,0,1,1.56-1.1l-.14-.51,1.12-.3s.08-.14.15-.39a1.38,1.38,0,0,1,.62-.73h.14q.21,0,.21-.27l1.27-1.49h-.27l.76-.68a2.93,2.93,0,0,1,1.13-.66l.52-1.34c.87-.37,1.37-.87,1.48-1.49h.42l.68-.89-.13-.59.65-.14a.88.88,0,0,1-.14-.34,3.08,3.08,0,0,1,.49-.78c.32-.44.57-.82.75-1.12l.31.14a1.75,1.75,0,0,1,.76-1.27,1.59,1.59,0,0,1,.55-.88,1.26,1.26,0,0,1,.59-.33h.48l.07-.86a.4.4,0,0,0,.14-.28.6.6,0,0,0-.21-.41,4.26,4.26,0,0,1,1-1.27l.14-.76.48-.38-.14-.62a3.43,3.43,0,0,0,.52-1.28l.62-.62Z"/>
      <path class="cls-3" d="M383.15,70.74l-.59,2.69.14.62-.27.35a3.18,3.18,0,0,1,.41,1.51l-.14.69.07,1.42a22.63,22.63,0,0,1-.31,3.34c-.21,1.35-.33,2.26-.38,2.72l-.1,1a7.94,7.94,0,0,1-.76,1.92h.38l-.17,1.07-.42.52a3.53,3.53,0,0,0-.46,1.17,7.47,7.47,0,0,1-.61,1.55c-.23.42-.52.9-.87,1.47a6.05,6.05,0,0,1-1.19,1.38c-.44.35-1.06.89-1.86,1.6l-1.07.48a2.67,2.67,0,0,1-1.28.72l-.34.42-2.55.48h-.14l-.14.24a5.64,5.64,0,0,1-2.27.42h-2.52l-1.83-.42-1.13.21-.52-.45-2-.28-.83-.75a11.91,11.91,0,0,0-1.79-1.14,3.38,3.38,0,0,1-2.24-2.28l.27-.34-.27-1.28a.75.75,0,0,1,.62-.34c.14-.18.27-.28.41-.28s.34.05.81.14a15.44,15.44,0,0,0,1.67.21l-.07.72a1.94,1.94,0,0,1,1,.42,1.42,1.42,0,0,1-.13.58l-.14.35c0,.53.2.82.62.89,0,.3,0,.46.12.49l.5.17,3,1,.8-.14.13.28h1.55a3.55,3.55,0,0,1,1.21.24c.44-.34,1.68-.61,3.72-.79a2.29,2.29,0,0,0,1.14-.55c.87-.09,1.39-.29,1.55-.59H374a1.58,1.58,0,0,0,.67-.14,1.54,1.54,0,0,0,.57-.41l2.37-2.48,1.35-2,.07-.93.76-1.14.13-1,.38-.86.42-2.1.55-2.07-.07-1.48v-.55a5.48,5.48,0,0,1,.52-2.55l-.45-1.55V71.61l-.48-1.35V68.12l-.62-1.48.13-2.38-.86-2.61a.66.66,0,0,0-.48-.21q-.42,0-.93.69l.14.72-1,.42-.52,1.34-.89.9-1.28,2.06-1.69,1.21-2,2.24c-.6.55-1.15,1-1.64,1.45s-1,.81-1.52,1.19a4.54,4.54,0,0,0-.91.77l-.35.52a3.65,3.65,0,0,1-.93.72l-1.13.52-.62.65a8.22,8.22,0,0,1-1.52,1,1,1,0,0,1-.9.48h-.2A4.65,4.65,0,0,1,358,79.5a5.57,5.57,0,0,1-1-.07l-.59.34a5,5,0,0,0-1.48-.34c-1.75-1.75-2.71-3.16-2.9-4.24l-.41-2.76.14-1.76.79-2.68-.07-.83.28-1.17a6.92,6.92,0,0,1,.65-1.79,4,4,0,0,0,.42-1.73l.06-1.1,1.42-2.76a2.5,2.5,0,0,1,.41-.5A12.49,12.49,0,0,0,357,56.27l.76-.83a3.34,3.34,0,0,1,1.15-1.65,2.43,2.43,0,0,0,.91-1.62,2.52,2.52,0,0,1,1.45-.62,1.93,1.93,0,0,0,1.52-1.35l.48.14,1.28-.89a1.76,1.76,0,0,1,1.27-.8,2.35,2.35,0,0,1,.55.14L368.4,48l1.31.28h.93l.72.48h.42a8.12,8.12,0,0,0,1.36,1.48,8.88,8.88,0,0,1,1.32,1.42,3.24,3.24,0,0,1-.44,1.62h-1.11L372,51.82a3.23,3.23,0,0,1-1.48-.89l-.34.14a3.94,3.94,0,0,0-1.49-.45,4.05,4.05,0,0,0-2.41.93l-.48-.07-.14.48H365l-.9.21a1.29,1.29,0,0,1-1.21,1,6.3,6.3,0,0,1-1.34,1.14l-.41.89-.66.17-.07.49h-.62l-1.13,2-.93.66-.42,1.27-1,1.48a4.48,4.48,0,0,0-.24,1.62l-.76.83-.79,3.17-.69.79.06,1.28-.86,2.89.28,1-.14,1.34a2.38,2.38,0,0,1,.55,1.07,1.44,1.44,0,0,0,.73,1l.2.69a2.26,2.26,0,0,1,.93.41,2.68,2.68,0,0,1,1-.21l.69.14a6.19,6.19,0,0,0,.86-.14c.33-.39,1.45-.68,3.38-.89.23-.25.51-.59.83-1a3.73,3.73,0,0,1,.95-.9c.31-.18.7-.44,1.17-.77a5.31,5.31,0,0,1,1-.61c.83-.2,1.24-.64,1.24-1.3,1.15-.46,1.8-1,1.93-1.49l.56-.17a3,3,0,0,0,.74-.55,13.51,13.51,0,0,0,1.6-2l.41.27.28-.65.79-.28a.69.69,0,0,1-.07-.34,1.2,1.2,0,0,1,.42-.86,1.35,1.35,0,0,0,.5-.09.58.58,0,0,0,.32-.36l.24-.52,1.35-1.76h.27l.21-1.41c.28-.16.91-1.67,1.9-4.51l.51-.18-.38-1.1-.24-1.14a3.41,3.41,0,0,0-.45-1.07l-.72-1.2.45-1.1-.31-1.28c.23-.48.49-.72.79-.72a.7.7,0,0,1,.38.1,4.62,4.62,0,0,1,.76,1.17l.69.35L379.6,52l.31.93a3.57,3.57,0,0,1,.17.73,5,5,0,0,0,.28,1,3.33,3.33,0,0,1,.24,1c0,.18-.07.28-.21.28a6.58,6.58,0,0,0,.9,1.82l-.21,1.42a3.74,3.74,0,0,1,.79,1.27,1.28,1.28,0,0,1-.44.86l.17.9.48.2-.21.94.28,1.82a3.88,3.88,0,0,1,.34,1.55.35.35,0,0,1-.06.14,3.94,3.94,0,0,0-.21,1.62l.48.38Z"/>
      <path class="cls-3" d="M418,79l-1,.48-.21.62a4.82,4.82,0,0,0-1.07.38l-.34-.24-.52.24-1.1-1.35V77.53l-.52-.45.14-2.17L413,70.4l.28-1.48-.48-.8.62-.34-.42-.62.14-.66.35-.27-.07-.86h.38V64l.13-.68c-.18-.05-.4-.27-.65-.66l-1.1.52a2.7,2.7,0,0,1-.93,1.13l-.07.76-.8.35-.13,1-.49.34v.52a3,3,0,0,0-1,1.24l-.48.31-1.07,1.89-1.68,1.69-.56.93-1.48,1.55-.38.83-2,1.41-2.27,2.69L398,80a3,3,0,0,0-1.07.72h-.21c-.39,0-.7-.38-.93-1.13q-2.65-1-2.79-3l.55-.34A9.74,9.74,0,0,1,393,73.5l-.38-.27.24-.38a1.94,1.94,0,0,0,.21-.71c0-.33.11-.8.21-1.4l.48-2.62a1.09,1.09,0,0,1-.07-.48,1.73,1.73,0,0,1,.21-.79,3,3,0,0,1-.14-.76,2.35,2.35,0,0,1,.14-.72l.27-.07A2.47,2.47,0,0,0,394.8,64a.73.73,0,0,0-.23-.55c-.15-.13-.22-.23-.22-.27s.13-.28.38-.35c-.35-.07-.52-.21-.52-.45s.24-.34.73-.34v-.14a2.4,2.4,0,0,1,.43-1.39,2.91,2.91,0,0,0,.46-.88l-.48-.14.93-1.48v-.35a3.71,3.71,0,0,1,1-2.55l-.06-1.27.31-.21a1,1,0,0,1-.25-.69c0-.14.15-.2.45-.2V51.55c.23-.07.35-.19.35-.35a1,1,0,0,0-.07-.38,14.38,14.38,0,0,1,1-1.13,5.35,5.35,0,0,0,1-1.38h.21c.53,0,.79-.13.79-.38a.58.58,0,0,0-.21-.35c.95,0,1.44-.18,1.49-.55l1.27-.65,3.65.31V47l3,.62h.27c.44,0,.66.2.66.59l.34-.14a.76.76,0,0,0,.8.62l.34-.07.62.62,1.48.38v.62a10.51,10.51,0,0,1,2.55-1.13V50.2h-.34l.69.35-.14.14.55,1.79-.62.69L417,54.34a5.62,5.62,0,0,1-.66,1.45l.45.89c-.05.07-.18.26-.4.55a2.82,2.82,0,0,0-.32,1.59.36.36,0,0,1,.2.34l-.14.59.07.48L416,61l.13.66-.41.48.14,1.55-.21.21.21.31-.21.2a.39.39,0,0,1,.07.28,1.1,1.1,0,0,1-.21.62l.21.45-.34.62c-.19.11-.28.45-.28,1l.28.89-.66.86a2.21,2.21,0,0,0,.66.93,7.19,7.19,0,0,0-.87,2.73l.59.13-.07.38a1,1,0,0,1,.07.49,2.92,2.92,0,0,1-.52,1.41h.45l.21,1.07,1.41.14.48.89c-.13.09-.2.17-.2.24s.23.42.69.69h-.07c-.09,0-.14,0-.14.07S417.63,78.62,418,79Zm-3.62-25.37L414,52.31,412.86,52l-2-1.76a1.54,1.54,0,0,0-.72-.27,1.6,1.6,0,0,0-.55.14l-.35-.35h-1.14l-.34-.45-.79.31-.35-.31-.58.18L405,49.27a6.88,6.88,0,0,0-2.48.8l.14.27-.62.21-.14.27-.79.11v.41a5.81,5.81,0,0,0-1.62,2.24,23,23,0,0,1-1.28,3.62l.56.28-.9.79.28.55a3.76,3.76,0,0,0-.62,2.17v.38l-.52.76v1.2a2.25,2.25,0,0,0-.62,1.28l-.28.28v1.27l-.24.34a9.25,9.25,0,0,1-.27,1.9l.37.86a2.69,2.69,0,0,0-1,.86l.27.55-.41.56.55,1.41-.62.86.07,1.69-.21.79.35.21.13.48a2.38,2.38,0,0,1,1,.79l1.62-.38a1.72,1.72,0,0,1,1.55-1.1l-.13-.51,1.12-.3s.08-.14.15-.39a1.38,1.38,0,0,1,.62-.73h.14q.21,0,.21-.27l1.27-1.49h-.28l.76-.68a3,3,0,0,1,1.14-.66l.52-1.34a2.18,2.18,0,0,0,1.48-1.49h.41l.69-.89-.14-.59.66-.14a.88.88,0,0,1-.14-.34,3.21,3.21,0,0,1,.48-.78c.32-.44.58-.82.76-1.12l.31.14a1.72,1.72,0,0,1,.76-1.27,1.59,1.59,0,0,1,.55-.88,1.26,1.26,0,0,1,.59-.33h.48l.07-.86a.4.4,0,0,0,.14-.28.6.6,0,0,0-.21-.41,4.1,4.1,0,0,1,1-1.27l.14-.76.48-.38-.14-.62a3.43,3.43,0,0,0,.52-1.28l.62-.62Z"/>
      <path class="cls-3" d="M437.7,34.76a2.56,2.56,0,0,1-1.2,1.18v.44l-.62.69c-.21.28-.39.42-.55.42a1.11,1.11,0,0,1-.38-.14l-1.9,2.27-.48.76-1.69.52L430,42.17l-.79.35a7.86,7.86,0,0,0-1.56,1.34l-.41-.27-.07-.86,1.62-.73c.23-1.15.52-1.8.88-2s.54-.24.54-.29v-.27l.34-.21.14.07.17-.52h.28l-.28-.62H432v-1l.52-.14.34-.55.56-.2.51-.93c.19,0,.32-.14.42-.42h.41l.07-.72a2.42,2.42,0,0,0,.86-1.42A2.76,2.76,0,0,1,437.7,34.76Zm7,35.5-.14.69-.65.48-.28.86-1,.28a3.49,3.49,0,0,1-1,1.76l-.86.31-.76.83a6.08,6.08,0,0,0-1.21,1.27h-.48a2,2,0,0,1-1.55.79,11.59,11.59,0,0,0-.86,1.11,3.77,3.77,0,0,1-1.33.5,9.39,9.39,0,0,0-1,.22l-.27.41h-1.14l-.62.49L429.81,79l-1-2.28L428.67,73l-.2-.73.69-5.79.44-.34-.2-3.62a3.76,3.76,0,0,1,.19-1.22,13.12,13.12,0,0,0,.36-1.57l.28-.17a4.58,4.58,0,0,0-.49-2l.28-.93V55.37l.34-.44a7.34,7.34,0,0,0-.24-1.12c-.11-.43-.17-.66-.17-.71,0-.37.09-.55.28-.55a.21.21,0,0,0,.13.07,5.13,5.13,0,0,1-.48-1.42q0-.51.48-.51a1.13,1.13,0,0,1,.47.19,1.22,1.22,0,0,0,.53.19,1.35,1.35,0,0,0,.35-.14c0-.39.16-.59.48-.59s.43,0,.46.16a10.69,10.69,0,0,1,.19,1.32l.76.35L433,53l-.72,4.52.58,1.13a1.69,1.69,0,0,1-.65,1.35l-.21.89.21.8-.83,2.89.07.35-.34,2.34v1.69l-.52,1.13.14,1-.14,1.62a7.29,7.29,0,0,0,.59,3.17l-.07.38.62.41.72-.2.83.34,1-.48a3.08,3.08,0,0,1,1.2-.52l.49-.48.13.21.42-.56.72-.2a4.23,4.23,0,0,1,1.76-.93,1.2,1.2,0,0,1,1-.55l.41-.66.79-.07-.17-.76h.31l.14-.38,1.48-.75.14-.87,1.34.07A2.33,2.33,0,0,1,444.7,70.26Z"/>
      <path class="cls-3" d="M489.88,68.85c.09.37-.2.73-.86,1.1l.1.24a3.71,3.71,0,0,1-.93,1.47,3.23,3.23,0,0,0-.93,1.7l-.76.21a1.54,1.54,0,0,1-1.27,1.69c-.07.27-.19.41-.35.41h-.14c-.06.39-.33.59-.79.59l-.41.82-1,.21-.83.55a1.61,1.61,0,0,1-.45.18l-1.55.27-.55-.07-.51.07-.21-.27-.62-.07L477,77h-.35a1.06,1.06,0,0,1-.28-.76,3.52,3.52,0,0,1-1.13-1.93v-.55l-.48-.93v-.42l.34-.2-.28-1-.51-1.28.1-1.89-.72-1.14V65.09a49.66,49.66,0,0,1-1-6.27v-.28a3.85,3.85,0,0,1-.14-.79.89.89,0,0,1,.07-.41,4.26,4.26,0,0,1-.83-2l-.34-.31L470,56.61l-.72,1-2.48,3-1,1.75c-.34.76-.62,1.32-.82,1.68a8.91,8.91,0,0,1-1.38,1.56l.21.66-.49,1.34-.55.07v.62h-.38l-1.34,1.62q-.07,1.17-.9,1.35a4.58,4.58,0,0,0-.55,1.31c-.16.57-.42.87-.79.89l-.28.28a9,9,0,0,1-1.22,1.74,12.44,12.44,0,0,1-1.6,1.36c-.16.78-.45,1.25-.86,1.41l-.07.35a1.8,1.8,0,0,1-.35.91,3.11,3.11,0,0,1-1.69.78c-.34-.05-.61-.44-.79-1.18s-.46-1.18-.83-1.34l-.2-.45.55-.89-.07-.87.34-.34-.34-.62.07-.86-.55-1.55.48-.93-.28-1a6.57,6.57,0,0,0,.49-2.89V67a2.46,2.46,0,0,0-.42-.83,1.2,1.2,0,0,0,.55-.86l-.13-1.1.41-2.69-.28-.52.07-1.1-.34-.66.27-2.24-.13-.79.2-1.27-.2-1.83.48-.93a4.84,4.84,0,0,1,1.39.52,1.2,1.2,0,0,1,.18.63c0,.34.05.87.05,1.61l.58.93-.2,1.34.27,2.89-.48,1.56.21,1.82v.86l-.66,1,.45,1.48a7.56,7.56,0,0,0-.52,1.93l.35.83a9.15,9.15,0,0,0-.55,2.75l.07,2.55.2.35.86-.42H455l.38-1.55a1.3,1.3,0,0,0,1-.79c.07-.55.42-.83,1.07-.83a1.51,1.51,0,0,1,.48-1.06c.18,0,.4-.34.65-1a6.3,6.3,0,0,0,1.14-1.49v-1h.07c.18,0,.4-.17.64-.5a1.09,1.09,0,0,1,.91-.5,2.83,2.83,0,0,1,.62-1.27l1-1.21.9-2a3.2,3.2,0,0,1-.14-.72.19.19,0,0,1,.21-.21c.94-.62,1.41-1.22,1.41-1.82V58.1c.71-.28,1.07-.53,1.07-.76a1.21,1.21,0,0,0-.11-.4,1.13,1.13,0,0,1-.1-.33c0-.23.09-.34.28-.34a1,1,0,0,1,.55.21c.34-1.27.87-1.9,1.58-1.9a2.22,2.22,0,0,1,.62.14,2.19,2.19,0,0,1,.62-1.62c.09-.3.65-.66,1.66-1.07l.34-.55h.28a3.29,3.29,0,0,0,1,1l.13.48.35.14.14,1.34.93.55-.31,1.21.51,2.21v2l.49,2.41.2,2.52.73,2.34.13,2.34.37.68a4.58,4.58,0,0,1,.46,1.56l.31.21v1.07l.62.69-.14.52.49.27v.35a2.24,2.24,0,0,0,1.13.41,2.06,2.06,0,0,0,1.07-.28.76.76,0,0,0,.35.14c.2,0,.41-.18.62-.55.66-.07,1-.25,1-.55V74.4q.1-.24,1.41-.69a3.86,3.86,0,0,1,.72-.69l-.07-.17a1.78,1.78,0,0,1,.26-.4,5.12,5.12,0,0,1,.68-.62,2.33,2.33,0,0,0,.65-.74l.38-.76c.3-.41.75-1.08,1.34-2l1-.48h.65Z"/>
    </g>
  </g>
</svg>
