<svg xmlns="http://www.w3.org/2000/svg" width="655" height="135" viewBox="0 0 655 135">
  <defs>
    <style>
      .cls-1 {
        fill: #54329e;
      }

      .cls-2 {
        fill: #a28dcc;
      }

      .cls-3 {
        fill: #391e62;
      }
    </style>
  </defs>
  <g id="pause">
    <rect class="cls-1" x="92.1" y="17.43" width="470.21" height="108" rx="14.14"/>
    <path class="cls-2" d="M104.41,119H545.9c7,0,12.65-6.71,12.65-15V23.35c0-8.27-5.66-15-12.65-15H104.41c-7,0-12.64,6.71-12.64,15v80.7C91.77,112.33,97.43,119,104.41,119Z"/>
    <g>
      <path class="cls-3" d="M282.06,74.29l-.66.94.45.27a4.48,4.48,0,0,1-.93,1.07l-.14.9-.86.06-.24.52a4.67,4.67,0,0,1-1.17.9l-.49-.14a3.42,3.42,0,0,1-2,.65l-.45-.31-.07.59L273.92,79a2.45,2.45,0,0,0-.76.51l-.27-.31-2.14-.2-1.27.2-.62-.55-1.49.21-.72-.62a2.66,2.66,0,0,1-1.1.34,2.14,2.14,0,0,1-1.07-.34,1.06,1.06,0,0,0-.35.76,5.21,5.21,0,0,0,.14.65,3.91,3.91,0,0,1,.14.83,4.47,4.47,0,0,1-.34,1.34l.27.93-.58.69a17.37,17.37,0,0,1,.24,2.76l-.24,2L264,90.6l-.66.93.42,1.34-.42,1.62.66.21v.75c-.35.07-.52.31-.52.73a4.59,4.59,0,0,0,.14.69l.2.07a3,3,0,0,0-.62,1.34l-.13,5.58c0,.81-.21,1.21-.55,1.21-.12,0-.45,0-1-.14l.06-1.34-.34-3,.55-1.13.21-2.11L261.58,95c.37-.25.56-.5.56-.76a10.68,10.68,0,0,0-.42-1.55l.49-.93-.49-1.55.49-1.2L262,87.7l.65-.41a1.12,1.12,0,0,1-1-1.14,15.25,15.25,0,0,1,.56-2.55l-.42-.83.28-1.13-.28-.28.28-.41-.28-2.55.42-3.38-.49-.73,1-.48-.51-.14-.42-.72-.41-.21.34-.2.07.2.21-.34-.28-.28.8.14-.31-.45.31.07v-.34c-.35-.16-.52-.32-.52-.48a2.19,2.19,0,0,1,.21-.94l-.21-.75c-.28-.07-.42-.2-.42-.38s.12-.14.35-.14h.14v-.21h.45L262,68l.21-.93v-.83l.06-.51L262,64.61l.27-1.24-.27-1,.27-1.27-.27-.49.07-1.13-.07-.8.07-1.1a2.67,2.67,0,0,1-.49-1.62H261l-.58-.38-1.07.86v-.2l-.48.2h-1l-.21.42-.83.07-.65.65-.83-.14-.58,1-.9-.42-.21.55c-.94-.52-1.41-1-1.41-1.55,0-.13.13-.28.38-.43s.38-.3.38-.46a2.73,2.73,0,0,0-.21-.73,5.71,5.71,0,0,1,2.48-.62l.21.14.62-.65a8.08,8.08,0,0,1,1.9-1l.24.21.62-.73,1.55.11,1.14-.38.2.14L262,51.2h.65a3.5,3.5,0,0,0,1.69,1.87l.28-.52.48.38.38-.24a5,5,0,0,1,2,.58,5.11,5.11,0,0,0,1.56.62,2,2,0,0,1,1.14.59l.41-.31.14.52.93.48.07-.21.62.21.52.69a2.39,2.39,0,0,0,.72.65l1.17.69.14.38.86.28v.2a1.64,1.64,0,0,1,1,1.28l.79.48.55,1.28h.35v.65l.41.41a3.52,3.52,0,0,1,.38,1.21l.55.14a2.19,2.19,0,0,0,.93,1.82v.93l.55.76-.07.86s.12.29.35.8a4.31,4.31,0,0,1,.38,1.58l-.35.14.14.59v.55l.35.07L281.57,73Zm-1.9-2.17-.07-.58.07-.42-.38-1.27.31-.69-.45-.93-.07-.86L279,66.2l-.27-.93L277.4,63l-.72-.62-.48-1.55-.93-.34-1-1.35v-.27l-.79-.25-.69.07-.93-1.24-.48.14-.38-.65-1-.21h-.86l-.14-.28-.48.28-.38-.41-.48.13-.28-.48-.65.14-2.24-.38a1,1,0,0,0-.66.93A.75.75,0,0,0,264,57a3.4,3.4,0,0,1,.12,1.19l-.25,1.48.52,1.55.55.52L264.34,63l.14,1.21-.41,2.55.27.55-.34.86.62.83-.35.24.07.89.55.35-.55.65.42.69-.69.93.27,1.42-.07,1.13.35,1.28,2.62-.17.13.44a3.32,3.32,0,0,1,.49-.58,9.19,9.19,0,0,1,.72.79,2.59,2.59,0,0,0,.53-.15,1.71,1.71,0,0,1,.44-.12,4.43,4.43,0,0,1,1.2.27c.14-.27.31-.41.52-.41s.21.09.27.27h1.11l.86.14,1.07-.41.07.27a6.73,6.73,0,0,0,3-.79h.21c.36,0,.55-.21.55-.62l.51.21.07-.8.62-.13.14-.69-.21-.73.52-.41-.17-.41Z"/>
      <path class="cls-3" d="M305.63,73a.85.85,0,0,1,.45.66q0,.86-.45,1c-.55.9-1.12,1.34-1.69,1.34,0,.21-.77,1-2.31,2.35a2,2,0,0,0-.91.39c-.15.15-.47.45-1,.88a1.31,1.31,0,0,0-1.28.83l-.69.21-.27-.14-.21.58h-.2a4.15,4.15,0,0,0-1.49.42q-1,.41-1.2.48l-.73.28h-.48l-.41-.62-.66-.56a6.51,6.51,0,0,0-1.07-1.86l-.2-1.68.07-.83-.35-.45.07-2-.07-1.76.07-.86a1,1,0,0,0,.21-.55,2.69,2.69,0,0,0-.48-1.28q.27-2.92.27-3.24a2,2,0,0,0-.55-1.27l.55-.28.21-2.69-.14-1.13.52-1.28-.38-1.41a2.92,2.92,0,0,0,.58-1.83V54.24l.21-.55-.07-3.45.21-3.41a5.76,5.76,0,0,1-.35-2.66l.21-2.13-.21-.76.35-3.21a8.39,8.39,0,0,0,.81-.34,2,2,0,0,1,.53-.21.75.75,0,0,1,.28.14l.34,1.14.73.62-.52.72v.28a1.84,1.84,0,0,0,.24.86c-.05.78-.22,1.17-.52,1.17l.21.38a12.41,12.41,0,0,0,.38,3l-.59,1.83.45.62a5.38,5.38,0,0,0-.79,2.69.8.8,0,0,0,.62.86l-.48,1.34a3.32,3.32,0,0,1,.27.83,2.4,2.4,0,0,1-.27.93l.13.83L293.29,58l0,1.07a14.58,14.58,0,0,1-.59,2.24l.34,1.48-.2,2.69-.38.28.45.86L292.57,68l-.28,2.11.28.51-.28.21a2.64,2.64,0,0,1,.45,1.69,2.36,2.36,0,0,1-.31.82l.31.8-.17,1.07.31.75-.14.59.76,2.31.86.34a5.24,5.24,0,0,1,1.62-.62l.41.07,1-.82a2.11,2.11,0,0,1,.86-.38,1.37,1.37,0,0,1,1.2-.69l.35-.38.52.07.13-.35.69-.2.66-.49.69-.2s.27-.23.67-.62a5.72,5.72,0,0,1,1.09-.87c0-.2.14-.38.44-.51a.33.33,0,0,0,.28.13A1.33,1.33,0,0,0,305.63,73Z"/>
      <path class="cls-3" d="M336.23,81l-1,.48-.21.62a4.73,4.73,0,0,0-1.06.38l-.35-.24-.52.24L332,81.08V79.53l-.52-.45.14-2.17-.41-4.51.27-1.48-.48-.8.62-.34-.41-.62.14-.66.34-.27-.07-.86H332V66l.14-.68q-.27-.08-.66-.66l-1.1.52a2.7,2.7,0,0,1-.93,1.13l-.07.76-.79.35-.14,1-.48.34v.52a3,3,0,0,0-1,1.24l-.48.31-1.07,1.89-1.69,1.69-.55.93-1.48,1.55-.38.83-2,1.41L317,81.77l-.76.21a3.09,3.09,0,0,0-1.07.72H315c-.39,0-.7-.38-.93-1.13q-2.66-1-2.79-3l.55-.34a9.09,9.09,0,0,1-.55-2.76l-.38-.27.24-.38a1.79,1.79,0,0,0,.2-.71l.21-1.4.48-2.62a1.27,1.27,0,0,1-.07-.48,1.73,1.73,0,0,1,.21-.79,3.55,3.55,0,0,1-.14-.76,2.7,2.7,0,0,1,.14-.72l.28-.07A2.44,2.44,0,0,0,313,66a.72.72,0,0,0-.22-.55c-.15-.13-.23-.23-.23-.27s.13-.28.38-.35c-.34-.07-.51-.21-.51-.45s.24-.34.72-.34v-.14a2.4,2.4,0,0,1,.43-1.39,3,3,0,0,0,.47-.88l-.49-.14.94-1.48v-.35a3.71,3.71,0,0,1,1-2.55l-.07-1.27.31-.21a1.09,1.09,0,0,1-.24-.69c0-.14.15-.2.45-.2V53.55c.23-.07.34-.19.34-.35a.83.83,0,0,0-.07-.38,13.11,13.11,0,0,1,1-1.13,5.61,5.61,0,0,0,1-1.38h.2c.53,0,.8-.13.8-.38a.58.58,0,0,0-.21-.35c.94,0,1.44-.18,1.48-.55l1.28-.65,3.65.31V49l3,.62h.28c.44,0,.66.2.66.59l.34-.14a.75.75,0,0,0,.79.62l.35-.07.62.62,1.48.38v.62a10.51,10.51,0,0,1,2.55-1.13V52.2H335l.69.35-.13.14.55,1.79-.62.69-.28,1.17a5.53,5.53,0,0,1-.65,1.45l.44.89c0,.07-.17.26-.39.55a2.81,2.81,0,0,0-.33,1.59.35.35,0,0,1,.21.34l-.14.59.07.48-.21.76.14.66-.41.48.13,1.55-.2.21.2.31-.2.2a.45.45,0,0,1,.07.28,1.1,1.1,0,0,1-.21.62l.21.45-.35.62c-.18.11-.27.45-.27,1l.27.89-.65.86a2.21,2.21,0,0,0,.65.93,7.41,7.41,0,0,0-.86,2.73l.59.13-.07.38a1.15,1.15,0,0,1,.07.49,3,3,0,0,1-.52,1.41h.45l.2,1.07,1.42.14.48.89q-.21.13-.21.24,0,.28.69.69h-.07c-.09,0-.14,0-.14.07S335.84,80.62,336.23,81Zm-3.62-25.37-.41-1.27L331.06,54l-2-1.76a1.53,1.53,0,0,0-.73-.27,1.66,1.66,0,0,0-.55.14l-.34-.35h-1.14l-.34-.45-.8.31-.34-.31-.59.18-1.1-.18a6.76,6.76,0,0,0-2.48.8l.14.27-.62.21-.14.27-.79.11v.41a5.81,5.81,0,0,0-1.62,2.24,24.07,24.07,0,0,1-1.28,3.62l.55.28-.89.79.27.55a3.84,3.84,0,0,0-.62,2.17v.38l-.52.76v1.2a2.39,2.39,0,0,0-.62,1.28l-.27.28v1.27l-.24.34a9.4,9.4,0,0,1-.28,1.9l.38.86a2.71,2.71,0,0,0-1,.86l.28.55-.42.56.55,1.41-.62.86.07,1.69-.2.79.34.21.14.48a2.45,2.45,0,0,1,1,.79l1.62-.38a1.71,1.71,0,0,1,1.55-1.1l-.14-.51,1.12-.3s.09-.14.16-.39a1.3,1.3,0,0,1,.62-.73h.13q.21,0,.21-.27l1.28-1.49h-.28l.76-.68a2.91,2.91,0,0,1,1.14-.66l.51-1.34c.88-.37,1.37-.87,1.48-1.49h.42l.69-.89-.14-.59.65-.14a.81.81,0,0,1-.13-.34,3.21,3.21,0,0,1,.48-.78c.32-.44.57-.82.76-1.12l.31.14a1.72,1.72,0,0,1,.76-1.27,1.54,1.54,0,0,1,.55-.88,1.25,1.25,0,0,1,.58-.33h.49l.06-.86a.36.36,0,0,0,.14-.28.63.63,0,0,0-.2-.41,4.12,4.12,0,0,1,1-1.27l.14-.76.48-.38-.13-.62a3.57,3.57,0,0,0,.51-1.28l.62-.62Z"/>
      <path class="cls-3" d="M380.14,68.16a1.58,1.58,0,0,0-.73,1.28,3.81,3.81,0,0,0,.07.68l.41,2.55-.41,2.76.14,1.14-.35,1,.21,3.11-.21.44V83.6l-.13,2,.27.69-.14,4.65.35.86-.35.42.21,1.27-.34.34.27,1.07h-.27l-.14.55v1.07l-.35.86.14.62-1.48,2.62-.14,1.35-.38-.07-.62.83a7.59,7.59,0,0,0-1.27,1.79l-1.28.76a2.05,2.05,0,0,1-2,1.62.28.28,0,0,1,.07.2c0,.16-.09.24-.28.24l-.31.28a2.73,2.73,0,0,0-1.17.83h-.79l-.21.27-.93-.2-1.41.93-.83-.14-2.27.34-.62-.07-.35.07-2.07-.34h-.55l-.72-.66-.35.07-2.48-.82-1.76-.28-.41-.72-1.14-.14-.48-1.21-.65-.2-1-1.35-1-.48-.93-1.35a2.27,2.27,0,0,0-.58-.51l-1.11-.62.38-.9-.65-.72.07-.42a4.82,4.82,0,0,0-.49-1.82,4.57,4.57,0,0,1-.13-1,4.89,4.89,0,0,1,.27-1.41L347,94v-.2l.48-.28.17-.34.28.06.17-.82c.07-.35.62-1,1.65-1.93l1-.28,1.69-1.48,2,.14c.32-.48.61-.73.86-.73s.48.2.48.59a.69.69,0,0,1-.07.34l-.93.42-.62.52a7.74,7.74,0,0,1-1.62.62l-.48,1h-1a10.65,10.65,0,0,1-2,2.45l.06,1.35a3.12,3.12,0,0,0-.58,1.79l-.35.2,1.55,3.66,1.42.51.2.83,2.21,2.14.83.24a2.77,2.77,0,0,1,.89.52l1,.93h1.14l.86.82,1.14-.13.48.44,4-.17.55-.14v.14c0,.25.1.38.28.38,0,0,.08,0,.17-.14a2.48,2.48,0,0,1,1.83-.72h.34l2.24-.93v.31q.45-.34.45-.45h-.24a.62.62,0,0,1,.45-.14.82.82,0,0,1,.34.07c.07-.41.28-.62.62-.62h.24l.14-.41c.32,0,.48-.2.48-.59h.07c.26,0,.45-.17.59-.51a.76.76,0,0,1,.62-.56l.21.18a2,2,0,0,1,1.07-1.49,2.48,2.48,0,0,0,.82-1.93h.38c.71-1.51,1.23-2.71,1.55-3.58l-.14-.21.14-1.79.35-.21V92.22l.27-.49-.62-.79a3.23,3.23,0,0,0,.62-.69,2.84,2.84,0,0,0-.14-.53,4,4,0,0,1-.13-1.09v-.27l.13-2.9v-4.1l-.34-.79.34-1.42-.13-1.62V73.81l-.14-.79.27-.76-.27-.65.27-.62-.13-2.62-.66-.62.66-.66-.14-.55.14-1.07-.35-.41.14-.86-.45-.83a2.15,2.15,0,0,1-.89.55l-.35.86-.58.35-.14.82-1.14.8.14.34-.55.79-.49.14-.2.35-1.07.34v.93h-.52l-.2.83-2.38,2.2-1.62,1.83-.86.28-.42.65L364,76.91l-.65.14A16.91,16.91,0,0,1,362,78.19l-.2.62-.62.34h-.59l-.34.66-.76.14-1.42,1.41-1.27.21-.52.48c-.34.11-.81.29-1.41.52l-.21.55a4,4,0,0,1-1.62.2c-1,0-1.64-.2-1.89-.62l-1.42-2.41-.13-1.14-.73-2.58V74.29l-.27-.68.45-1.73-.31-1.1.31-.31.06-.9.49-1.07-.07-1.61.34-.94-.34-.62.69-3.24L350.05,60l.21-1.9-.62-2.62.27-.62-.27-.51.55-1.38-.28-.59.48-.41V51l.8-.07a3,3,0,0,0,.93,1.41l-.24.48.44.11-.2.89.55,1-.21.49.21,1.13.34.28-.48,1.07.41,1.82-.82,1.14.41.48-.41,2.69V66.4l-.31.35-.28,3.65-.76,1,.14.65v1.62l.35,1-.35.79.14,1.21-.28.55.28.62v.86l.76.79.24.83.48-.07.14.42.55-.35,1.48.14.52-1.14L357,78.6l.07.21a1,1,0,0,1,.55-.83,6.36,6.36,0,0,0,1.19-.84,4.62,4.62,0,0,1,1.5-.88l-.07.38c.23-.09.34-.22.34-.38a1.35,1.35,0,0,0-.14-.35,5.37,5.37,0,0,0,2.3-1.6A6,6,0,0,1,366,72.54l.86-1.42.14.42v-.62a1.21,1.21,0,0,0,1.1-1.14l.79-.55a1,1,0,0,0,.69-1V68a6,6,0,0,1,1.79-.93l.14-.55a15.47,15.47,0,0,0,1.76-2.34,3.19,3.19,0,0,0,1.48-1.42L376,60.1,376,58.48l.55-.28V56.86l-.35-1.14.21-1-.62-.38-.07-.21a1.75,1.75,0,0,1,.36-.78,3.3,3.3,0,0,0,.47-.91l.27-.21.07-.48a1.47,1.47,0,0,1,.79-.27l1.49,1.48.07.82,0,.69a6.37,6.37,0,0,0,.65,1.35l-.41.45.14,1-.14.79.59.62-.59.07v1L379.14,61l.34,1.82-.07,1.35.21.48-.14,1.28Z"/>
    </g>
  </g>
</svg>
