<svg xmlns="http://www.w3.org/2000/svg" width="75" height="55" viewBox="0 0 75 55">
  <defs>
    <style>
      .cls-1 {
        fill: #3bccff;
      }

      .cls-2 {
        fill: #4a97f4;
      }
    </style>
  </defs>
  <g id="waterdrop">
    <g>
      <g>
        <rect x="13.16" y="19.2" width="3" height="25.88" rx="1.5" transform="translate(-17.48 46.81) rotate(-90)"/>
        <rect x="13.24" y="19.06" width="3.05" height="25.88" rx="1.52"/>
      </g>
      <g>
        <path class="cls-1" d="M73.28,34.94A19.63,19.63,0,0,1,53.89,54.57a.52.52,0,0,1-.17,0h0A19.61,19.61,0,0,1,34.16,35c0-6.82,4.26-13.44,7.68-18.76A117.36,117.36,0,0,1,53.25.65.76.76,0,0,1,53.8.41h.06a.74.74,0,0,1,.57.34c1.69,2.56,3.74,5.17,5.91,8a102.19,102.19,0,0,1,8.74,12.35C71.9,26,73.28,30.57,73.28,34.94Z"/>
        <path class="cls-2" d="M53.33,47.06c.61.41,2.2,2.1,1.18,2.67a3.58,3.58,0,0,1-1.87.17,14.93,14.93,0,0,1-2.3-.3,8.36,8.36,0,0,1-2.1-.93,22.09,22.09,0,0,1-1.91-1.16,23,23,0,0,1-4-3.35,16.69,16.69,0,0,1-4.71-10.79,4.53,4.53,0,0,1,.83-3,2.59,2.59,0,0,1,.91-.92,1.41,1.41,0,0,1,1-.13c1,.22.72,1.34.79,2.14a14.3,14.3,0,0,0,.57,2.81,16.07,16.07,0,0,0,2.73,5.11A36.74,36.74,0,0,0,53.33,47.06Z"/>
      </g>
    </g>
  </g>
</svg>
