<svg xmlns="http://www.w3.org/2000/svg" width="655" height="135" viewBox="0 0 655 135">
  <defs>
    <style>
      .cls-1 {
        fill: #54329e;
      }

      .cls-2 {
        fill: #a28dcc;
      }

      .cls-3 {
        fill: #391e62;
      }
    </style>
  </defs>
  <g id="pause">
    <rect class="cls-1" x="92.1" y="17.43" width="470.21" height="108" rx="14.14"/>
    <path class="cls-2" d="M104.41,119H545.9c7,0,12.65-6.71,12.65-15V23.35c0-8.27-5.66-15-12.65-15H104.41c-7,0-12.64,6.71-12.64,15v80.7C91.77,112.33,97.43,119,104.41,119Z"/>
    <g>
      <path class="cls-3" d="M307.39,103c-.55.41-.84.71-.86.89,0-.11-.41-.27-1.1-.48l-.86.66-.49-.38h-1.41l-.14-.42-.51.28a6.52,6.52,0,0,1-1.83-1.76l-.48-.14-.45-1.2-.48-.28-.14-1.07-.79-.82-.69-2.62.14-.35-.35-.79a2.26,2.26,0,0,0,.35-.69,1.69,1.69,0,0,0-.28-.58l-.35-1L296.54,90l-.38-1.75.2-.86-.2-.56a4.9,4.9,0,0,0,.17-1.65l-.17-1.1.38-1.48L296.3,82l.06-2.28V77.26l.18-.76-.24-.59.37-5.34-.31-2.48a.93.93,0,0,0-.34-.69,3.82,3.82,0,0,0-.76,1h-.38l-.34.86-1,.48-.44.93a2.15,2.15,0,0,0-.68.93,1.68,1.68,0,0,1-1.08,1v.27l-1.62,1.42-.45.58a1.87,1.87,0,0,1-.69.55l-1.14.55-.13.52-.69.48-1,.93-.62.25a3.56,3.56,0,0,0-.93.72h-.62a5.11,5.11,0,0,1-1.8.79l-.55.86-1.14.28-.27.69-.35-.62a2.5,2.5,0,0,0-.93.83l-.48-.21-.34.21-.59-.07-1,.07-.52-.35-.41.79-.07-.2a2,2,0,0,1-1.14-.59h-.35V81h-.93A3.09,3.09,0,0,0,271.17,80l-.34-1-.42-.79a7,7,0,0,0-.51-1.48l.17-1.07-.38-1,.38-1.35c.07-1.42.23-2.14.48-2.14l.14-.48V70.5a3.7,3.7,0,0,0-.07-.65,2.25,2.25,0,0,0,.62-1.76v-.34l.59-.66-.14-.34a2.88,2.88,0,0,0,.62-1.28h.34l.45-1.24.35.14.13-1.41.21-.21.48.21a1.12,1.12,0,0,1-.13-.45c0-.32.26-.62.79-.9a2.38,2.38,0,0,1,.93-1.13c.46-.21.69-.48.69-.8a.71.71,0,0,0-.07-.34c.44-.05.71-.16.83-.35a1,1,0,0,0,.65-1.06h.28v-.21l1.48-1.14V56a1.06,1.06,0,0,0,.58.21,1,1,0,0,0,.56-.21l-.14-.27a3.14,3.14,0,0,1,1.27-.28l1,.07.45-1.28h1.82l.42-1,.48.49a1.4,1.4,0,0,1,.72-.14,8.22,8.22,0,0,1,1.9.27l.38-.41a3.17,3.17,0,0,0,1.1.52,1.58,1.58,0,0,0,.65-.24l.35.79h.28l-.14-.28a.56.56,0,0,1,.41-.13,2.07,2.07,0,0,1,.76.17,3.68,3.68,0,0,1,.77.38c.22.13.33.42.33.86.42,0,.62.16.62.48a2.08,2.08,0,0,0,1.14.62.39.39,0,0,0,.28-.14l.13.66c-.11-.21-.23-.31-.34-.31s-.12.06-.21.17l.55.48h.55l-.48,2-1.14.13-.62-1-2-1.27-.65-.87-.63.28-.86-.28-.48.35-.65-.35-1,.28-1.14-.28-.79.66-.48-.52-1.41,1.07-.35-.34-.14.34-.65.07-1,1.07-.51-.42-.28.83-.34-.14-1.14,1.14-.83.41-.79,1.14-.93.83-2.72,3.89L274,68h-.42l-1.48,3.76v1.27l-.41.69.14,3,.34,1.41a3,3,0,0,0,1.76.34.86.86,0,0,0,.52.28l1.89-.62-.27.48,2.17-.2-.14-.28h.48l-.14.28.45-.28-.17-.28a2.25,2.25,0,0,0,1.27-.29,11.87,11.87,0,0,1,1.87-.84l.13-.55,1-.32a1.16,1.16,0,0,1,1.07-.48.66.66,0,0,1,.48.21l-.21-.55.38-.21v-.65a4.17,4.17,0,0,0,1.28-.18,2.09,2.09,0,0,0,1-.79c.31-.41.51-.68.59-.81a2.51,2.51,0,0,1,.84-.53l.14-.45.41.24.11-.72.89-.21.07-.41a1.94,1.94,0,0,0,.93-1h.49l.65-1h.28l.2-.48.35-.14v-.49l.65-.37c0-.51.07-.76.21-.76a.36.36,0,0,1,.27.14l.28-.94c.09.1.16.14.21.14s.13-.18.13-.55l.31-.27.21.27v-.69l.55-.45-.27-.55.48.14v-.93l.79-.83-.27-1.13.48-.35V58.86l.41-.49L297.3,57l.2-.79v-.86H298l.21-1,.48.48a2.16,2.16,0,0,1,.55-.13.9.9,0,0,1,.47.13,1,1,0,0,1,.25.21l.28,1.07-.14,1.21.14.75a6.24,6.24,0,0,1-.45,1.88,10.63,10.63,0,0,0-.55,2l-.28,2.69.14,2.1-.41.51.14.76v2.55l-.35,1.14.14,2-.62,3,.21,1.48a2.76,2.76,0,0,1,.27,1.34l-.34.07.2.79-.13.35.13,1.34L298,83.57l.21,1.1L298,86.15l.48,1-.14.65.14.9-.27.72.41.56-.14,1.41.35.48.41,2.69.38.41-.07.93.35.07v1.35l.55.27v.86a6.25,6.25,0,0,1,1.75,2.83l.38-.38,1.49.72.82-.06h.52a1.8,1.8,0,0,1,.83-.14,2.09,2.09,0,0,1,1.2.34Z"/>
      <path class="cls-3" d="M343.82,79.19a7.56,7.56,0,0,1,1.14-.07c.5,0,.76.18.76.55s-.26.68-.76,1.07l-.52.28-.34.37a6.27,6.27,0,0,1-1.21.76l-1.14.35a3.89,3.89,0,0,1-2.31.41,5.8,5.8,0,0,1-1-.27,3.64,3.64,0,0,1-1.1-.49L335,80.08l-.52-2.17-.69-.65v-.35a3.46,3.46,0,0,0-.48-1.82l.07-1.69a11.71,11.71,0,0,0,.27-1.48,3.13,3.13,0,0,0-.41-1.55l.21-3.17-.8.41-.48.76-.65.45a2.11,2.11,0,0,0-.69.82l-.62.07a1.93,1.93,0,0,0-.8,1.41,2.25,2.25,0,0,0-1.31,1.23A4.77,4.77,0,0,1,327,74a3.71,3.71,0,0,1-1.21,1,1.43,1.43,0,0,0-.65.41l-2,2.48h-.2l-1.66,2-1.31.72-.58.9a20,20,0,0,0-2.9,1.21L315.42,82a1.48,1.48,0,0,1-.48.06c-.28,0-.41-.12-.41-.37a.91.91,0,0,1,.07-.42l-.73-.41a1.52,1.52,0,0,1,.24-.73l-.93-.89.55-.72H313l-.52-1.35.52-.41-.66-.93q0-1.73.24-1.83l0-1.21a4.81,4.81,0,0,1,.38-1.48l-.59-.41A2.47,2.47,0,0,0,313,69.5a2.91,2.91,0,0,0-.35-1.13c.28-.14.41-.51.41-1.11,0-.23,0-.53-.06-.93L312.7,64l.83-4.93a19.48,19.48,0,0,0-.35-2.69l-.27-1.2c0-.74.4-1.1,1.2-1.1l1,.27.51.62-.31,1.48L315.22,60l.13,2.24-.48,1.14.28.69-.28,1.07v.93c-.18.07-.24.21-.17.43a1.73,1.73,0,0,1,.1.46,1.37,1.37,0,0,1-.27.8l.48.62-.69.86.41.62-.2.93.2,1.14v1.34l.42.48-.35,1.69a2.16,2.16,0,0,0,.42,1.07l-.21.76.34,1a7.3,7.3,0,0,1,1.49,1.34,2.32,2.32,0,0,0,1.34-.69,10.34,10.34,0,0,1,1.48-1.2s-.09-.07-.27-.07c.75-.35,1.13-.73,1.13-1.14a4.12,4.12,0,0,0,1.14-.27l.14-.87.69-.27a4,4,0,0,1,2.34-1.35l.07-.69L326.17,72a1.45,1.45,0,0,1,1.49-1.42l.27-.93.62-.27.93-1.35h.42v-.41l.65-.35.42-1c.57-.3,1.13-.57,1.68-.8l.28-.76.52-.2v-.45l.27-.07c.12-1.12.52-1.69,1.21-1.69l-.21-.2L336,58.2h.31v-1h.07c.16,0,.56-.85,1.21-2.55l1.24-.14-.14.27.72,1.35-.58,2.62-1,1.55L337.1,63l-.9.62v1.55l-.51,1,.13,1.13-.48.49.14,3.1-.28,3.82.21.42-.07.55h.21v1.07a6,6,0,0,1,1.14,2.1l1,.24.2.62c.64.28,1.21.54,1.69.79l.93-.06.76.2,1.1-.45A6.14,6.14,0,0,0,343.82,79.19Z"/>
      <path class="cls-3" d="M361.09,37.76a2.64,2.64,0,0,1-1.21,1.18v.44l-.62.69c-.21.28-.39.42-.55.42a1.11,1.11,0,0,1-.38-.14l-1.9,2.27-.48.76-1.69.52-.86,1.27-.79.35a7.64,7.64,0,0,0-1.55,1.34l-.42-.27-.07-.86,1.62-.73c.23-1.15.53-1.8.88-2s.54-.24.54-.29v-.27l.34-.21.14.07.17-.52h.28l-.28-.62h1.1v-1l.52-.14.35-.55.55-.2.51-.93q.29,0,.42-.42h.41l.07-.72a2.42,2.42,0,0,0,.86-1.42A2.78,2.78,0,0,1,361.09,37.76Zm7,35.5-.14.69-.65.48-.28.86-1,.28a3.42,3.42,0,0,1-1,1.76l-.86.31-.76.83a6.08,6.08,0,0,0-1.21,1.27h-.48a2,2,0,0,1-1.55.79,13.82,13.82,0,0,0-.86,1.11,3.77,3.77,0,0,1-1.33.5,9.39,9.39,0,0,0-1,.22l-.27.41h-1.14l-.62.49L353.19,82l-1-2.28L352.06,76l-.21-.73.69-5.79.45-.34-.21-3.62a3.76,3.76,0,0,1,.19-1.22,10.1,10.1,0,0,0,.36-1.57l.28-.17a4.44,4.44,0,0,0-.49-2l.28-.93V58.37l.34-.44a7.34,7.34,0,0,0-.24-1.12c-.11-.43-.17-.66-.17-.71,0-.37.09-.55.28-.55a.21.21,0,0,0,.13.07,5.13,5.13,0,0,1-.48-1.42q0-.51.48-.51a1.09,1.09,0,0,1,.47.19,1.26,1.26,0,0,0,.53.19,1.35,1.35,0,0,0,.35-.14c0-.39.16-.59.48-.59s.43,0,.47.16.09.54.19,1.32l.75.35-.62.79-.72,4.52.59,1.13a1.7,1.7,0,0,1-.66,1.35l-.21.89.21.8-.83,2.89.07.35-.34,2.34v1.69L354,73.05l.14,1L354,75.64a7.44,7.44,0,0,0,.59,3.17l-.07.38.62.41.72-.2.83.34,1-.48a3.07,3.07,0,0,1,1.21-.52l.48-.48.14.21.41-.56.72-.2a4.23,4.23,0,0,1,1.76-.93,1.2,1.2,0,0,1,1-.55l.41-.66.8-.07-.18-.76h.31l.14-.38,1.48-.75.14-.87,1.35.07A3,3,0,0,1,368.08,73.26Z"/>
      <path class="cls-3" d="M379,56.1l4.86.21,4.65-.21,1.14.07.48-.07h2.55c.49,0,.73.21.73.62s-.38.79-1.14.93a1.07,1.07,0,0,0-.59-.14,1.35,1.35,0,0,0-.89.35l-1-.21-1.9.07a5.37,5.37,0,0,1-2.62.72l-1.34-.24-.69.66h-.65v-.42l-1.21.55h-.62l-.21.62a11.85,11.85,0,0,0-2.07-.27c-.06.27-.18.41-.34.41s-.23-.09-.41-.27l-1,.13-.69.73-.21,3.44.14,2.07-.21,2.66.07,3,.21,1.41v1.28l.82,1.75v.32a3,3,0,0,0,1.42,2.3l.2.59,1.28.28.93,1,2.62.48,3.45-.8,1,.32,2.45-1.14.93.14a1.34,1.34,0,0,1,.48.89c0,.35-.29.73-.89,1.14l-.52-.21-1.1.93-2.34.28-.8.48-.82-.48a5.31,5.31,0,0,1-2.49.62l-1.41-.28h-.76l-2.55-1.48-1.2-1.69-.83-.93-1.28-3.38L374,72.12l.31-1.27-.59-.69.28-.79-.28-1.28.73-.55-.31-.65.17-.83-.31-.93.14-1.35-.14-.69.31-.2V60.34c-.14-.62-.33-.93-.59-.93a.48.48,0,0,0-.41.27l-.79-.34-1.11.27-1.13-.82h-.59c-.55,0-.83-.31-.83-.93l.07-1.07-.48-.35.28-.62,1,.14.79-.14,1.14.35h3l.14-1.62V52.93l-.48-1.21.55-.41a2.7,2.7,0,0,0,.14-.52.91.91,0,0,0-.55-.76l.13-2.75-.58-.87.14-.62c-.46-.09-.69-.27-.69-.55l.48-1.86a4.59,4.59,0,0,0,.65-1,8,8,0,0,1,2.11,1.2v.07l-.28.69a4,4,0,0,1,.48,1.55v.21a3.05,3.05,0,0,0-.2,1,.77.77,0,0,0,.2.55l-.07.59.07.75-.62,1,.42,1.76-.28,2.14.28.41-.42.62.55,1.76h1.28Z"/>
    </g>
  </g>
</svg>
