<svg xmlns="http://www.w3.org/2000/svg" xmlns:xlink="http://www.w3.org/1999/xlink" width="65" height="65" viewBox="0 0 65 65">
  <defs>
    <style>
      .cls-1 {
        filter: url(#AI_GaussianBlur_4);
      }

      .cls-2 {
        fill: #521fcc;
      }

      .cls-3 {
        fill: #895ecc;
      }
    </style>
    <filter id="AI_GaussianBlur_4" name="AI_GaussianBlur_4">
      <feGaussianBlur stdDeviation="4"/>
    </filter>
  </defs>
  <g id="UI_settings">
    <g>
      <g class="cls-1">
        <rect class="cls-2" x="8.64" y="9.57" width="48.21" height="47.76"/>
      </g>
      <rect class="cls-3" x="3.18" y="3.2" width="50.03" height="50.03"/>
      <g>
        <g>
          <path d="M19.48,24.42v11.4H15.27a3.06,3.06,0,0,1-3.06-3.06V27.49a3.07,3.07,0,0,1,3.06-3.07Z"/>
          <path d="M15.27,23.83a3.66,3.66,0,0,0-3.65,3.66v5.27a3.66,3.66,0,0,0,3.65,3.65h4.21V35.23H15.27a2.47,2.47,0,0,1-2.47-2.47V27.49A2.48,2.48,0,0,1,15.27,25h4.21V23.83Z"/>
        </g>
        <path d="M30.76,16.36V44a14.62,14.62,0,0,1-10.1-7.57V23.94A14.64,14.64,0,0,1,30.76,16.36Z"/>
        <g>
          <path d="M33.69,37.8a.83.83,0,0,1-.57-.23.8.8,0,0,1,0-1.12,8.28,8.28,0,0,0,2.51-6,9.05,9.05,0,0,0-2.6-6.26.79.79,0,1,1,1.13-1.1,10.64,10.64,0,0,1,3,7.35,9.88,9.88,0,0,1-3,7.18A.79.79,0,0,1,33.69,37.8Z"/>
          <path d="M37.22,40.6a.79.79,0,0,1-.54-1.35,12.61,12.61,0,0,0-.12-17.8.78.78,0,1,1,1.12-1.1,14.19,14.19,0,0,1,.09,20A.82.82,0,0,1,37.22,40.6Z"/>
          <path d="M41.27,42.31a.8.8,0,0,1-.56-.23.79.79,0,0,1,0-1.12c5.86-5.69,5.8-15.29-.14-21.39a.79.79,0,0,1,0-1.11.78.78,0,0,1,1.11,0c6.54,6.72,6.59,17.31.11,23.61A.77.77,0,0,1,41.27,42.31Z"/>
        </g>
      </g>
    </g>
  </g>
</svg>
