<svg xmlns="http://www.w3.org/2000/svg" width="80" height="75" viewBox="0 0 80 75">
  <defs>
    <style>
      .cls-1 {
        fill: #3bccff;
      }

      .cls-2 {
        fill: #4a97f4;
      }
    </style>
  </defs>
  <g id="UI_waterdrop">
    <g>
      <path class="cls-1" d="M65.63,47.25A25.71,25.71,0,0,1,40.22,73,.83.83,0,0,1,40,73h0A25.73,25.73,0,0,1,14.37,47.27c0-8.93,5.59-17.61,10.07-24.58,4.21-6.54,9.19-14.06,15-20.37A1,1,0,0,1,40.12,2h.07a1,1,0,0,1,.75.44c2.21,3.36,4.89,6.79,7.74,10.42A135.09,135.09,0,0,1,60.14,29.05C63.83,35.57,65.63,41.52,65.63,47.25Z"/>
      <path class="cls-2" d="M39.5,63.13c.79.53,2.88,2.75,1.54,3.5a4.59,4.59,0,0,1-2.45.22,20.8,20.8,0,0,1-3-.39,11.15,11.15,0,0,1-2.74-1.22c-.86-.46-1.69-1-2.51-1.51a30.17,30.17,0,0,1-5.19-4.4A21.89,21.89,0,0,1,19,45.19a5.93,5.93,0,0,1,1.09-4A3.39,3.39,0,0,1,21.25,40a1.87,1.87,0,0,1,1.28-.17c1.32.3.95,1.77,1,2.81a18.06,18.06,0,0,0,.74,3.68A21.24,21.24,0,0,0,27.89,53C31.07,57.13,35.29,60.31,39.5,63.13Z"/>
    </g>
  </g>
</svg>
