<svg xmlns="http://www.w3.org/2000/svg" width="1140" height="235" viewBox="0 0 1140 235">
  <defs>
    <style>
      .cls-1 {
        fill: #54329e;
      }

      .cls-2 {
        fill: #8c7dcc;
      }
    </style>
  </defs>
  <g id="start_screen_title">
    <g>
      <rect class="cls-1" x="19.4" y="15.5" width="1118.82" height="218" rx="102.92"/>
      <rect class="cls-2" x="1.79" y="1.5" width="1118.82" height="218" rx="102.92"/>
      <g>
        <path d="M374.6,130.18c.19.52-.4,1-1.75,1.56l.21.34c0,.33-.63,1-1.89,2.08s-1.89,1.86-1.89,2.42l-1.54.29c-.05,1.37-.91,2.17-2.6,2.39-.14.39-.37.59-.7.59h-.28c-.14.55-.67.83-1.61.83l-.84,1.17-2,.29-1.68.78a4.66,4.66,0,0,1-.91.25l-3.15.39-1.12-.1-1.06.1-.42-.39-1.26-.1-1.61-1.41h-.7a1.25,1.25,0,0,1-.56-1.08q-2.31-1.76-2.31-2.73v-.78l-1-1.32v-.59l.7-.29-.56-1.42-1.05-1.8.21-2.69-1.47-1.61v-2.49c-1.36-4.85-2-7.81-2-8.89v-.39a3.74,3.74,0,0,1-.28-1.12,1,1,0,0,1,.14-.59,5.14,5.14,0,0,1-1.68-2.78l-.7-.44-3,2.2-1.47,1.41-5,4.2-2,2.49a25.61,25.61,0,0,1-1.68,2.37,14.65,14.65,0,0,1-2.81,2.22l.42.93-1,1.9-1.12.1v.88h-.77l-2.73,2.3a1.92,1.92,0,0,1-1.82,1.9,5.38,5.38,0,0,0-1.12,1.86,1.77,1.77,0,0,1-1.61,1.26l-.56.4a15,15,0,0,1-2.49,2.46,24.6,24.6,0,0,1-3.26,1.93,2.59,2.59,0,0,1-1.75,2l-.14.49a2,2,0,0,1-.7,1.29,7.65,7.65,0,0,1-3.43,1.1c-.7-.06-1.24-.62-1.61-1.66a2.78,2.78,0,0,0-1.68-1.9l-.42-.64,1.12-1.27-.14-1.22.7-.48-.7-.88.14-1.22-1.12-2.2,1-1.32-.56-1.37a7.06,7.06,0,0,0,1-4.1v-.54q0-.24-.84-1.17c.74-.42,1.12-.83,1.12-1.22l-.28-1.56.84-3.81-.56-.73.14-1.56-.7-.93.56-3.18-.28-1.12.42-1.81-.42-2.58,1-1.32a14.57,14.57,0,0,1,2.84.73,1.47,1.47,0,0,1,.35.9,17.6,17.6,0,0,1,.1,2.27l1.19,1.32-.42,1.91.56,4.1-1,2.2.42,2.58v1.22l-1.33,1.47.91,2.1a8.27,8.27,0,0,0-1.05,2.73l.7,1.17a9.93,9.93,0,0,0-1.12,3.91l.14,3.61.42.49,1.75-.58h1.4l.77-2.2c1.08-.23,1.73-.6,2-1.12.14-.78.87-1.18,2.18-1.18a2,2,0,0,1,1-1.51c.37,0,.81-.47,1.33-1.42a10.64,10.64,0,0,0,2.31-2.09v-1.37h.14a2.05,2.05,0,0,0,1.29-.71,2.6,2.6,0,0,1,1.86-.71,3.8,3.8,0,0,1,1.26-1.8l2-1.71,1.82-2.79a4.41,4.41,0,0,1-.28-1q0-.3.42-.3c1.92-.87,2.88-1.74,2.88-2.58V115c1.44-.39,2.17-.75,2.17-1.08a1.26,1.26,0,0,0-.21-.56,1.46,1.46,0,0,1-.21-.46c0-.33.18-.49.56-.49a2.81,2.81,0,0,1,1.12.29c.7-1.79,1.77-2.68,3.22-2.68a6.06,6.06,0,0,1,1.26.19,2.67,2.67,0,0,1,1.26-2.29c.19-.43,1.31-.93,3.37-1.52l.7-.78h.56a6.33,6.33,0,0,0,2,1.42l.28.68.7.2.28,1.9,1.89.78-.63,1.71,1.05,3.13v2.88l1,3.41.42,3.57,1.47,3.32.28,3.32.74,1a5.26,5.26,0,0,1,.94,2.22l.63.3v1.51l1.26,1-.28.73,1,.39v.49a5.48,5.48,0,0,0,4.49.19,2.25,2.25,0,0,0,.7.2,1.71,1.71,0,0,0,1.26-.78c1.35-.1,2-.36,2-.78V138c.14-.23,1.1-.55,2.87-1a7.53,7.53,0,0,1,1.47-1l-.14-.25a2.6,2.6,0,0,1,.53-.56,11.28,11.28,0,0,1,1.36-.88,4,4,0,0,0,1.33-1.05l.78-1.07c.6-.59,1.51-1.53,2.73-2.83l2-.69h1.33Z"/>
        <path d="M420.06,136.38c.7.75,1.05,1.3,1.05,1.66s-.43.82-1.29,1.66a9.9,9.9,0,0,0-2,2.69l-1.05.1-1.54,2.09-1.75.2-3.86,1.81-.7,1.07-1.19-.1-1.26,1h-2l-.42.49-1-.1a4.13,4.13,0,0,0-2.73,1l-.91-.49A8.2,8.2,0,0,1,397,150a6,6,0,0,1-2.59-.49,15.07,15.07,0,0,1-1.89.1l-.84-.49q-3.85-.15-5.18-1.52v-1.22l-2.31-.88-.56-1a4.71,4.71,0,0,0-1.55-1.27v-.78l-1.61-4.74.28-3.37.56-1.9v-2.1l.77-1.81-.28-1.32a2,2,0,0,0,1-1.1,5.21,5.21,0,0,1,.84-1.48,18.54,18.54,0,0,1-.56-2.49l1.26-.74-1.26-1c.65-.75,1-1.22,1-1.42l-.7-3a5.54,5.54,0,0,1,.42-2.1,2.55,2.55,0,0,0,1.89.88,22.06,22.06,0,0,0,2.73-.39,1.45,1.45,0,0,1-.14-.68c0-.46.37-.87,1.12-1.22a17.1,17.1,0,0,1,3.15-4.59,2.23,2.23,0,0,0,1.33-2h.7l.7-1,.84-.25a4.2,4.2,0,0,1,1.48-1.46,9.4,9.4,0,0,0,3.85-2.3,4.2,4.2,0,0,0,1.19.1c.14,0,.51-.37,1.12-1.12,1.63-.39,2.5-.59,2.59-.59a1.88,1.88,0,0,1,1.26.59l1.33-.2.7.39h.84a2.89,2.89,0,0,0,2.88,1.62h.42a1.66,1.66,0,0,0,.91,1l-.63.2c1.63.55,2.45,1.84,2.45,3.85l-.42,1.13.42,2.78-.7.44-1.61,3-2.88,2.49-.14,1.41a47.94,47.94,0,0,1-8.4,4,.94.94,0,0,1-.91.58,6.08,6.08,0,0,1-1.12-.19l-3.15,1.51h-1.9l-2.73.88-1.19-.49a15.37,15.37,0,0,0-2.94-.39,4.24,4.24,0,0,0-2.17,3.66l-1,.83A8.22,8.22,0,0,1,385,131l-.77.29.77,3.62-.77.49.14,1.12-.14,1.37a11.67,11.67,0,0,0,.35,1.85c.23,1,.6,1.6,1.12,1.76-.24.46.22,1,1.36,1.66a12.28,12.28,0,0,0,3.68,1.37v.58l3.71.39,5.33.2,3.57-.29a18,18,0,0,1,3.15-1.32l1.12-1.17h1.33l.14-.49a15.8,15.8,0,0,0,3.4-1,.73.73,0,0,0,.32-.52,1.45,1.45,0,0,1,1.26-.58l.42-.64q3.15-.33,3.92-2.88A3.42,3.42,0,0,1,420.06,136.38Zm-11.77-22.8a4.42,4.42,0,0,0,1.89-1.22l.42-1.17a20.13,20.13,0,0,0,2-2.62,3.15,3.15,0,0,0,.28-1.39,8.55,8.55,0,0,0-1-2.93l-2.87-.68a10.55,10.55,0,0,1-1.47.19l-.84-.19a1.49,1.49,0,0,0-1.47.88,15.73,15.73,0,0,0-3.85.73l-.42.68a1.87,1.87,0,0,0-.56-.09,1.23,1.23,0,0,0-.39,0,1.09,1.09,0,0,0-.31.14l-.28.22a1,1,0,0,0-.25.32l-.21.41-.21.44a3.88,3.88,0,0,1-.87.86l-1.05.88-2,2.68-1,.64a2.11,2.11,0,0,0-.77,1.27q-.28,1-3.78,4.68l1,.39.49.83,2.38.49a15.15,15.15,0,0,1,4.35-1.32l.42-.58a5,5,0,0,0,1.12.19,1.94,1.94,0,0,0,1.33-.58l1.68-.2,1.05-1.22h1l.7-1.07a6,6,0,0,0,3.57-1.22Z"/>
        <path d="M489.48,145.66a2.53,2.53,0,0,1-1.68.68,4.38,4.38,0,0,1-1.47-.29l-2.25.73-1.47-.53-1.89-.4-2.66-1.56a4.17,4.17,0,0,0-1.54-.44l-2.52-.39-3.44-2.29-4.27-4.1-3.92-3-.28-.83-.7-.49-2.73-3.22-.7-1.08-1.2-.93c-1-1.62-2-2.52-3-2.68a5.93,5.93,0,0,1-2.52.58L450,127.06c-1.35,1.49-2,2.32-1.82,2.49l-1.89.83-1.75,2.19c-1.26.75-2.06,1.23-2.38,1.44a2.52,2.52,0,0,0-.85,1.2c-.23.59-.39,1-.49,1.17l-2.45.69a3.61,3.61,0,0,1-1.54,3l-3.57,2.35v.39l-3.92,2.88-3.44,3.81-1,.49v1.12l-1.26.63a2.89,2.89,0,0,0-1.19.93l-1.12,1.42-1.61-.88,1.26-1.61,1.33-.1,1-1.9a4,4,0,0,0,1.89-1l1.83-2.93,1.19-.49a13.38,13.38,0,0,1,2.45-3v-1.46l2.38-.39-.14-.64a1.74,1.74,0,0,1,.87-1.36c.59-.43.88-.7.88-.83s-.23-.36-.7-.79l1.12.1c-.19-.16-.28-.29-.28-.39s.19-.44.56-.63a4.82,4.82,0,0,0,2.45-.78,2.41,2.41,0,0,0,.56-1.81l.77-.29.28-.69,1-.19v-.25c0-.71.73-1.3,2.18-1.75l1.12-2.45,1.61-.48v-1.52l1-.29.56-1.17.42.09,1.05-.48c0-1.34.79-2,2.38-2h.49l-.49-1.7-1.05-1a3.52,3.52,0,0,1-.77-1.66l-1.19-.44-2.24-3.27L443,110.45l-1.76-2.78-2.1-1.81.56-.87-.56-1.62,1.82-.29,2.18.29.28.79a18.61,18.61,0,0,0,2.45,2.19l-.42,1.32,1.12.49.84,1.66a1.58,1.58,0,0,0,.63.68l1.4.88h-.84l1.26.69v1.12l2.59,2.49.42,1.37,1.75,1.12v-.29q0-1.32,2.1-2l.78.69v-1.37a4.18,4.18,0,0,0,2.24-2h.91v-.73l1.4-.49h.56l-.28-.88a2,2,0,0,1,1.19-.64,1.08,1.08,0,0,1,.84.39v-1.26l1.89-.1v-.73l1.26-.59L468,107a3,3,0,0,0,2.59-2v1.07a1.46,1.46,0,0,0,.57-1c0-.09-.1-.19-.29-.29l3.16-.93.84-.78c.79-.1,2.19-.34,4.2-.73a6.66,6.66,0,0,0,1.68,1.71,1.64,1.64,0,0,1-1.43,1.39,8.21,8.21,0,0,0-2.14.8l-8.9,5.72-1,1.22-2.31.68a16.69,16.69,0,0,1-3,3.91l-2.31.68L458.8,120l-2.32,1.17v.44a.69.69,0,0,0-.14.39q0,.67,2.46,1.71l-.14,1.07c.79.88,1.16,1.45,1.12,1.71l1.61.59a22.74,22.74,0,0,0,1.5,2.58,14,14,0,0,0,3.05,1.91l.91,2.54,2.45,1.46,1.33,1.56a11,11,0,0,0,2.25,1.18l.28.68a4.59,4.59,0,0,1,2.31,1.61l1.54.29,1.47,1.62a1.76,1.76,0,0,0,1.82,1l1.47-.29,1.82.78,5.89.54Z"/>
        <path d="M511.89,107.87l9.88.29,9.46-.29,2.31.09,1-.09h5.18c1,0,1.47.29,1.47.88s-.77,1.12-2.31,1.31a2.92,2.92,0,0,0-1.19-.19,3.53,3.53,0,0,0-1.82.49l-2-.3-3.86.1a14.74,14.74,0,0,1-5.32,1l-2.73-.35-1.4.93h-1.33v-.58l-2.45.78h-1.27l-.42.88a29.43,29.43,0,0,0-4.2-.39.73.73,0,0,1-.7.58,1.73,1.73,0,0,1-.84-.39l-2,.2-1.4,1-.42,4.88.28,2.93-.42,3.76.14,4.2.42,2v1.8l1.68,2.49v.44q0,1.71,2.87,3.27l.42.83,2.59.39,1.9,1.42,5.32.68,7-1.12,2,.44,5-1.61,1.89.19c.65.46,1,.88,1,1.27s-.61,1-1.82,1.61l-1.05-.29-2.24,1.32-4.77.39-1.61.68-1.68-.68a14.37,14.37,0,0,1-5,.88l-2.87-.39H514.9l-5.18-2.1-2.45-2.39-1.68-1.32L503,135.06l-1.19-4.49.63-1.81-1.19-1,.56-1.12-.56-1.81,1.47-.78-.63-.93.35-1.17-.63-1.32.28-1.91-.28-1,.63-.29v-3.62c-.28-.88-.68-1.32-1.19-1.32a1.08,1.08,0,0,0-.84.39l-1.62-.48-2.24.39-2.31-1.18h-1.19c-1.12,0-1.68-.43-1.68-1.31l.14-1.52-1-.49.56-.87,2.1.19,1.61-.19,2.31.48h6l.28-2.29v-2.3l-1-1.7,1.12-.59a3,3,0,0,0,.28-.73c0-.43-.38-.78-1.12-1.08l.28-3.9-1.19-1.22.28-.88q-1.41-.19-1.41-.78l1-2.64A8.15,8.15,0,0,0,503,88.48c2.84,1,4.27,1.55,4.27,1.71v.1l-.56,1a4.51,4.51,0,0,1,1,2.2v.29a3.1,3.1,0,0,0-.42,1.42.89.89,0,0,0,.42.78l-.14.83.14,1.08-1.26,1.41.84,2.49-.56,3,.56.59-.84.87,1.12,2.5h2.59Z"/>
        <path d="M618.15,133.16c.61.29.91.6.91.93,0,.81-.3,1.27-.91,1.36a4.69,4.69,0,0,1-3.43,1.91q0,.44-4.69,3.32a5.17,5.17,0,0,0-1.86.56c-.3.21-.94.63-1.92,1.25a2.8,2.8,0,0,0-2.6,1.17l-1.4.29-.56-.2-.42.83h-.42a11.55,11.55,0,0,0-3,.59c-1.31.39-2.13.62-2.45.68l-1.47.4h-1l-.84-.88-1.33-.79a9.48,9.48,0,0,0-2.18-2.63l-.42-2.39.14-1.18-.7-.63.14-2.88-.14-2.49.14-1.22a1.26,1.26,0,0,0,.42-.78,3.15,3.15,0,0,0-1-1.81c.38-2.77.56-4.3.56-4.59a2.5,2.5,0,0,0-1.12-1.81l1.12-.39.42-3.81-.28-1.61,1.05-1.8-.77-2a3.32,3.32,0,0,0,1.19-2.58v-3.32l.42-.79-.14-4.88.42-4.83a5.93,5.93,0,0,1-.7-3.76l.42-3-.42-1.07.7-4.54c.52-.13,1.07-.3,1.65-.49a5.06,5.06,0,0,1,1.09-.3,1.87,1.87,0,0,1,.56.2l.7,1.61,1.47.88-1,1v.4a2,2,0,0,0,.49,1.22c-.1,1.1-.45,1.66-1.05,1.66l.42.53a12.41,12.41,0,0,0,.77,4.2l-1.19,2.59.91.88a6,6,0,0,0-1.61,3.81c0,.65.42,1.06,1.26,1.22l-1,1.9a3.72,3.72,0,0,1,.56,1.17,2.65,2.65,0,0,1-.56,1.32l.28,1.18-.7,3.22-.07,1.51a15.53,15.53,0,0,1-1.19,3.18l.7,2.09-.42,3.81-.77.39.91,1.22-.63,1.91-.56,3,.56.73-.56.29a2.37,2.37,0,0,1,.28,3.57l.63,1.12-.35,1.51.63,1.08-.28.83,1.54,3.27,1.75.49a13.35,13.35,0,0,1,3.29-.88l.84.1,2-1.17a5.66,5.66,0,0,1,1.75-.54,3.23,3.23,0,0,1,2.45-1l.71-.54,1,.1.28-.49,1.4-.29,1.33-.68,1.4-.3a15.29,15.29,0,0,0,1.37-.87,12,12,0,0,1,2.2-1.23c0-.29.3-.53.91-.73a.8.8,0,0,0,.56.2A3.23,3.23,0,0,0,618.15,133.16Z"/>
        <path d="M667.82,136.38c.7.75,1,1.3,1,1.66s-.44.82-1.3,1.66a9.85,9.85,0,0,0-2,2.69l-1.06.1L663,144.58l-1.75.2-3.85,1.81-.7,1.07-1.19-.1-1.26,1h-2l-.42.49-1-.1a4.16,4.16,0,0,0-2.73,1l-.91-.49a8.14,8.14,0,0,1-2.38.49,5.92,5.92,0,0,1-2.59-.49,15.31,15.31,0,0,1-1.89.1l-.84-.49q-3.86-.15-5.19-1.52v-1.22l-2.31-.88-.56-1a4.64,4.64,0,0,0-1.54-1.27v-.78l-1.61-4.74.28-3.37.56-1.9v-2.1l.77-1.81-.28-1.32a2,2,0,0,0,1-1.1,5.21,5.21,0,0,1,.84-1.48,22.3,22.3,0,0,1-.56-2.49l1.26-.74-1.26-1c.66-.75,1-1.22,1-1.42l-.7-3a5.54,5.54,0,0,1,.42-2.1,2.55,2.55,0,0,0,1.89.88,21.86,21.86,0,0,0,2.74-.39,1.45,1.45,0,0,1-.15-.68c0-.46.38-.87,1.13-1.22a16.65,16.65,0,0,1,3.15-4.59,2.25,2.25,0,0,0,1.33-2h.7l.7-1,.84-.25a4.24,4.24,0,0,1,1.47-1.46,9.28,9.28,0,0,0,3.85-2.3,4.34,4.34,0,0,0,1.2.1c.13,0,.51-.37,1.12-1.12,1.63-.39,2.49-.59,2.59-.59a1.88,1.88,0,0,1,1.26.59l1.33-.2.7.39h.84a2.88,2.88,0,0,0,2.87,1.62h.42a1.69,1.69,0,0,0,.91,1l-.63.2c1.64.55,2.45,1.84,2.45,3.85l-.42,1.13.42,2.78-.7.44-1.61,3-2.87,2.49-.14,1.41a47.64,47.64,0,0,1-8.41,4,.93.93,0,0,1-.91.58,6.22,6.22,0,0,1-1.12-.19l-3.15,1.51h-1.89l-2.73.88-1.19-.49a15.37,15.37,0,0,0-2.94-.39,4.25,4.25,0,0,0-2.18,3.66l-1,.83a8,8,0,0,1-.7,2.59l-.77.29.77,3.62-.77.49.14,1.12-.14,1.37a13.09,13.09,0,0,0,.35,1.85c.24,1,.61,1.6,1.12,1.76-.23.46.22,1,1.37,1.66a12.18,12.18,0,0,0,3.68,1.37v.58l3.71.39,5.32.2,3.58-.29a17.36,17.36,0,0,1,3.15-1.32l1.12-1.17h1.33l.14-.49a16,16,0,0,0,3.4-1,.72.72,0,0,0,.31-.52,1.45,1.45,0,0,1,1.26-.58l.42-.64q3.15-.33,3.92-2.88A3.43,3.43,0,0,1,667.82,136.38Zm-11.77-22.8a4.54,4.54,0,0,0,1.89-1.22l.42-1.17a19.66,19.66,0,0,0,2-2.62,3,3,0,0,0,.28-1.39,8.69,8.69,0,0,0-1-2.93l-2.87-.68a10.92,10.92,0,0,1-1.47.19l-.84-.19a1.49,1.49,0,0,0-1.47.88,15.79,15.79,0,0,0-3.86.73l-.42.68a1.77,1.77,0,0,0-.56-.09,1.13,1.13,0,0,0-.38,0,1.15,1.15,0,0,0-.32.14l-.28.22a1.16,1.16,0,0,0-.24.32l-.21.41-.21.44a4,4,0,0,1-.88.86l-1,.88-2,2.68-1.05.64a2,2,0,0,0-.77,1.27q-.28,1-3.78,4.68l1,.39.49.83,2.38.49a15.09,15.09,0,0,1,4.34-1.32l.42-.58a5.19,5.19,0,0,0,1.12.19,1.92,1.92,0,0,0,1.33-.58l1.68-.2,1-1.22h1l.7-1.07a6,6,0,0,0,3.57-1.22Z"/>
        <path d="M741.58,97.56l-.7,1,.14,1.46-1.48.64-.7,2c-.09.29-.53.73-1.33,1.32l-.28,1.32h-1.54a6.67,6.67,0,0,1,.7,1.8q0,.78-2.31,1.17v.74l-1.26,3.37-1.19,1.61h-.84a1.59,1.59,0,0,1,.84,1.22l-1.82,1.27-3.29,6-3,3.62v1.61c0,.23-.33.55-1,1s-1,.77-1,1,.24.46.7.78a6.24,6.24,0,0,1-3.15.68l.56,1.13a5.44,5.44,0,0,0-1.54,2.1c-1,.52-1.47,1-1.47,1.36a1.14,1.14,0,0,0,.14.64h-1.12v1.07l-1.89.83-1,1.27-2.87,2.2-3.72,4A4.25,4.25,0,0,1,703,147c-1.91,0-3.25-.44-4-1.32l-4.62-5.08-.29-1.81-.84-.39-.14-2.29-1.61-1.22v-2.3l-3.43-6.1.14-1.22-.91-1.12a5.69,5.69,0,0,1-.56-2l-1-.93-.7-1.32a3,3,0,0,0-1-1.17l-1.68-1.08-1.26-3.51-1.48-.88a5.33,5.33,0,0,1-1.33-1.17L677,110.36a2.77,2.77,0,0,1-.84.19c-1,0-1.47-.86-1.47-2.59,0-1.13,1-1.93,2.87-2.39,1.68,1,2.89,1.7,3.61,2.17a12.72,12.72,0,0,1,2.73,3c1.1,1.52,2.11,2.34,3.05,2.47-.42.06-.63.23-.63.49a1.22,1.22,0,0,0,.42.68v.83l1.75,1-.42.88.42,2,1.61,3.22.42.29.28,1.32.7.29v1l1.75,4.4.42,1.7,2.32,3.62,1.82,4.69,1.47.83v.19c0,.91,1,1.37,3,1.37h.56v-.49c0-.1.32-.22.95-.37a3.12,3.12,0,0,0,1.78-1.44,3.5,3.5,0,0,0,.7.2q.42,0,.42-.39a2.34,2.34,0,0,0-.28-.78l3.3-1.32a3.07,3.07,0,0,1,.35-1.17,2.47,2.47,0,0,1,.84-.93l1.26-.78,2.59-2.59.84-1.81,1.47-.73.56-1.07a4.36,4.36,0,0,1,1.4-1.22l-.14-1.08.7-.19.49-1,.56.39a2.61,2.61,0,0,1-.28-.78c0-.45.33-.72,1-.78a1.36,1.36,0,0,1,1.26-.73,4.7,4.7,0,0,0,1-2.79h1.13l.14-1.32a8,8,0,0,0,1.33-2.78l.84-.1,2-4.1.42-.39-.14.59a3.79,3.79,0,0,0,1.29-1.69c.21-.6.39-.9.53-.9a1.73,1.73,0,0,1,.63.2l1.82-4.59,1.33-1.23v-.58l1,.19-.28-1.61a7.53,7.53,0,0,0,2.7-2.76c.54-1,1.06-1.53,1.58-1.53a3.13,3.13,0,0,1,.77.09l.14-.58Z"/>
        <path d="M787.46,136.38c.7.75,1,1.3,1,1.66s-.43.82-1.3,1.66a9.85,9.85,0,0,0-2,2.69l-1.05.1-1.55,2.09-1.75.2L777,146.59l-.7,1.07-1.19-.1-1.26,1h-2l-.42.49-1-.1a4.17,4.17,0,0,0-2.74,1l-.91-.49a8.14,8.14,0,0,1-2.38.49,5.92,5.92,0,0,1-2.59-.49,15.31,15.31,0,0,1-1.89.1l-.84-.49q-3.86-.15-5.19-1.52v-1.22l-2.31-.88-.56-1a4.64,4.64,0,0,0-1.54-1.27v-.78l-1.61-4.74.28-3.37.56-1.9v-2.1l.77-1.81-.28-1.32a2,2,0,0,0,1-1.1,5.21,5.21,0,0,1,.84-1.48,22.3,22.3,0,0,1-.56-2.49l1.26-.74-1.26-1c.66-.75,1-1.22,1-1.42l-.7-3a5.54,5.54,0,0,1,.42-2.1,2.55,2.55,0,0,0,1.89.88,21.86,21.86,0,0,0,2.74-.39,1.45,1.45,0,0,1-.14-.68c0-.46.37-.87,1.12-1.22a16.65,16.65,0,0,1,3.15-4.59,2.23,2.23,0,0,0,1.33-2h.7l.7-1,.84-.25a4.24,4.24,0,0,1,1.47-1.46,9.28,9.28,0,0,0,3.85-2.3,4.34,4.34,0,0,0,1.2.1c.14,0,.51-.37,1.12-1.12,1.63-.39,2.49-.59,2.59-.59a1.88,1.88,0,0,1,1.26.59l1.33-.2.7.39h.84a2.88,2.88,0,0,0,2.87,1.62h.42a1.69,1.69,0,0,0,.91,1l-.63.2c1.64.55,2.45,1.84,2.45,3.85l-.42,1.13.42,2.78-.7.44-1.61,3-2.87,2.49-.14,1.41a47.94,47.94,0,0,1-8.4,4,.94.94,0,0,1-.91.58,6.14,6.14,0,0,1-1.13-.19L765,123.88h-1.89l-2.73.88-1.19-.49a15.37,15.37,0,0,0-2.94-.39,4.25,4.25,0,0,0-2.18,3.66l-1,.83a8,8,0,0,1-.7,2.59l-.77.29.77,3.62-.77.49.14,1.12-.14,1.37a13.09,13.09,0,0,0,.35,1.85c.24,1,.61,1.6,1.12,1.76-.23.46.23,1,1.37,1.66a12.18,12.18,0,0,0,3.68,1.37v.58l3.71.39,5.32.2,3.58-.29a17.36,17.36,0,0,1,3.15-1.32l1.12-1.17h1.33l.14-.49a16,16,0,0,0,3.4-1,.72.72,0,0,0,.31-.52,1.45,1.45,0,0,1,1.26-.58l.42-.64c2.11-.22,3.41-1.18,3.93-2.88A3.37,3.37,0,0,1,787.46,136.38Zm-11.77-22.8a4.54,4.54,0,0,0,1.89-1.22l.42-1.17a19.66,19.66,0,0,0,2-2.62,3,3,0,0,0,.28-1.39,8.46,8.46,0,0,0-1-2.93l-2.87-.68a10.92,10.92,0,0,1-1.47.19l-.84-.19a1.49,1.49,0,0,0-1.47.88,15.79,15.79,0,0,0-3.86.73l-.42.68a1.77,1.77,0,0,0-.56-.09,1.13,1.13,0,0,0-.38,0,1.15,1.15,0,0,0-.32.14l-.28.22a1.16,1.16,0,0,0-.24.32l-.21.41-.21.44a4,4,0,0,1-.88.86l-1.05.88-2,2.68-1,.64a2,2,0,0,0-.77,1.27q-.28,1-3.78,4.68l1,.39.49.83,2.38.49a15.09,15.09,0,0,1,4.34-1.32l.42-.58a5.19,5.19,0,0,0,1.12.19,1.92,1.92,0,0,0,1.33-.58l1.68-.2,1.06-1.22h1l.7-1.07a6,6,0,0,0,3.57-1.22Z"/>
        <path d="M832.92,133.16c.6.29.91.6.91.93,0,.81-.31,1.27-.91,1.36a4.71,4.71,0,0,1-3.43,1.91q0,.44-4.7,3.32a5.17,5.17,0,0,0-1.85.56c-.31.21-1,.63-1.93,1.25a2.78,2.78,0,0,0-2.59,1.17L817,144l-.56-.2-.42.83h-.42a11.61,11.61,0,0,0-3,.59c-1.3.39-2.12.62-2.45.68l-1.47.4h-1l-.84-.88-1.33-.79a9.62,9.62,0,0,0-2.17-2.63l-.42-2.39.14-1.18-.7-.63.14-2.88-.14-2.49.14-1.22a1.26,1.26,0,0,0,.42-.78,3.21,3.21,0,0,0-1-1.81c.37-2.77.56-4.3.56-4.59a2.53,2.53,0,0,0-1.12-1.81l1.12-.39.42-3.81-.28-1.61,1.05-1.8-.77-2a3.35,3.35,0,0,0,1.19-2.58v-3.32l.42-.79-.14-4.88.42-4.83a5.8,5.8,0,0,1-.7-3.76l.42-3-.42-1.07.7-4.54c.51-.13,1.06-.3,1.64-.49a5.21,5.21,0,0,1,1.09-.3,1.87,1.87,0,0,1,.56.2l.7,1.61,1.47.88-1,1v.4a2,2,0,0,0,.49,1.22c-.09,1.1-.44,1.66-1.05,1.66l.42.53a12.67,12.67,0,0,0,.77,4.2l-1.19,2.59.91.88A6.07,6.07,0,0,0,808,102c0,.65.42,1.06,1.26,1.22l-1,1.9a3.72,3.72,0,0,1,.56,1.17,2.65,2.65,0,0,1-.56,1.32l.28,1.18-.7,3.22-.07,1.51a14.91,14.91,0,0,1-1.19,3.18l.7,2.09-.42,3.81-.77.39.91,1.22-.63,1.91-.56,3,.56.73-.56.29a2.37,2.37,0,0,1,.28,3.57l.63,1.12-.35,1.51.63,1.08-.28.83,1.54,3.27L810,142a13.35,13.35,0,0,1,3.29-.88l.84.1,2-1.17a5.46,5.46,0,0,1,1.75-.54,3.2,3.2,0,0,1,2.45-1l.7-.54,1,.1.28-.49,1.4-.29,1.33-.68,1.4-.3a13.8,13.8,0,0,0,1.37-.87,12.38,12.38,0,0,1,2.2-1.23c0-.29.31-.53.92-.73a.78.78,0,0,0,.56.2A3.32,3.32,0,0,0,832.92,133.16Z"/>
      </g>
    </g>
  </g>
</svg>
