<svg xmlns="http://www.w3.org/2000/svg" width="1140" height="235" viewBox="0 0 1140 235">
  <defs>
    <style>
      .cls-1 {
        fill: #54329e;
      }

      .cls-2 {
        fill: #8c7dcc;
      }
    </style>
  </defs>
  <g id="start_screen_title">
    <g>
      <rect class="cls-1" x="19.4" y="15.5" width="1118.82" height="218" rx="102.92"/>
      <rect class="cls-2" x="1.79" y="1.5" width="1118.82" height="218" rx="102.92"/>
      <g>
        <path d="M286,107.87l9.88.29,9.45-.29,2.32.09,1-.09h5.18c1,0,1.47.29,1.47.88s-.77,1.12-2.31,1.31a2.92,2.92,0,0,0-1.19-.19,3.5,3.5,0,0,0-1.82.49l-2-.3-3.86.1a14.78,14.78,0,0,1-5.32,1l-2.73-.35-1.4.93h-1.33v-.58l-2.46.78h-1.26l-.42.88a29.43,29.43,0,0,0-4.2-.39.73.73,0,0,1-.7.58,1.73,1.73,0,0,1-.84-.39l-2,.2-1.4,1-.42,4.88.28,2.93-.42,3.76.14,4.2.42,2v1.8l1.68,2.49v.44c0,1.14,1,2.23,2.87,3.27l.42.83,2.59.39,1.89,1.42,5.33.68,7-1.12,2,.44,5-1.61,1.89.19c.65.46,1,.88,1,1.27s-.61,1-1.82,1.61l-1.05-.29-2.25,1.32-4.76.39-1.61.68-1.68-.68a14.37,14.37,0,0,1-5,.88l-2.88-.39H289l-5.18-2.1-2.45-2.39-1.68-1.32-2.6-4.79-1.19-4.49.64-1.81-1.2-1,.56-1.12-.56-1.81,1.48-.78-.64-.93.36-1.17-.64-1.32.28-1.91-.28-1,.64-.29v-3.62c-.29-.88-.68-1.32-1.2-1.32a1.11,1.11,0,0,0-.84.39l-1.61-.48-2.24.39-2.31-1.18h-1.19c-1.12,0-1.68-.43-1.68-1.31l.14-1.52-1-.49.56-.87,2.1.19,1.61-.19,2.31.48h6l.28-2.29v-2.3l-1-1.7,1.12-.59a3,3,0,0,0,.28-.73c0-.43-.38-.78-1.12-1.08l.27-3.9-1.19-1.22.28-.88c-.93-.13-1.4-.39-1.4-.78l1-2.64a7.33,7.33,0,0,0,1.33-1.37c2.85,1,4.28,1.55,4.28,1.71v.1l-.56,1a4.51,4.51,0,0,1,1,2.2v.29a3.1,3.1,0,0,0-.42,1.42.89.89,0,0,0,.42.78l-.14.83.14,1.08-1.26,1.41.84,2.49-.56,3,.56.59-.84.87,1.12,2.5h2.59Z"/>
        <path d="M372.08,106.25l-.42,1.23-4.2.39-2.74,1.41-1.82.2-2.31,1-2.31.74a10.42,10.42,0,0,1-2.73,1.27v.48l-2.1.74L352,115.29h-1.55l-.77,1.56-1.61.73a3.69,3.69,0,0,0-1.54,1.08l-1.4,1.8a3,3,0,0,0-1.89,2.69l-.7-.2-.28.64-1.05.49-1,1.71c-1,1-1.54,1.77-1.54,2.29l-1.33.39v2.1a2.57,2.57,0,0,0-.71,1.08l.29.34-1.41.39.42.78a12.77,12.77,0,0,1-2.17,3.61l.7,1.27-1.4,1.61a5.81,5.81,0,0,1,.28,1.52l-.28,1.61.63,1.76a3.16,3.16,0,0,0,.63.58l1.05.73a6,6,0,0,1-1.75,1.71l-1.89-.48.28.87-3.15-.39v-1.31l-.42-.88.42-1.62-.42-.68.28-3.42-.28-2.29c-.65-.16-1-.36-1-.59s.33-.66,1-1.22v-1.46a7.68,7.68,0,0,0-.14-1.71l.56-.49-.56-1.9.42-1.52-.42-.93.42-2.68-.7-.78.42-.93-.84-2,.28-1.57a8.17,8.17,0,0,0-.28-1.8l.42-.49-.84-3.42-1.05-.49,1.05-1.71a4.46,4.46,0,0,1-1.47-3.32V107a2.88,2.88,0,0,1-.84-.93,8.39,8.39,0,0,1,3.57-1.61l1.05.19A4.6,4.6,0,0,0,331,107l-.28,2.49,1.4,7.57a1.63,1.63,0,0,1-.84,1.31l.7,2.1-.42,1.52.42,1.61-.28,1.27,1,1.51-.63.3.49,2.29,1.12.2.49-2a7.09,7.09,0,0,1,1.68-1.76q1.83-1.11,1.83-2.49v-.58l.91-.29c.14,0,.25-.13.35-.37a.49.49,0,0,1,.49-.37h.42l.84-2,2.17-1,.14-.58h1l-.42-1.12,2.17-.69.14-1.22,2-.19a5.29,5.29,0,0,0,2.1-1.91l1.34-.19a13.15,13.15,0,0,1,2.59-1.81.82.82,0,0,0,.7-.29l2.31-.88.56-.73,1.26-.49c2.47-1.27,4.16-1.91,5-1.91h.56a3.7,3.7,0,0,0,2-.49l1.27.3a3.77,3.77,0,0,1,1.61-.49A10.13,10.13,0,0,1,372.08,106.25Z"/>
        <path d="M446,126.37c-1,.52-1.47,1.13-1.47,1.81a4.08,4.08,0,0,0,.14,1l.84,3.61-.84,3.9.28,1.62-.7,1.36.42,4.4-.42.63v3.57l-.28,2.83.56,1-.28,6.59.7,1.22-.7.58.42,1.81-.7.49.56,1.51H444l-.28.78v1.52l-.7,1.22.28.88-3,3.71-.28,1.9-.77-.1-1.26,1.18a12.23,12.23,0,0,0-2.59,2.54L432.74,179a4.18,4.18,0,0,1-4.13,2.29.36.36,0,0,1,.14.3c0,.23-.19.34-.56.34l-.63.39a5.94,5.94,0,0,0-2.39,1.17h-1.61l-.42.39-1.89-.29-2.87,1.32-1.68-.2-4.62.49-1.27-.1-.7.1-4.2-.49h-1.12l-1.47-.92-.7.09-5-1.17-3.58-.39-.84-1-2.31-.19-1-1.71-1.33-.29-2-1.91-2-.68-1.89-1.9a4.13,4.13,0,0,0-1.2-.74l-2.24-.88.77-1.27-1.33-1,.14-.59a5.16,5.16,0,0,0-1-2.58,4.53,4.53,0,0,1-.28-1.42,5.13,5.13,0,0,1,.56-2l.56-1.13v-.29l1-.39.35-.49.56.1.35-1.17c.14-.49,1.27-1.4,3.37-2.74l2-.39,3.43-2.1,4,.2a2.71,2.71,0,0,1,1.75-1c.66,0,1,.28,1,.83a.77.77,0,0,1-.15.49l-1.89.59-1.26.73a18.21,18.21,0,0,1-3.29.88l-1,1.42h-2a17.68,17.68,0,0,1-4,3.46L383,165a3.6,3.6,0,0,0-1.19,2.54l-.71.29,3.16,5.17,2.87.74.42,1.17,4.48,3,1.68.34a6.61,6.61,0,0,1,1.82.73l2,1.32h2.31l1.75,1.17,2.31-.2,1,.64,8.2-.24,1.12-.2v.2c0,.35.18.53.56.53a1.08,1.08,0,0,0,.35-.19,6.3,6.3,0,0,1,3.71-1h.7l4.55-1.32v.44c.61-.32.91-.53.91-.63h-.49a1.63,1.63,0,0,1,.91-.2,2.38,2.38,0,0,1,.71.1,1.11,1.11,0,0,1,1.26-.88h.49l.28-.58c.65,0,1-.28,1-.83h.14a1.32,1.32,0,0,0,1.19-.74,1.46,1.46,0,0,1,1.26-.78l.42.25c.14-.85.86-1.55,2.17-2.1A3.18,3.18,0,0,0,436,171h.77a58.15,58.15,0,0,0,3.15-5.08l-.28-.29L440,163l.7-.29v-2.3l.56-.68L440,158.65a6.38,6.38,0,0,0,1.26-1,4,4,0,0,0-.28-.76,4,4,0,0,1-.28-1.53V155l.28-4.11v-5.81l-.7-1.12.7-2-.28-2.3v-5.27l-.28-1.12.56-1.08-.56-.93.56-.87-.28-3.71-1.33-.88,1.33-.93-.28-.78.28-1.52L440,122l.28-1.22-.91-1.18a4.84,4.84,0,0,1-1.82.79l-.7,1.22-1.19.49-.28,1.17L433,124.37l.28.49L432.18,126l-1,.2-.42.49-2.17.48v1.32h-1.05l-.42,1.17-4.84,3.13L419,135.36l-1.75.39-.84.92-3.29,2.1-1.34.2c0,.07-.91.6-2.59,1.61l-.42.88-1.26.49h-1.19l-.7.93-1.54.19-2.87,2-2.59.3-1.05.68c-.7.16-1.66.41-2.88.73l-.42.78a10.71,10.71,0,0,1-3.29.3c-2.05,0-3.34-.3-3.85-.88l-2.87-3.42L384,142l-1.47-3.66v-3.23l-.56-1,.91-2.44-.63-1.57.63-.44.14-1.27,1-1.51-.14-2.29.7-1.32-.7-.88,1.4-4.59-.42-3,.42-2.68L384,108.35l.56-.87-.56-.74,1.12-1.95-.56-.83,1-.59v-1.31l1.61-.1a4.73,4.73,0,0,0,1.89,2l-.49.68.91.15-.42,1.27,1.12,1.42-.42.68.42,1.61.7.39-1,1.51.84,2.59L389,115.87l.84.69-.84,3.81v3.51l-.63.49-.56,5.18L386.3,131l.28.93v2.29l.7,1.37-.7,1.12.28,1.71-.56.79.56.87v1.22l1.54,1.13.49,1.17,1-.1.28.59,1.12-.49,3,.19,1.05-1.61,3.58-1,.14.29a1.49,1.49,0,0,1,1.12-1.17,14,14,0,0,0,2.41-1.2,11.06,11.06,0,0,1,3.05-1.24l-.14.53c.47-.13.7-.3.7-.53a1.34,1.34,0,0,0-.28-.49c.93-.07,2.49-.82,4.66-2.27a14.59,14.59,0,0,1,6.69-2.52l1.75-2,.28.59v-.88c1.4-.2,2.15-.73,2.24-1.61l1.61-.78c.94-.3,1.4-.77,1.4-1.42v-.29a15.2,15.2,0,0,1,3.65-1.32l.28-.78a24.3,24.3,0,0,0,3.57-3.32,5.93,5.93,0,0,0,3-2l2.59-3.8-.14-2.3,1.12-.39v-1.9l-.7-1.61.42-1.47-1.26-.54-.14-.29c0-.23.25-.59.74-1.1a4.18,4.18,0,0,0,.94-1.29l.56-.3.14-.68a3.83,3.83,0,0,1,1.61-.39l3,2.1.14,1.17.07,1a8.2,8.2,0,0,0,1.33,1.9l-.84.64.28,1.36-.28,1.13,1.19.88-1.19.09v1.42l-.7,1.81.7,2.58-.14,1.91.42.68-.28,1.81Z"/>
        <path d="M555.88,144.49l-2,.68-.42.88a12.75,12.75,0,0,0-2.17.54l-.7-.34-1,.34-2.24-1.91v-2.19l-1-.64.28-3.08-.84-6.39.56-2.1-1-1.12,1.26-.49-.84-.88.28-.93.7-.39-.14-1.22h.77v-2l.28-1a2.6,2.6,0,0,1-1.33-.93l-2.25.74a4.54,4.54,0,0,1-1.89,1.61l-.14,1.07-1.61.49-.28,1.42-1,.48v.74a5,5,0,0,0-2,1.75l-1,.44-2.17,2.69-3.43,2.39-1.13,1.32-3,2.2-.77,1.17-4.13,2-4.62,3.81-1.55.29a6.74,6.74,0,0,0-2.17,1h-.42c-.79,0-1.42-.54-1.89-1.61-3.59-1-5.49-2.38-5.67-4.2l1.12-.49a9.82,9.82,0,0,1-1.12-3.91l-.77-.39.49-.54a2.09,2.09,0,0,0,.42-1c.09-.47.23-1.13.42-2l1-3.71a1.18,1.18,0,0,1-.14-.69,1.93,1.93,0,0,1,.42-1.12,3.38,3.38,0,0,1-.28-1.08,2.62,2.62,0,0,1,.28-1l.56-.1a3,3,0,0,0,1.19-1.9.87.87,0,0,0-.46-.78q-.45-.3-.45-.39c0-.23.26-.4.77-.49-.7-.1-1-.31-1-.64s.49-.49,1.47-.49v-.19a2.77,2.77,0,0,1,.88-2,3.85,3.85,0,0,0,.94-1.24l-1-.2,1.89-2.1v-.49a4.47,4.47,0,0,1,2-3.61l-.14-1.81.63-.29a1.32,1.32,0,0,1-.49-1c0-.19.31-.29.91-.29v-1.61c.47-.1.7-.26.7-.49a.87.87,0,0,0-.14-.54,21.12,21.12,0,0,1,2-1.61,8.85,8.85,0,0,0,2-2h.42c1.07,0,1.61-.18,1.61-.54,0-.13-.14-.29-.42-.49,1.91,0,2.92-.26,3-.78l2.59-.93,7.43.44v.39l6,.88h.56c.89,0,1.33.28,1.33.83l.7-.19a1.55,1.55,0,0,0,1.61.88l.7-.1,1.27.88,3,.54v.87a26.65,26.65,0,0,1,5.18-1.61v1.61h-.7l1.4.49-.28.2,1.12,2.54-1.26,1-.56,1.66a6.73,6.73,0,0,1-1.33,2l.91,1.27c-.09.1-.36.36-.8.79A3,3,0,0,0,552,116c.28.1.42.26.42.49l-.28.83.14.68-.42,1.08.28.93-.84.68.28,2.2-.42.29.42.44-.42.29a.47.47,0,0,1,.14.39,1.27,1.27,0,0,1-.42.88l.42.64-.7.88c-.38.16-.56.63-.56,1.41l.56,1.27-1.33,1.22a3.73,3.73,0,0,0,1.33,1.32,8.22,8.22,0,0,0-1.75,3.86l1.19.19-.14.54a1.12,1.12,0,0,1,.14.68,3.52,3.52,0,0,1-1,2h.91l.42,1.51,2.87.19,1,1.27c-.28.13-.42.25-.42.35,0,.26.47.58,1.4,1H555c-.19,0-.28,0-.28.1S555.09,144,555.88,144.49Zm-7.35-35.94-.84-1.81-2.31-.49-4-2.49a4,4,0,0,0-1.47-.39,5.28,5.28,0,0,0-1.12.2l-.7-.49h-2.31l-.7-.63-1.61.44-.7-.44-1.19.24-2.25-.24a18.37,18.37,0,0,0-5,1.12l.28.39-1.26.29-.28.39-1.61.15v.59a9.27,9.27,0,0,0-3.29,3.17,27.79,27.79,0,0,1-2.59,5.13l1.12.39-1.83,1.12.56.78a4.33,4.33,0,0,0-1.26,3.08v.53l-1,1.08v1.71a3,3,0,0,0-1.26,1.8l-.56.4v1.8l-.49.49a9.42,9.42,0,0,1-.56,2.69l.77,1.22a5.44,5.44,0,0,0-2,1.22l.56.78-.84.78,1.12,2-1.26,1.22.14,2.4-.42,1.12.7.29.28.68a5,5,0,0,1,2,1.13l3.29-.54a3.6,3.6,0,0,1,3.16-1.56l-.28-.73,2.27-.42c.07,0,.18-.2.32-.56a2.33,2.33,0,0,1,1.26-1h.28q.42,0,.42-.39l2.59-2.1H524l1.54-1a7.33,7.33,0,0,1,2.31-.93l1-1.91c1.78-.52,2.78-1.22,3-2.09h.84l1.4-1.27-.28-.83,1.33-.2a1,1,0,0,1-.28-.49c0-.1.32-.46,1-1.1s1.16-1.16,1.54-1.58l.63.19a2.47,2.47,0,0,1,1.54-1.8,2.3,2.3,0,0,1,1.12-1.25,3,3,0,0,1,1.19-.46h1l.14-1.22c.19-.13.28-.26.28-.4s-.14-.39-.42-.58a6.89,6.89,0,0,1,2-1.81l.28-1.07,1-.54-.28-.88a4.26,4.26,0,0,0,1-1.8l1.26-.88Z"/>
        <path d="M639.1,132.87l-1.19,3.8.28.88-.56.49a3.49,3.49,0,0,1,.84,2.15l-.28,1,.14,2a23.17,23.17,0,0,1-.63,4.74c-.42,1.92-.68,3.2-.77,3.85l-.21,1.47a9,9,0,0,1-1.55,2.73H636l-.35,1.52-.85.73a4.47,4.47,0,0,0-.94,1.66,8.62,8.62,0,0,1-1.23,2.2c-.46.58-1.06,1.27-1.78,2.07a9.7,9.7,0,0,1-2.42,2c-.89.51-2.15,1.26-3.78,2.27l-2.17.69a6.49,6.49,0,0,1-2.6,1l-.7.59c-3.36.45-5.09.68-5.18.68h-.28l-.28.34a15.91,15.91,0,0,1-4.62.59h-5.12l-3.71-.59-2.31.3-1-.64-4.13-.39-1.68-1.07a25.91,25.91,0,0,0-3.65-1.61c-2.52-.72-4-1.79-4.55-3.23l.56-.48-.56-1.81a1.7,1.7,0,0,1,1.26-.49,1.25,1.25,0,0,1,.84-.39c.14,0,.69.06,1.65.2s2.09.22,3.39.29l-.14,1a5.2,5.2,0,0,1,2,.59,1.61,1.61,0,0,1-.28.83l-.29.49c0,.75.43,1.17,1.27,1.27,0,.42.08.65.24.68s.5.11,1,.25l6,1.36,1.61-.19.28.39h3.15a9.87,9.87,0,0,1,2.46.34q1.32-.73,7.56-1.12a5.76,5.76,0,0,0,2.31-.78c1.78-.14,2.83-.41,3.16-.83h.42a4.81,4.81,0,0,0,1.36-.2,3.44,3.44,0,0,0,1.16-.59l4.83-3.51,2.73-2.88.14-1.32,1.54-1.61.28-1.47.77-1.22.84-3,1.13-2.93-.15-2.1v-.78a5.9,5.9,0,0,1,1.06-3.61l-.91-2.2v-5.17l-1-1.91v-3l-1.26-2.1.28-3.37L631.6,120a1.63,1.63,0,0,0-1-.3,3,3,0,0,0-1.89,1l.28,1-2,.59-1,1.9-1.82,1.27-2.59,2.93-3.44,1.71-4.06,3.18c-1.21.78-2.32,1.46-3.33,2.05s-2,1.15-3.08,1.68a9.65,9.65,0,0,0-1.85,1.1l-.7.73a8.28,8.28,0,0,1-1.9,1l-2.31.73-1.26.93a18.44,18.44,0,0,1-3.08,1.37,2.23,2.23,0,0,1-1.82.68h-.42a12.13,12.13,0,0,1-6.31,1.71,14,14,0,0,1-2-.1l-1.19.49a13,13,0,0,0-3-.49q-5.32-3.71-5.88-6l-.85-3.91.28-2.49L577,129l-.14-1.17.56-1.66a8.53,8.53,0,0,1,1.33-2.54,4.4,4.4,0,0,0,.84-2.44l.14-1.57,2.87-3.9a4.37,4.37,0,0,1,.84-.71,18.54,18.54,0,0,0,2.45-2.61l1.54-1.17a5.35,5.35,0,0,1,2.35-2.35,3.48,3.48,0,0,0,1.86-2.29,6.17,6.17,0,0,1,2.94-.88,3.75,3.75,0,0,0,3.08-1.91l1,.2,2.59-1.27a4.06,4.06,0,0,1,2.59-1.12,6.28,6.28,0,0,1,1.13.19l4.2-1.07,2.66.39h1.89l1.47.68H616a14.72,14.72,0,0,0,2.77,2.1,17.57,17.57,0,0,1,2.7,2,3.6,3.6,0,0,1-.91,2.3h-2.25l-1.89-2.1a7.3,7.3,0,0,1-3-1.27l-.7.2a8.74,8.74,0,0,0-7.92.68l-1-.1-.28.68h-1.33l-1.82.3a2.59,2.59,0,0,1-2.45,1.41,12.33,12.33,0,0,1-2.73,1.62l-.84,1.26-1.33.25-.14.68h-1.26l-2.32,2.79-1.89.92-.84,1.81-2,2.1a4.87,4.87,0,0,0-.49,2.29l-1.54,1.18L581,127.35l-1.4,1.12.14,1.81-1.75,4.1.56,1.37-.28,1.9a3.28,3.28,0,0,1,1.12,1.52,2.3,2.3,0,0,0,1.47,1.41l.42,1a6,6,0,0,1,1.89.58,7.77,7.77,0,0,1,2-.29l1.4.2c.19,0,.77-.07,1.75-.2.66-.55,3-1,6.87-1.27.46-.36,1-.83,1.68-1.41a6.74,6.74,0,0,1,1.93-1.27c.63-.26,1.42-.63,2.38-1.1a11.59,11.59,0,0,1,2.06-.86c1.69-.29,2.52-.91,2.52-1.85q3.51-1,3.93-2.1l1.12-.25a5.9,5.9,0,0,0,1.5-.78,21,21,0,0,0,3.26-2.88l.84.39.56-.93,1.61-.39a.69.69,0,0,1-.14-.48,1.59,1.59,0,0,1,.84-1.23,4,4,0,0,0,1-.12,1,1,0,0,0,.67-.51l.49-.73,2.73-2.49h.56l.42-2q.84-.33,3.85-6.39l1-.25-.77-1.56-.49-1.61a4.37,4.37,0,0,0-.91-1.51l-1.47-1.71.91-1.56-.63-1.81a2,2,0,0,1,1.61-1,1.92,1.92,0,0,1,.77.15,7.26,7.26,0,0,1,1.54,1.66l1.4.49-.14,1.8.63,1.32a3.58,3.58,0,0,1,.35,1,5.83,5.83,0,0,0,.56,1.39,3.52,3.52,0,0,1,.49,1.39q0,.39-.42.39a8.28,8.28,0,0,0,1.83,2.59l-.43,2c1.08,1,1.62,1.58,1.62,1.81,0,.39-.31.8-.91,1.22l.35,1.27,1,.29-.42,1.32.56,2.59a4.21,4.21,0,0,1,.7,2.2s0,.09-.14.19a4.15,4.15,0,0,0-.42,2.3l1,.53Z"/>
        <path d="M710,144.49l-2,.68-.42.88a13,13,0,0,0-2.17.54l-.7-.34-1,.34-2.24-1.91v-2.19l-1-.64.28-3.08-.84-6.39.56-2.1-1-1.12,1.26-.49-.84-.88.28-.93.7-.39-.14-1.22h.77v-2l.28-1a2.64,2.64,0,0,1-1.33-.93l-2.24.74a4.66,4.66,0,0,1-1.89,1.61l-.14,1.07-1.61.49-.28,1.42-1,.48v.74a5,5,0,0,0-2,1.75l-1,.44L688,132.77l-3.43,2.39-1.12,1.32-3,2.2-.77,1.17-4.14,2-4.62,3.81-1.54.29a6.64,6.64,0,0,0-2.17,1h-.42c-.8,0-1.43-.54-1.89-1.61q-5.4-1.47-5.68-4.2l1.12-.49a10,10,0,0,1-1.12-3.91l-.77-.39.49-.54a1.91,1.91,0,0,0,.42-1c.09-.47.24-1.13.42-2l1-3.71a1.27,1.27,0,0,1-.14-.69,1.93,1.93,0,0,1,.42-1.12,3.68,3.68,0,0,1-.28-1.08,2.81,2.81,0,0,1,.28-1l.56-.1a3,3,0,0,0,1.19-1.9.88.88,0,0,0-.45-.78c-.31-.2-.46-.33-.46-.39,0-.23.26-.4.77-.49-.7-.1-1-.31-1-.64s.49-.49,1.47-.49v-.19a2.81,2.81,0,0,1,.88-2,4,4,0,0,0,1-1.24l-1-.2,1.9-2.1v-.49a4.45,4.45,0,0,1,2-3.61l-.14-1.81.63-.29a1.28,1.28,0,0,1-.49-1c0-.19.3-.29.91-.29v-1.61c.46-.1.7-.26.7-.49a.94.94,0,0,0-.14-.54,20.51,20.51,0,0,1,2-1.61,8.64,8.64,0,0,0,2-2h.42c1.08,0,1.61-.18,1.61-.54,0-.13-.14-.29-.42-.49,1.92,0,2.92-.26,3-.78l2.6-.93,7.42.44v.39l6,.88h.56c.88,0,1.33.28,1.33.83l.7-.19a1.54,1.54,0,0,0,1.61.88l.7-.1,1.26.88,3,.54v.87a26.87,26.87,0,0,1,5.18-1.61v1.61h-.7l1.4.49-.28.2,1.13,2.54-1.27,1-.56,1.66a6.54,6.54,0,0,1-1.33,2l.91,1.27c-.09.1-.36.36-.8.79a3,3,0,0,0-.67,2.24c.28.1.42.26.42.49l-.28.83.14.68-.42,1.08.28.93-.84.68.28,2.2-.42.29.42.44-.42.29a.44.44,0,0,1,.14.39,1.27,1.27,0,0,1-.42.88l.42.64-.7.88c-.37.16-.56.63-.56,1.41l.56,1.27-1.33,1.22a3.81,3.81,0,0,0,1.33,1.32,8.32,8.32,0,0,0-1.75,3.86l1.19.19-.14.54a1.12,1.12,0,0,1,.14.68,3.52,3.52,0,0,1-1.05,2H704l.42,1.51,2.87.19,1,1.27c-.28.13-.42.25-.42.35,0,.26.47.58,1.4,1h-.13c-.19,0-.29,0-.29.1S709.19,144,710,144.49Zm-7.36-35.94-.84-1.81-2.31-.49-4-2.49a4,4,0,0,0-1.48-.39,5.39,5.39,0,0,0-1.12.2l-.7-.49h-2.31l-.7-.63-1.61.44-.7-.44-1.19.24-2.24-.24a18.34,18.34,0,0,0-5.05,1.12l.28.39-1.26.29-.28.39-1.61.15v.59a9.35,9.35,0,0,0-3.29,3.17,27.19,27.19,0,0,1-2.59,5.13l1.12.39-1.82,1.12.56.78a4.33,4.33,0,0,0-1.26,3.08v.53l-1,1.08v1.71a3,3,0,0,0-1.26,1.8l-.56.4v1.8l-.49.49a9.42,9.42,0,0,1-.56,2.69l.77,1.22a5.39,5.39,0,0,0-2,1.22l.56.78-.84.78,1.12,2-1.26,1.22.14,2.4-.42,1.12.7.29.28.68a5,5,0,0,1,2,1.13l3.29-.54a3.57,3.57,0,0,1,3.15-1.56l-.28-.73,2.28-.42c.07,0,.17-.2.31-.56a2.33,2.33,0,0,1,1.26-1h.28q.42,0,.42-.39l2.59-2.1h-.56l1.55-1a7.13,7.13,0,0,1,2.31-.93l1-1.91c1.77-.52,2.77-1.22,3-2.09h.84l1.4-1.27-.28-.83,1.33-.2a1,1,0,0,1-.28-.49c0-.1.33-.46,1-1.1s1.17-1.16,1.54-1.58l.63.19a2.49,2.49,0,0,1,1.54-1.8,2.28,2.28,0,0,1,1.13-1.25,3,3,0,0,1,1.19-.46h1l.14-1.22c.18-.13.28-.26.28-.4s-.14-.39-.42-.58a6.89,6.89,0,0,1,2-1.81l.28-1.07,1-.54-.28-.88a4.26,4.26,0,0,0,1.05-1.8l1.26-.88Z"/>
        <path d="M750,81.89a4.7,4.7,0,0,1-2.45,1.66v.63l-1.26,1a1.8,1.8,0,0,1-1.12.59,2.94,2.94,0,0,1-.77-.2l-3.85,3.22-1,1.08-3.43.73-1.75,1.81-1.61.49a15.42,15.42,0,0,0-3.15,1.9l-.84-.39-.14-1.22,3.29-1c.47-1.62,1.06-2.54,1.79-2.76s1.08-.34,1.08-.41v-.39l.7-.29.28.09.35-.73h.56l-.56-.88h2.24V85.36l1.06-.2.7-.78,1.12-.29,1-1.32a.91.91,0,0,0,.84-.59H744l.14-1a3.48,3.48,0,0,0,1.75-2C748.14,79.68,749.51,80.59,750,81.89Zm14.22,50.29-.28,1-1.33.68-.56,1.22-2,.39a4.89,4.89,0,0,1-2,2.49l-1.75.44-1.54,1.18a11.76,11.76,0,0,0-2.46,1.8h-1a4.81,4.81,0,0,1-3.15,1.13c-1,.87-1.61,1.4-1.75,1.56a9.73,9.73,0,0,1-2.7.71c-1.09.14-1.78.25-2.06.31l-.56.59h-2.32l-1.26.68-3.57-1.85-2-3.23-.28-5.17-.42-1,1.4-8.2.91-.49-.42-5.12a4,4,0,0,1,.39-1.74,12.49,12.49,0,0,0,.73-2.22l.56-.24a4.85,4.85,0,0,0-1-2.79l.56-1.32v-1.85l.7-.64a10.16,10.16,0,0,0-.49-1.58,8,8,0,0,1-.35-1c0-.52.19-.79.56-.79a.48.48,0,0,0,.28.1,5.9,5.9,0,0,1-1-2c0-.49.33-.73,1-.73a3,3,0,0,1,1,.27,3,3,0,0,0,1.08.27,3.17,3.17,0,0,0,.7-.2c0-.55.33-.83,1-.83s.88.07,1,.22a13.63,13.63,0,0,1,.39,1.88l1.54.49-1.26,1.12-1.47,6.4,1.19,1.61a2.24,2.24,0,0,1-1.34,1.9l-.42,1.27.42,1.13-1.68,4.1.14.49-.7,3.32v2.39l-1,1.61.28,1.37-.28,2.29a7.85,7.85,0,0,0,1.19,4.49l-.14.54,1.26.59,1.47-.3,1.69.49,2-.68a7.91,7.91,0,0,1,2.45-.73l1-.69.28.3.84-.79,1.47-.29a10.36,10.36,0,0,1,3.57-1.32,2.91,2.91,0,0,1,2-.78l.84-.93,1.61-.09-.35-1.08h.63l.28-.53,3-1.08.28-1.22,2.73.1A3.56,3.56,0,0,1,764.2,132.18Z"/>
        <path d="M856,130.18c.19.52-.39,1-1.75,1.56l.21.34c0,.33-.63,1-1.89,2.08s-1.89,1.86-1.89,2.42l-1.54.29c0,1.37-.91,2.17-2.59,2.39a.75.75,0,0,1-.7.59h-.28c-.14.55-.68.83-1.61.83l-.85,1.17-2,.29-1.68.78a4.29,4.29,0,0,1-.91.25l-3.15.39-1.12-.1-1,.1-.42-.39-1.26-.1-1.61-1.41h-.7a1.23,1.23,0,0,1-.56-1.08c-1.55-1.17-2.32-2.08-2.32-2.73v-.78l-1-1.32v-.59l.7-.29-.56-1.42-1-1.8.21-2.69-1.47-1.61v-2.49q-2-7.27-2-8.89v-.39a3.74,3.74,0,0,1-.28-1.12,1,1,0,0,1,.14-.59,5.27,5.27,0,0,1-1.68-2.78l-.7-.44-3,2.2-1.47,1.41-5,4.2-2,2.49a25.61,25.61,0,0,1-1.68,2.37,14.82,14.82,0,0,1-2.8,2.22l.42.93-1,1.9-1.12.1v.88h-.77l-2.74,2.3a1.92,1.92,0,0,1-1.82,1.9,5.54,5.54,0,0,0-1.12,1.86,1.75,1.75,0,0,1-1.61,1.26l-.56.4a15,15,0,0,1-2.49,2.46,24.38,24.38,0,0,1-3.25,1.93,2.61,2.61,0,0,1-1.75,2l-.14.49a2.09,2.09,0,0,1-.7,1.29,7.71,7.71,0,0,1-3.44,1.1c-.7-.06-1.23-.62-1.61-1.66a2.74,2.74,0,0,0-1.68-1.9l-.42-.64,1.12-1.27-.14-1.22.7-.48-.7-.88.14-1.22-1.12-2.2,1-1.32-.56-1.37a7.06,7.06,0,0,0,1-4.1v-.54q0-.24-.84-1.17c.75-.42,1.12-.83,1.12-1.22l-.28-1.56.84-3.81-.56-.73.14-1.56-.7-.93.56-3.18-.28-1.12.42-1.81-.42-2.58,1-1.32a14.57,14.57,0,0,1,2.84.73,1.47,1.47,0,0,1,.35.9,17.6,17.6,0,0,1,.1,2.27l1.2,1.32-.42,1.91.55,4.1-1,2.2.43,2.58v1.22L782,125.25l.91,2.1a8.27,8.27,0,0,0-1,2.73l.7,1.17a10.11,10.11,0,0,0-1.12,3.91l.14,3.61.42.49,1.76-.58h1.4l.77-2.2c1.07-.23,1.72-.6,2-1.12.14-.78.86-1.18,2.17-1.18a2,2,0,0,1,1-1.51c.37,0,.82-.47,1.33-1.42a10.64,10.64,0,0,0,2.31-2.09v-1.37h.14a2,2,0,0,0,1.3-.71,2.57,2.57,0,0,1,1.85-.71,3.74,3.74,0,0,1,1.27-1.8l2-1.71,1.82-2.79a3.92,3.92,0,0,1-.28-1q0-.3.42-.3c1.91-.87,2.87-1.74,2.87-2.58V115c1.45-.39,2.17-.75,2.17-1.08a1.26,1.26,0,0,0-.21-.56,1.46,1.46,0,0,1-.21-.46c0-.33.19-.49.56-.49a2.77,2.77,0,0,1,1.12.29c.7-1.79,1.78-2.68,3.22-2.68a6.14,6.14,0,0,1,1.27.19,2.67,2.67,0,0,1,1.26-2.29c.18-.43,1.3-.93,3.36-1.52l.7-.78h.56a6.33,6.33,0,0,0,2,1.42l.28.68.7.2.28,1.9,1.89.78-.63,1.71,1,3.13v2.88l1,3.41.42,3.57,1.48,3.32.28,3.32c0,.07.29.38.73,1a5.39,5.39,0,0,1,1,2.22l.63.3v1.51l1.26,1-.28.73,1,.39v.49a5.45,5.45,0,0,0,4.48.19,2.32,2.32,0,0,0,.7.2,1.71,1.71,0,0,0,1.26-.78c1.36-.1,2-.36,2-.78V138c.14-.23,1.1-.55,2.88-1a7,7,0,0,1,1.47-1l-.14-.25a2.5,2.5,0,0,1,.52-.56,11.63,11.63,0,0,1,1.37-.88,4.24,4.24,0,0,0,1.33-1.05l.77-1.07c.61-.59,1.52-1.53,2.73-2.83l2-.69h1.33Z"/>
      </g>
    </g>
  </g>
</svg>
