<svg xmlns="http://www.w3.org/2000/svg" xmlns:xlink="http://www.w3.org/1999/xlink" width="205" height="220" viewBox="0 0 205 220">
  <defs>
    <style>
      .cls-1 {
        fill: url(#linear-gradient);
      }

      .cls-2 {
        fill: #f27c49;
      }
    </style>
    <linearGradient id="linear-gradient" x1="104.16" y1="238.75" x2="99.49" y2="-3.34" gradientUnits="userSpaceOnUse">
      <stop offset="0" stop-color="#f27c49"/>
      <stop offset="0.24" stop-color="#f16942"/>
      <stop offset="0.73" stop-color="#ef392f"/>
      <stop offset="1" stop-color="#ed1c24"/>
    </linearGradient>
  </defs>
  <g id="fire">
    <g>
      <path class="cls-1" d="M20.68,43.23c10.63,48.65,25.43,84.5,47.81,97C53.55,83.5,63.78,34.46,127.62,1.93c.19,43.49,9.2,83.59,30.83,118.82,7.05-20.24,9.38-40.28,3.68-60,55.9,93.09,55.4,147-9.35,156.17l-68.45,1.13C15,215.24-22.63,175.92,20.68,43.23Z"/>
      <path class="cls-2" d="M96.5,176.2c12.9-13.57,18.51-32.15,20.93-52.9,20.4,24.46,28.3,44.31,18.67,57.71,7.68-5.22,15.37-10.73,21.81-17.46,4.54-4.73,8.36-10.22,9.28-16.84.34,2,1.16,3.74,1.63,5.69s1,4.12,1.38,6.2c.78,3.85,1.42,7.73,1.85,11.63a71.31,71.31,0,0,1-.19,19.9c-1.85,10.93-7.93,20.08-18.43,24.28-5.33,2.13-10.16,2.25-15.83,2.25H103.53c-5,0-10.08.71-15-.11a36.1,36.1,0,0,1-7.84-2.48,44.61,44.61,0,0,1-13.53-8.83c-10.26-9.73-15.7-23.53-19-37-.64-2.6-1-5.32-1.73-7.88.18.3,4.6-.31,5.12-.33,2.1-.07,4.2-.07,6.3,0a69.85,69.85,0,0,1,12.22,1.56,52,52,0,0,1,22,10.41A56.65,56.65,0,0,1,96.5,176.2Z"/>
    </g>
  </g>
</svg>
