<svg xmlns="http://www.w3.org/2000/svg" xmlns:xlink="http://www.w3.org/1999/xlink" width="1920" height="1080" viewBox="0 0 1920 1080">
  <defs>
    <style>
      .cls-1 {
        fill: url(#linear-gradient);
      }

      .cls-2 {
        fill: url(#linear-gradient-2);
      }

      .cls-3 {
        fill: #f27c49;
      }
    </style>
    <linearGradient id="linear-gradient" y1="540" x2="1920" y2="540" gradientUnits="userSpaceOnUse">
      <stop offset="0" stop-color="#895ecc"/>
      <stop offset="0.1" stop-color="#8255cc"/>
      <stop offset="0.44" stop-color="#703dcc"/>
      <stop offset="0.74" stop-color="#652ecc"/>
      <stop offset="1" stop-color="#6129cc"/>
    </linearGradient>
    <linearGradient id="linear-gradient-2" x1="224.54" y1="1011.41" x2="218.13" y2="678.86" gradientUnits="userSpaceOnUse">
      <stop offset="0" stop-color="#f27c49"/>
      <stop offset="0.24" stop-color="#f16942"/>
      <stop offset="0.73" stop-color="#ef392f"/>
      <stop offset="1" stop-color="#ed1c24"/>
    </linearGradient>
  </defs>
  <g id="background">
    <rect class="cls-1" width="1920" height="1080"/>
    <g>
      <g>
        <path d="M802.15,222.71l-1,2.09.56.88-.49,2.35a4.25,4.25,0,0,1-1,1.56v1.17l-1.05,2-.84.88a9.36,9.36,0,0,0-1.4,2.54l-1,.29-.56,1.32-1.54.69-1.19,1.8-2.1.69-.21,1.32-1.82.48-1.72,1.57a5.25,5.25,0,0,1-1.89.68,10.15,10.15,0,0,0-2,.59c-.23,1-1.56,1.62-4,1.75a3,3,0,0,1-2,.74,5.18,5.18,0,0,1-1.12-.2,9.85,9.85,0,0,1-3.65,1.47l-1.12,1.22L769,249.8l-.42.59-2.1-.59-5-.34a16.75,16.75,0,0,0-3.71-3.56l.56-1.32-2-3.61.84-1.18-.84-2.73.84-1.56a9.74,9.74,0,0,0-.21-1.3,9.26,9.26,0,0,1-.21-1.34c0-.68.49-1.24,1.48-1.66v-.54a3.53,3.53,0,0,1,.84-2.19h.84a2.41,2.41,0,0,0,1-1.91l-.42-.68.42-1.51v-1a3,3,0,0,0,1.26-2.2l-.42-1.61a1.61,1.61,0,0,1,.42-1.17c1.44-.52,2.17-1,2.17-1.52a1.51,1.51,0,0,0-.56-1l1.4-1.71a2,2,0,0,1,.88-.63,5.07,5.07,0,0,0,.73-.35l-.28-1c1.5-.1,2.24-.64,2.24-1.61a4.37,4.37,0,0,0-.42-1.81q4.77,0,6.31-3.42h.91a3.16,3.16,0,0,1,1.4-.68,12.34,12.34,0,0,1,1.22.24,17.19,17.19,0,0,0,3.4.25l2.24-.69v.69a10.61,10.61,0,0,1,3.65,1.12h2c.46.65.91,1,1.33,1l.28-.1a10,10,0,0,0,3.29,2.49l.7,1.22,1.33.39,2.24,2.29,2.31,4.59v.93Zm-4.55,2.78c.56-.49.84-.9.84-1.22a1,1,0,0,0-.49-.71c-.33-.25-.49-.4-.49-.46h.84a2,2,0,0,0-1-1l.28-.29-1-1.61.28-2.2-1.33-1.56c-1-.46-1.54-.8-1.54-1v-.29c0-.26-.18-.43-.53-.52s-.52-.21-.52-.41v-.1a6.42,6.42,0,0,1,.63-1.27l-.91-.49-1.4-.09-.56-.74.56-.58-1.89-.68-1.41-.93-4.06-1.17-1.68-.25c-2.75,0-4.11.54-4.06,1.61l.21,3.32-2.87.1-4.49,1.9-.42,1.08-1.61.73-.7,2.88-1.4.69c-.28.09-.42.57-.42,1.41a4.81,4.81,0,0,0,.28,1.81l-1.75.68c-.37.13-.56.77-.56,1.91,0,.52-.44,1-1.33,1.51v1l-1.26,1.41v.88l-.42.64.28,1.36L759.85,236l.63,1.07v2.34l-.63,1.66.14,2.45,2.1,1.9a7.45,7.45,0,0,0,2.52,1.07l.42.49,1-.19.91.19,1.68-.49,3.43.1,1.62-.29.42-.68,1.47.09c1.49,0,2.24-.34,2.24-1l2,.39.42-.78,1.33-.1.7-1.12c1-.56,1.59-1,1.68-1.37h2.31l.7-1,2.46-1.51.91-.93a4.06,4.06,0,0,1,1.26-.83l2-.73a9.35,9.35,0,0,1,1.26-2.78l-.28-.88,2-.64-.28-.49c.56-.55,1.07-1,1.54-1.41h-.7c.37-.36.56-.65.56-.88a1.75,1.75,0,0,0-.21-.73,1.87,1.87,0,0,1-.21-.59,2.8,2.8,0,0,1,.42-1.37,2.82,2.82,0,0,0,.42-.92C798.16,225.75,798,225.59,797.6,225.49Z"/>
        <path d="M870.8,245.9a4.85,4.85,0,0,1,.14,1.27c0,1.53-1.05,2.29-3.15,2.29-1.4,0-2.36-.83-2.87-2.49l-1-3.07V243a8.72,8.72,0,0,0,.14-1.66,4.06,4.06,0,0,0-1.47-2.64l1-1.61-.56-2.39.56-1.17v-1.62l.35-1.41-.63-1.56.63-.93v-3.71l.14-4.79L863,216.31l.56-1.32-1.26-3.81V210l-2.32-.68-2.59,1.66a6.85,6.85,0,0,1-1.4.63l-2.45.73-4,4-1.61.29-3.58,4.1v.49h-1l-.42.88-1.54,1a4.18,4.18,0,0,0-1.33,1.9l-1.47,3.47-2.17,1.95a4.68,4.68,0,0,0-1,1.66l-1.4.93-.63,2.59-3,2-.28,2.78h-.56l-1,1.91-2.31,2.88A20.39,20.39,0,0,0,823,248.1l-.7-.2h-.91l-.42-.54L819.74,244l-.28-5.51-.42-1.61.42-2-.14-3.46.7-.2,1-8.49.42-1.62-.14-1.22.77-.29-.35-.68.63-3.52L823,214l-.42-1.46.42-.73-.42-.59.42-3.32-.7-.49.42-.68-.14-3.81-.91-1.71h.91v-.88l-1.33-4.1v-2l-.56-.93-.7-3.17a16,16,0,0,0-2.31-4.1l1.61-1.61-.28-.3c1.12,0,1.68.41,1.68,1.22l2,1.27.56,1.17a6.81,6.81,0,0,0,1.75,1.66l-.35.88.91,1.81-.91.88,1.33.73-.14,2.59.14,5,.84,2.54-.56,1.07.14,1.91-.56,1.61.42,2.49-1,2.49.56.68-.28,6.11.28.92-.56.49-.63,3.71-.7,1.08.56,1.22-.28.58-.28,3.32-1.4,2.89c1,.84,1.54,1.41,1.54,1.7L823,237.5a4,4,0,0,1,.7,2.39l1.33-.73.56-1.27,2.24-3.22,1-2.3q2.31-.48,2.31-2.1a9.63,9.63,0,0,0,2.11-2.39l.63-1.27a5.29,5.29,0,0,1,1.4-1.61l.14-1.32-.42-.29,1-.59.28.3,2.31-2c.75-.26,1.12-.66,1.12-1.22v-.39q1.89-.19,1.89-1.8l.42-.2V217l1.19-.19.14-1.32h1l-.14-.78h1v-.64a5,5,0,0,1,1.19-.49c.1,0,.14.07.14.2V214l.15-.87h.41c1.13,0,1.69-.64,1.69-1.91l1.75-1,.28.39a3.61,3.61,0,0,0,1.33-2l1-.29.42-.83,1.12-.1a4,4,0,0,1,1.61-.51,10.16,10.16,0,0,0,1.12-.17l-.28-.39a16.27,16.27,0,0,1,3.57-1.12,3.93,3.93,0,0,1,2.32,1.31c.7.07,1.05.36,1.05.88l1.26.74q0,.67,2.31,3.36v7.82l-.28,4.1.56,1v7.32l-.28,1.32v2.49l.28,2.1-.56,2.49c.37.26.65,1.25.84,3l1.4,1.22v1.22Z"/>
        <path d="M1008.51,231.3c.19.52-.39,1-1.75,1.56l.21.34c0,.33-.63,1-1.89,2.08s-1.89,1.86-1.89,2.42l-1.54.29c0,1.37-.91,2.16-2.59,2.39a.75.75,0,0,1-.7.59h-.28c-.14.55-.68.83-1.62.83l-.84,1.17-2,.29-1.68.78a4.29,4.29,0,0,1-.91.25l-3.15.39-1.12-.1-1.05.1-.42-.39-1.26-.1-1.61-1.42h-.7a1.23,1.23,0,0,1-.57-1.07c-1.54-1.17-2.31-2.08-2.31-2.74v-.78l-1-1.31v-.59l.7-.29-.56-1.42-1.05-1.81.21-2.68-1.47-1.61V226c-1.35-4.85-2-7.82-2-8.89v-.39a3.81,3.81,0,0,1-.28-1.12,1,1,0,0,1,.14-.59,5.24,5.24,0,0,1-1.68-2.78l-.7-.44-3,2.19-1.48,1.42-5,4.2-2,2.49a28.75,28.75,0,0,1-1.68,2.37,15.7,15.7,0,0,1-2.8,2.22l.42.93-1,1.9-1.12.1v.88h-.77L950,232.76a1.93,1.93,0,0,1-1.82,1.91,5.59,5.59,0,0,0-1.12,1.85,1.75,1.75,0,0,1-1.61,1.27l-.56.39a14.69,14.69,0,0,1-2.49,2.47,24.38,24.38,0,0,1-3.25,1.93,2.62,2.62,0,0,1-1.75,2l-.14.49a2.13,2.13,0,0,1-.71,1.29c-.42.41-1.56.77-3.43,1.1-.7-.07-1.24-.62-1.61-1.66a2.72,2.72,0,0,0-1.68-1.9l-.42-.64,1.12-1.27-.14-1.22.7-.49-.7-.88.14-1.22L929.36,236l1-1.32-.56-1.37a7.06,7.06,0,0,0,1-4.1v-.54q0-.24-.84-1.17c.75-.42,1.12-.83,1.12-1.22l-.28-1.56.84-3.81-.56-.73.14-1.57-.7-.92.56-3.18-.28-1.12.42-1.81-.42-2.59,1-1.31a13.77,13.77,0,0,1,2.84.73,1.47,1.47,0,0,1,.35.9,17.5,17.5,0,0,1,.1,2.27l1.19,1.32-.42,1.9.56,4.11-1,2.19.42,2.59v1.22l-1.33,1.47.91,2.1a8.27,8.27,0,0,0-1,2.73l.7,1.17a10,10,0,0,0-1.12,3.91l.14,3.61.42.49,1.75-.59h1.41l.77-2.19c1.07-.23,1.72-.6,2-1.13.14-.78.86-1.17,2.17-1.17a2,2,0,0,1,1-1.51c.37,0,.82-.47,1.33-1.42a10.42,10.42,0,0,0,2.31-2.1v-1.36h.14a2,2,0,0,0,1.3-.71,2.57,2.57,0,0,1,1.85-.71,3.78,3.78,0,0,1,1.27-1.81l2-1.71,1.82-2.78a3.92,3.92,0,0,1-.28-1q0-.3.42-.3c1.91-.88,2.87-1.74,2.87-2.58v-1.23c1.45-.39,2.17-.74,2.17-1.07a1.26,1.26,0,0,0-.21-.56,1.47,1.47,0,0,1-.21-.47c0-.32.19-.48.56-.48a2.62,2.62,0,0,1,1.12.29c.7-1.79,1.78-2.69,3.22-2.69a6.42,6.42,0,0,1,1.27.2,2.69,2.69,0,0,1,1.26-2.3c.18-.42,1.3-.92,3.36-1.51l.7-.78h.56a6.33,6.33,0,0,0,2,1.42l.28.68.7.19.28,1.91,1.89.78-.63,1.71L978,216.5v2.88l1,3.42.42,3.57,1.47,3.32.28,3.32.74,1a5.39,5.39,0,0,1,.95,2.22l.63.29V238l1.26,1-.28.74,1,.39v.49a5.45,5.45,0,0,0,4.48.19,2.32,2.32,0,0,0,.7.2,1.71,1.71,0,0,0,1.26-.78c1.36-.1,2-.36,2-.79v-.24c.14-.23,1.1-.55,2.88-1a7.33,7.33,0,0,1,1.47-1l-.14-.25a2.12,2.12,0,0,1,.52-.56,11.63,11.63,0,0,1,1.37-.88,4.24,4.24,0,0,0,1.33-1.05l.77-1.07c.6-.59,1.52-1.53,2.73-2.83l2-.69h1.33Z"/>
        <path d="M1060.28,222.71l-1,2.09.56.88-.49,2.35a4.55,4.55,0,0,1-1,1.56v1.17l-1,2-.85.88a9.66,9.66,0,0,0-1.4,2.54l-1,.29-.56,1.32-1.54.69-1.19,1.8-2.1.69-.21,1.32-1.82.48-1.72,1.57a5.17,5.17,0,0,1-1.89.68,10.39,10.39,0,0,0-2,.59c-.23,1-1.56,1.62-4,1.75a3,3,0,0,1-2,.74,5.28,5.28,0,0,1-1.12-.2,9.87,9.87,0,0,1-3.64,1.47l-1.12,1.22-1.89-.79-.42.59-2.11-.59-5-.34a16.75,16.75,0,0,0-3.71-3.56l.56-1.32-2-3.61.84-1.18-.84-2.73.84-1.56a9.74,9.74,0,0,0-.21-1.3,9.26,9.26,0,0,1-.21-1.34c0-.68.49-1.24,1.47-1.66v-.54a3.53,3.53,0,0,1,.84-2.19h.84a2.41,2.41,0,0,0,1-1.91l-.42-.68.42-1.51v-1a3,3,0,0,0,1.26-2.2l-.42-1.61a1.61,1.61,0,0,1,.42-1.17c1.45-.52,2.17-1,2.17-1.52a1.47,1.47,0,0,0-.56-1l1.4-1.71a2,2,0,0,1,.88-.63,5.07,5.07,0,0,0,.73-.35l-.28-1c1.5-.1,2.25-.64,2.25-1.61a4.37,4.37,0,0,0-.42-1.81q4.75,0,6.3-3.42h.91a3.16,3.16,0,0,1,1.4-.68q.14,0,1.23.24a17,17,0,0,0,3.39.25l2.25-.69v.69a10.56,10.56,0,0,1,3.64,1.12h2c.47.65.91,1,1.33,1l.28-.1a10,10,0,0,0,3.29,2.49l.7,1.22,1.33.39,2.25,2.29,2.31,4.59v.93Zm-4.56,2.78c.57-.49.85-.9.85-1.22a1,1,0,0,0-.49-.71c-.33-.25-.5-.4-.5-.46h.84a2,2,0,0,0-1-1l.28-.29-1-1.61.28-2.2-1.33-1.56c-1-.46-1.54-.8-1.54-1v-.29c0-.26-.17-.43-.52-.52s-.53-.21-.53-.41v-.1a6.42,6.42,0,0,1,.63-1.27l-.91-.49-1.4-.09-.56-.74.56-.58-1.89-.68-1.4-.93-4.06-1.17-1.69-.25c-2.75,0-4.11.54-4.06,1.61l.21,3.32-2.87.1-4.48,1.9-.42,1.08-1.61.73-.7,2.88-1.41.69c-.28.09-.42.57-.42,1.41a5,5,0,0,0,.28,1.81l-1.75.68c-.37.13-.56.77-.56,1.91,0,.52-.44,1-1.33,1.51v1l-1.26,1.41v.88l-.42.64.28,1.36L1018,236l.63,1.07v2.34l-.63,1.66.14,2.45,2.1,1.9a7.45,7.45,0,0,0,2.52,1.07l.42.49,1-.19.91.19,1.69-.49,3.43.1,1.61-.29.42-.68,1.47.09c1.49,0,2.24-.34,2.24-1l2,.39.42-.78,1.33-.1.7-1.12c1-.56,1.59-1,1.69-1.37h2.31l.7-1,2.45-1.51.91-.93a4.06,4.06,0,0,1,1.26-.83l2-.73a9.61,9.61,0,0,1,1.26-2.78l-.28-.88,2-.64-.28-.49c.56-.55,1.08-1,1.54-1.41h-.7c.38-.36.57-.65.57-.88a1.79,1.79,0,0,0-.22-.73,1.87,1.87,0,0,1-.21-.59,2.72,2.72,0,0,1,.43-1.37,3.08,3.08,0,0,0,.42-.92C1056.29,225.75,1056.1,225.59,1055.72,225.49Z"/>
        <path d="M1091.17,193.8l-.56.68a2.77,2.77,0,0,1-1,1.42l1,2.68-.7.88.56.44-.28.78.42.59q-1.26.15-1.26.93a13.83,13.83,0,0,0,.56,1.9l-.7,1.37,1,.93a3.92,3.92,0,0,0-1,2.29l-.63,9.28.77.93-.77,2.29.77,2.1-.77,1.27.77,1-.14,1.07.14.73-.77.2a3.22,3.22,0,0,1,.63,1.8c0,.53-.45.82-1.33.88.65.49,1,.9,1,1.22,0,.59-.42.88-1.26.88s-1.26-.7-1.26-2.1v-2.19a22.93,22.93,0,0,0-1-4.2l.7-1.27-.7-1.42.7-3.61-1.27-.49.57-1.22-.29-1.27v-.93l.57-.19-.85-1.42.28-.68v-.2a2.82,2.82,0,0,1,.85-1.61l-.56-.88v-1.41l-.57-.2,1.13-.78-.85-1.61.57-1.52-1-.88,1-.83-.28-1.46.28-1a1.23,1.23,0,0,1-.43-.78,2.72,2.72,0,0,1,.43-1l-.85-.2v-2.1l-1.12-.88.14-2,1.55.2,2-.39,3.15.78Zm2.17,52.1-1.75,1-2-.4-1.75.49-1.4-.49H1085l-.84-2.19.56-1.52,1.13-.78h.35a1.07,1.07,0,0,0,.59-.32c.26-.21.48-.38.67-.51a16.18,16.18,0,0,0,2.59.64h.14q0-.11-.42-.39h.28a9,9,0,0,1,1.68.48,7.66,7.66,0,0,1,1.61,2.4.51.51,0,0,0-.42.49A2.56,2.56,0,0,0,1093.34,245.9Z"/>
      </g>
      <g>
        <path d="M667.92,373.45l-.7,1.07-1.82.19h-4.34l-2,.35-1.68-.35-8.9.54-3-.54a22.94,22.94,0,0,1-5.32,1h-4.28l-2.59-.68c0,.32-.35.55-1,.68a18.54,18.54,0,0,0-3.82.39,16.9,16.9,0,0,1-3.46.39l-2.88-.78-2.45.78-.28.64h-1.26l-.77,1-.56,6.5.56.92-.28,1.08.14,2.88-.42,2.93v.88a1.15,1.15,0,0,1-.39.95,2.83,2.83,0,0,0-.59,1.59l1.12,1.27-.28,1.61-1,.49a2.6,2.6,0,0,0,.84,1.51l-.84,1v1.12L614.48,404l.7,2.83L614.9,411l-1,2.58a1.29,1.29,0,0,1,.28.59,1.21,1.21,0,0,1-.25.66.72.72,0,0,0-.07.73,1.45,1.45,0,0,1,.18.61,3.62,3.62,0,0,1-.7,1.3c-.47.66-.63,1.08-.49,1.24s.21.59.49,1.56a4.83,4.83,0,0,0-.7,2,13.29,13.29,0,0,0,.28,2.2,7.61,7.61,0,0,1-1.51-.14,5.82,5.82,0,0,0-.8-.15c-.75,0-1.13-1-1.13-2.88l.28-1.52a14.31,14.31,0,0,0-.28-2.39,15,15,0,0,1-.27-2.29l.84-7a7.48,7.48,0,0,1-1.12-1.47c0-.36.23-.67.7-.93a1.29,1.29,0,0,1-.57-.88c0-.19.28-.39.85-.58a3.52,3.52,0,0,1-.57-1.32,3.28,3.28,0,0,1,.5-1.44,4.89,4.89,0,0,0,.49-1l-.14-1.61a8.94,8.94,0,0,1,1.33-2.2c-.8,0-1.19-.44-1.19-1.32,0-1.53.28-2.39.84-2.59v-4.1l-.84-2,.84-4.2-.84-3,.84-2.34a2.08,2.08,0,0,0-3.3-.88l-2,.15a6.31,6.31,0,0,0-2.24.53l-1.75-.09-1.68.09v.35h-1.19a9.69,9.69,0,0,1-3.85-.64l-.29.64-3-.64-8.33-.19-3.29.68q-3.72-2.25-3.72-3a9.87,9.87,0,0,1,.56-1.61h2.31l10.16,1.42,2.45-.59,6.73.2,6.3.39,4.21-1.13h1.12l1.19-2.29,2,.44.42,1,.91-.29a8.77,8.77,0,0,0,3.29,1.71l2.31-.54a6.31,6.31,0,0,1,4,1.32l.84-.78,5.32-.73,3.29.19a8.52,8.52,0,0,0,2.59.44h.7a9,9,0,0,1,2.18-.34l2,.24a.9.9,0,0,0,.84-.34l2.87-.29,3.29.54a2.46,2.46,0,0,0,2,.17,9.44,9.44,0,0,1,1.71-.32l2.6.34,7.14-.1,3.15.4Z"/>
        <path d="M721,421.25a4.85,4.85,0,0,1,.14,1.27c0,1.53-1,2.29-3.15,2.29-1.4,0-2.36-.83-2.87-2.49l-1-3.07v-.93a8.8,8.8,0,0,0,.13-1.66,4.06,4.06,0,0,0-1.47-2.64l1-1.61-.56-2.39.56-1.17v-1.62l.36-1.41-.64-1.56.64-.93v-3.71l.13-4.79-1-3.17.56-1.32-1.26-3.81v-1.22l-2.31-.68-2.59,1.66a6.85,6.85,0,0,1-1.4.63l-2.45.73-4,4-1.62.29-3.57,4.1v.49h-1l-.42.88-1.54,1a4.18,4.18,0,0,0-1.33,1.9l-1.47,3.47-2.17,1.95a4.68,4.68,0,0,0-1,1.66l-1.4.93-.64,2.59-3,2-.28,2.78h-.56l-1,1.9-2.31,2.89a20.39,20.39,0,0,0-3.29,2.93l-.7-.2h-.91l-.42-.54L670,419.34l-.28-5.51-.43-1.62.43-2-.14-3.46.7-.2,1-8.5.42-1.61-.14-1.22.77-.29-.35-.68.63-3.52.7-1.42-.42-1.46.42-.73-.42-.59.42-3.32-.7-.49L673,382l-.14-3.81-.91-1.71h.91v-.88l-1.33-4.1v-2l-.56-.93-.7-3.17a15.74,15.74,0,0,0-2.32-4.1l1.62-1.62-.29-.29c1.13,0,1.69.41,1.69,1.22l2,1.27.56,1.17a6.63,6.63,0,0,0,1.75,1.66l-.35.88.91,1.81-.91.88,1.33.73-.14,2.59.14,5,.84,2.54-.56,1.07.14,1.91-.56,1.61.42,2.49-1,2.49.56.68-.28,6.11.28.92-.56.49-.63,3.71-.7,1.08.56,1.22-.28.58-.28,3.32-1.4,2.88c1,.85,1.54,1.42,1.54,1.71l-1.12,1.42a4,4,0,0,1,.7,2.39l1.33-.73.56-1.27,2.24-3.22,1-2.3q2.31-.48,2.31-2.1a9.71,9.71,0,0,0,2.1-2.39l.63-1.27a5.51,5.51,0,0,1,1.41-1.61l.14-1.32-.42-.29,1-.59.28.3,2.31-2c.74-.26,1.12-.66,1.12-1.22v-.39q1.89-.19,1.89-1.8l.42-.2v-.49l1.19-.19.14-1.32h1l-.14-.78h1v-.64a5,5,0,0,1,1.19-.49c.1,0,.14.07.14.2v.19l.14-.87h.42c1.12,0,1.69-.64,1.69-1.91l1.75-1,.28.4a3.64,3.64,0,0,0,1.33-2l1-.29.42-.83,1.12-.1a4,4,0,0,1,1.61-.51,10.66,10.66,0,0,0,1.12-.17l-.28-.39a16.27,16.27,0,0,1,3.57-1.12,3.84,3.84,0,0,1,2.31,1.31c.71.07,1,.36,1,.88l1.27.74q0,.68,2.31,3.36v7.82l-.28,4.1.56,1V407l-.28,1.32v2.49l.28,2.1-.56,2.49c.37.26.65,1.25.84,3l1.4,1.22v1.22Z"/>
        <path d="M778.25,412.85c.7.75,1,1.3,1,1.66s-.43.81-1.3,1.66a9.85,9.85,0,0,0-2,2.69l-1,.09-1.54,2.1-1.76.2-3.85,1.8-.7,1.08-1.19-.1-1.26,1h-2l-.42.48-1-.09a4.17,4.17,0,0,0-2.73,1l-.92-.48a8.07,8.07,0,0,1-2.38.48,5.93,5.93,0,0,1-2.59-.48,15.64,15.64,0,0,1-1.89.09l-.84-.49c-2.57-.09-4.3-.6-5.18-1.51v-1.22l-2.32-.88-.56-1a4.64,4.64,0,0,0-1.54-1.27v-.78l-1.61-4.74.28-3.37.56-1.9v-2.1l.77-1.81-.28-1.32a2,2,0,0,0,1-1.1,5.25,5.25,0,0,1,.84-1.49,21.29,21.29,0,0,1-.56-2.49l1.26-.73-1.26-1c.66-.74,1-1.22,1-1.41l-.7-3a5.47,5.47,0,0,1,.42-2.1,2.55,2.55,0,0,0,1.89.88,21.86,21.86,0,0,0,2.74-.39,1.49,1.49,0,0,1-.14-.69c0-.45.37-.86,1.12-1.22a17,17,0,0,1,3.15-4.59,2.2,2.2,0,0,0,1.33-2h.7l.7-1,.84-.25a4.24,4.24,0,0,1,1.47-1.46,9.48,9.48,0,0,0,3.86-2.3,4.2,4.2,0,0,0,1.19.1c.14,0,.51-.37,1.12-1.12,1.63-.39,2.49-.59,2.59-.59a1.88,1.88,0,0,1,1.26.59l1.33-.2.7.39h.84a2.88,2.88,0,0,0,2.87,1.61h.42a1.68,1.68,0,0,0,.91,1l-.63.19c1.64.56,2.46,1.84,2.46,3.86l-.43,1.12.43,2.79-.71.44-1.61,3L769.49,393l-.14,1.41a48.68,48.68,0,0,1-8.4,4,.94.94,0,0,1-.91.58,6.08,6.08,0,0,1-1.12-.19l-3.16,1.51h-1.89l-2.73.88-1.19-.49a15.37,15.37,0,0,0-2.94-.39,4.22,4.22,0,0,0-2.17,3.66l-1,.83a8,8,0,0,1-.7,2.59l-.77.29.77,3.62-.77.48.14,1.13-.14,1.36a13.12,13.12,0,0,0,.35,1.86c.24,1,.61,1.6,1.12,1.76-.23.45.23,1,1.37,1.66A12.18,12.18,0,0,0,748.9,421v.58l3.71.39,5.32.2,3.58-.3a17.88,17.88,0,0,1,3.15-1.31l1.12-1.18h1.33l.14-.48a15.71,15.71,0,0,0,3.4-1,.7.7,0,0,0,.31-.51,1.45,1.45,0,0,1,1.26-.58l.42-.64c2.11-.23,3.41-1.19,3.93-2.88A3.37,3.37,0,0,1,778.25,412.85Zm-11.77-22.8a4.65,4.65,0,0,0,1.89-1.22l.42-1.18a18.32,18.32,0,0,0,2-2.61,3,3,0,0,0,.28-1.39,8.46,8.46,0,0,0-1-2.93l-2.87-.68a10.92,10.92,0,0,1-1.47.19l-.84-.19a1.49,1.49,0,0,0-1.47.88,15.65,15.65,0,0,0-3.85.73l-.42.68a1.9,1.9,0,0,0-.57-.1,1.2,1.2,0,0,0-.7.2l-.28.22a1.16,1.16,0,0,0-.24.32l-.21.41-.21.44a4,4,0,0,1-.88.86l-1.05.87-2,2.69-1,.64a2,2,0,0,0-.77,1.26q-.29,1-3.78,4.69l1,.39.49.83,2.38.49a15.09,15.09,0,0,1,4.34-1.32l.42-.58a5.19,5.19,0,0,0,1.12.19,2,2,0,0,0,1.34-.58l1.68-.2,1.05-1.22h1l.7-1.07a6,6,0,0,0,3.57-1.22Z"/>
        <path d="M906.08,415.24l-.77,1.08a4.41,4.41,0,0,1-1.12,3.32c-1.17.68-1.75,1.22-1.75,1.61-.28.45-.7,1.06-1.26,1.8l-1.26.74a3.21,3.21,0,0,0-1.19,1.36L894,426.91a33,33,0,0,1-5,.64l-2.17-.74h-1.68l-1.47-.78-1.54-.09L876.94,424l-11.48-7.27-2.88-3.13-2.31-1.42A12,12,0,0,0,858,410a14.44,14.44,0,0,1-2.73-2.22,8.61,8.61,0,0,0-3.92-2.18l-2.74-3.81a25.78,25.78,0,0,1,1.06-3.07l2.73,1.32,1.54,1.17a39.82,39.82,0,0,0,4.34,2.1h1.82l.77.49a7.24,7.24,0,0,1,1.4-.1,5.09,5.09,0,0,1,1.62.29,14,14,0,0,1,4-1.19q2.49-.42,4-.81l.7-1h3.22c0-.29.33-.53.84-.7a8.6,8.6,0,0,1,.84-.27h.42a3.09,3.09,0,0,0,3-2.44,27.28,27.28,0,0,0,2.59-1l.91-.63a10.52,10.52,0,0,0,2-2.2h.28q1.4,0,2.87-3.71h.7l.28-.74-.28-1.66.28-1.7c0-.75-1.37-1.58-4.13-2.49a2.13,2.13,0,0,0-1.89-.93h-.42l-.84-.49q-3-.15-6.2-.46c-2.13-.22-3.4-.32-3.82-.32a14.59,14.59,0,0,0-5.74,1.46,24.85,24.85,0,0,0-3.78.3l.21.19a13.31,13.31,0,0,0-1.62.29,15.35,15.35,0,0,0-1.5.47c-.49.18-1,.41-1.68.68a10.93,10.93,0,0,1-1.72.61l-1.82.49-5,2.88-5,3.81v.68l-2.38,3.32-1.19,2.2q-2.31,2.64-2.31,4.1a1.82,1.82,0,0,0,.63,1.27,1.05,1.05,0,0,1-.77,1.12,2.94,2.94,0,0,0-1,2.1l.14.88a3,3,0,0,1-.42,1.52,6.47,6.47,0,0,0-1.61,1.71l.63,1.8-.63,2.1.35,1.52a4.9,4.9,0,0,0-1.05,3.07v.59a2.86,2.86,0,0,1,.28.73c0,.78-.87,1.33-2.6,1.66a2.51,2.51,0,0,1-1.82-1.9l-.56-1.27.42-1.71L831.2,414l.42-.88v-3.81l.14-1.31v-1.18a34.87,34.87,0,0,1,.28-4.63c.19-1.34.28-2,.28-2.06v-1.61l.28-.92v-2.79l.42-1.07-.42-1.42.42-3.42v-4.1l-.42-1.36.7-.93-.28-1.08-.42-5.71-1-3.32v-.78l.7-3.71-.56-1.61-.14-2.49a12,12,0,0,1-.28-1.91c0-1.33,1.1-2,3.3-2l.42.73.84-.34-.28,1.61.7,2.83-1,3,.28,3.91.7,1.61-.42,1.56.28,2.74-.56,2.1.7,2-.42.68.7,1.42-.42,2.49-.56,7.08a9.46,9.46,0,0,1,.28,1.51l-.28,1.42.28,1.9a3.37,3.37,0,0,1-.56,1.91,6.25,6.25,0,0,0,2,1l1.68-2.49-.14-.49q0-.58,2.76-4.9a28.57,28.57,0,0,1,6-6.91c.66-.1,1-.26,1-.49a.65.65,0,0,0-.27-.44,29.56,29.56,0,0,0,4-1.83,8.38,8.38,0,0,1,1-.68,9.14,9.14,0,0,1,1.19-.54,5.85,5.85,0,0,1,1.19-.34,2.63,2.63,0,0,0,1-.37,11.65,11.65,0,0,1,1.44-.66,25.48,25.48,0,0,1,3-.85q1.2-1.17,5.89-1.61l5.53-.49,10.09.49,1.54.63a10.75,10.75,0,0,0,2.45.49,57.37,57.37,0,0,0,5.6,3.56c0-.09-.14-.29-.42-.58l2,3.22-.36.78a2.21,2.21,0,0,1,1.06,1.61c0,.52-.54,1.26-1.62,2.2v.88l-1.54,3.42-2.17,2.19-1,.1a3.12,3.12,0,0,1-1.15,1.27,3.34,3.34,0,0,0-1.16,1.22,4.39,4.39,0,0,0-2.87,1.12c-.89.2-1.43.56-1.61,1.08a6,6,0,0,0-3.29,1.51.76.76,0,0,0,.41-.09h.21q0,.39-13.37,3.41a6.84,6.84,0,0,0-2.17-.53,1,1,0,0,0-1.13,1.12v.19l-.14.49,1.12.93.49,1.47c.19.68,1,1.25,2.39,1.7l2.45,3.42,3.71,1.61.14.49,1.61.59.56,1,.84-.09,4.35,3,5.32,1.52,3.29.68,2.73-.19,1.26-.39a15.87,15.87,0,0,0,4.35-1.23,16.91,16.91,0,0,0,2.24-1.07l2.59-3.42,1-.93a6.35,6.35,0,0,0,1.26-1.95,6.22,6.22,0,0,1,1.12-.19A1.48,1.48,0,0,1,906.08,415.24Z"/>
        <path d="M934.59,358.36a4.76,4.76,0,0,1-2.45,1.66v.63l-1.26,1a1.76,1.76,0,0,1-1.12.58A2.79,2.79,0,0,1,929,362l-3.85,3.22-1,1.08-3.44.73L919,368.86l-1.61.48a15.67,15.67,0,0,0-3.15,1.91l-.84-.39-.14-1.22,3.29-1c.47-1.63,1.06-2.55,1.79-2.76s1.08-.35,1.08-.41v-.39l.7-.3.28.1.35-.73h.56l-.56-.88H923v-1.42l1-.19.7-.78,1.12-.3,1-1.31a.91.91,0,0,0,.84-.59h.84l.14-1a3.43,3.43,0,0,0,1.75-2C932.75,356.14,934.13,357.06,934.59,358.36Zm14.22,50.29-.28,1-1.33.68-.56,1.22-2,.39a4.93,4.93,0,0,1-2,2.49l-1.75.44L939.36,416a12,12,0,0,0-2.45,1.81h-1a4.76,4.76,0,0,1-3.15,1.12c-1,.88-1.61,1.4-1.75,1.57a9.42,9.42,0,0,1-2.7.7c-1.09.15-1.78.26-2.06.32l-.56.59h-2.31l-1.27.68L918.55,421l-2-3.23-.28-5.17-.42-1,1.4-8.2.91-.49-.42-5.13a3.92,3.92,0,0,1,.39-1.73,12.49,12.49,0,0,0,.73-2.22l.56-.25a4.83,4.83,0,0,0-1-2.78l.56-1.32v-1.85l.7-.64a9.53,9.53,0,0,0-.49-1.59,7.44,7.44,0,0,1-.35-1c0-.52.19-.78.56-.78a.48.48,0,0,0,.28.1,5.9,5.9,0,0,1-1-2c0-.49.33-.73,1-.73a3.24,3.24,0,0,1,1,.26,3,3,0,0,0,1.09.27,3.18,3.18,0,0,0,.7-.19c0-.55.32-.83,1-.83s.87.07.94.22a13.23,13.23,0,0,1,.39,1.88l1.54.49L925,384.14l-1.47,6.4,1.19,1.61a2.24,2.24,0,0,1-1.33,1.9l-.42,1.27.42,1.12-1.68,4.1.13.49-.7,3.32v2.4l-1,1.61.28,1.36-.28,2.3a7.87,7.87,0,0,0,1.19,4.49l-.14.54,1.27.58,1.47-.29,1.68.49,2-.68a7.87,7.87,0,0,1,2.45-.74l1-.68.28.29.84-.78,1.47-.29a10.33,10.33,0,0,1,3.58-1.32,2.86,2.86,0,0,1,2-.78l.84-.93,1.61-.1-.35-1.07H942l.28-.54,3-1.07.28-1.22,2.73.1A3.21,3.21,0,0,1,948.81,408.65Z"/>
        <path d="M971,384.33l9.87.3,9.46-.3,2.31.1,1-.1h5.19c1,0,1.47.3,1.47.88s-.77,1.13-2.31,1.32a3,3,0,0,0-1.2-.19,3.62,3.62,0,0,0-1.82.48l-2-.29-3.85.1a14.81,14.81,0,0,1-5.32,1l-2.74-.34-1.4.93h-1.33v-.59l-2.45.79h-1.26l-.42.87a33.23,33.23,0,0,0-4.2-.39.75.75,0,0,1-.7.59,1.73,1.73,0,0,1-.84-.39l-2,.19-1.4,1-.42,4.88.28,2.93-.42,3.76.14,4.2.42,2v1.81l1.68,2.49v.44q0,1.71,2.88,3.27l.42.83,2.59.39,1.89,1.42,5.32.68,7-1.12,2,.44,5-1.61,1.89.19c.66.46,1,.88,1,1.27s-.6,1-1.82,1.61l-1-.29-2.24,1.32-4.76.39-1.61.68-1.68-.68a14.61,14.61,0,0,1-5,.88l-2.87-.39H974l-5.18-2.1-2.46-2.4-1.68-1.31-2.59-4.79L960.86,407l.63-1.81-1.19-1,.56-1.13-.56-1.8,1.47-.79-.63-.92.35-1.17-.63-1.32.28-1.91-.28-1,.63-.3v-3.61c-.28-.88-.68-1.32-1.19-1.32a1.08,1.08,0,0,0-.84.39l-1.61-.49-2.24.39-2.32-1.17H952.1q-1.68,0-1.68-1.32l.14-1.51-1-.49.56-.88,2.11.2,1.61-.2,2.31.49h6l.28-2.29v-2.3l-1-1.71,1.12-.58a2.51,2.51,0,0,0,.28-.74c0-.42-.37-.78-1.12-1.07l.28-3.91-1.19-1.22.28-.88c-.93-.13-1.4-.39-1.4-.78l1-2.63a8.1,8.1,0,0,0,1.33-1.37c2.85,1,4.27,1.55,4.27,1.71v.1l-.56,1a4.41,4.41,0,0,1,1,2.2v.29a3.07,3.07,0,0,0-.42,1.42.92.92,0,0,0,.42.78l-.14.83.14,1.07-1.26,1.42.84,2.49-.56,3,.56.58-.84.88,1.12,2.49h2.6Z"/>
        <path d="M1020.89,384.33l9.88.3,9.45-.3,2.32.1,1-.1h5.18c1,0,1.47.3,1.47.88s-.77,1.13-2.31,1.32a2.92,2.92,0,0,0-1.19-.19,3.59,3.59,0,0,0-1.82.48l-2-.29-3.86.1a14.77,14.77,0,0,1-5.32,1l-2.73-.34-1.4.93h-1.33v-.59l-2.46.79h-1.26l-.42.87a32.82,32.82,0,0,0-4.2-.39c-.14.39-.37.59-.7.59a1.73,1.73,0,0,1-.84-.39l-2,.19-1.4,1-.42,4.88.28,2.93-.42,3.76.14,4.2.42,2v1.81l1.68,2.49v.44c0,1.14,1,2.23,2.87,3.27l.42.83,2.59.39,1.89,1.42,5.33.68,7-1.12,2,.44,5-1.61,1.89.19c.65.46,1,.88,1,1.27s-.61,1-1.82,1.61l-1-.29-2.25,1.32-4.76.39-1.61.68-1.68-.68a14.6,14.6,0,0,1-5,.88l-2.88-.39h-1.54l-5.18-2.1-2.45-2.4-1.68-1.31-2.6-4.79L1010.8,407l.63-1.81-1.19-1,.56-1.13-.56-1.8,1.47-.79-.63-.92.35-1.17-.63-1.32.28-1.91-.28-1,.63-.3v-3.61c-.28-.88-.67-1.32-1.19-1.32a1.11,1.11,0,0,0-.84.39l-1.61-.49-2.24.39-2.31-1.17h-1.19q-1.68,0-1.68-1.32l.14-1.51-1-.49.56-.88,2.1.2,1.61-.2,2.31.49h6l.29-2.29v-2.3l-1-1.71,1.12-.58a2.51,2.51,0,0,0,.28-.74c0-.42-.37-.78-1.12-1.07l.28-3.91-1.19-1.22.28-.88c-.93-.13-1.4-.39-1.4-.78l1-2.63A7.67,7.67,0,0,0,1012,365c2.85,1,4.28,1.55,4.28,1.71v.1l-.56,1a4.51,4.51,0,0,1,1,2.2v.29a3.07,3.07,0,0,0-.42,1.42.92.92,0,0,0,.42.78l-.14.83.14,1.07-1.26,1.42.84,2.49-.56,3,.56.58-.84.88,1.12,2.49h2.59Z"/>
        <path d="M1096.61,412.85c.7.75,1.05,1.3,1.05,1.66s-.43.81-1.29,1.66a9.9,9.9,0,0,0-2,2.69l-1,.09-1.54,2.1-1.75.2-3.86,1.8-.7,1.08-1.19-.1-1.26,1h-2l-.42.48-1-.09a4.17,4.17,0,0,0-2.73,1l-.91-.48a8.13,8.13,0,0,1-2.38.48,6,6,0,0,1-2.6-.48,15.42,15.42,0,0,1-1.89.09l-.84-.49c-2.57-.09-4.29-.6-5.18-1.51v-1.22l-2.31-.88-.56-1a4.76,4.76,0,0,0-1.54-1.27v-.78l-1.61-4.74.27-3.37.57-1.9v-2.1l.77-1.81-.28-1.32a2,2,0,0,0,1-1.1,5.25,5.25,0,0,1,.84-1.49,17.83,17.83,0,0,1-.56-2.49l1.26-.73-1.26-1c.65-.74,1-1.22,1-1.41l-.7-3a5.47,5.47,0,0,1,.42-2.1,2.55,2.55,0,0,0,1.89.88,22.06,22.06,0,0,0,2.73-.39,1.63,1.63,0,0,1-.14-.69c0-.45.37-.86,1.12-1.22a17.42,17.42,0,0,1,3.15-4.59,2.2,2.2,0,0,0,1.33-2h.7l.7-1,.85-.25a4.07,4.07,0,0,1,1.47-1.46,9.52,9.52,0,0,0,3.85-2.3,4.25,4.25,0,0,0,1.19.1c.14,0,.51-.37,1.12-1.12,1.63-.39,2.5-.59,2.59-.59a1.88,1.88,0,0,1,1.26.59l1.33-.2.7.39h.84a2.9,2.9,0,0,0,2.88,1.61h.42a1.65,1.65,0,0,0,.91,1l-.63.19c1.63.56,2.45,1.84,2.45,3.86l-.42,1.12.42,2.79-.7.44-1.61,3-2.87,2.49-.15,1.41a48.33,48.33,0,0,1-8.4,4,.94.94,0,0,1-.91.58,6.08,6.08,0,0,1-1.12-.19l-3.15,1.51h-1.89l-2.74.88-1.19-.49a15.22,15.22,0,0,0-2.94-.39,4.22,4.22,0,0,0-2.17,3.66l-1,.83a8.22,8.22,0,0,1-.7,2.59l-.77.29.77,3.62-.77.48.14,1.13-.14,1.36a11.71,11.71,0,0,0,.35,1.86c.23,1,.6,1.6,1.12,1.76-.24.45.22,1,1.36,1.66a12.28,12.28,0,0,0,3.68,1.37v.58l3.71.39,5.33.2,3.57-.3a18.53,18.53,0,0,1,3.15-1.31l1.12-1.18h1.33l.14-.48a15.49,15.49,0,0,0,3.4-1,.72.72,0,0,0,.32-.51,1.45,1.45,0,0,1,1.26-.58l.42-.64q3.15-.35,3.92-2.88A3.42,3.42,0,0,1,1096.61,412.85Zm-11.77-22.8a4.53,4.53,0,0,0,1.89-1.22l.43-1.18a20.11,20.11,0,0,0,2-2.61,3.18,3.18,0,0,0,.28-1.39,8.69,8.69,0,0,0-1-2.93l-2.88-.68a10.55,10.55,0,0,1-1.47.19l-.84-.19a1.49,1.49,0,0,0-1.47.88,15.73,15.73,0,0,0-3.85.73l-.42.68a1.89,1.89,0,0,0-.56-.1,1.6,1.6,0,0,0-.39,0,1.48,1.48,0,0,0-.31.15l-.28.22a1,1,0,0,0-.25.32l-.21.41-.21.44a4.11,4.11,0,0,1-.87.86l-1,.87-2,2.69-1.05.64a2.08,2.08,0,0,0-.77,1.26c-.18.66-1.45,2.22-3.78,4.69l1,.39.49.83,2.38.49a15.25,15.25,0,0,1,4.35-1.32l.42-.58a5,5,0,0,0,1.12.19,1.94,1.94,0,0,0,1.33-.58l1.68-.2,1-1.22h1l.7-1.07a6,6,0,0,0,3.57-1.22Z"/>
        <path d="M1192,406.65c.18.52-.4,1-1.76,1.56l.21.34c0,.33-.63,1-1.89,2.08s-1.89,1.86-1.89,2.41l-1.54.3c-.05,1.37-.91,2.16-2.59,2.39-.14.39-.37.59-.7.59h-.28c-.14.55-.68.83-1.61.83l-.84,1.17-2,.29-1.68.78a4.58,4.58,0,0,1-.92.25l-3.15.39-1.12-.1-1,.1-.42-.39-1.26-.1-1.61-1.42h-.7a1.22,1.22,0,0,1-.56-1.07c-1.54-1.17-2.31-2.08-2.31-2.74v-.78l-1-1.32v-.58l.7-.29-.56-1.42-1.06-1.81.21-2.68-1.47-1.61v-2.49c-1.35-4.85-2-7.82-2-8.89v-.39a4.18,4.18,0,0,1-.28-1.12,1,1,0,0,1,.14-.59,5.31,5.31,0,0,1-1.68-2.78l-.7-.44-3,2.19-1.47,1.42-5.05,4.2-2,2.49a28.75,28.75,0,0,1-1.68,2.37,15.32,15.32,0,0,1-2.8,2.22l.42.93-1,1.9-1.12.1v.88h-.77l-2.73,2.29a1.93,1.93,0,0,1-1.82,1.91,5.43,5.43,0,0,0-1.13,1.85,1.74,1.74,0,0,1-1.61,1.27l-.56.39a14.32,14.32,0,0,1-2.48,2.47,24.6,24.6,0,0,1-3.26,1.93,2.61,2.61,0,0,1-1.75,2l-.14.49a2.11,2.11,0,0,1-.7,1.29c-.42.41-1.57.77-3.43,1.1-.7-.06-1.24-.62-1.62-1.66a2.72,2.72,0,0,0-1.68-1.9l-.42-.64,1.12-1.27-.14-1.22.7-.49-.7-.88.14-1.22-1.12-2.19,1-1.32-.56-1.37a7,7,0,0,0,1-4.1V404q0-.24-.84-1.17c.75-.42,1.12-.83,1.12-1.22l-.28-1.56.84-3.81-.56-.73.14-1.57-.7-.92.56-3.18-.28-1.12.42-1.81-.42-2.59,1-1.31a13.55,13.55,0,0,1,2.84.73,1.47,1.47,0,0,1,.35.9,17.06,17.06,0,0,1,.11,2.27l1.19,1.32-.42,1.9.56,4.11-1,2.19.42,2.59v1.22l-1.33,1.47.91,2.1a8.27,8.27,0,0,0-1.05,2.73l.7,1.17a9.71,9.71,0,0,0-1.12,3.91l.14,3.61.42.49,1.75-.59h1.4l.77-2.19c1.07-.23,1.73-.6,2-1.13.14-.78.86-1.17,2.17-1.17a2,2,0,0,1,1-1.51c.38,0,.82-.47,1.33-1.42a10.72,10.72,0,0,0,2.32-2.1v-1.36h.13a2,2,0,0,0,1.3-.71,2.58,2.58,0,0,1,1.86-.71,3.7,3.7,0,0,1,1.26-1.81l2-1.71,1.82-2.78a3.92,3.92,0,0,1-.28-1q0-.3.42-.3c1.92-.88,2.87-1.74,2.87-2.59v-1.22c1.45-.39,2.17-.74,2.17-1.07a1.26,1.26,0,0,0-.21-.56,1.47,1.47,0,0,1-.21-.47c0-.32.19-.48.56-.48a2.62,2.62,0,0,1,1.12.29c.71-1.79,1.78-2.69,3.23-2.69a6.24,6.24,0,0,1,1.26.2,2.7,2.7,0,0,1,1.26-2.3c.18-.42,1.31-.92,3.36-1.51l.7-.78h.56a6.44,6.44,0,0,0,2,1.42l.28.68.7.19.28,1.91,1.9.78-.64,1.71,1.06,3.12v2.88l1,3.42.42,3.57,1.47,3.32.28,3.32.73.95a5.26,5.26,0,0,1,1,2.22l.63.29v1.52l1.26,1-.28.74,1,.39v.49a5.91,5.91,0,0,0,2.31.58,5.78,5.78,0,0,0,2.17-.39,2.32,2.32,0,0,0,.7.2,1.71,1.71,0,0,0,1.26-.78c1.36-.1,2-.36,2-.79v-.24c.14-.23,1.09-.55,2.87-1a7.62,7.62,0,0,1,1.47-1l-.14-.25a2.31,2.31,0,0,1,.52-.56,12.57,12.57,0,0,1,1.37-.88,4.12,4.12,0,0,0,1.33-1.05l.77-1.07c.61-.59,1.52-1.53,2.73-2.83l2-.69h1.34Z"/>
        <path d="M1255.55,358.36a4.85,4.85,0,0,1-2.45,1.66v.63l-1.26,1a1.78,1.78,0,0,1-1.13.58,3,3,0,0,1-.77-.19l-3.85,3.22-1,1.08-3.43.73-1.75,1.81-1.61.48a15.67,15.67,0,0,0-3.15,1.91l-.85-.39-.14-1.22,3.3-1c.46-1.63,1.06-2.55,1.78-2.76s1.09-.35,1.09-.41v-.39l.7-.3.28.1.35-.73h.56l-.56-.88h2.24v-1.42l1-.19.7-.78,1.12-.3,1-1.31a.89.89,0,0,0,.84-.59h.84l.15-1a3.43,3.43,0,0,0,1.75-2C1253.7,356.14,1255.08,357.06,1255.55,358.36Zm14.22,50.29-.28,1-1.33.68-.56,1.22-2,.39a4.94,4.94,0,0,1-2,2.49l-1.75.44-1.54,1.17a12.32,12.32,0,0,0-2.45,1.81h-1a4.8,4.8,0,0,1-3.15,1.12c-1,.88-1.61,1.4-1.75,1.57a9.42,9.42,0,0,1-2.7.7c-1.1.15-1.79.26-2.07.32l-.56.59h-2.31l-1.26.68-3.57-1.85-2-3.23-.28-5.17-.42-1,1.4-8.2.91-.49-.42-5.13a3.91,3.91,0,0,1,.38-1.73,12.4,12.4,0,0,0,.74-2.22l.56-.25a4.9,4.9,0,0,0-1-2.78l.56-1.32v-1.85l.7-.64a11.89,11.89,0,0,0-.49-1.59,6.06,6.06,0,0,1-.35-1c0-.52.18-.78.56-.78a.44.44,0,0,0,.28.1,5.69,5.69,0,0,1-1-2c0-.49.32-.73,1-.73a3.2,3.2,0,0,1,.94.26,3.11,3.11,0,0,0,1.09.27,3,3,0,0,0,.7-.19c0-.55.33-.83,1-.83s.88.07,1,.22a14.08,14.08,0,0,1,.38,1.88l1.54.49-1.26,1.12-1.47,6.4,1.19,1.61a2.22,2.22,0,0,1-1.33,1.9l-.42,1.27.42,1.12-1.68,4.1.14.49-.7,3.32v2.4l-1,1.61.28,1.36-.28,2.3a7.87,7.87,0,0,0,1.19,4.49l-.14.54,1.26.58,1.47-.29,1.68.49,2-.68a8,8,0,0,1,2.46-.74l1-.68.28.29.84-.78,1.47-.29a10.21,10.21,0,0,1,3.57-1.32,2.88,2.88,0,0,1,2-.78l.84-.93,1.61-.1-.35-1.07h.63l.28-.54,3-1.07.28-1.22,2.73.1A4,4,0,0,1,1269.77,408.65Z"/>
        <path d="M1327.21,414.12l-1,.78a23.21,23.21,0,0,0-1.9,3l-2,1,.14.59h-1.89l-1.82,1.42h-2.45l-1.61.58a2.77,2.77,0,0,0-1.54.59,6,6,0,0,0-1.89-.3,6.8,6.8,0,0,0-1.83.3v.58l-2.59-.19-2,.19-1.89-.19-.28.29-.7-.29-1.26.29h-.91a10,10,0,0,0-2.1.24l-1.48-.34-1.12.54-.56-.44-1,.44a8.41,8.41,0,0,0-3-.73,4.43,4.43,0,0,0-1.26.29,8.84,8.84,0,0,0-2.45-.44l-3.15-.24a10.93,10.93,0,0,0-2.32.19l-.28-.39-1.26.59a1.48,1.48,0,0,0-1-.39l-.42-.59q-4.41-.15-4.41-4.39l3-.3-.14-.73.7-.68.42.58h.84v.49L1280,416c.75.1,1.13.35,1.13.74a1.86,1.86,0,0,1-.43.87l1.27.1v1.52l3.64.39,1.4.88.42-.49,18.35-.78,6.31-.83.35-.49,1.54-.2.42-.39a19.08,19.08,0,0,0,5.74-1.61l.42.29.28-.58,1.05-.59.14-.34-.7-.68.28-.88L1320,412l-.28-.78a3.35,3.35,0,0,1-1.4-.59l-.63.2-1.4-.93h-.56l-.63-.59h-1.4a1.66,1.66,0,0,0-1.61-.78l-1,.1a8.76,8.76,0,0,1-4.27-1h-1.47l-1.82-.78-.91.39-.42-.48h-1l-1.61-.93-4.28-1.27-1.61-1-4.83-.58-.14-.3-4.06-2-1.82-3.22-1.47-1.56-.43-4.64.43-.49a4.69,4.69,0,0,1,1.47-3.42q2.66-1.06,2.73-2.1l1,.1a6,6,0,0,1,2.66-2.39l1.75-1.08,8.34-2.49,4.2-.53,4.13-.88,6.45.29.28.59h.42a3.09,3.09,0,0,1,1.89.53v.88l1.75.88a19.58,19.58,0,0,0-.77,2.64c0,.58-.42.88-1.26.88-.38,0-1.05-.7-2-2.1l-3.85-.2-1,.2a11.73,11.73,0,0,0-2.59-1.17c-.28,0-.42.09-.42.29l-1.33.68a7.39,7.39,0,0,0-3.85.88,7.49,7.49,0,0,0-3.71,1.22H1296l-1.2.64a15.45,15.45,0,0,1-2.8.68l-.56.49-.77.29-2,1.32-1.33,1.46q-2,.93-2.1,1.23l-1.47,4.1.7.29v.29c0,1.11.77,2,2.31,2.83v.49l3.85,1.61h.91l2.1,1.47h2.88l1.75,1,3.29.3,1,.58,6.16,1.32c0,.39.35.59,1,.59a8.67,8.67,0,0,1,3.23.58,10.89,10.89,0,0,0,2.8.74l.14.48,1.26.49H1320l2.45,1.13a3.62,3.62,0,0,0,1.89,1.8l-.14.3.7.68,1.27.19-.57.74A3.47,3.47,0,0,1,1327.21,414.12Z"/>
        <path d="M553.47,534.12l-1,.78a22.54,22.54,0,0,0-1.89,3l-2,1,.14.59h-1.89L545,541h-2.45l-1.61.58a2.77,2.77,0,0,0-1.54.59,6,6,0,0,0-1.89-.3,6.73,6.73,0,0,0-1.82.3v.58l-2.6-.19-2,.19-1.89-.19-.28.29-.7-.29-1.26.29H526a10,10,0,0,0-2.1.24l-1.47-.34-1.12.54-.56-.44-1,.44a8.46,8.46,0,0,0-3-.73,4.43,4.43,0,0,0-1.26.29,8.77,8.77,0,0,0-2.45-.44l-3.15-.24a10.76,10.76,0,0,0-2.31.19l-.28-.39-1.26.59a1.49,1.49,0,0,0-1.06-.39l-.42-.59q-4.41-.15-4.41-4.39l3-.3-.14-.73.7-.68.42.58h.84v.49l1.34-.49c.74.1,1.12.35,1.12.74a1.81,1.81,0,0,1-.42.87l1.26.1v1.52l3.64.39,1.4.88.42-.49,18.35-.78,6.31-.83.35-.49,1.54-.2.42-.39a19.08,19.08,0,0,0,5.74-1.61l.42.29.28-.58,1-.59.14-.34-.7-.68.28-.88-1.61-.93-.28-.78a3.42,3.42,0,0,1-1.4-.59l-.63.2-1.4-.93H542l-.63-.59H540a1.66,1.66,0,0,0-1.61-.78l-1,.1a8.77,8.77,0,0,1-4.28-1h-1.47l-1.82-.78-.91.39-.42-.48h-1l-1.61-.93-4.27-1.27-1.61-1-4.84-.58-.14-.3-4.06-2-1.82-3.22-1.47-1.56-.42-4.64.42-.49a4.69,4.69,0,0,1,1.47-3.42q2.65-1.06,2.73-2.1l1,.1a6,6,0,0,1,2.66-2.39l1.75-1.08,8.34-2.49,4.2-.53,4.13-.88,6.45.29.28.59h.42a3.09,3.09,0,0,1,1.89.53v.88l1.75.88a19.58,19.58,0,0,0-.77,2.64c0,.58-.42.88-1.26.88-.37,0-1-.7-2-2.1l-3.85-.2-1,.2a11.92,11.92,0,0,0-2.6-1.17c-.28,0-.42.09-.42.29l-1.33.68a7.39,7.39,0,0,0-3.85.88,7.49,7.49,0,0,0-3.71,1.22H522.3l-1.19.64a15.92,15.92,0,0,1-2.81.68l-.56.49-.77.29-2,1.32-1.33,1.46q-2,.93-2.1,1.23l-1.47,4.1.7.29v.29c0,1.11.77,2,2.31,2.83v.49l3.85,1.61h.91l2.11,1.47h2.87l1.75,1,3.29.3,1,.58,6.16,1.32c0,.39.36.59,1.06.59a8.66,8.66,0,0,1,3.22.58,10.89,10.89,0,0,0,2.8.74l.14.48,1.26.49h2.73l2.45,1.13a3.65,3.65,0,0,0,1.9,1.8l-.14.3.7.68,1.26.19-.56.74A3.49,3.49,0,0,1,553.47,534.12Z"/>
        <path d="M580.58,504.33l9.87.3,9.46-.3,2.31.1,1-.1h5.18c1,0,1.48.3,1.48.88s-.78,1.13-2.32,1.32a2.89,2.89,0,0,0-1.19-.19,3.62,3.62,0,0,0-1.82.48l-2-.29-3.85.1a14.82,14.82,0,0,1-5.33,1l-2.73-.34-1.4.93h-1.33v-.59l-2.45.79h-1.26l-.42.87a33.23,33.23,0,0,0-4.2-.39.75.75,0,0,1-.7.59,1.79,1.79,0,0,1-.85-.39l-2,.19-1.4,1-.42,4.88.28,2.93-.42,3.76.14,4.2.42,2v1.81l1.68,2.49v.44q0,1.71,2.88,3.27l.42.83,2.59.39,1.89,1.42,5.32.68,7-1.12,2,.44,5-1.61,1.89.19c.66.46,1,.88,1,1.27s-.6,1-1.82,1.61l-1-.29-2.24,1.32-4.76.39-1.61.68-1.69-.68a14.51,14.51,0,0,1-5,.88l-2.87-.39h-1.54L578.4,540l-2.45-2.4-1.68-1.31-2.59-4.79L570.49,527l.63-1.81-1.19-1,.56-1.13-.56-1.8,1.47-.79-.63-.92.35-1.17-.63-1.32.28-1.91-.28-1,.63-.3v-3.61c-.28-.88-.68-1.32-1.19-1.32a1.08,1.08,0,0,0-.84.39l-1.61-.49-2.24.39-2.32-1.17h-1.19q-1.68,0-1.68-1.32l.14-1.51-1-.49.56-.88,2.1.2,1.61-.2,2.32.49h6l.28-2.29v-2.3l-1-1.71,1.12-.58a2.51,2.51,0,0,0,.28-.74c0-.42-.37-.78-1.12-1.07l.28-3.91-1.19-1.22.28-.88c-.94-.13-1.4-.39-1.4-.78l1-2.63a8.1,8.1,0,0,0,1.33-1.37c2.85,1,4.27,1.55,4.27,1.71v.1l-.56,1a4.41,4.41,0,0,1,1,2.2v.29a3.07,3.07,0,0,0-.42,1.42.92.92,0,0,0,.42.78l-.14.83.14,1.07-1.26,1.42.84,2.49-.56,3,.56.58-.84.88,1.12,2.49h2.6Z"/>
        <path d="M637.8,478.36a4.76,4.76,0,0,1-2.45,1.66v.63l-1.26,1a1.76,1.76,0,0,1-1.12.58,2.79,2.79,0,0,1-.77-.19l-3.85,3.22-1,1.08-3.43.73-1.76,1.81-1.61.48a16,16,0,0,0-3.15,1.91l-.84-.39-.14-1.22,3.29-1c.47-1.63,1.06-2.55,1.79-2.76s1.08-.35,1.08-.41v-.39l.7-.3.28.1.36-.73h.56l-.56-.88h2.24v-1.42l1.05-.19.7-.78,1.12-.3,1.05-1.31a.91.91,0,0,0,.84-.59h.84l.14-1a3.43,3.43,0,0,0,1.75-2C636,476.14,637.34,477.06,637.8,478.36ZM652,528.65l-.28,1-1.33.68-.56,1.22-2,.39a4.93,4.93,0,0,1-2,2.49l-1.75.44L642.57,536a12,12,0,0,0-2.45,1.81h-1A4.81,4.81,0,0,1,636,539c-1,.88-1.61,1.4-1.75,1.57a9.43,9.43,0,0,1-2.69.7c-1.1.15-1.79.26-2.07.32l-.56.59H626.6l-1.26.68L621.76,541l-2-3.23-.28-5.17-.42-1,1.4-8.2.91-.49-.42-5.13a3.92,3.92,0,0,1,.39-1.73,12.49,12.49,0,0,0,.73-2.22l.56-.25a4.83,4.83,0,0,0-1-2.78l.56-1.32v-1.85l.7-.64a9.53,9.53,0,0,0-.49-1.59,7.44,7.44,0,0,1-.35-1c0-.52.19-.78.56-.78a.48.48,0,0,0,.28.1,5.9,5.9,0,0,1-1-2c0-.49.33-.73,1-.73a3.16,3.16,0,0,1,1,.26,3.06,3.06,0,0,0,1.09.27,3.18,3.18,0,0,0,.7-.19c0-.55.32-.83,1-.83s.87.07.94.22a13.23,13.23,0,0,1,.39,1.88l1.54.49-1.26,1.12-1.47,6.4,1.19,1.61a2.24,2.24,0,0,1-1.33,1.9l-.42,1.27.42,1.12-1.68,4.1.14.49-.7,3.32v2.4l-1.06,1.61.28,1.36-.28,2.3a7.8,7.8,0,0,0,1.2,4.49l-.14.54,1.26.58,1.47-.29,1.68.49,2-.68a7.87,7.87,0,0,1,2.45-.74l1-.68.28.29.84-.78,1.47-.29a10.33,10.33,0,0,1,3.58-1.32,2.86,2.86,0,0,1,2-.78l.84-.93,1.61-.1-.35-1.07h.63l.28-.54,3-1.07.28-1.22,2.73.1A3.21,3.21,0,0,1,652,528.65Z"/>
        <path d="M693.91,529.63c.61.29.91.6.91.92,0,.82-.3,1.27-.91,1.37a4.69,4.69,0,0,1-3.43,1.91c0,.29-1.57,1.4-4.69,3.32a5.17,5.17,0,0,0-1.86.56c-.31.21-.95.62-1.93,1.24a2.84,2.84,0,0,0-2.59,1.17l-1.4.3-.56-.2-.42.83h-.42a11.48,11.48,0,0,0-3,.59c-1.31.39-2.13.62-2.45.68l-1.48.39h-1l-.84-.88-1.33-.78a9.31,9.31,0,0,0-2.17-2.63l-.42-2.4.14-1.17-.7-.63.14-2.88-.14-2.49.14-1.23a1.21,1.21,0,0,0,.42-.78,3.22,3.22,0,0,0-1-1.8c.37-2.77.56-4.3.56-4.59a2.5,2.5,0,0,0-1.12-1.81l1.12-.39.42-3.81-.28-1.61L664.7,511l-.77-2a3.37,3.37,0,0,0,1.19-2.59v-3.32l.42-.78-.14-4.88.42-4.83a5.87,5.87,0,0,1-.7-3.76l.42-3-.42-1.08.7-4.54c.52-.13,1.06-.29,1.65-.49a5.42,5.42,0,0,1,1.08-.29,1.89,1.89,0,0,1,.57.2l.7,1.61,1.47.88-1,1v.39a2,2,0,0,0,.49,1.22c-.1,1.11-.45,1.66-1.06,1.66l.43.54a12.41,12.41,0,0,0,.77,4.2l-1.2,2.59.92.88a6,6,0,0,0-1.62,3.81c0,.65.42,1.05,1.27,1.22l-1,1.9a3.61,3.61,0,0,1,.57,1.17,2.6,2.6,0,0,1-.57,1.32l.29,1.17-.71,3.23-.07,1.51a14.33,14.33,0,0,1-1.19,3.17l.7,2.1-.42,3.81-.77.39.91,1.22-.63,1.91-.56,3,.56.73-.56.29a3,3,0,0,1,.91,2.39,2.94,2.94,0,0,1-.63,1.18l.63,1.12-.35,1.51.63,1.08-.28.83,1.54,3.27,1.76.49a13.24,13.24,0,0,1,3.29-.88l.84.09,2-1.17a5.94,5.94,0,0,1,1.75-.53,3.18,3.18,0,0,1,2.45-1l.7-.54,1,.1.28-.49,1.41-.29,1.33-.69,1.4-.29a13.49,13.49,0,0,0,1.36-.88,12,12,0,0,1,2.21-1.22c0-.29.3-.53.91-.73a.8.8,0,0,0,.56.2A3.42,3.42,0,0,0,693.91,529.63Z"/>
        <path d="M737.55,529.63c.61.29.91.6.91.92,0,.82-.3,1.27-.91,1.37a4.69,4.69,0,0,1-3.43,1.91c0,.29-1.57,1.4-4.69,3.32a5.17,5.17,0,0,0-1.86.56c-.31.21-1,.62-1.93,1.24a2.82,2.82,0,0,0-2.59,1.17l-1.4.3-.56-.2-.42.83h-.42a11.48,11.48,0,0,0-3,.59c-1.31.39-2.13.62-2.45.68l-1.48.39h-1l-.84-.88-1.33-.78a9.31,9.31,0,0,0-2.17-2.63l-.42-2.4.14-1.17-.7-.63.14-2.88-.14-2.49.14-1.23a1.21,1.21,0,0,0,.42-.78,3.22,3.22,0,0,0-1-1.8c.37-2.77.56-4.3.56-4.59a2.5,2.5,0,0,0-1.12-1.81l1.12-.39.42-3.81-.28-1.61,1.05-1.81-.77-2a3.37,3.37,0,0,0,1.19-2.59v-3.32l.42-.78-.14-4.88.42-4.83a5.87,5.87,0,0,1-.7-3.76l.42-3-.42-1.08.7-4.54c.52-.13,1.06-.29,1.65-.49a5.42,5.42,0,0,1,1.08-.29,1.78,1.78,0,0,1,.56.2l.71,1.61,1.47.88-1,1v.39a2,2,0,0,0,.49,1.22c-.1,1.11-.45,1.66-1.06,1.66l.43.54a12.41,12.41,0,0,0,.77,4.2l-1.2,2.59.92.88a6,6,0,0,0-1.62,3.81c0,.65.42,1.05,1.27,1.22l-1,1.9a3.61,3.61,0,0,1,.57,1.17,2.6,2.6,0,0,1-.57,1.32l.28,1.17-.7,3.23L712.4,510a14.33,14.33,0,0,1-1.19,3.17l.7,2.1-.42,3.81-.77.39.91,1.22-.63,1.91-.56,3,.56.73-.56.29a3,3,0,0,1,.91,2.39,2.94,2.94,0,0,1-.63,1.18l.63,1.12-.35,1.51.63,1.08-.28.83,1.54,3.27,1.76.49a13.24,13.24,0,0,1,3.29-.88l.84.09,2-1.17a5.94,5.94,0,0,1,1.75-.53,3.18,3.18,0,0,1,2.45-1l.7-.54,1.05.1L727,534l1.41-.29,1.33-.69,1.4-.29a13.49,13.49,0,0,0,1.36-.88,12,12,0,0,1,2.21-1.22c0-.29.3-.53.91-.73a.8.8,0,0,0,.56.2A3.42,3.42,0,0,0,737.55,529.63Z"/>
        <path d="M805.29,478.36a4.84,4.84,0,0,1-2.46,1.66v.63l-1.26,1a1.76,1.76,0,0,1-1.12.58,2.88,2.88,0,0,1-.77-.19l-3.85,3.22-1,1.08-3.43.73-1.75,1.81-1.61.48a15.92,15.92,0,0,0-3.16,1.91l-.84-.39-.14-1.22,3.29-1c.47-1.63,1.07-2.55,1.79-2.76s1.09-.35,1.09-.41v-.39l.7-.3.28.1.35-.73H792l-.56-.88h2.24v-1.42l1.05-.19.7-.78,1.12-.3,1.05-1.31a.89.89,0,0,0,.84-.59h.84l.14-1a3.39,3.39,0,0,0,1.75-2C803.44,476.14,804.82,477.06,805.29,478.36Zm14.22,50.29-.28,1-1.33.68-.57,1.22-2,.39a4.88,4.88,0,0,1-2,2.49l-1.75.44L810.05,536a12.32,12.32,0,0,0-2.45,1.81h-1a4.8,4.8,0,0,1-3.15,1.12c-1,.88-1.62,1.4-1.76,1.57a9.43,9.43,0,0,1-2.69.7c-1.1.15-1.79.26-2.07.32l-.56.59h-2.31l-1.26.68L789.25,541l-2-3.23-.28-5.17-.42-1,1.41-8.2.91-.49-.42-5.13a3.91,3.91,0,0,1,.38-1.73,12.4,12.4,0,0,0,.74-2.22l.56-.25a4.9,4.9,0,0,0-1-2.78l.56-1.32v-1.85l.7-.64a11.89,11.89,0,0,0-.49-1.59,6.06,6.06,0,0,1-.35-1c0-.52.18-.78.56-.78a.44.44,0,0,0,.28.1,5.69,5.69,0,0,1-1-2c0-.49.32-.73,1-.73a3.2,3.2,0,0,1,.94.26,3.11,3.11,0,0,0,1.09.27,3.18,3.18,0,0,0,.7-.19c0-.55.32-.83,1-.83s.88.07.95.22a16.19,16.19,0,0,1,.38,1.88L797,503l-1.26,1.12-1.47,6.4,1.19,1.61a2.22,2.22,0,0,1-1.33,1.9l-.42,1.27.42,1.12-1.68,4.1.14.49-.7,3.32v2.4l-1.05,1.61.28,1.36-.28,2.3a7.79,7.79,0,0,0,1.19,4.49l-.14.54,1.26.58,1.47-.29,1.68.49,2-.68a8,8,0,0,1,2.45-.74l1-.68.28.29.84-.78,1.48-.29a10.21,10.21,0,0,1,3.57-1.32,2.88,2.88,0,0,1,2-.78l.84-.93,1.61-.1-.35-1.07h.63l.28-.54,3-1.07.28-1.22,2.74.1A4,4,0,0,1,819.51,528.65Z"/>
        <path d="M911.34,526.65c.18.52-.4,1-1.75,1.56l.21.34c0,.33-.63,1-1.89,2.08S906,532.49,906,533l-1.54.3c0,1.37-.91,2.16-2.59,2.39-.14.39-.37.59-.7.59h-.28c-.14.55-.68.83-1.61.83l-.84,1.17-2,.29-1.68.78a4.66,4.66,0,0,1-.91.25l-3.16.39-1.12-.1-1,.1-.42-.39-1.26-.1-1.61-1.42h-.7a1.22,1.22,0,0,1-.56-1.07c-1.54-1.17-2.31-2.08-2.31-2.74v-.78l-1-1.32v-.58l.7-.29-.56-1.42-1-1.81.21-2.68-1.47-1.61v-2.49c-1.36-4.85-2-7.82-2-8.89v-.39a4.18,4.18,0,0,1-.28-1.12,1,1,0,0,1,.14-.59,5.31,5.31,0,0,1-1.68-2.78l-.7-.44-3,2.19-1.47,1.42-5,4.2-2,2.49a28.75,28.75,0,0,1-1.68,2.37A15.32,15.32,0,0,1,858,522l.42.93-1,1.9-1.12.1v.88h-.77l-2.73,2.29A1.93,1.93,0,0,1,851,530a5.43,5.43,0,0,0-1.12,1.85,1.76,1.76,0,0,1-1.62,1.27l-.55.39a14.69,14.69,0,0,1-2.49,2.47,24.6,24.6,0,0,1-3.26,1.93,2.61,2.61,0,0,1-1.75,2l-.14.49a2.11,2.11,0,0,1-.7,1.29c-.42.41-1.57.77-3.43,1.1-.7-.06-1.24-.62-1.61-1.66a2.75,2.75,0,0,0-1.69-1.9l-.42-.64,1.12-1.27-.13-1.22.7-.49-.7-.88.13-1.22-1.12-2.19,1-1.32-.57-1.37a7,7,0,0,0,1-4.1V524q0-.24-.84-1.17c.75-.42,1.13-.83,1.13-1.22l-.29-1.56.85-3.81-.56-.73L834,514l-.71-.92.57-3.18-.29-1.12.43-1.81-.43-2.59,1-1.31a13.56,13.56,0,0,1,2.83.73,1.41,1.41,0,0,1,.35.9,17.06,17.06,0,0,1,.11,2.27l1.19,1.32-.42,1.9.56,4.11-1,2.19.42,2.59v1.22l-1.33,1.47.91,2.1a8.27,8.27,0,0,0-1.05,2.73l.7,1.17a9.71,9.71,0,0,0-1.12,3.91l.14,3.61.42.49,1.75-.59h1.4l.77-2.19c1.07-.23,1.73-.6,2-1.13.14-.78.86-1.17,2.17-1.17a2,2,0,0,1,1-1.51c.38,0,.82-.47,1.34-1.42a10.42,10.42,0,0,0,2.31-2.1v-1.36h.14a2.05,2.05,0,0,0,1.29-.71,2.58,2.58,0,0,1,1.86-.71,3.7,3.7,0,0,1,1.26-1.81l2-1.71,1.82-2.78a3.92,3.92,0,0,1-.28-1q0-.3.42-.3c1.92-.88,2.87-1.74,2.87-2.59v-1.22c1.45-.39,2.18-.74,2.18-1.07a1.26,1.26,0,0,0-.21-.56,1.36,1.36,0,0,1-.22-.47q0-.48.57-.48a2.66,2.66,0,0,1,1.12.29c.7-1.79,1.77-2.69,3.22-2.69a6.24,6.24,0,0,1,1.26.2,2.7,2.7,0,0,1,1.26-2.3c.19-.42,1.31-.92,3.36-1.51l.7-.78h.56a6.44,6.44,0,0,0,2,1.42l.28.68.71.19.28,1.91,1.89.78-.63,1.71,1,3.12v2.88l1,3.42.42,3.57,1.47,3.32.28,3.32.73.95a5.26,5.26,0,0,1,1,2.22l.63.29v1.52l1.26,1-.28.74,1,.39v.49a5.47,5.47,0,0,0,4.49.19,2.25,2.25,0,0,0,.7.2,1.71,1.71,0,0,0,1.26-.78c1.35-.1,2-.36,2-.79v-.24c.14-.23,1.09-.55,2.87-1a7.94,7.94,0,0,1,1.47-1l-.14-.25a2.19,2.19,0,0,1,.53-.56,11.28,11.28,0,0,1,1.36-.88,4,4,0,0,0,1.33-1l.77-1.07c.61-.59,1.52-1.53,2.73-2.83l2-.69h1.33Z"/>
        <path d="M1015.64,537.15q-1.54,3.86-3.85,5.17a4.64,4.64,0,0,1-2.32-1.07l-2.59-2.83-1-1.57-1.89-4.64v-4.49l-.42-3.9.42-2.2-.42-1.91v-2.78l-1.33-1.32-.56.83-1.12.1-2.17,3.52-2.6,2.58h-1.12l-.35,1a4.88,4.88,0,0,1-.8,1.32l-1.44,1.76-3.85,3-3,3.13L982,535.24a18.71,18.71,0,0,1-2.6,2.49l-2,1.08a13.11,13.11,0,0,0-2.38,2.05l-2.45.58a6.6,6.6,0,0,0-1.68,1.08l-1.68.24a11.33,11.33,0,0,0-3,1l-1.26-.2-.42.59L963,544l-4.55-2.39a6.59,6.59,0,0,1-1.68-2.91c-.38-1.22-.91-1.84-1.61-1.88l-.77.2,1.47-1.61-.7-1.61.56-1.27-.28-1.91,1-3v-2.78l1-1v-2.49a4.32,4.32,0,0,0,1-2.3l.56-.29v-1.81l1.26-1.61.14-1.37a5.88,5.88,0,0,0,1.33-2l.7-3a2.88,2.88,0,0,1,1.61-1.8l.14-1.08a4.12,4.12,0,0,1,.91-1.32,2.31,2.31,0,0,0,.77-1.51,17.89,17.89,0,0,1,3.58-2.1l-.28-.39c.6-.1,1-.26,1-.49a2.21,2.21,0,0,0,.84.1,2.59,2.59,0,0,0,.84-.1l-.7-.19,6.16-1.22c.89-.07,1.71-.12,2.45-.15s1.12-.15,1.12-.34v-.1l2.32-.1,1.26.49.77-.19c.14.32.51.48,1.12.48a1.87,1.87,0,0,0,.56-.09l2.31.09v.44l.56-.19,2.17,1.27,2.17-.39,1.26,1.61,2.32,1.32a5.47,5.47,0,0,1,1.26,1.46l2.31.88a3.44,3.44,0,0,0,1.75.83.54.54,0,0,0,.56-.39l1-3.42,1.12-1.8-.42-2.59.63-4.69-.63-1.22a2.67,2.67,0,0,0,1.05-2.1l-.63-.88.49-2.73-.49-2.79.63-.58-.63-.3c.52-.32.77-.6.77-.83a1.17,1.17,0,0,0-.28-.58,2.85,2.85,0,0,0,.42-1.42,2.91,2.91,0,0,0-.42-1.46h.7a1.6,1.6,0,0,1-.28-.93c0-.42.47-.81,1.4-1.17l-.56-.25.7-.09a1,1,0,0,1,1.05.83,1.42,1.42,0,0,1,1.27,1.27h-.71l.14,1.61-.14.92h-.84l1.55,1.18-.57,1.41,1,1.61-.71.69a4,4,0,0,1,.71,1.8,2.1,2.1,0,0,1-.42,1.18l1.12.63c-.47.2-.7.39-.7.59s.39.58,1.19.78v.29c0,.42-.4.8-1.19,1.12v.88a53.06,53.06,0,0,1-1.13,8.4,1.29,1.29,0,0,1,.14.73,4,4,0,0,1-.7,1.91l.56.88-.84,2.29-.42,2.44a4.71,4.71,0,0,1-.91,1.66l.42,1.13-.84,1.8.84,1.37-1.12,3.13.7,2.39-.42,1.41.28,1.27-.84.3a13.63,13.63,0,0,1,1.4,1.71c0,.29-.28.48-.84.58l.28.64-.28.29,1,.68-.7,1.61,1,2.2-.42.68.42.74-.84,1.8.7.49h1.19l1,.88,2-.39.7.78ZM1002,509.85l-.84-.19-1.47-.93-1.19-.49c-.19-.06-.55-.5-1.09-1.29a6.46,6.46,0,0,0-2-1.93,3.35,3.35,0,0,1-1.26-.59v-.68l-2.17-.29-2.1-.84a7.45,7.45,0,0,0-1.72-.48c-.72-.13-1.69-.3-2.9-.49l-4.35.39-1.26.49-1.33-.69-2.24.49h-2.87l-.49.88-.84.25c0,.55.18.87.56,1a12.26,12.26,0,0,1-3.57,2.2l-1,1.81-1.33.48-1.27,2.74-.42,3-1.33.88v1.7c-1,.66-1.54,1.19-1.54,1.62l.28,2.39L960,524.35l-.56,2.2-.14,3.37.42.73-1,1.37.7.83-1.12,1.66a14.17,14.17,0,0,1,2,3.61l1.33.49-.28.64h1.4a7.9,7.9,0,0,0,1.75.68c.1,0,.32-.16.67-.49a3.46,3.46,0,0,1,2.21-.49v.39a2.56,2.56,0,0,0,1.12-.92c.74,0,1.12-.23,1.12-.69l1.33-.39.56.29.42-1.12,2.87-.78.28-.88,2-.83v-.49l1.54-1.12.49.15c.38,0,.56-.25.56-.74h1v-.58l2.32-.69-.56-1.51,1.54-.68-1-.74a2.51,2.51,0,0,0,.84.1,4,4,0,0,0,1.75-.49l.14-.39,1.54-.09,1.61-2.93,1.4-1,.56-1.81,1.75-.39a13.92,13.92,0,0,1,3.15-3v-1.37l1.34-.39,3.57-5Z"/>
        <path d="M1084.35,541l-2,.68-.42.88a13.79,13.79,0,0,0-2.17.53l-.7-.34-1,.34-2.24-1.9V539l-1-.63.28-3.08-.84-6.39.56-2.1-1-1.13,1.26-.49-.84-.87.28-.93.7-.39-.14-1.22h.77v-2l.28-1a2.73,2.73,0,0,1-1.33-.93l-2.24.73a4.54,4.54,0,0,1-1.9,1.61l-.14,1.08-1.61.49-.28,1.41-1,.49v.73a5.1,5.1,0,0,0-2,1.76l-1,.44-2.17,2.69-3.43,2.39-1.12,1.32-3,2.19-.77,1.18-4.13,2-4.62,3.81-1.54.29a6.55,6.55,0,0,0-2.18,1h-.42q-1.19,0-1.89-1.62-5.38-1.46-5.67-4.2l1.12-.48a10,10,0,0,1-1.12-3.91l-.77-.39.49-.54a2,2,0,0,0,.42-1q.13-.7.42-2l1-3.71a1.23,1.23,0,0,1-.14-.68,1.93,1.93,0,0,1,.42-1.12,3.38,3.38,0,0,1-.28-1.08,2.62,2.62,0,0,1,.28-1l.56-.1a3,3,0,0,0,1.19-1.91.9.9,0,0,0-.45-.78c-.31-.19-.46-.32-.46-.39s.26-.39.77-.49q-1.05-.13-1-.63c0-.33.49-.49,1.47-.49v-.19a2.77,2.77,0,0,1,.88-2,3.6,3.6,0,0,0,.94-1.25l-1-.19,1.89-2.1v-.49a4.46,4.46,0,0,1,2-3.61l-.14-1.81.63-.29a1.3,1.3,0,0,1-.49-1c0-.19.3-.29.91-.29v-1.61c.46-.1.7-.26.7-.49a.94.94,0,0,0-.14-.54,20.51,20.51,0,0,1,2-1.61,8.85,8.85,0,0,0,2-1.95h.42c1.07,0,1.61-.18,1.61-.54,0-.13-.14-.29-.42-.49,1.91,0,2.92-.26,3-.78l2.59-.93,7.43.44v.39l6,.88h.56c.89,0,1.33.28,1.33.83l.7-.19a1.56,1.56,0,0,0,1.62.88l.7-.1,1.26.88,3,.53v.88a26,26,0,0,1,5.18-1.61v1.61h-.7l1.4.49-.28.2,1.12,2.54-1.26,1-.56,1.66a6.73,6.73,0,0,1-1.33,2.05l.91,1.27c-.09.1-.36.36-.8.78a3,3,0,0,0-.67,2.25c.28.1.42.26.42.49l-.28.83.14.68-.42,1.08.28.92-.84.69.28,2.19-.42.3.42.44-.42.29a.46.46,0,0,1,.14.39,1.29,1.29,0,0,1-.42.88l.42.63-.7.88c-.37.17-.56.64-.56,1.42l.56,1.27L1077.7,527a3.81,3.81,0,0,0,1.33,1.32,8.32,8.32,0,0,0-1.75,3.85l1.19.2-.14.54a1.08,1.08,0,0,1,.14.68,3.47,3.47,0,0,1-1,2h.91l.42,1.52,2.87.19,1,1.27c-.28.13-.42.25-.42.34,0,.26.47.59,1.4,1h-.14c-.18,0-.28,0-.28.1S1083.56,540.5,1084.35,541ZM1077,505l-.84-1.81-2.31-.49-4-2.49a3.92,3.92,0,0,0-1.47-.39,5.39,5.39,0,0,0-1.12.2l-.7-.49h-2.31l-.7-.64-1.61.44-.7-.44-1.19.25-2.24-.25a18.46,18.46,0,0,0-5,1.13l.28.39-1.26.29-.28.39-1.61.15v.58a9.31,9.31,0,0,0-3.29,3.18,27.37,27.37,0,0,1-2.59,5.12l1.12.4-1.82,1.12.56.78a4.31,4.31,0,0,0-1.26,3.08v.53l-1.06,1.08v1.71a3,3,0,0,0-1.26,1.8l-.56.39v1.81l-.49.49a9,9,0,0,1-.56,2.68l.77,1.22a5.49,5.49,0,0,0-2,1.23l.56.78-.84.78,1.12,2-1.26,1.22.14,2.39-.42,1.13.7.29.28.68a4.82,4.82,0,0,1,2,1.13l3.3-.54a3.57,3.57,0,0,1,3.15-1.56l-.28-.74,2.27-.41c.07,0,.18-.2.32-.56a2.33,2.33,0,0,1,1.26-1h.28q.42,0,.42-.39l2.59-2.1h-.56l1.54-1a7.59,7.59,0,0,1,2.31-.92l1.06-1.91c1.77-.52,2.77-1.22,3-2.1h.84l1.4-1.27-.28-.83,1.33-.19a1,1,0,0,1-.28-.49c0-.1.33-.46,1-1.1s1.17-1.16,1.54-1.59l.63.2a2.5,2.5,0,0,1,1.54-1.81,2.32,2.32,0,0,1,1.12-1.24,3.1,3.1,0,0,1,1.19-.47h1l.14-1.22c.18-.13.28-.26.28-.39s-.15-.39-.42-.58a6.89,6.89,0,0,1,2-1.81l.28-1.07,1-.54-.28-.88a4.23,4.23,0,0,0,1-1.81l1.26-.88Z"/>
        <path d="M1186.76,526.65c.19.52-.39,1-1.75,1.56l.21.34c0,.33-.63,1-1.89,2.08s-1.89,1.86-1.89,2.41l-1.54.3c-.05,1.37-.91,2.16-2.59,2.39a.75.75,0,0,1-.7.59h-.28c-.15.55-.68.83-1.62.83l-.84,1.17-2,.29-1.68.78a4.46,4.46,0,0,1-.91.25l-3.15.39-1.12-.1-1,.1-.42-.39-1.26-.1-1.62-1.42h-.7a1.25,1.25,0,0,1-.56-1.07c-1.54-1.17-2.31-2.08-2.31-2.74v-.78l-1-1.32v-.58l.7-.29-.56-1.42-1-1.81.21-2.68-1.47-1.61v-2.49c-1.36-4.85-2-7.82-2-8.89v-.39a3.81,3.81,0,0,1-.28-1.12,1,1,0,0,1,.14-.59,5.17,5.17,0,0,1-1.68-2.78l-.7-.44-3,2.19-1.47,1.42-5,4.2-2,2.49a28.75,28.75,0,0,1-1.68,2.37,15.7,15.7,0,0,1-2.8,2.22l.42.93-1,1.9-1.12.1v.88h-.78l-2.73,2.29a1.92,1.92,0,0,1-1.82,1.91,5.59,5.59,0,0,0-1.12,1.85,1.75,1.75,0,0,1-1.61,1.27l-.56.39a14.69,14.69,0,0,1-2.49,2.47,24.38,24.38,0,0,1-3.25,1.93,2.62,2.62,0,0,1-1.76,2l-.14.49a2.06,2.06,0,0,1-.7,1.29c-.42.41-1.56.77-3.43,1.1-.7-.06-1.24-.62-1.61-1.66a2.72,2.72,0,0,0-1.68-1.9l-.42-.64,1.12-1.27-.14-1.22.7-.49-.7-.88.14-1.22-1.12-2.19,1-1.32-.56-1.37a7.06,7.06,0,0,0,1-4.1V524q0-.24-.84-1.17c.75-.42,1.12-.83,1.12-1.22l-.28-1.56.84-3.81-.56-.73.14-1.57-.7-.92.56-3.18-.28-1.12.42-1.81-.42-2.59,1-1.31a13.77,13.77,0,0,1,2.84.73,1.47,1.47,0,0,1,.35.9,17.5,17.5,0,0,1,.1,2.27l1.19,1.32-.42,1.9.56,4.11-1,2.19.42,2.59v1.22l-1.33,1.47.91,2.1a8.27,8.27,0,0,0-1.05,2.73l.7,1.17a10.06,10.06,0,0,0-1.12,3.91l.14,3.61.42.49,1.75-.59h1.41l.77-2.19c1.07-.23,1.72-.6,2-1.13.14-.78.86-1.17,2.17-1.17a1.94,1.94,0,0,1,1-1.51c.37,0,.82-.47,1.33-1.42a10.42,10.42,0,0,0,2.31-2.1v-1.36h.14a2.07,2.07,0,0,0,1.3-.71,2.57,2.57,0,0,1,1.85-.71A3.83,3.83,0,0,1,1130,521l2-1.71,1.82-2.78a3.92,3.92,0,0,1-.28-1q0-.3.42-.3c1.91-.88,2.87-1.74,2.87-2.59v-1.22c1.45-.39,2.17-.74,2.17-1.07a1.26,1.26,0,0,0-.21-.56,1.47,1.47,0,0,1-.21-.47c0-.32.19-.48.56-.48a2.62,2.62,0,0,1,1.12.29c.7-1.79,1.78-2.69,3.22-2.69a6.24,6.24,0,0,1,1.26.2,2.69,2.69,0,0,1,1.27-2.3c.18-.42,1.3-.92,3.36-1.51l.7-.78h.56a6.33,6.33,0,0,0,2,1.42l.28.68.7.19.28,1.91,1.89.78-.63,1.71,1,3.12v2.88l1,3.42.42,3.57,1.47,3.32.28,3.32.74.95a5.26,5.26,0,0,1,.94,2.22l.64.29v1.52l1.26,1-.28.74,1,.39v.49a5.45,5.45,0,0,0,4.48.19,2.32,2.32,0,0,0,.7.2,1.71,1.71,0,0,0,1.26-.78c1.36-.1,2-.36,2-.79v-.24c.14-.23,1.1-.55,2.87-1a7.94,7.94,0,0,1,1.47-1l-.13-.25a2.12,2.12,0,0,1,.52-.56,11.63,11.63,0,0,1,1.37-.88,4.24,4.24,0,0,0,1.33-1l.77-1.07c.6-.59,1.51-1.53,2.73-2.83l2-.69h1.33Z"/>
        <path d="M1257,529.33l-1.19,3.81.28.88-.56.49a3.49,3.49,0,0,1,.84,2.15l-.28,1,.14,2a23.08,23.08,0,0,1-.63,4.73c-.42,1.92-.68,3.21-.77,3.86l-.21,1.47a9.06,9.06,0,0,1-1.54,2.73h.77l-.35,1.51-.84.74a4.36,4.36,0,0,0-.95,1.66,8.54,8.54,0,0,1-1.23,2.19c-.46.59-1.06,1.28-1.78,2.08a9.7,9.7,0,0,1-2.42,1.95c-.89.51-2.15,1.26-3.78,2.27l-2.17.69a6.52,6.52,0,0,1-2.59,1l-.7.59c-3.37.45-5.09.68-5.19.68h-.28l-.28.34a16.26,16.26,0,0,1-4.62.59h-5.11l-3.72-.59-2.31.3-1-.64-4.13-.39-1.68-1.07a26.78,26.78,0,0,0-3.65-1.62c-2.52-.71-4-1.79-4.55-3.22l.56-.49-.56-1.8a1.7,1.7,0,0,1,1.26-.49,1.25,1.25,0,0,1,.84-.39c.14,0,.69.06,1.65.19s2.09.23,3.4.3l-.14,1a5.21,5.21,0,0,1,2,.59,1.64,1.64,0,0,1-.28.83l-.28.49c0,.74.42,1.17,1.26,1.27,0,.42.08.65.24.68l1,.24,6,1.37,1.61-.2.28.4h3.16a9.85,9.85,0,0,1,2.45.34c.88-.49,3.41-.87,7.56-1.13a5.47,5.47,0,0,0,2.31-.78c1.78-.13,2.83-.4,3.16-.83h.42a4.8,4.8,0,0,0,1.36-.19,3.35,3.35,0,0,0,1.16-.59l4.83-3.51,2.73-2.88.14-1.32,1.54-1.61.28-1.47.78-1.22.84-3,1.12-2.93-.14-2.1v-.78a5.9,5.9,0,0,1,1-3.61l-.91-2.2v-5.18l-1-1.9v-3l-1.27-2.1.29-3.37-1.76-3.71a1.69,1.69,0,0,0-1-.29,3,3,0,0,0-1.89,1l.28,1-2,.59-1.05,1.9-1.82,1.27-2.59,2.93-3.44,1.71-4.06,3.17c-1.21.79-2.32,1.47-3.32,2.06s-2,1.14-3.09,1.68a9.12,9.12,0,0,0-1.85,1.1l-.7.73a8.28,8.28,0,0,1-1.9,1l-2.31.73-1.26.93a17.86,17.86,0,0,1-3.08,1.36,2.21,2.21,0,0,1-1.82.69h-.42a12.13,12.13,0,0,1-6.31,1.71,15.65,15.65,0,0,1-2-.1l-1.19.49a13,13,0,0,0-3-.49c-3.55-2.47-5.51-4.48-5.88-6l-.84-3.9.28-2.49,1.61-3.81-.14-1.17.56-1.66a8.53,8.53,0,0,1,1.33-2.54,4.28,4.28,0,0,0,.84-2.44l.14-1.57,2.87-3.9a4.37,4.37,0,0,1,.84-.71,18,18,0,0,0,2.45-2.61l1.54-1.18a5.37,5.37,0,0,1,2.35-2.34,3.48,3.48,0,0,0,1.86-2.29,6.06,6.06,0,0,1,2.94-.88,3.75,3.75,0,0,0,3.08-1.91l1,.2,2.59-1.27a4.07,4.07,0,0,1,2.6-1.12,6.22,6.22,0,0,1,1.12.19l4.2-1.07,2.66.39h1.89l1.47.68h.84a15.11,15.11,0,0,0,2.77,2.1,16.87,16.87,0,0,1,2.7,2,3.62,3.62,0,0,1-.91,2.3h-2.24l-1.9-2.1a7.38,7.38,0,0,1-3-1.27l-.7.19a10.77,10.77,0,0,0-3-.63,10.52,10.52,0,0,0-4.9,1.32l-1-.1-.28.68H1220l-1.82.3a2.59,2.59,0,0,1-2.45,1.41A12.21,12.21,0,0,1,1213,506l-.84,1.27-1.33.25-.14.68h-1.26l-2.31,2.78-1.9.93-.84,1.81-2,2.1a5,5,0,0,0-.49,2.29l-1.54,1.17-1.61,4.5-1.4,1.12.14,1.81-1.75,4.1.56,1.36-.28,1.91a3.25,3.25,0,0,1,1.12,1.51,2.36,2.36,0,0,0,1.47,1.42l.42,1a6,6,0,0,1,1.89.58,7.77,7.77,0,0,1,2-.29l1.4.19c.19,0,.77-.06,1.76-.19.65-.55,2.94-1,6.86-1.27.47-.36,1-.83,1.68-1.42a7,7,0,0,1,1.93-1.27c.63-.26,1.42-.62,2.38-1.1a12,12,0,0,1,2.06-.85c1.69-.29,2.53-.91,2.53-1.86,2.33-.65,3.64-1.35,3.92-2.09l1.12-.25a6.07,6.07,0,0,0,1.51-.78,22.26,22.26,0,0,0,3.25-2.88l.84.39.56-.93,1.62-.39a.67.67,0,0,1-.14-.49,1.59,1.59,0,0,1,.84-1.22,3.94,3.94,0,0,0,1-.12,1,1,0,0,0,.67-.51l.49-.74,2.73-2.49h.56l.42-2c.56-.22,1.84-2.36,3.85-6.39l1.05-.25-.77-1.56-.49-1.61a4.36,4.36,0,0,0-.91-1.52l-1.47-1.7.91-1.57-.63-1.8a2,2,0,0,1,1.61-1,1.92,1.92,0,0,1,.77.15,7,7,0,0,1,1.54,1.66l1.4.49-.14,1.8.63,1.32a3.48,3.48,0,0,1,.35,1,5.71,5.71,0,0,0,.57,1.39,3.69,3.69,0,0,1,.49,1.39q0,.39-.42.39a8.36,8.36,0,0,0,1.82,2.59l-.42,2c1.07,1,1.61,1.58,1.61,1.81,0,.39-.31.79-.91,1.22l.35,1.27,1,.29-.42,1.32.56,2.59a4.2,4.2,0,0,1,.7,2.19s0,.1-.14.2a4.13,4.13,0,0,0-.42,2.29l1,.54Z"/>
        <path d="M1315.3,532.85c.7.75,1,1.3,1,1.66s-.43.81-1.3,1.66a9.85,9.85,0,0,0-2,2.69l-1,.09-1.54,2.1-1.76.2-3.85,1.8-.7,1.08L1303,544l-1.26,1h-2l-.42.48-1-.09a4.17,4.17,0,0,0-2.73,1l-.92-.48a8.07,8.07,0,0,1-2.38.48,6,6,0,0,1-2.59-.48,15.64,15.64,0,0,1-1.89.09l-.84-.49c-2.57-.09-4.3-.6-5.18-1.51v-1.22l-2.32-.88-.56-1a4.64,4.64,0,0,0-1.54-1.27v-.78l-1.61-4.74.28-3.37.56-1.9v-2.1l.77-1.81-.28-1.32a2,2,0,0,0,1-1.1,5.25,5.25,0,0,1,.84-1.49,21.29,21.29,0,0,1-.56-2.49l1.27-.73-1.27-1c.66-.74,1-1.22,1-1.41l-.7-3a5.47,5.47,0,0,1,.42-2.1,2.58,2.58,0,0,0,1.9.88,22.06,22.06,0,0,0,2.73-.39,1.49,1.49,0,0,1-.14-.69c0-.45.37-.86,1.12-1.22a17.18,17.18,0,0,1,3.15-4.59,2.2,2.2,0,0,0,1.33-2h.7l.7-1,.84-.25a4.24,4.24,0,0,1,1.47-1.46,9.48,9.48,0,0,0,3.86-2.3,4.2,4.2,0,0,0,1.19.1c.14,0,.51-.37,1.12-1.12,1.63-.39,2.5-.59,2.59-.59a1.88,1.88,0,0,1,1.26.59l1.33-.2.7.39h.84a2.88,2.88,0,0,0,2.87,1.61h.42a1.67,1.67,0,0,0,.92,1l-.64.19c1.64.56,2.46,1.84,2.46,3.86l-.42,1.12.42,2.79-.7.44-1.61,3-2.88,2.49-.14,1.41a48.68,48.68,0,0,1-8.4,4,.94.94,0,0,1-.91.58,6.08,6.08,0,0,1-1.12-.19l-3.16,1.51h-1.89l-2.73.88-1.19-.49a15.37,15.37,0,0,0-2.94-.39,4.22,4.22,0,0,0-2.17,3.66l-1,.83a8.22,8.22,0,0,1-.7,2.59l-.78.29.78,3.62-.78.48.15,1.13-.15,1.36a12.3,12.3,0,0,0,.36,1.86c.23,1,.6,1.6,1.12,1.76-.24.45.22,1,1.36,1.66A12.28,12.28,0,0,0,1286,541v.58l3.71.39,5.33.2,3.57-.3a17.88,17.88,0,0,1,3.15-1.31l1.12-1.18h1.33l.14-.48a15.49,15.49,0,0,0,3.4-1,.7.7,0,0,0,.31-.51,1.45,1.45,0,0,1,1.26-.58l.43-.64c2.1-.23,3.4-1.19,3.92-2.88A3.37,3.37,0,0,1,1315.3,532.85Zm-11.77-22.8a4.65,4.65,0,0,0,1.89-1.22l.42-1.18a18.32,18.32,0,0,0,2-2.61,3,3,0,0,0,.28-1.39,8.46,8.46,0,0,0-1-2.93l-2.87-.68a10.92,10.92,0,0,1-1.47.19L1302,500a1.49,1.49,0,0,0-1.47.88,15.65,15.65,0,0,0-3.85.73l-.42.68a1.89,1.89,0,0,0-.56-.1,1.6,1.6,0,0,0-.39,0,1.28,1.28,0,0,0-.31.15l-.28.22a1,1,0,0,0-.25.32l-.21.41-.21.44a4,4,0,0,1-.88.86l-1.05.87-2,2.69-1,.64a2,2,0,0,0-.77,1.26q-.29,1-3.78,4.69l1,.39.49.83,2.38.49a15.09,15.09,0,0,1,4.34-1.32l.42-.58a5.19,5.19,0,0,0,1.12.19,2,2,0,0,0,1.34-.58l1.68-.2,1-1.22h1l.7-1.07a6,6,0,0,0,3.57-1.22Z"/>
        <path d="M1377.15,502.72l-.42,1.22-4.2.39-2.74,1.42-1.82.2-2.31,1-2.31.73a9.79,9.79,0,0,1-2.73,1.27v.49l-2.1.73-1.47,1.62h-1.54l-.77,1.56-1.62.73a3.83,3.83,0,0,0-1.54,1.07l-1.4,1.81a3,3,0,0,0-1.89,2.69l-.7-.2-.28.64-1,.48-1,1.71c-1,1-1.54,1.78-1.54,2.3l-1.33.39V527a2.43,2.43,0,0,0-.7,1.07l.28.35-1.4.39.42.78a12.89,12.89,0,0,1-2.18,3.61l.71,1.27-1.41,1.61a5.82,5.82,0,0,1,.28,1.51l-.28,1.62.63,1.75a2.81,2.81,0,0,0,.63.59l1.06.73a6.18,6.18,0,0,1-1.76,1.71l-1.89-.49.28.88-3.15-.39v-1.32l-.42-.88.42-1.61-.42-.68.28-3.42-.28-2.29c-.65-.17-1-.36-1-.59s.33-.67,1-1.22v-1.47a7.52,7.52,0,0,0-.14-1.7l.56-.49-.56-1.91.42-1.51-.42-.93.42-2.68-.7-.79.42-.92-.84-2,.28-1.57a8.17,8.17,0,0,0-.28-1.8l.42-.49-.84-3.42-1-.49,1-1.71a4.46,4.46,0,0,1-1.47-3.32v-1.36a2.88,2.88,0,0,1-.84-.93,8.39,8.39,0,0,1,3.57-1.61l1,.19a4.6,4.6,0,0,0,1.54,2.35l-.28,2.49,1.4,7.56a1.63,1.63,0,0,1-.84,1.32l.7,2.1-.42,1.52.42,1.61-.28,1.27,1,1.51-.63.29.49,2.3,1.12.19.49-2a7,7,0,0,1,1.69-1.76c1.21-.75,1.82-1.58,1.82-2.49v-.58l.91-.3c.14,0,.25-.12.35-.36a.49.49,0,0,1,.49-.37h.42l.84-1.95,2.17-1,.14-.58h1l-.42-1.13,2.17-.68.14-1.22,2-.2a5.31,5.31,0,0,0,2.11-1.9l1.33-.2a13.33,13.33,0,0,1,2.59-1.8.8.8,0,0,0,.7-.3l2.31-.87.56-.74,1.26-.49c2.48-1.26,4.16-1.9,5-1.9h.56a3.73,3.73,0,0,0,2-.49l1.26.29a3.88,3.88,0,0,1,1.61-.48A9.88,9.88,0,0,1,1377.15,502.72Z"/>
        <path d="M1397.67,538l-.42.29.28,1.12-.77.29v.79a7,7,0,0,0-2.66,1.7,24.09,24.09,0,0,0-3.78.49.91.91,0,0,1-.74-.46.73.73,0,0,0-.66-.42h-.42c0-.26-.1-.39-.28-.39a.89.89,0,0,0-.49.2l-.28-.39-.56-.1.14-.54-.56-.39.42-.58-1-.2v-2.59c0-.39.57-.8,1.71-1.24s1.81-.87,2-1.3l.56-.29a10.46,10.46,0,0,0,2.35.51,4,4,0,0,1,1.92.76,8.71,8.71,0,0,0,2.31,1.12Z"/>
      </g>
    </g>
  </g>
  <g id="fire_start_screen">
    <g>
      <path class="cls-2" d="M109.87,742.84c14.6,66.82,34.93,116.07,65.67,133.29-20.52-78-6.47-145.34,81.22-190,.27,59.74,12.65,114.82,42.36,163.22,9.67-27.81,12.88-55.34,5.05-82.39C381,894.8,380.27,968.81,291.32,981.45l-94,1.55C102.12,979.11,50.38,925.11,109.87,742.84Z"/>
      <path class="cls-3" d="M214,925.49c17.73-18.65,25.44-44.16,28.76-72.67,28,33.6,38.87,60.87,25.65,79.27,10.55-7.16,21.1-14.74,30-24,6.22-6.5,11.47-14,12.73-23.14.47,2.73,1.6,5.15,2.24,7.82q1,4.25,1.9,8.52c1.07,5.29,1.95,10.62,2.55,16,1,9.05,1.27,18.32-.26,27.34-2.55,15-10.9,27.58-25.31,33.34-7.34,2.93-14,3.09-21.75,3.09H223.67c-6.79,0-13.84,1-20.59-.15a49.39,49.39,0,0,1-10.77-3.4,61.57,61.57,0,0,1-18.58-12.13c-14.09-13.37-21.57-32.32-26.14-50.83-.88-3.57-1.33-7.3-2.38-10.82.25.41,6.32-.43,7-.45,2.89-.1,5.78-.1,8.66,0a96.67,96.67,0,0,1,16.78,2.14,71.17,71.17,0,0,1,30.23,14.31C208.46,920.2,214.19,925.3,214,925.49Z"/>
    </g>
  </g>
</svg>
