<svg xmlns="http://www.w3.org/2000/svg" width="1920" height="1080" viewBox="0 0 1920 1080">
  <defs>
    <style>
      .cls-1 {
        fill: #895ecc;
      }

      .cls-2 {
        fill: #6129cc;
      }

      .cls-3 {
        fill: #5e3a1b;
      }

      .cls-4 {
        fill: #754c24;
      }

      .cls-5 {
        fill: #42210b;
      }

      .cls-6 {
        fill: #8c6239;
      }

      .cls-7 {
        fill: #29abe2;
      }

      .cls-8 {
        fill: #22b573;
      }

      .cls-9 {
        fill: #00a99d;
      }

      .cls-10 {
        fill: #009245;
      }

      .cls-11 {
        fill: #602077;
      }

      .cls-12 {
        fill: #8cc63f;
      }

      .cls-13 {
        fill: #c7b299;
      }

      .cls-14 {
        fill: #534741;
      }

      .cls-15 {
        fill: #006837;
      }

      .cls-16 {
        fill: #39b54a;
      }

      .cls-17 {
        fill: #693f8e;
      }

      .cls-18 {
        fill: #5f288e;
      }

      .cls-19 {
        fill: #2e3192;
      }

      .cls-20 {
        fill: #211f63;
      }

      .cls-21 {
        fill: #82542a;
      }

      .cls-22 {
        fill: #a67c52;
      }

      .cls-23 {
        fill: #7f4b20;
      }

      .cls-24 {
        fill: #d6c5ba;
      }

      .cls-25 {
        fill: #3354cc;
      }

      .cls-26 {
        fill: #1b661e;
      }

      .cls-27 {
        fill: #55148e;
      }

      .cls-28 {
        fill: #904ece;
      }

      .cls-29 {
        fill: #baaecc;
      }

      .cls-30 {
        fill: #6309cc;
      }

      .cls-31 {
        fill: #f4800c;
      }

      .cls-32 {
        fill: #f7931e;
      }

      .cls-33 {
        fill: #fff;
      }

      .cls-34 {
        fill: none;
      }

      .cls-35 {
        fill: #f15a24;
      }
    </style>
  </defs>
  <g id="background">
    <rect class="cls-1" width="1920" height="832"/>
    <rect class="cls-2" y="827" width="1920" height="253"/>
  </g>
  <g id="bookshelf">
    <g>
      <rect class="cls-3" x="550" y="867" width="21" height="26"/>
      <rect class="cls-4" x="571" y="867" width="21" height="26"/>
      <rect class="cls-4" x="565" y="218" width="102" height="649"/>
      <rect class="cls-4" x="235" y="218" width="102" height="649"/>
      <rect class="cls-4" x="316" y="867" width="21" height="26"/>
      <rect class="cls-5" x="364" y="249" width="201" height="588"/>
      <path class="cls-6" d="M667,218v.5H364V218H337V893h27V868H667v25h27V218Zm0,619H364V705H667Zm0-163H364V549H667Zm0-156H364V399H667Zm0-150H364V249.5H667Z"/>
      <rect class="cls-4" x="646" y="867" width="21" height="26"/>
      <rect class="cls-4" x="235" y="867" width="21" height="26"/>
      <path class="cls-3" d="M235,218h33a0,0,0,0,1,0,0V569.37A13.63,13.63,0,0,1,254.37,583h-5.73A13.63,13.63,0,0,1,235,569.37V218A0,0,0,0,1,235,218Z"/>
      <path class="cls-3" d="M301,218h35a0,0,0,0,1,0,0V325.26A10.74,10.74,0,0,1,325.26,336H311.74A10.74,10.74,0,0,1,301,325.26V218A0,0,0,0,1,301,218Z"/>
      <rect class="cls-3" x="286" y="504" width="33" height="158" rx="14.89"/>
      <path class="cls-3" d="M297.16,709h7.19A11.65,11.65,0,0,1,316,720.65V867a0,0,0,0,1,0,0H283a0,0,0,0,1,0,0V723.16A14.16,14.16,0,0,1,297.16,709Z"/>
      <rect class="cls-6" x="256" y="867" width="21" height="26"/>
    </g>
  </g>
  <g id="books">
    <g>
      <g>
        <rect class="cls-7" x="364" y="289.55" width="35" height="79.45"/>
        <rect class="cls-8" x="399" y="283.76" width="35" height="85.24"/>
        <rect class="cls-9" x="434" y="289.55" width="35" height="79.45"/>
        <rect class="cls-10" x="469" y="273" width="21" height="96"/>
        <rect class="cls-11" x="490" y="289.55" width="35" height="79.45"/>
        <rect class="cls-12" x="525" y="283.76" width="35" height="85.24"/>
        <rect class="cls-13" x="560" y="289.55" width="28" height="79.45"/>
        <rect class="cls-14" x="588" y="287.07" width="35" height="81.93"/>
        <rect class="cls-15" x="623" y="289.55" width="25" height="79.45"/>
        <rect class="cls-8" x="648" y="289.55" width="19" height="79.45"/>
      </g>
      <g>
        <rect class="cls-7" x="562" y="761" width="35" height="77"/>
        <rect class="cls-8" x="385" y="751.76" width="35" height="86.24"/>
        <rect class="cls-9" x="597" y="749" width="35" height="89"/>
        <rect class="cls-10" x="364" y="741" width="21" height="97"/>
        <rect class="cls-11" x="632" y="757.55" width="35" height="79.45"/>
        <rect class="cls-12" x="420" y="746" width="35" height="92"/>
        <rect class="cls-13" x="499" y="758.55" width="28" height="79.45"/>
        <rect class="cls-14" x="527" y="752" width="35" height="86.34"/>
        <rect class="cls-15" x="455" y="755" width="25" height="83"/>
      </g>
      <rect class="cls-8" x="480" y="761" width="19" height="77"/>
      <g>
        <rect class="cls-7" x="518" y="425" width="35" height="94"/>
        <rect class="cls-8" x="455" y="430" width="35" height="89"/>
        <rect class="cls-9" x="553" y="439.55" width="35" height="79.45"/>
        <rect class="cls-10" x="364" y="423" width="21" height="96"/>
        <rect class="cls-11" x="385" y="439.55" width="35" height="79.45"/>
        <rect class="cls-12" x="420" y="433.76" width="35" height="85.24"/>
        <rect class="cls-13" x="490" y="439.55" width="28" height="79.45"/>
        <rect class="cls-14" x="588" y="437.07" width="35" height="81.93"/>
        <rect class="cls-15" x="623" y="431" width="25" height="88"/>
        <rect class="cls-8" x="648" y="439.55" width="19" height="79.45"/>
      </g>
      <g>
        <rect class="cls-15" x="364" y="651" width="140" height="24"/>
        <rect class="cls-10" x="364" y="629" width="127" height="22"/>
        <rect class="cls-16" x="364" y="612" width="134" height="17"/>
        <g>
          <rect class="cls-17" x="646" y="591" width="21" height="84"/>
          <rect class="cls-18" x="588" y="591" width="58" height="84"/>
        </g>
        <g>
          <rect class="cls-19" x="580.33" y="606" width="18.67" height="69"/>
          <rect class="cls-20" x="543" y="606" width="37.33" height="69"/>
        </g>
      </g>
    </g>
  </g>
  <g id="bookshelf2">
    <g>
      <rect class="cls-3" x="1777.01" y="860.64" width="21" height="26"/>
      <rect class="cls-4" x="1798.01" y="860.64" width="21" height="26"/>
      <rect class="cls-4" x="1792.01" y="211.64" width="102" height="649"/>
      <rect class="cls-4" x="1462.01" y="211.64" width="102" height="649"/>
      <rect class="cls-4" x="1543.01" y="860.64" width="21" height="26"/>
      <rect class="cls-5" x="1591.01" y="242.64" width="201" height="588"/>
      <path class="cls-6" d="M1894,211.64v.5H1591v-.5h-27v675h27v-25h303v25h27v-675Zm0,619H1591v-132h303Zm0-163H1591v-125h303Zm0-156H1591v-119h303Zm0-150H1591V243.14h303Z"/>
      <rect class="cls-4" x="1873.01" y="860.64" width="21" height="26"/>
      <rect class="cls-4" x="1462.01" y="860.64" width="21" height="26"/>
      <path class="cls-3" d="M1462,211.64h33a0,0,0,0,1,0,0V563a13.63,13.63,0,0,1-13.63,13.63h-5.73A13.63,13.63,0,0,1,1462,563V211.64A0,0,0,0,1,1462,211.64Z"/>
      <path class="cls-3" d="M1528,211.64h35a0,0,0,0,1,0,0V318.9a10.74,10.74,0,0,1-10.74,10.74h-13.53A10.74,10.74,0,0,1,1528,318.9V211.64A0,0,0,0,1,1528,211.64Z"/>
      <rect class="cls-3" x="1513.01" y="497.64" width="33" height="158" rx="14.89"/>
      <path class="cls-3" d="M1524.17,702.64h7.19A11.65,11.65,0,0,1,1543,714.29V860.64a0,0,0,0,1,0,0h-33a0,0,0,0,1,0,0V716.8a14.16,14.16,0,0,1,14.16-14.16Z"/>
      <rect class="cls-6" x="1483.01" y="860.64" width="21" height="26"/>
    </g>
    <g>
      <g>
        <rect class="cls-7" x="1591.01" y="283.02" width="35" height="79.45"/>
        <rect class="cls-8" x="1626.01" y="277.23" width="35" height="85.24"/>
        <rect class="cls-9" x="1661.01" y="283.02" width="35" height="79.45"/>
        <rect class="cls-10" x="1696.01" y="266.47" width="21" height="96"/>
        <rect class="cls-11" x="1717.01" y="283.02" width="35" height="79.45"/>
        <rect class="cls-12" x="1752.01" y="277.23" width="35" height="85.24"/>
        <rect class="cls-13" x="1787.01" y="283.02" width="28" height="79.45"/>
        <rect class="cls-14" x="1815.01" y="280.54" width="35" height="81.93"/>
        <rect class="cls-15" x="1850.01" y="283.02" width="25" height="79.45"/>
        <rect class="cls-8" x="1875.01" y="283.02" width="19" height="79.45"/>
      </g>
      <g>
        <rect class="cls-7" x="1789.01" y="754.47" width="35" height="77"/>
        <rect class="cls-8" x="1612.01" y="745.23" width="35" height="86.24"/>
        <rect class="cls-9" x="1824.01" y="742.47" width="35" height="89"/>
        <rect class="cls-10" x="1591.01" y="734.47" width="21" height="97"/>
        <rect class="cls-11" x="1859.01" y="751.02" width="35" height="79.45"/>
        <rect class="cls-12" x="1647.01" y="739.47" width="35" height="92"/>
        <rect class="cls-13" x="1726.01" y="752.02" width="28" height="79.45"/>
        <rect class="cls-14" x="1754.01" y="745.47" width="35" height="86.34"/>
        <rect class="cls-15" x="1682.01" y="748.47" width="25" height="83"/>
      </g>
      <rect class="cls-8" x="1707.01" y="754.47" width="19" height="77"/>
      <g>
        <rect class="cls-7" x="1745.01" y="418.47" width="35" height="94"/>
        <rect class="cls-8" x="1682.01" y="423.47" width="35" height="89"/>
        <rect class="cls-9" x="1780.01" y="433.02" width="35" height="79.45"/>
        <rect class="cls-10" x="1591.01" y="416.47" width="21" height="96"/>
        <rect class="cls-11" x="1612.01" y="433.02" width="35" height="79.45"/>
        <rect class="cls-12" x="1647.01" y="427.23" width="35" height="85.24"/>
        <rect class="cls-13" x="1717.01" y="433.02" width="28" height="79.45"/>
        <rect class="cls-14" x="1815.01" y="430.54" width="35" height="81.93"/>
        <rect class="cls-15" x="1850.01" y="424.47" width="25" height="88"/>
        <rect class="cls-8" x="1875.01" y="433.02" width="19" height="79.45"/>
      </g>
      <g>
        <rect class="cls-15" x="1591.01" y="644.47" width="140" height="24"/>
        <rect class="cls-10" x="1591.01" y="622.47" width="127" height="22"/>
        <rect class="cls-16" x="1591.01" y="605.47" width="134" height="17"/>
        <g>
          <rect class="cls-17" x="1873.01" y="584.47" width="21" height="84"/>
          <rect class="cls-18" x="1815.01" y="584.47" width="58" height="84"/>
        </g>
        <g>
          <rect class="cls-19" x="1807.34" y="599.47" width="18.67" height="69"/>
          <rect class="cls-20" x="1770.01" y="599.47" width="37.33" height="69"/>
        </g>
      </g>
    </g>
  </g>
  <g id="table">
    <g>
      <rect class="cls-21" x="1440" y="659" width="289" height="42"/>
      <rect class="cls-22" x="1298" y="659" width="142" height="42"/>
      <rect class="cls-22" x="1309" y="701" width="28" height="253"/>
      <rect class="cls-22" x="1337" y="701" width="103" height="24"/>
      <rect class="cls-22" x="1414" y="720" width="26" height="234"/>
      <rect class="cls-21" x="1337" y="725" width="21" height="229"/>
      <rect class="cls-22" x="1573" y="701" width="28" height="253"/>
      <rect class="cls-23" x="1601" y="725" width="21" height="229"/>
      <rect class="cls-21" x="1440" y="709" width="21" height="245"/>
      <rect class="cls-22" x="1673" y="725" width="21" height="229"/>
      <rect class="cls-21" x="1458" y="709" width="262" height="19"/>
      <rect class="cls-23" x="1309" y="701" width="411" height="8"/>
      <rect class="cls-21" x="1694" y="725" width="26" height="229"/>
    </g>
  </g>
  <g id="books_on_the_table">
    <g>
      <path class="cls-24" d="M1676,659h-44q-8.05-12.5,0-25h44Q1666.32,646.5,1676,659Z"/>
      <path class="cls-25" d="M1637,659h-74.21q-13.57-12.5,0-25H1637Q1620.67,646.5,1637,659Z"/>
      <rect class="cls-25" x="1633" y="634" width="43" height="3"/>
      <rect class="cls-25" x="1633" y="656" width="43" height="3"/>
    </g>
    <g>
      <path class="cls-24" d="M1662,634h-37.58q-6.87-9.5,0-19H1662Q1653.74,624.5,1662,634Z"/>
      <path class="cls-26" d="M1627.75,634h-55.66q-10.18-9.5,0-19h55.66Q1615.5,624.5,1627.75,634Z"/>
      <rect class="cls-26" x="1616" y="632" width="46" height="2"/>
      <rect class="cls-26" x="1616" y="615" width="46" height="2"/>
    </g>
  </g>
  <g id="painting">
    <g>
      <rect class="cls-27" x="956" y="148" width="306" height="16"/>
      <rect class="cls-27" x="956" y="335" width="306" height="16"/>
      <rect class="cls-27" x="863.5" y="242.5" width="201" height="16" transform="translate(1214.5 -713.5) rotate(90)"/>
      <rect class="cls-27" x="1153.5" y="242.5" width="201" height="16" transform="translate(1504.5 -1003.5) rotate(90)"/>
      <rect class="cls-28" x="972" y="279" width="274" height="56"/>
      <rect class="cls-29" x="972" y="164" width="274" height="87"/>
      <polygon class="cls-30" points="972 279 1246 279 1246 209.28 972 250.5 972 279"/>
    </g>
  </g>
  <g id="kitten">
    <path class="cls-31" d="M1452.86,583.69a78.94,78.94,0,0,1,29.82,13.64c7.08,5.27,16.91,12.6,21.89,26,8.06,21.69-3.17,41.52-5.71,46-1.48,2.61-13.32,23.06-25.38,21.25-2.38-.35-5.72-1.72-6.34-4.12-1.09-4.19,7.12-7.48,14.59-16.18,2.5-2.91,10.71-12.72,11.74-26.65a41.29,41.29,0,0,0-7-26c-1.63-2.35-8.37-12.11-20-15.22-6.55-1.76-9.88-.11-14-3.49-4.86-4-7-12.11-4.44-14.6C1448.75,583.7,1450.05,583.1,1452.86,583.69Z"/>
    <path class="cls-32" d="M1347.06,513.85c-6.52,23.16-11.08,43.14-14.28,58.8-3.64,17.83-5,27.73-2.22,39.87a68.31,68.31,0,0,0,14,27.71c2.21,2.62,19.67,22.74,46.32,23,31.8.28,60.29-27.89,63.45-55.75,1.62-14.24-3.59-26.54-12.37-47.31a153.24,153.24,0,0,0-18.72-32.77c-7.79-10.33-12.87-17.05-20.31-21.29C1381.09,493.65,1352.67,510.4,1347.06,513.85Z"/>
    <path class="cls-31" d="M1361.32,661.34c-.74,1-1.88,1.46-3.58,2.08a13,13,0,0,1-4,.89,10.7,10.7,0,0,1-4.67-.9c-2.11-.94-2.33-2.1-2.59-4.26-.64-5.36-1.13-10.74-1.38-16.13s-.27-11,0-16.43.21-11.56,1.69-16.73c4.87-17,13.6-16.79,14.91,0,.74,9.74,1.27,19.5,1.27,29.26,0,4.39-.11,8.78-.39,13.16a56,56,0,0,1-.32,6.73A5.64,5.64,0,0,1,1361.32,661.34Z"/>
    <path class="cls-31" d="M1410.79,660.66c.82,1,2,1.32,3.72,1.82a13.57,13.57,0,0,0,4.1.6,10.69,10.69,0,0,0,4.59-1.23c2-1.09,2.18-2.26,2.28-4.43.26-5.4.37-10.8.23-16.19s-.5-11-1.15-16.39-1-11.52-2.87-16.57c-6-16.57-14.75-15.78-14.87,1.06,0,9.76.11,19.54.8,29.28.31,4.37.73,8.74,1.32,13.09a53.74,53.74,0,0,0,.81,6.7A5.67,5.67,0,0,0,1410.79,660.66Z"/>
    <path class="cls-32" d="M1421.61,474.08c0,26.76-23.15,41.31-50.76,42.51-28.09,1.22-53.45-16.12-50.76-42.51s24.52-41.34,50.76-42.51C1400,430.27,1421.67,446.69,1421.61,474.08Z"/>
    <g>
      <g>
        <path d="M1351.82,470.27c-.37,6.58-4.69,9.53-11.1,10.15s-10.38-3.14-11.09-10.15c-.56-5.57,4.32-9.63,11.09-10.15S1352.16,464.05,1351.82,470.27Z"/>
        <path d="M1402,470c-.36,6.83-4.68,11.13-11.09,10.54-5.65-.52-10.49-3.92-11.09-10.54-.54-5.86,6.07-10.54,11.09-10.54C1397.61,459.49,1402.3,463.56,1402,470Z"/>
      </g>
      <path class="cls-33" d="M1334.58,472c.22,1.33-.22,1.23-1.26-.19-.74-1.71-.39-3.49.81-5.33,1.45-1.56,1.7-1,1.25.19A8.61,8.61,0,0,0,1334.58,472Z"/>
      <path class="cls-33" d="M1386.29,472c.22,1.33-.21,1.23-1.26-.19-.73-1.71-.38-3.49.81-5.33,1.45-1.56,1.7-1,1.26.19A8.68,8.68,0,0,0,1386.29,472Z"/>
    </g>
    <g>
      <path class="cls-5" d="M1347.12,453.12l-.06,0h0l-.31,0c-8.08.86-13.48,3.53-17.26,7.28l-.12-.29c3.79-4.71,9.54-7.17,17.32-7.3a34,34,0,0,0-1.24-5l.37-.09C1346.19,449.08,1346.65,451,1347.12,453.12Z"/>
      <path class="cls-5" d="M1347.05,453.14l-.31.08v-.05Z"/>
      <path class="cls-5" d="M1348.17,448.64a1.62,1.62,0,0,1,.35-.12,29.18,29.18,0,0,1,1.53,4.37.51.51,0,0,0-.35.12A30.63,30.63,0,0,0,1348.17,448.64Z"/>
    </g>
    <g>
      <path class="cls-5" d="M1383.79,452h.08l.36,0c9.45-.38,16.15,1.44,21.16,4.57l.09-.31c-5.2-4.08-12.26-5.63-21.23-4.58a29.69,29.69,0,0,1,.54-5.11l-.45,0C1384.14,447.9,1384,449.91,1383.79,452Z"/>
      <path class="cls-5" d="M1383.87,452.05l.36,0s0,0,0,0Z"/>
      <path class="cls-5" d="M1381.79,447.77a1.58,1.58,0,0,0-.43-.07,25.33,25.33,0,0,0-1,4.56.66.66,0,0,1,.43.06A25.37,25.37,0,0,1,1381.79,447.77Z"/>
    </g>
    <path class="cls-34" d="M1343.26,494.39a.93.93,0,0,0,.34.05l3.14.07a8.43,8.43,0,0,0-.12,1.33.45.45,0,0,0,.08.34c.15.16.42,0,.6-.07"/>
    <path class="cls-32" d="M1415.51,452.37a.82.82,0,0,1-.45.14.8.8,0,0,1-.44-.13L1385,433.11a.79.79,0,0,1-.26-1.06l18.38-31.66a.8.8,0,0,1,.81-.38.79.79,0,0,1,.65.61l11.21,50.93A.78.78,0,0,1,1415.51,452.37Z"/>
    <polygon class="cls-35" points="1400.67 416.97 1394.63 428.95 1403.53 433.79 1400.67 416.97"/>
    <g>
      <path class="cls-32" d="M1348.75,439.22l-25.26,24.68a.78.78,0,0,1-.55.23.91.91,0,0,1-.32-.06.83.83,0,0,1-.48-.75l1-52.13a.78.78,0,0,1,.52-.73.76.76,0,0,1,.86.22l24.21,27.45A.79.79,0,0,1,1348.75,439.22Z"/>
      <polygon class="cls-35" points="1328.98 425.18 1337.25 435.75 1329.47 442.23 1328.98 425.18"/>
    </g>
    <g>
      <path class="cls-35" d="M1280.22,495.52c25-2.09,49.22-6.27,63.1-2.14l0,.48c-12.52-3.3-38.5-.35-63.11,2.13Z"/>
      <path class="cls-35" d="M1306.52,499.24c15.06-4.05,29.4-6,40.79-4.16l.07.67c-7-1.81-23.6-.63-40.79,4.16Z"/>
      <path class="cls-35" d="M1292.33,507.77c18.1-5.32,35.3-8.87,50.79-9.68l-.13-.69c-14.25.85-32,4.7-50.79,9.69Z"/>
      <path class="cls-35" d="M1306.75,515.2c13.36-7.1,26.88-12.14,40.59-14.65l-.22-.6c-13.74,2.39-27.26,7.44-40.58,14.65Z"/>
    </g>
    <g>
      <path class="cls-35" d="M1443.62,484.07c-25,2.64-49.54,3.06-62.39,9.72l.07.47c11.68-5.59,37.75-7.54,62.39-9.72Z"/>
      <path class="cls-35" d="M1423.77,491.06c-15.54-1.16-30-.41-40.84,3.55l.06.68c6.53-3.1,23.06-5.05,40.84-3.56Z"/>
      <path class="cls-35" d="M1435.57,498.08c-18.78-1.84-36.34-2.1-51.71,0v-.7c14.16-1.83,32.29-1.37,51.71,0Z"/>
      <path class="cls-35" d="M1423.2,507.5a140.55,140.55,0,0,0-42.61-6.79l.1-.63c14-.23,28.17,2.2,42.61,6.79Z"/>
    </g>
  </g>
</svg>
