<svg xmlns="http://www.w3.org/2000/svg" width="80" height="75" viewBox="0 0 80 75">
  <defs>
    <style>
      .cls-1 {
        fill: #a31f00;
      }
    </style>
  </defs>
  <g id="UI_hearts">
    <path class="cls-1" d="M57.25,11.68a12,12,0,0,1,8.57,3.55l1.06,1.06a12.14,12.14,0,0,1,0,17.15L40.17,60.15l0,0-.31.31L13.12,33.71a12.14,12.14,0,0,1,0-17.15l1.06-1.06a12.13,12.13,0,0,1,17.15,0l3.58,3.59,5,4.95,5-4.95,3.86-3.86a12.06,12.06,0,0,1,8.58-3.55m0-7a19.1,19.1,0,0,0-13.53,5.6l-3.86,3.86-3.58-3.59a19.13,19.13,0,0,0-27,0L8.17,11.61a19.13,19.13,0,0,0,0,27.05L39.82,70.32l.32-.31,0,0L71.83,38.39a19.13,19.13,0,0,0,0-27l-1.06-1.06a19.07,19.07,0,0,0-13.52-5.6Z"/>
  </g>
</svg>
