<svg xmlns="http://www.w3.org/2000/svg" xmlns:xlink="http://www.w3.org/1999/xlink" width="55" height="55" viewBox="0 0 55 55">
  <defs>
    <style>
      .cls-1 {
        filter: url(#AI_GaussianBlur_4_1_);
      }

      .cls-2 {
        fill: #521fcc;
      }

      .cls-3 {
        fill: #895ecc;
      }

      .cls-4 {
        fill: #040307;
      }
    </style>
    <filter id="AI_GaussianBlur_4_1_" name="AI_GaussianBlur_4_1_">
      <feGaussianBlur stdDeviation="4"/>
    </filter>
  </defs>
  <g id="UI_settings_open">
    <g>
      <g class="cls-1">
        <rect class="cls-2" x="5.85" y="6.74" width="43.54" height="43.54"/>
      </g>
      <path d="M24.61,11a1,1,0,0,1-.44.44v.16l-.23.26q-.12.15-.21.15a.33.33,0,0,1-.14-.05l-.7.84-.18.28-.63.2-.32.47-.29.13a2.8,2.8,0,0,0-.57.49l-.16-.1,0-.32.6-.27c.08-.42.19-.66.32-.72s.2-.09.2-.11v-.1l.13-.07.05,0,.06-.19h.11l-.11-.23h.41v-.37l.19-.05.13-.2.21-.08.19-.35q.11,0,.15-.15h.15l0-.27a.88.88,0,0,0,.32-.52A1,1,0,0,1,24.61,11ZM27.2,24.12l-.05.26-.24.18-.1.32-.36.1a1.22,1.22,0,0,1-.37.65l-.32.11-.28.31a2.2,2.2,0,0,0-.45.47h-.18a.75.75,0,0,1-.57.3l-.32.4a1.29,1.29,0,0,1-.49.19l-.38.08-.1.16h-.42l-.23.17-.65-.48-.37-.84-.05-1.36-.08-.26.26-2.15.16-.13-.07-1.34a1.33,1.33,0,0,1,.07-.45,4.81,4.81,0,0,0,.13-.58l.1-.06a1.64,1.64,0,0,0-.18-.73l.1-.35v-.48l.13-.17A2.56,2.56,0,0,0,21.8,18c0-.16-.06-.25-.06-.26s0-.21.1-.21,0,0,.05,0a1.93,1.93,0,0,1-.18-.53.17.17,0,0,1,.18-.19.35.35,0,0,1,.17.07.43.43,0,0,0,.2.07l.13-.05c0-.14.06-.22.18-.22s.16,0,.17.06a4.5,4.5,0,0,1,.07.49l.28.13-.23.29-.27,1.68.22.42a.62.62,0,0,1-.24.49l-.08.34.08.29L22.26,22l0,.13-.13.87v.63l-.19.42.05.35L22,25a2.7,2.7,0,0,0,.22,1.18l0,.14.23.15.27-.08.3.13.37-.18a1.38,1.38,0,0,1,.45-.19L24,26l.05.08.16-.2.26-.08a1.66,1.66,0,0,1,.65-.35.48.48,0,0,1,.37-.2l.16-.24.29,0-.06-.28H26l.05-.14.55-.28.05-.32.5,0A.74.74,0,0,1,27.2,24.12Z"/>
      <rect class="cls-3" x="2.28" y="0.61" width="42.63" height="44.62"/>
      <path class="cls-4" d="M27.91,9.27a1.37,1.37,0,0,1-.63.61v.24l-.33.36c-.11.15-.2.22-.29.22a.79.79,0,0,1-.2-.07l-1,1.19-.26.4-.89.27-.45.67-.41.18a3.94,3.94,0,0,0-.82.71l-.22-.15,0-.45.85-.38c.12-.6.27-.94.46-1s.28-.13.28-.16v-.14l.18-.11.07,0,.09-.27h.15l-.15-.32h.58v-.53l.28-.07.18-.29.29-.11.27-.49c.09,0,.17-.07.22-.21h.21l0-.39a1.24,1.24,0,0,0,.45-.74A1.46,1.46,0,0,1,27.91,9.27Zm3.68,18.65-.08.36-.34.26L31,29l-.51.14a1.81,1.81,0,0,1-.53.93l-.45.16-.4.44a2.92,2.92,0,0,0-.63.67h-.26a1,1,0,0,1-.81.41,6.45,6.45,0,0,0-.45.58,1.86,1.86,0,0,1-.7.26l-.54.12-.14.22H25l-.32.25-.93-.69-.52-1.19-.07-1.92L23.06,29l.36-3,.23-.18-.1-1.91a1.91,1.91,0,0,1,.1-.64,6.86,6.86,0,0,0,.19-.82l.14-.09a2.37,2.37,0,0,0-.25-1l.14-.48V20.1l.18-.24a4.41,4.41,0,0,0-.12-.59,3.06,3.06,0,0,1-.09-.37c0-.19,0-.29.14-.29a.09.09,0,0,0,.07,0,2.7,2.7,0,0,1-.25-.74c0-.19.08-.28.25-.28a.77.77,0,0,1,.25.1.56.56,0,0,0,.28.1.62.62,0,0,0,.18-.07c0-.21.08-.31.25-.31s.23,0,.25.08,0,.29.1.7l.39.18-.32.42-.38,2.37.31.6a.91.91,0,0,1-.35.71L24.9,23l.11.41-.43,1.52,0,.19-.18,1.23v.89l-.27.59.07.51-.07.85a3.86,3.86,0,0,0,.31,1.67l0,.2.33.21.38-.11.43.19.53-.26a1.56,1.56,0,0,1,.63-.27l.26-.25.07.11.22-.29.38-.11a2.11,2.11,0,0,1,.92-.49.64.64,0,0,1,.53-.29l.21-.35.42,0-.09-.4h.16l.07-.2.78-.4.08-.45.7,0A1.14,1.14,0,0,1,31.59,27.92Z"/>
    </g>
  </g>
</svg>
