<svg xmlns="http://www.w3.org/2000/svg" width="110" height="110" viewBox="0 0 110 110">
  <defs>
    <style>
      .cls-1 {
        fill: #54329e;
      }

      .cls-2 {
        fill: #a28dcc;
      }
    </style>
  </defs>
  <g id="start_screen_title">
    <g>
      <rect class="cls-1" x="4.03" y="34.69" width="65.93" height="45.69" rx="21.96"/>
      <g>
        <polygon class="cls-1" points="107.53 57.34 48.68 10.42 48.68 104.25 107.53 57.34"/>
        <path class="cls-1" d="M48.68,105.81a1.64,1.64,0,0,1-.68-.15,1.56,1.56,0,0,1-.88-1.41V10.42A1.55,1.55,0,0,1,48,9a1.57,1.57,0,0,1,1.65.18L108.5,56.12a1.56,1.56,0,0,1,0,2.43L49.65,105.47A1.53,1.53,0,0,1,48.68,105.81Zm1.56-92.16V101L105,57.34Z"/>
      </g>
      <g>
        <rect class="cls-2" x="0.92" y="30.01" width="65.93" height="45.69" rx="12.33"/>
        <g>
          <polygon class="cls-2" points="104.41 52.66 45.56 5.75 45.56 99.58 104.41 52.66"/>
          <path class="cls-2" d="M45.56,101.14a1.44,1.44,0,0,1-.67-.16,1.55,1.55,0,0,1-.88-1.4V5.75a1.55,1.55,0,0,1,2.52-1.22l58.85,46.92a1.55,1.55,0,0,1,0,2.43L46.53,100.8A1.57,1.57,0,0,1,45.56,101.14ZM47.12,9V96.35l54.79-43.69Z"/>
        </g>
        <g>
          <path d="M32.17,54.57l-.23.32.16.09a1.42,1.42,0,0,1-.32.36l-.05.31-.29,0-.08.18a1.93,1.93,0,0,1-.4.3l-.17,0a1.19,1.19,0,0,1-.66.22L30,56.22l0,.2-.55-.27a.8.8,0,0,0-.26.18l-.09-.11-.73-.07-.43.07L27.68,56l-.51.08-.24-.22a.9.9,0,0,1-.38.12.7.7,0,0,1-.36-.12.37.37,0,0,0-.12.26,1.65,1.65,0,0,0,.05.22,1.45,1.45,0,0,1,.05.29,1.49,1.49,0,0,1-.12.45l.09.32-.2.23a5.41,5.41,0,0,1,.09.94l-.09.67.09.84-.23.32.14.46-.14.55.23.07v.26a.21.21,0,0,0-.18.24,2,2,0,0,0,0,.24l.07,0a1,1,0,0,0-.21.46l-.05,1.89c0,.28-.07.41-.19.41l-.34,0,0-.46-.11-1,.19-.38.07-.72-.15-.82a.33.33,0,0,0,.19-.26,2.85,2.85,0,0,0-.14-.52l.17-.32L25.25,60l.17-.41-.07-.43.22-.14a.38.38,0,0,1-.34-.39,4.74,4.74,0,0,1,.19-.87l-.14-.28.09-.38-.09-.1.09-.14L25.28,56l.14-1.14-.17-.25.34-.16-.17,0-.14-.25L25.13,54l.12-.07,0,.07.07-.11-.1-.1.27.05-.1-.15.1,0v-.12c-.12-.05-.17-.11-.17-.16a.71.71,0,0,1,.07-.32l-.07-.26q-.15,0-.15-.12s0-.05.12-.05h.05v-.07h.15l-.17-.21.07-.32v-.28l0-.18-.09-.38.09-.42-.09-.34.09-.44-.09-.16,0-.39,0-.27,0-.37a1,1,0,0,1-.17-.55H25l-.2-.13-.36.29v-.07l-.16.07h-.34l-.07.14-.28,0-.23.23-.28,0-.2.35-.3-.14-.07.19c-.32-.18-.48-.36-.48-.53s0-.1.13-.15.13-.1.13-.15a.93.93,0,0,0-.08-.25,2,2,0,0,1,.85-.21l.07,0,.21-.23a3.19,3.19,0,0,1,.64-.33l.09.08.21-.25.52,0,.39-.12.07,0,.1-.5h.22a1.19,1.19,0,0,0,.57.63l.1-.17.16.12.13-.08a1.75,1.75,0,0,1,.68.2,1.76,1.76,0,0,0,.54.21.67.67,0,0,1,.38.2l.15-.1,0,.17.32.17,0-.07.21.07.18.23a.73.73,0,0,0,.24.22l.4.24,0,.13L30,49v.07a.55.55,0,0,1,.33.43l.27.17.19.43h.12v.22l.14.14a1.18,1.18,0,0,1,.12.42l.19,0a.74.74,0,0,0,.32.62v.32l.19.26,0,.29a2.85,2.85,0,0,0,.12.27,1.43,1.43,0,0,1,.13.54l-.12,0,0,.19v.19l.12,0-.17.48Zm-.65-.74,0-.2,0-.14-.13-.43.11-.24-.15-.31,0-.3-.21-.39L31,51.5l-.44-.77-.24-.21L30.17,50l-.31-.12-.33-.46v-.09l-.27-.08-.23,0-.32-.42-.17,0-.12-.23-.36-.07h-.29l-.05-.09-.16.09-.13-.14-.16,0-.1-.16-.22,0-.76-.13a.34.34,0,0,0-.22.32.24.24,0,0,0,0,.12,1.42,1.42,0,0,1,0,.41l-.08.5.17.53.19.17-.19.43.05.41-.14.86.09.19-.11.29.21.29-.12.08,0,.3.19.12-.19.22.14.24-.23.31.09.48,0,.39.12.43.89-.06,0,.16a1.21,1.21,0,0,1,.17-.2,2.27,2.27,0,0,1,.24.27l.19-.06.14,0a1.29,1.29,0,0,1,.41.1c.05-.1.11-.14.18-.14s.07,0,.09.09H29l.29,0,.36-.14,0,.09a2.29,2.29,0,0,0,1-.27h.07c.12,0,.19-.07.19-.21l.17.07,0-.27.22-.05,0-.23-.07-.25.18-.14L31.44,54Z"/>
          <path d="M40.18,54.11a.29.29,0,0,1,.15.23c0,.19,0,.3-.15.32-.19.31-.38.46-.57.46,0,.07-.26.34-.79.8a.77.77,0,0,0-.31.13l-.32.3a.43.43,0,0,0-.43.28l-.24.07-.09,0-.07.2h-.07a1.31,1.31,0,0,0-.51.14l-.41.16-.24.09H36L35.82,57l-.22-.18a2.32,2.32,0,0,0-.36-.64l-.07-.57,0-.28-.12-.16,0-.69,0-.59,0-.3a.4.4,0,0,0,.07-.19A1,1,0,0,0,35,53c.06-.66.1-1,.1-1.1a.69.69,0,0,0-.19-.43l.19-.1.07-.91-.05-.39.17-.43-.12-.48a1,1,0,0,0,.2-.62v-.8l.07-.19,0-1.17.07-1.16a1.81,1.81,0,0,1-.11-.9l.07-.73-.07-.26.11-1.09.28-.11a.62.62,0,0,1,.18-.07.2.2,0,0,1,.09,0l.12.39.25.21-.18.25v.09a.67.67,0,0,0,.08.29c0,.27-.07.4-.17.4l.07.13a3.7,3.7,0,0,0,.13,1l-.2.62.15.21a1.83,1.83,0,0,0-.27.91.28.28,0,0,0,.21.3l-.16.45a1.14,1.14,0,0,1,.09.29.83.83,0,0,1-.09.31l0,.28L36,49l0,.36a4.06,4.06,0,0,1-.19.76l.11.51-.07.91-.13.09.16.3-.11.45-.09.72.09.17-.09.07a.94.94,0,0,1,.15.58.87.87,0,0,1-.11.28l.11.27-.06.36.11.26-.05.2.26.79.29.11A1.69,1.69,0,0,1,36.9,56L37,56l.33-.28a.89.89,0,0,1,.29-.13.49.49,0,0,1,.41-.23l.12-.13.18,0,0-.11.24-.07.22-.17.23-.07a1.24,1.24,0,0,0,.23-.21,2,2,0,0,1,.37-.29q0-.11.15-.18a.14.14,0,0,0,.1,0A.45.45,0,0,0,40.18,54.11Z"/>
          <path d="M50.59,56.83l-.34.17-.07.21a1.35,1.35,0,0,0-.37.13l-.11-.09-.18.09-.37-.46v-.53L49,56.2l.05-.74-.14-1.53.09-.51-.16-.27L49,53l-.14-.21,0-.22.12-.09,0-.3h.13v-.48l0-.23c-.06,0-.13-.09-.22-.22l-.37.17a1,1,0,0,1-.32.39l0,.26-.27.11-.05.34-.16.12v.18a1,1,0,0,0-.34.42l-.17.1-.36.65-.58.57-.18.32-.51.53-.13.28-.69.48-.77.91-.26.07a1,1,0,0,0-.36.25h-.07c-.14,0-.24-.13-.32-.39-.6-.23-.92-.57-.95-1l.19-.11a3.42,3.42,0,0,1-.19-.94L42,54.89l.08-.13a.56.56,0,0,0,.08-.24,4.6,4.6,0,0,1,.07-.48l.16-.89a.32.32,0,0,1,0-.16.54.54,0,0,1,.07-.27,1.25,1.25,0,0,1,0-.26,1.08,1.08,0,0,1,0-.25l.09,0a.85.85,0,0,0,.2-.46.23.23,0,0,0-.08-.18s-.07-.08-.07-.1,0-.09.13-.11c-.12,0-.18-.08-.18-.16s.08-.11.25-.11v0a.84.84,0,0,1,.14-.48,1,1,0,0,0,.16-.29l-.16,0,.31-.51v-.11a1.24,1.24,0,0,1,.33-.87l0-.43.1-.07a.41.41,0,0,1-.08-.24s0-.07.15-.07v-.38q.12,0,.12-.12a.39.39,0,0,0,0-.13,2.76,2.76,0,0,1,.33-.39,2,2,0,0,0,.34-.47h.07c.18,0,.27,0,.27-.13s0-.07-.08-.11c.33,0,.49-.06.51-.19l.43-.22,1.24.1V46l1,.21H48c.14,0,.22.06.22.2l.12,0a.25.25,0,0,0,.27.21l.11,0,.21.21.51.13v.21a3.29,3.29,0,0,1,.86-.39v.39h-.11l.23.12,0,0,.18.61-.21.24-.09.39A2,2,0,0,1,50,49l.15.3-.14.19a1,1,0,0,0-.11.54.11.11,0,0,1,.07.12l0,.19,0,.17-.07.26L50,51l-.14.16,0,.53-.07.07.07.11-.07.07s0,0,0,.09a.35.35,0,0,1-.07.21l.07.15-.11.21c-.07,0-.1.16-.1.34l.1.31-.23.29a.82.82,0,0,0,.23.32,2.36,2.36,0,0,0-.3.92l.2.05,0,.13s0,.08,0,.16a1,1,0,0,1-.17.48h.15l.07.37.48,0,.16.31s-.07.06-.07.08.08.14.24.24h0s0,0,0,0S50.45,56.72,50.59,56.83Zm-1.23-8.62-.14-.44-.39-.11-.67-.6a.55.55,0,0,0-.24-.1.67.67,0,0,0-.19,0l-.12-.12h-.39l-.11-.15-.27.11-.12-.11-.2.06-.37-.06a2.37,2.37,0,0,0-.85.27l.05.1-.21.07,0,.09-.27,0v.14a2.09,2.09,0,0,0-.55.77,8.66,8.66,0,0,1-.43,1.23l.19.09-.31.27.09.19a1.29,1.29,0,0,0-.21.74v.13l-.17.25v.41a.72.72,0,0,0-.21.44l-.1.09v.43L43,52.6a3.28,3.28,0,0,1-.09.65l.13.29a.86.86,0,0,0-.34.29l.09.19-.14.19.19.48-.21.29,0,.57-.07.27.12.07,0,.17a.69.69,0,0,1,.34.27l.55-.13a.59.59,0,0,1,.53-.38l-.05-.17.38-.1s0,0,.06-.14a.45.45,0,0,1,.21-.24h.05s.07,0,.07-.1l.43-.5h-.09l.25-.23a1.18,1.18,0,0,1,.39-.23l.18-.45a.76.76,0,0,0,.5-.51h.14l.23-.3,0-.2.22,0a.28.28,0,0,1-.05-.12,1.29,1.29,0,0,1,.17-.26c.11-.15.19-.28.26-.38l.1,0a.58.58,0,0,1,.26-.44.54.54,0,0,1,.19-.3.44.44,0,0,1,.2-.11h.16l0-.29a.14.14,0,0,0,.05-.09.17.17,0,0,0-.07-.14,1.4,1.4,0,0,1,.34-.44l.05-.26.16-.13,0-.21a1,1,0,0,0,.18-.43l.21-.21Z"/>
          <path d="M65.52,52.48a.54.54,0,0,0-.25.44c0,.06,0,.14,0,.23l.15.87-.15.94,0,.38-.12.33.07,1.06-.07.15v.85l0,.68.09.24,0,1.58.12.29-.12.14.07.44-.11.11.09.37h-.09l-.05.19v.36l-.12.29,0,.21-.5.89,0,.46-.13,0-.21.28a2.46,2.46,0,0,0-.43.61l-.44.26a.7.7,0,0,1-.69.55s0,0,0,.07,0,.08-.09.08l-.1.09a1,1,0,0,0-.4.28h-.27l-.07.1-.32-.07-.48.31-.28,0-.77.11-.22,0-.11,0-.71-.11h-.18l-.25-.23-.12,0L57.42,66l-.6-.1-.14-.24-.39,0-.16-.41-.22-.07-.33-.46-.34-.16-.32-.46a.72.72,0,0,0-.2-.18l-.37-.21.13-.3-.22-.25,0-.14a1.82,1.82,0,0,0-.16-.62,1.12,1.12,0,0,1,0-.34,1.77,1.77,0,0,1,.09-.48l.1-.27v-.07l.16-.09.06-.12.09,0,.06-.28c0-.11.21-.33.56-.65l.34-.1.58-.5.67.05c.1-.17.2-.25.29-.25s.16.07.16.2a.43.43,0,0,1,0,.12l-.32.14-.21.17a2,2,0,0,1-.55.21l-.16.34h-.34a3.65,3.65,0,0,1-.67.83l0,.46a1.11,1.11,0,0,0-.2.61l-.11.07.52,1.24.48.18.07.28.75.73.29.08a1,1,0,0,1,.3.18l.34.31h.39l.29.28.39,0,.16.15L60,65.75l.19,0v0c0,.09,0,.13.09.13l.06,0a.86.86,0,0,1,.62-.24h.12l.76-.32v.1q.15-.11.15-.15h-.08a.21.21,0,0,1,.15,0,.22.22,0,0,1,.12,0q0-.21.21-.21h.08l0-.14c.11,0,.16-.07.16-.2h0c.08,0,.15-.06.2-.18a.25.25,0,0,1,.21-.19l.07.06a.66.66,0,0,1,.36-.5.84.84,0,0,0,.28-.66H64c.24-.51.42-.92.53-1.22l-.05-.07.05-.61.12-.07v-.55l.09-.16-.21-.27a1.63,1.63,0,0,0,.21-.23,1.83,1.83,0,0,0,0-.19,1.31,1.31,0,0,1,0-.37v-.09l0-1V57l-.11-.27.11-.48,0-.55V54.41l0-.27.09-.26-.09-.22.09-.22,0-.89-.23-.21.23-.22,0-.19,0-.36-.12-.14,0-.29-.16-.28a.73.73,0,0,1-.3.18l-.12.3-.2.11,0,.28-.39.27,0,.12-.19.27-.17,0-.07.11-.36.12V53h-.17l-.07.28-.81.75-.55.62-.3.09-.14.23-.55.5-.22,0-.43.38-.08.22-.21.11h-.2l-.11.22-.26.05L58,57,57.6,57l-.18.17-.48.17-.07.19a1.26,1.26,0,0,1-.55.07c-.35,0-.56-.07-.65-.21l-.48-.82,0-.39-.25-.88v-.77l-.09-.23.15-.59-.11-.38.11-.1L55,53l.17-.36,0-.55.12-.32-.12-.21.24-1.1-.07-.73.07-.64-.21-.89.09-.21-.09-.18.18-.47-.09-.19L55.4,47v-.31l.27,0a1.08,1.08,0,0,0,.32.49l-.08.16.15,0-.07.31.19.34-.07.16.07.39.11.09-.16.37.14.62L56,50l.14.17L56,51v.85l-.11.11-.09,1.25-.26.34,0,.22v.55l.12.33-.12.27.05.41-.1.18.1.22v.29l.25.27.09.28.16,0,0,.14.19-.12.5,0,.17-.39.6-.24,0,.08a.33.33,0,0,1,.18-.29,2.14,2.14,0,0,0,.41-.28,1.49,1.49,0,0,1,.51-.3l0,.13c.08,0,.12-.08.12-.13a.24.24,0,0,0,0-.12c.16,0,.42-.2.78-.54A2.13,2.13,0,0,1,60.71,54l.3-.48,0,.14v-.21a.41.41,0,0,0,.38-.39l.27-.18a.36.36,0,0,0,.23-.34v-.07a2.12,2.12,0,0,1,.61-.32l.05-.19a6.83,6.83,0,0,0,.6-.79,1.11,1.11,0,0,0,.5-.48l.43-.92,0-.55.19-.09v-.46l-.12-.39.07-.35L64,47.77l0-.07a.6.6,0,0,1,.12-.26,1.54,1.54,0,0,0,.16-.31l.09-.07,0-.17a.54.54,0,0,1,.27-.09l.51.5,0,.29v.23a2.17,2.17,0,0,0,.23.46l-.15.15,0,.33,0,.27.2.21-.2,0v.34l-.11.43.11.63,0,.45.07.17,0,.43Z"/>
        </g>
      </g>
    </g>
  </g>
</svg>
