<svg xmlns="http://www.w3.org/2000/svg" width="1040" height="110" viewBox="0 0 1040 110">
  <defs>
    <style>
      .cls-1 {
        fill: #391e62;
      }
    </style>
  </defs>
  <g id="start_screen_title">
    <g>
      <path class="cls-1" d="M43.68,80.18A5.35,5.35,0,0,1,41,75.1q0-3.55,3.64-21.55t3.65-25.69c0-5.12-.51-8.47-1.53-10q11,.6,14.57,6a48.94,48.94,0,0,1,17.77-3q9.94,0,16.3,4t6.36,9.2q0,5.24-5.11,10.42T81.39,52.22l1.42,3A68.75,68.75,0,0,0,94.11,72q7.4,8.3,12.07,11.32a42.78,42.78,0,0,1-8,.76,19.54,19.54,0,0,1-8-1.78,30.66,30.66,0,0,1-6.69-3.9,33.08,33.08,0,0,1-5.92-6.74,82.06,82.06,0,0,1-4.67-7.2q-1.42-2.58-3.1-5.68C68.7,56.67,68.1,55.56,68,55.4a5.62,5.62,0,0,0-.33-.56,3.62,3.62,0,0,1-.33-.65H62.7l-.32-3.48q13.8-.37,20.54-6.9c2.46-2.42,3.69-4.9,3.69-7.42a9.1,9.1,0,0,0-.43-2.8q-1.86-4.94-8.81-6.14a30.28,30.28,0,0,0-5.43-.38,36.72,36.72,0,0,0-9.24,1.59q0,2.88-3.1,18.83T56.51,74.12a32.37,32.37,0,0,0,.65,7.42c-2.32.1-3.84.15-4.57.15Q46.4,81.69,43.68,80.18Z"/>
      <path class="cls-1" d="M137.8,61.77a62.52,62.52,0,0,1-10.21-.83,16.7,16.7,0,0,0-.11,2.34q0,6.3,3.37,9.47a11.25,11.25,0,0,0,8,3.19,21,21,0,0,0,8.91-2,22.82,22.82,0,0,0,7.39-5.46q3.92.61,3.91,2.8-9.56,10.23-24.67,10.23a26.82,26.82,0,0,1-16-4.88,15.76,15.76,0,0,1-6.85-13.6,23.38,23.38,0,0,1,3.58-12.39q3.6-5.87,11.42-9.93a37.1,37.1,0,0,1,17.33-4.05q9.51,0,14,3a9.23,9.23,0,0,1,4.45,8q0,7.13-7.11,10.6T137.8,61.77Zm4.57-20.38A11.54,11.54,0,0,0,133,46.16a25.23,25.23,0,0,0-5,11.59h1.63q9.45,0,14-3.41t4.51-8.18a4.5,4.5,0,0,0-1.47-3.37A6,6,0,0,0,142.37,41.39Z"/>
      <path class="cls-1" d="M197.9,41.16a10.56,10.56,0,0,0-5.43,1.4,4.4,4.4,0,0,0-2.39,4,6.52,6.52,0,0,0,2.55,4.85,25.49,25.49,0,0,0,6.25,4c2.47,1.13,5,2.3,7.45,3.48a25.86,25.86,0,0,1,6.57,4.4A9,9,0,0,1,216.05,69q0,5.46-6.73,9.17t-16.74,3.71q-10,0-15.71-2.8t-5.7-6.44a6.85,6.85,0,0,1,3.2-5.87,13.64,13.64,0,0,1,8-2.24,17.14,17.14,0,0,1,4.68.61c-2.32,1.72-3.48,3.53-3.48,5.45a5.52,5.52,0,0,0,2.28,4.62A9.93,9.93,0,0,0,192,77a13.94,13.94,0,0,0,6.57-1.41c1.78-.93,2.66-2.14,2.66-3.63a5.34,5.34,0,0,0-1.84-4,18.48,18.48,0,0,0-4.62-3.07q-2.77-1.32-6-3t-6-3.37a15.64,15.64,0,0,1-4.62-4.32,9.7,9.7,0,0,1-1.84-5.72q0-5.38,6.35-8.83t15.87-3.44q9.51,0,13.91,2.57t4.41,6a7.27,7.27,0,0,1-3.1,5.87,12.63,12.63,0,0,1-8,2.42,25.36,25.36,0,0,1-5.43-.68,12,12,0,0,0,3.69-3.3,6.34,6.34,0,0,0,1.3-3.67,3.59,3.59,0,0,0-2.17-3.07A10.34,10.34,0,0,0,197.9,41.16Z"/>
      <path class="cls-1" d="M242.57,63.28q0,12.66,10.65,12.66a19.76,19.76,0,0,0,8.37-2A22.82,22.82,0,0,0,269,68.51q3.91.61,3.92,2.8a25.18,25.18,0,0,1-11.2,7.88,39.38,39.38,0,0,1-13.26,2.35A24.91,24.91,0,0,1,233.28,77Q227,72.37,227,63.66q0-11.13,8.8-19t23.81-7.92q8.37,0,12.6,2.84c2.83,1.9,4.24,4.14,4.24,6.75a8.63,8.63,0,0,1-3.42,6.78,13.12,13.12,0,0,1-8.75,2.87,18.82,18.82,0,0,1-5.22-.75,12.17,12.17,0,0,0,3.05-4.06A11.33,11.33,0,0,0,263.55,46q0-4.62-5.76-4.62-6.74,0-11,6.89A28.18,28.18,0,0,0,242.57,63.28Z"/>
      <path class="cls-1" d="M328.11,36.54q5.65,0,8.58,1.44t2.94,5.3a107.7,107.7,0,0,1-2.07,10.65A77.85,77.85,0,0,0,335.5,70.1,32,32,0,0,0,337.56,82c-5.43-1.22-9.2-2.93-11.3-5.16a11.54,11.54,0,0,1-3.15-8.25A66.55,66.55,0,0,1,324.3,60,35.76,35.76,0,0,1,314,74.53q-6.9,5.88-13,5.88-12.51,0-12.5-12.58a53.15,53.15,0,0,1,1.79-11.63,52.65,52.65,0,0,0,1.79-11.33,21.44,21.44,0,0,0-1.52-7.8q9,0,13.1,1.63c2.72,1.09,4.07,3.25,4.07,6.48q0,2.57-2.28,10.22c-1.52,5.11-2.28,8.94-2.28,11.52q0,5.61,4.35,5.61a8.86,8.86,0,0,0,5-2.09A27.21,27.21,0,0,0,318,64.91a30.84,30.84,0,0,0,4.4-8.63,32,32,0,0,0,1.8-10.54,52.75,52.75,0,0,0-.66-9.05C325.72,36.59,327.24,36.54,328.11,36.54Z"/>
      <path class="cls-1" d="M378.32,61.77a62.74,62.74,0,0,1-10.22-.83,18.88,18.88,0,0,0-.1,2.34q0,6.3,3.36,9.47a11.29,11.29,0,0,0,8.05,3.19,21,21,0,0,0,8.91-2,22.92,22.92,0,0,0,7.39-5.46q3.92.61,3.91,2.8Q390.07,81.54,375,81.54a26.85,26.85,0,0,1-16-4.88,15.78,15.78,0,0,1-6.84-13.6,23.38,23.38,0,0,1,3.58-12.39q3.59-5.87,11.42-9.93a37.1,37.1,0,0,1,17.33-4.05q9.51,0,14,3a9.23,9.23,0,0,1,4.45,8q0,7.13-7.12,10.6T378.32,61.77Zm4.57-20.38a11.54,11.54,0,0,0-9.35,4.77,25.23,25.23,0,0,0-5,11.59h1.63q9.45,0,14-3.41t4.5-8.18a4.49,4.49,0,0,0-1.46-3.37A6,6,0,0,0,382.89,41.39Z"/>
      <path class="cls-1" d="M446.46,21.24a250.91,250.91,0,0,0,28.15,1.36A228.5,228.5,0,0,0,509,19.87q-1.84,9.63-14,10.53-3.81.39-11.74.76-.22,2.21-3.59,19.21t-3.37,23.44q0,6.45,1.53,8.94-9.24-1.66-12.61-4.43a8.52,8.52,0,0,1-3.37-6.85q0-4.09,2.77-17.77a174.48,174.48,0,0,0,3.32-22q-8.81.3-17.29.3-5,0-5-6.21A15.46,15.46,0,0,1,446.46,21.24Z"/>
      <path class="cls-1" d="M536.24,42.56q7.6-5.87,14.18-5.87t9.35,2.77a10.1,10.1,0,0,1,2.77,7.5,59.71,59.71,0,0,1-2.12,13.29q-2.11,8.56-2.12,12.47t1.41,5.68a11,11,0,0,0,4.79,3.07c-1,0-2.29.07-4,.07q-9.12,0-13-2c-2.58-1.31-3.86-3.61-3.86-6.89q0-2.81,2.17-11T548,49.57q0-5-4.35-5a10.77,10.77,0,0,0-5.76,2,26.71,26.71,0,0,0-6,5.56A30,30,0,0,0,527,61.24a33,33,0,0,0-2,11,36.74,36.74,0,0,0,.66,8.15c-2.32.1-3.85.15-4.57.15q-6.2,0-8.91-1.48a5,5,0,0,1-2.72-4.74q0-3.25,1.85-12.42,5.86-28.18,5.87-42.81,0-6.58-1.31-8.86,8.16,1.52,11.14,4.58c2,2,3,4.94,3,8.68q0,3.78-2.12,15.91T525,57A35.23,35.23,0,0,1,536.24,42.56Z"/>
      <path class="cls-1" d="M601.56,61.77a62.65,62.65,0,0,1-10.22-.83,18.43,18.43,0,0,0-.11,2.34q0,6.3,3.37,9.47a11.29,11.29,0,0,0,8,3.19,20.91,20.91,0,0,0,8.91-2,23,23,0,0,0,7.4-5.46c2.6.41,3.91,1.34,3.91,2.8q-9.57,10.23-24.67,10.23a26.85,26.85,0,0,1-16-4.88,15.79,15.79,0,0,1-6.85-13.6A23.39,23.39,0,0,1,579,50.67q3.59-5.87,11.41-9.93a37.17,37.17,0,0,1,17.34-4.05q9.51,0,14,3a9.24,9.24,0,0,1,4.46,8q0,7.13-7.12,10.6T601.56,61.77Zm4.56-20.38a11.57,11.57,0,0,0-9.35,4.77,25.34,25.34,0,0,0-5,11.59h1.63q9.47,0,14-3.41t4.51-8.18a4.5,4.5,0,0,0-1.47-3.37A6,6,0,0,0,606.12,41.39Z"/>
      <path class="cls-1" d="M695.24,23.32a5.5,5.5,0,0,1,1,2.31,29.51,29.51,0,0,1,.17,3.86q0,2.81-2.72,15.76l-1,4.4a209.38,209.38,0,0,0,24.78-16.33q10.11-7.92,14.24-13.45,3.59,4.39,3.59,8.6t-6.14,8.6a157.55,157.55,0,0,1-18.53,10.76q7.61,16.74,17.06,25.91A102.59,102.59,0,0,0,738,82.15a44,44,0,0,1-8.05.76,21.71,21.71,0,0,1-8.26-1.75,29.2,29.2,0,0,1-7.33-4.24A40.74,40.74,0,0,1,708,70.25a127.33,127.33,0,0,1-10.11-16.13q-3,1.59-6.63,3.25a109.89,109.89,0,0,0-2,17.09c0,3.86.51,6.63,1.53,8.29q-9.24-1.66-12.61-4.43a9.38,9.38,0,0,1-3.37-7.69q0-2.88,2.28-14.62,4-19.47,4-30.15a59.83,59.83,0,0,0-.43-6.22q8.25.32,12.06,1.82A5.16,5.16,0,0,1,695.24,23.32Z"/>
      <path class="cls-1" d="M749,68a67.59,67.59,0,0,1,1.74-11.51,68.13,68.13,0,0,0,1.74-13,29.43,29.43,0,0,0-.66-7.12c1.6-.1,3.08-.15,4.46-.15q6.3,0,8.75,1.47t2.44,5q0,1.14-2.66,11.93a79.94,79.94,0,0,0-2.71,17.81q-.06,7,1.25,9.05Q754.9,80,752,77T749,68Zm14.78-38.11q-11.19,0-11.19-5.45A13.55,13.55,0,0,1,754.26,19c2-.2,3.8-.3,5.32-.3q11.19,0,11.2,5.45a13.72,13.72,0,0,1-1.63,5.38C767.12,29.77,765.34,29.87,763.82,29.87Z"/>
      <path class="cls-1" d="M802.19,54.27q-1.74,6.73-2.72,12a58,58,0,0,0-1,10.68q0,5.46,1.52,7.8-8.37-1.52-11.52-4.65t-3.15-8.91a59.41,59.41,0,0,1,2.28-13.9q2.28-8.82,2.94-11.93A69.69,69.69,0,0,0,778.49,48a21.84,21.84,0,0,1-.21-2.5A5.44,5.44,0,0,1,781.75,40c2.32-1,5.66-1.51,10-1.56a69.26,69.26,0,0,0,.76-8.18c0-1.67,0-3.05,0-4.17s-.06-1.94-.06-2.5q7.19.54,10.44,3a8.26,8.26,0,0,1,3.26,7,33.14,33.14,0,0,1-.54,5.07q9.12-.15,13.36-2.5a16.83,16.83,0,0,1,.22,2.27q0,3.65-1.85,5c-1.23.94-3.29,1.4-6.19,1.4s-5.11,0-6.63-.07C804.11,46.62,803.35,49.77,802.19,54.27Z"/>
      <path class="cls-1" d="M844.14,54.27q-1.74,6.73-2.72,12a58,58,0,0,0-1,10.68q0,5.46,1.52,7.8-8.37-1.52-11.52-4.65t-3.15-8.91a59.41,59.41,0,0,1,2.28-13.9c1.53-5.88,2.5-9.86,2.94-11.93A69.69,69.69,0,0,0,820.44,48a21.84,21.84,0,0,1-.21-2.5A5.44,5.44,0,0,1,823.71,40c2.31-1,5.65-1.51,10-1.56a69.85,69.85,0,0,0,.77-8.18c0-1.67,0-3.05-.06-4.17s0-1.94,0-2.5q7.17.54,10.43,3a8.26,8.26,0,0,1,3.26,7,33.14,33.14,0,0,1-.54,5.07q9.12-.15,13.37-2.5a18.21,18.21,0,0,1,.21,2.27q0,3.65-1.84,5c-1.24.94-3.3,1.4-6.2,1.4s-5.11,0-6.63-.07C846.06,46.62,845.3,49.77,844.14,54.27Z"/>
      <path class="cls-1" d="M890,61.77a62.74,62.74,0,0,1-10.22-.83,18.88,18.88,0,0,0-.1,2.34q0,6.3,3.37,9.47a11.25,11.25,0,0,0,8,3.19A21,21,0,0,0,900,74a22.82,22.82,0,0,0,7.39-5.46q3.92.61,3.91,2.8-9.56,10.23-24.67,10.23a26.87,26.87,0,0,1-16-4.88,15.78,15.78,0,0,1-6.84-13.6,23.38,23.38,0,0,1,3.58-12.39q3.6-5.87,11.42-9.93a37.1,37.1,0,0,1,17.33-4.05q9.51,0,14,3a9.23,9.23,0,0,1,4.45,8q0,7.13-7.12,10.6T890,61.77Zm4.57-20.38a11.54,11.54,0,0,0-9.35,4.77,25.23,25.23,0,0,0-5,11.59h1.63q9.45,0,14-3.41t4.51-8.18a4.5,4.5,0,0,0-1.47-3.37A6,6,0,0,0,894.57,41.39Z"/>
      <path class="cls-1" d="M967.93,36.69q6.41,0,9.18,2.77a10.1,10.1,0,0,1,2.77,7.5,59.13,59.13,0,0,1-2.12,13.29q-2.12,8.56-2.12,12.47c0,2.6.48,4.49,1.42,5.68a10.94,10.94,0,0,0,4.78,3.07c-.94,0-2.28.07-4,.07q-9.14,0-13-2T961,72.68q0-2.81,2.18-11t2.17-12.16q0-5-4.35-5a10.65,10.65,0,0,0-5.65,2,27.79,27.79,0,0,0-6.09,5.56,29.56,29.56,0,0,0-4.89,9.06,33,33,0,0,0-2,11,36.87,36.87,0,0,0,.65,8.15c-2.32.1-3.84.15-4.57.15-4.12,0-7.1-.51-8.91-1.52a5.27,5.27,0,0,1-2.71-5q0-1.52,2.28-11.67a78.06,78.06,0,0,0,2.28-16.17,32.24,32.24,0,0,0-1.85-11.1q7.94,1.74,11.09,5a10.24,10.24,0,0,1,3.15,7.35A41.86,41.86,0,0,1,942.5,57a35.14,35.14,0,0,1,11.3-14.4Q961.51,36.69,967.93,36.69Z"/>
    </g>
  </g>
</svg>
