<svg xmlns="http://www.w3.org/2000/svg" width="100" height="50" viewBox="0 0 100 50">
  <defs>
    <style>
      .cls-1 {
        fill: #a31f00;
      }
    </style>
  </defs>
  <g id="waterdrop">
    <g>
      <g>
        <rect x="16.62" y="8.63" width="3.74" height="32.27" rx="1.48" transform="translate(-6.27 43.26) rotate(-90)"/>
        <rect x="16.73" y="8.46" width="3.8" height="32.27" rx="1.5"/>
      </g>
      <path class="cls-1" d="M93.66,25.63l-22.5,22.5,0,0-.22.22L48.41,25.83a13.6,13.6,0,0,1,0-19.23l.76-.75a13.59,13.59,0,0,1,19.22,0L70.94,8.4l2.74-2.74a13.59,13.59,0,0,1,19.22,0l.76.75A13.6,13.6,0,0,1,93.66,25.63Z"/>
    </g>
  </g>
</svg>
