<svg xmlns="http://www.w3.org/2000/svg" width="790" height="80" viewBox="0 0 790 80">
  <defs>
    <style>
      .cls-1 {
        fill: #1e1e3f;
      }
    </style>
  </defs>
  <g id="UI_timebar_foreground">
    <g>
      <path class="cls-1" d="M767.86,65.43h-548a20,20,0,0,1-20-20v-16a20,20,0,0,1,20-20h548a20,20,0,0,1,20,20v16A20,20,0,0,1,767.86,65.43Zm-548-49a13,13,0,0,0-13,13v16a13,13,0,0,0,13,13h548a13,13,0,0,0,13-13v-16a13,13,0,0,0-13-13Z"/>
      <g>
        <path class="cls-1" d="M54.13,19.14l-.39.73-1,.13h-2.4l-1.12.24L48.28,20l-4.93.37L41.69,20a10.6,10.6,0,0,1-2.95.7H36.37l-1.43-.46c0,.22-.19.37-.58.46a8.25,8.25,0,0,0-2.11.27,7.6,7.6,0,0,1-1.92.26l-1.59-.53-1.36.53-.15.44h-.7l-.43.66-.31,4.43.31.63-.15.73.07,2-.23,2v.6a.91.91,0,0,1-.21.65,2.16,2.16,0,0,0-.33,1.08l.62.87-.16,1.09-.54.34a2,2,0,0,0,.47,1l-.47.66v.77l-.62.8.39,1.93-.16,2.79-.58,1.77a1,1,0,0,1,.16.39.94.94,0,0,1-.14.45.59.59,0,0,0,0,.5,1.14,1.14,0,0,1,.1.42,2.61,2.61,0,0,1-.39.88c-.26.46-.35.74-.27.85A8.83,8.83,0,0,1,23.89,51a3.86,3.86,0,0,0-.39,1.37,12.36,12.36,0,0,0,.16,1.5,3,3,0,0,1-.83-.11l-.45-.09c-.41,0-.62-.66-.62-2l.15-1a12.59,12.59,0,0,0-.15-1.63,13,13,0,0,1-.16-1.56l.47-4.79a5.9,5.9,0,0,1-.62-1,.77.77,0,0,1,.39-.64.92.92,0,0,1-.31-.59c0-.14.15-.27.46-.4a2.79,2.79,0,0,1-.31-.9,2.6,2.6,0,0,1,.27-1,3.47,3.47,0,0,0,.27-.72l-.07-1.1a6.55,6.55,0,0,1,.73-1.49q-.66,0-.66-.9c0-1,.16-1.63.47-1.77V29.42l-.47-1.36.47-2.87-.47-2,.47-1.59c-.21-.62-.57-.93-1.09-.93a1,1,0,0,0-.73.33l-1.13.1a3,3,0,0,0-1.24.36l-1-.06-.93.06v.24h-.66a4.5,4.5,0,0,1-2.13-.44l-.15.44L12,21.23,7.38,21.1l-1.83.47c-1.37-1-2-1.7-2-2a7,7,0,0,1,.31-1.1H5.09l5.62,1,1.36-.4,3.72.14,3.49.26,2.32-.76h.62l.66-1.56,1.09.29.23.67.51-.2A4.54,4.54,0,0,0,26.53,19l1.28-.36a3.07,3.07,0,0,1,2.21.9l.46-.54,2.95-.49,1.82.13a4,4,0,0,0,1.44.3h.38a4,4,0,0,1,1.2-.23l1.13.16a.46.46,0,0,0,.46-.23l1.59-.2,1.82.37a1.12,1.12,0,0,0,1.11.11,4.35,4.35,0,0,1,.95-.21l1.43.23,4-.07,1.74.27Z"/>
        <path class="cls-1" d="M64.21,8.86A2.72,2.72,0,0,1,62.85,10v.43l-.7.67a1,1,0,0,1-.62.4,1.39,1.39,0,0,1-.42-.14L59,13.55l-.55.73-1.9.5-1,1.23-.89.33a8.36,8.36,0,0,0-1.74,1.3l-.47-.27-.07-.83,1.82-.7c.26-1.11.58-1.73,1-1.88s.6-.23.6-.28v-.26l.38-.2.16.06.19-.5h.31l-.31-.6h1.24v-1l.58-.13.39-.54.62-.2.58-.89c.21,0,.37-.14.47-.4h.47l.07-.7a2.25,2.25,0,0,0,1-1.37A2.94,2.94,0,0,1,64.21,8.86Zm7.87,34.27-.16.66-.73.47-.31.83-1.09.27a3.24,3.24,0,0,1-1.12,1.69l-1,.3-.85.8a6.9,6.9,0,0,0-1.36,1.23H65a2.42,2.42,0,0,1-1.75.77c-.57.6-.89,1-1,1.06a4.28,4.28,0,0,1-1.49.49q-.91.15-1.14.21l-.31.4H58l-.7.47-2-1.27-1.12-2.19-.16-3.53-.23-.7.78-5.59.5-.33-.23-3.5a3.29,3.29,0,0,1,.21-1.18A9.68,9.68,0,0,0,55.49,33l.31-.17a3.75,3.75,0,0,0-.55-1.89l.31-.9V28.75l.39-.43a7.7,7.7,0,0,0-.27-1.08,5.37,5.37,0,0,1-.19-.68c0-.36.1-.53.31-.53a.24.24,0,0,0,.15.06,4.44,4.44,0,0,1-.54-1.36c0-.33.18-.5.54-.5a1.46,1.46,0,0,1,.53.18,1.42,1.42,0,0,0,.6.18,1.33,1.33,0,0,0,.38-.13A.49.49,0,0,1,58,23.9c.31,0,.48.05.52.15a10.06,10.06,0,0,1,.21,1.28l.86.33-.7.76-.82,4.36.66,1.1a1.57,1.57,0,0,1-.73,1.3l-.24.86.24.77-.93,2.79.07.34-.38,2.26v1.63l-.59,1.1.16.93-.16,1.56a6.25,6.25,0,0,0,.66,3.06l-.07.37.69.4.82-.2.93.33,1.12-.46a3.85,3.85,0,0,1,1.36-.5l.54-.47.16.2.46-.53.82-.2a5.12,5.12,0,0,1,2-.9A1.46,1.46,0,0,1,66.77,46l.46-.63.89-.07-.19-.73h.35l.16-.37,1.66-.73.16-.83,1.51.07A2.28,2.28,0,0,1,72.08,43.13Z"/>
        <path class="cls-1" d="M140.23,46.32l-.42.53-.55.14a1.19,1.19,0,0,1-.52,1c-.35.24-.52.43-.52.56v.14l-.24.13a2,2,0,0,1-.83.82,2.41,2.41,0,0,1-.76.35l-.69-.1-.08.69a3.75,3.75,0,0,1-.74.54l-1-.14a3.77,3.77,0,0,1-1.74.44,23.58,23.58,0,0,1-2.64-.3.72.72,0,0,0-.54-.34,1.56,1.56,0,0,0-.66.2,2.3,2.3,0,0,0-1.24-.93l.16-.5a1.31,1.31,0,0,1-.9-1.36l.08-.6-.93-.63-.5-2-.7-1.1v-.47l-.54-2.19.07-.87-.58-2.39-.07-1,.15-2.1L123,32.15l-1,1-1.66,2.5-.7,1.43a4.27,4.27,0,0,0-2,2.19q-.81,0-.81,1.5a6.14,6.14,0,0,0-.82,1l-.56.82a1.93,1.93,0,0,0-.21.33V43a4.48,4.48,0,0,0-1.67,2.3,4.71,4.71,0,0,0-.77,1,15,15,0,0,1-2.06,2.33,2.26,2.26,0,0,0-1.2,1.23,1.32,1.32,0,0,1-.83.77.65.65,0,0,0-.53.7v.3a8.48,8.48,0,0,0-2.36.66,1.09,1.09,0,0,1-1-.8l-.16-1-.46-.83v-.8l-.66-2.27a1.26,1.26,0,0,0,.08-.46,1.8,1.8,0,0,0-.39-.9l.31-2.3-.31-.49.31-1.1-.16-.6v-.47l-.31-.63.55-1-.39-2.13.15-.6.24-2.52-.55-1.57.16-1.23-.39-1c-.49-1.05-.79-1.73-.91-2.05s-.29-.48-.52-.48a.47.47,0,0,0-.31-.07,8.55,8.55,0,0,0-2,1L98,29.35l-1,.83-2.14,2.5-.15.77-1.28,1.23L92.9,36a2.67,2.67,0,0,0-.76,1.17q-.28.8-.66.9a3.76,3.76,0,0,0-1,.5l-.07,1.23a6.72,6.72,0,0,0-.7,1.06,3.35,3.35,0,0,1-.85,1,2.42,2.42,0,0,0-.74,1.4c-.6,0-.89.31-.89.93a.87.87,0,0,1-.86.7,2.83,2.83,0,0,0-.31,1v.2c-.64.46-1,.75-1,.86a.63.63,0,0,0,.24.43,2.83,2.83,0,0,0-1.4,1.27,3.51,3.51,0,0,1-.81,1.1V50a.73.73,0,0,1-.31.66,12.21,12.21,0,0,0-1.07.85,2.16,2.16,0,0,1-1.26.65c-.39,0-.67-.52-.85-1.57a.8.8,0,0,0,.08-.4,1,1,0,0,0-.55-.89v-1a2.15,2.15,0,0,1,.31-1.06l-.38-1.5.07-1.1-.07-1.16v-.27a1.48,1.48,0,0,1,.38-1.1l.16-.53a8.18,8.18,0,0,0-.12-1,8.44,8.44,0,0,1-.11-.9V38.6a2.34,2.34,0,0,1,.69-1.06l-.62-.7c.21-.16.28-.32.2-.48a1,1,0,0,1-.12-.39,1.94,1.94,0,0,1,.41-.81A3.14,3.14,0,0,0,80.49,34L80,32.68l.23-.67-.46-2.32.23-.94-.47-1.86.16-1.23-.54-1.07Q79.91,23,80.69,23l.31.13.23.94c.67.13,1,.49,1,1.09l-.16,1.43q0,.43.66.54A2.93,2.93,0,0,0,82,28.59v.23l.43,3.46-.19,2.6-.31.73.31.83-.24.33.35.5a1.06,1.06,0,0,0-.58.87l.16.56a.91.91,0,0,1-.47.8l.31,1.9-.31.7a1.81,1.81,0,0,0-.21,1.23,3,3,0,0,1,.13.73c0,.29,0,.48-.15.56a4.4,4.4,0,0,1,.39.74,1.24,1.24,0,0,1-.39.7l.77.46,1.52-1.7.31-1a1.76,1.76,0,0,0,.69-.58,2.68,2.68,0,0,0,.39-.82,4.84,4.84,0,0,1,.93-1.4c.1,0,.27-.11.49-.33a9.85,9.85,0,0,0,.81-1,9.24,9.24,0,0,1,1.14-1.23,2.75,2.75,0,0,1,.37-.69,4.3,4.3,0,0,1,.51-.58,4.21,4.21,0,0,0,.64-1.36l.89-1.37.11-.5a4.11,4.11,0,0,1,.78-.89l1.47-1.34c.18,0,.49-.39.93-1.19a5.93,5.93,0,0,1,1.48-1.85c.54-.43.82-.8.85-1.11.46-.07.7-.28.7-.64a1.31,1.31,0,0,0,1-.93l.23.07c.26,0,.55-.43.89-1.3a3.56,3.56,0,0,1,1.67-.9l1.9.4a1,1,0,0,1,.15.43.91.91,0,0,1-.15.4l.54.14A4.92,4.92,0,0,0,104.33,27v1.1l.7.7v.87a5.85,5.85,0,0,1,.89,2.66l-.31,1.1.31,1-.73.73.42,2.13a4.53,4.53,0,0,0-.27,1.63l.27,1.83-.19.6.19.7-.27.27a14.46,14.46,0,0,1,.58,3.69l-.15.53-.35.27a2.46,2.46,0,0,1,.58,1.56l1.36.37L111,44.89a4.2,4.2,0,0,0,.72-1.15,13.76,13.76,0,0,1,.87-1.51c.29,0,.49-.33.6-1s.42-1,.91-1.12a1.18,1.18,0,0,1,.16-.71,5.5,5.5,0,0,1,1.35-.88V38.4c0-.62.51-1.27,1.52-2a6.32,6.32,0,0,1,1-1.9,7.12,7.12,0,0,0,1.39-1.46l.81-1.33a5.47,5.47,0,0,0,.74-1.57c.85-.26,1.57-1.15,2.13-2.66.6-.13,1-.61,1.21-1.43l1.27-.5,1.09.5-.39.33.55.47c-.42.13-.63.3-.63.5s.13.35.39.47l-.54.89-.47,3.13a1.27,1.27,0,0,1,.55.47,3.7,3.7,0,0,0-.62,2.33l.07,1.23-.15.46.23.9a2,2,0,0,1-.29.28.53.53,0,0,0-.21.39,1.3,1.3,0,0,0,.27.6c.31.08.46.38.46.89a.51.51,0,0,1-.23.4.56.56,0,0,1,.16.37,1,1,0,0,1-.24.4,6.21,6.21,0,0,0,.74,2.76,10.36,10.36,0,0,1,.62,2.43l1,.47.39,1.49a2.14,2.14,0,0,1,1.12.9l1,.33,1.16.2a5,5,0,0,0,.9.14,3.69,3.69,0,0,0,1.12-.24,5.51,5.51,0,0,0,1.12-.48,11.45,11.45,0,0,1,1.48-.65,10.56,10.56,0,0,0,1.2-1.63l1-.4.47-.7,1.09.07C140.12,45.91,140.15,46.26,140.23,46.32Z"/>
        <path class="cls-1" d="M166.94,46a2.3,2.3,0,0,1,.58,1.13,2.83,2.83,0,0,1-.71,1.13,7,7,0,0,0-1.11,1.83l-.58.07-.85,1.43-1,.13-2.13,1.23-.39.74-.66-.07-.7.7H158.3l-.24.33-.54-.07a2,2,0,0,0-1.51.67l-.5-.33a3.8,3.8,0,0,1-1.32.33,2.77,2.77,0,0,1-1.44-.33,7,7,0,0,1-1,.06l-.47-.33a3.78,3.78,0,0,1-2.87-1v-.83l-1.28-.6-.31-.7a2.85,2.85,0,0,0-.85-.87v-.53L145,46.85l.15-2.29.31-1.3V41.83l.43-1.23-.15-.9a1.33,1.33,0,0,0,.54-.75,3.81,3.81,0,0,1,.46-1c-.1-.4-.2-1-.31-1.7l.7-.5-.7-.66a2.75,2.75,0,0,0,.55-1l-.39-2a4.65,4.65,0,0,1,.23-1.43,1.33,1.33,0,0,0,1,.6,10,10,0,0,0,1.51-.27,1.3,1.3,0,0,1-.08-.46c0-.31.21-.59.62-.83a12.09,12.09,0,0,1,1.75-3.13,1.56,1.56,0,0,0,.73-1.37h.39l.39-.66.46-.17a2.78,2.78,0,0,1,.82-1,5,5,0,0,0,2.13-1.56,2.11,2.11,0,0,0,.66.07c.08,0,.28-.26.62-.77.9-.27,1.38-.4,1.43-.4a.94.94,0,0,1,.7.4l.74-.13.39.26h.46a1.58,1.58,0,0,0,1.59,1.1h.23a1.09,1.09,0,0,0,.51.7l-.35.13c.9.38,1.36,1.26,1.36,2.63l-.24.77.24,1.89-.39.3-.89,2-1.59,1.7-.08,1a24.36,24.36,0,0,1-4.65,2.72.53.53,0,0,1-.51.4,2.77,2.77,0,0,1-.62-.13l-1.74,1h-1.05l-1.51.6-.66-.33a6.84,6.84,0,0,0-1.63-.27,3.06,3.06,0,0,0-1.2,2.5l-.54.56a6.66,6.66,0,0,1-.39,1.77l-.43.2.43,2.46-.43.33.08.77-.08.93a11.1,11.1,0,0,0,.2,1.26c.13.69.33,1.09.62,1.2-.13.31.12.69.75,1.13a6.26,6.26,0,0,0,2,.93v.4l2.05.27,2.95.13,2-.2a9,9,0,0,1,1.74-.9l.62-.8h.74l.08-.33a7.82,7.82,0,0,0,1.88-.68.55.55,0,0,0,.17-.35.76.76,0,0,1,.7-.4l.23-.43a2.4,2.4,0,0,0,2.17-2A1.59,1.59,0,0,1,166.94,46Zm-6.51-15.54c.21,0,.56-.3,1-.83l.23-.8A13.36,13.36,0,0,0,162.83,27a2.39,2.39,0,0,0,.16-.95,6.8,6.8,0,0,0-.54-2l-1.59-.47a4.9,4.9,0,0,1-.82.13l-.46-.13a.84.84,0,0,0-.82.6,7.46,7.46,0,0,0-2.13.5l-.23.46a.89.89,0,0,0-.31-.06.78.78,0,0,0-.22,0,.59.59,0,0,0-.17.1,1.06,1.06,0,0,0-.15.15.69.69,0,0,0-.14.22c0,.08-.08.18-.12.28l-.11.3a2.57,2.57,0,0,1-.49.58l-.58.6L153,29.22l-.59.43a1.49,1.49,0,0,0-.42.87,13.73,13.73,0,0,1-2.09,3.19l.54.27.27.56,1.32.34a7,7,0,0,1,2.4-.9l.23-.4a2.33,2.33,0,0,0,.62.13,1,1,0,0,0,.74-.4l.93-.13.58-.83h.54l.39-.73a2.92,2.92,0,0,0,2-.84Z"/>
      </g>
    </g>
  </g>
</svg>
