<svg xmlns="http://www.w3.org/2000/svg" width="125" height="125" viewBox="0 0 125 125">
  <defs>
    <style>
      .cls-1 {
        fill: #3bccff;
      }

      .cls-2 {
        fill: #4a97f4;
      }
    </style>
  </defs>
  <g id="waterdrop">
    <g>
      <path class="cls-1" d="M106.9,79.39a44.58,44.58,0,0,1-44,44.57,1.58,1.58,0,0,1-.38,0h0A44.57,44.57,0,0,1,18.1,79.43c0-15.48,9.68-30.51,17.45-42.59,7.29-11.33,15.91-24.35,25.9-35.29A1.69,1.69,0,0,1,62.7,1h.14a1.7,1.7,0,0,1,1.28.77c3.83,5.81,8.49,11.75,13.42,18,7,9,14.26,18.21,19.84,28.05C103.79,59.16,106.9,69.47,106.9,79.39Z"/>
      <path class="cls-2" d="M61.63,106.9c1.38.92,5,4.76,2.67,6.07-1.17.66-2.92.48-4.24.37a33.29,33.29,0,0,1-5.23-.68,19.52,19.52,0,0,1-4.76-2.1,50.44,50.44,0,0,1-4.33-2.63,52.15,52.15,0,0,1-9-7.61c-6.35-6.79-10.41-15.42-10.69-24.5a10.38,10.38,0,0,1,1.88-6.88A6.12,6.12,0,0,1,30,66.85a3.17,3.17,0,0,1,2.23-.3c2.28.52,1.63,3.06,1.81,4.88a33.35,33.35,0,0,0,1.28,6.36,36.92,36.92,0,0,0,6.19,11.62C47,96.51,54.34,102,61.63,106.9Z"/>
    </g>
  </g>
</svg>
